<svg width="1918" height="1020" viewBox="0 0 1918 1020" fill="none" xmlns="http://www.w3.org/2000/svg">
<path d="M1028.72 71.5607L1137.77 0V521.371H1028.72V71.5607Z" fill="#F6F6F6"/>
<path d="M1137.77 0L1219.55 24.3338V517.963H1137.77V0Z" fill="#F0F0F0"/>
<rect x="1049.17" y="102.23" width="20.4459" height="13.6306" fill="#C4C4C4"/>
<rect x="1090.06" y="102.23" width="20.4459" height="13.6306" fill="#C4C4C4"/>
<rect x="1090.06" y="136.306" width="20.4459" height="13.6306" fill="#C4C4C4"/>
<rect x="1049.17" y="136.306" width="20.4459" height="13.6306" fill="#C4C4C4"/>
<rect x="1049.17" y="170.383" width="20.4459" height="13.6306" fill="#C4C4C4"/>
<rect x="1090.06" y="170.383" width="20.4459" height="13.6306" fill="#C4C4C4"/>
<rect x="1090.06" y="204.459" width="20.4459" height="13.6306" fill="#C4C4C4"/>
<rect x="1049.17" y="204.459" width="20.4459" height="13.6306" fill="#C4C4C4"/>
<rect x="1049.17" y="238.536" width="20.4459" height="13.6306" fill="#C4C4C4"/>
<rect x="1090.06" y="238.536" width="20.4459" height="13.6306" fill="#C4C4C4"/>
<rect x="1090.06" y="272.612" width="20.4459" height="13.6306" fill="#C4C4C4"/>
<rect x="1049.17" y="272.612" width="20.4459" height="13.6306" fill="#C4C4C4"/>
<rect x="1049.17" y="306.689" width="20.4459" height="13.6306" fill="#C4C4C4"/>
<rect x="1090.06" y="306.689" width="20.4459" height="13.6306" fill="#C4C4C4"/>
<rect x="1090.06" y="340.765" width="20.4459" height="13.6306" fill="#C4C4C4"/>
<rect x="1049.17" y="340.765" width="20.4459" height="13.6306" fill="#C4C4C4"/>
<path d="M905 729.762V148.888L1080.09 201.377V729.762H905Z" fill="#F3F2F2"/>
<path d="M1114.2 218.335L1077.81 197.878V729.762L1114.2 712.266V218.335Z" fill="#ECEBEB"/>
<rect x="932.286" y="225.872" width="22.7387" height="83.9818" fill="#ECEBEB"/>
<rect x="1023.24" y="225.872" width="22.7387" height="83.9818" fill="#ECEBEB"/>
<rect x="977.764" y="302.855" width="22.7387" height="83.9818" fill="#ECEBEB"/>
<rect x="932.286" y="365.841" width="22.7387" height="83.9818" fill="#ECEBEB"/>
<rect x="1014.15" y="365.841" width="22.7387" height="83.9818" fill="#ECEBEB"/>
<rect x="1014.15" y="491.814" width="22.7387" height="83.9818" fill="#ECEBEB"/>
<rect x="932.286" y="498.812" width="22.7387" height="83.9818" fill="#ECEBEB"/>
<path d="M1216.32 81.4552L1292.11 58.7165V129.459L1216.32 159.778V81.4552Z" fill="#F7F7F7"/>
<path d="M1284.53 126.933V61.243H1370.44V152.198L1284.53 126.933Z" fill="#E3E3E3"/>
<path d="M1395.7 723.193L1289.59 753.512L1292.11 121.88L1395.7 144.618V723.193Z" fill="#EDEDED"/>
<path d="M1186 152.198L1294.64 121.88V756.038L1186 728.246V152.198Z" fill="#F9F9F9"/>
<path opacity="0.6" d="M1314.85 528.651V126.933L1322.43 128.591V528.651H1314.85Z" fill="#C4C4C4"/>
<path opacity="0.6" d="M1337.59 528.651V131.986L1345.17 133.723V528.651H1337.59Z" fill="#C4C4C4"/>
<path opacity="0.6" d="M1362.86 528.651V137.039L1370.44 139.565V528.651H1362.86Z" fill="#C4C4C4"/>
<path d="M1545.66 184.079L1443.74 159.373L1422.13 786.279H1545.66V184.079Z" fill="#F0F0F0"/>
<path d="M1539.48 783.191V187.167L1675.36 214.961V783.191H1539.48Z" fill="#F2F2F2"/>
<path d="M1423.2 455.799C1329.54 455.799 1254 531.767 1254 625H1592.4C1592.4 531.767 1516.87 455.799 1423.2 455.799Z" fill="#D4D4D4"/>
<path d="M1423.2 431.627C1458.72 431.627 1487.51 402.833 1487.51 367.314C1487.51 331.794 1458.72 303 1423.2 303C1387.68 303 1358.89 331.794 1358.89 367.314C1358.89 402.833 1387.68 431.627 1423.2 431.627Z" fill="#D4D4D4"/>
<path d="M1772 477H1577V497H1772V477Z" fill="#C4C4C4"/>
<path d="M1772 515H1577V535H1772V515Z" fill="#C4C4C4"/>
<path d="M1772 279H1577V299H1772V279Z" fill="#C4C4C4"/>
<path d="M1772 317H1577V337H1772V317Z" fill="#C4C4C4"/>
<path d="M1772 378H1577V398H1772V378Z" fill="#C4C4C4"/>
<path d="M1772 416H1577V436H1772V416Z" fill="#C4C4C4"/>
<path d="M1237.85 557.752C1165.94 458.675 1139.47 399.684 1170.51 275.022L1162.95 270.257C1123.88 380.682 1146.05 447.356 1224.54 570.487L1224.13 554.384L1237.85 557.752Z" fill="#FFAEC3"/>
<path d="M1119.32 671.865C1178.09 473.911 1006.01 457.86 1175.82 263.884L1182.68 265.568C1042.28 446.397 1195.84 537.908 1140.88 666.976L1134.31 652.271L1119.32 671.865Z" fill="#FFAEC3"/>
<path d="M1276.32 607.627L1127.81 602.322L1112.04 490.748C1112.04 490.748 1180.85 490.748 1166.7 402.533L1200.3 398.997C1204.97 459.729 1207.43 475.598 1257.72 489.009C1275.02 517.024 1282.73 541.956 1276.32 607.627Z" fill="#F7C28C"/>
<path d="M1184.1 422C1172.9 422.34 1129.65 378.943 1138.81 307.595H1221.51C1230.23 385.525 1191.37 423.947 1184.65 422.084C1184.46 422.032 1184.3 421.994 1184.1 422Z" fill="#FFC487"/>
<path d="M1187.92 340.652C1189.55 339.055 1193.22 337.116 1196.76 340.652" stroke="#FF8B00" stroke-width="3"/>
<path d="M1160.97 340.652C1162.6 339.055 1166.27 337.116 1169.81 340.652" stroke="#FF8B00" stroke-width="3"/>
<path d="M1187.29 397C1184.14 393.854 1177.51 391.696 1173.97 397" stroke="#FF3A00" stroke-width="3"/>
<ellipse cx="1193.22" cy="356.564" rx="3.53609" ry="7.07218" fill="#723969"/>
<ellipse cx="1166.16" cy="356.564" rx="3.53609" ry="7.07218" fill="#723969"/>
<path d="M1175.54 377.781L1177.43 366.5H1180.97L1182.62 377.781H1175.54Z" fill="#FFAF5B"/>
<path d="M1138.42 345.956C1136.11 305.291 1210.91 289.379 1221.51 347.724C1235.66 315.899 1221.51 282.307 1209.14 273.466C1251.57 245.178 1170.24 197.44 1177.31 262.858C1150.79 275.494 1124.27 294.683 1138.42 345.956Z" fill="#FFB50C"/>
<path d="M1117.45 322.744C1133.99 302.879 1158.05 282.745 1180.55 301.407C1181.72 302.381 1182.76 303.524 1183.71 304.717L1185.29 306.699C1186.38 308.067 1186.07 310.073 1184.62 311.054L1174.06 318.202C1169.99 320.959 1164.62 320.158 1160.59 317.333C1146.93 307.75 1134.02 314.507 1117.45 322.744Z" fill="#FAB008"/>
<path d="M1140 345.956H1141.19L1147.25 370.709C1143.64 370.709 1140.43 368.383 1139.31 364.946L1135.25 352.508C1134.19 349.276 1136.6 345.956 1140 345.956Z" fill="#FFC487"/>
<path d="M1221.69 345.956H1220.5L1214.44 370.709C1218.06 370.709 1221.26 368.383 1222.38 364.946L1226.45 352.508C1227.5 349.276 1225.09 345.956 1221.69 345.956Z" fill="#FFC487"/>
<path d="M1217.98 377.781L1214.44 326.508L1223.28 340.652C1219.69 341.801 1220.16 357.57 1217.98 377.781Z" fill="#FFB50C"/>
<path d="M1156.3 470.08L1140.4 497.846L1193.39 562.633L1235.78 497.846L1214.58 466.377C1270.84 482.542 1313.49 529.099 1327.54 586.875L1327.62 586.697L1328.03 588.93C1329.25 594.257 1330.24 599.677 1330.97 605.174L1414.47 763.5L967.469 712.5L1027.97 601.5C1048.92 542.825 1098.98 484.382 1156.3 470.08Z" fill="#F54C48"/>
<ellipse rx="36.3679" ry="14.2203" transform="matrix(-0.764105 -0.645091 -0.645091 0.764105 1078.47 562.939)" fill="#E90022"/>
<path d="M1133.21 434.648L1036.97 592.818C1043.24 614.662 1052.82 620.268 1076.9 617.38L1151.66 437.725L1167.42 418.826L1172.57 405.375C1172.57 405.375 1175.7 399.056 1173.9 397.096C1172.71 395.807 1171.53 394.699 1169.93 395.418L1164.21 401.702C1164.21 401.702 1167.65 390.164 1169.07 386.423C1170.49 382.682 1164.78 377.361 1163.42 380.946C1162.06 384.531 1159.36 391.605 1159.36 391.605C1159.36 391.605 1160.96 387.427 1162.73 382.751C1164.51 378.075 1157.71 375.826 1155.54 381.541C1153.37 387.256 1152.5 389.003 1152.5 389.003C1152.5 389.003 1154.8 383.498 1155.83 380.796C1156.85 378.094 1149.89 377.629 1148.06 382.462C1146.23 387.294 1144.34 389.829 1144.34 389.829C1144.34 389.829 1148.95 383.509 1148.1 380.644C1147.24 377.779 1137.79 384.699 1134.22 395.8C1130.66 406.901 1133.21 434.648 1133.21 434.648Z" fill="#FFC487"/>
<path d="M1081.69 651.447L1014.05 642.312C999.203 640.307 991.751 623.293 1000.34 611.021L1051.47 538C1058.51 571.836 1077.06 583.256 1106.97 585.5L1081.69 651.447Z" fill="#F54C48"/>
<ellipse rx="60.7693" ry="14.2203" transform="matrix(-0.946671 0.322202 0.322202 0.946671 1365.21 704.155)" fill="#E90022"/>
<path d="M1424.28 814.352L1365.41 638.81C1344.67 629.518 1334.2 633.235 1320.89 653.504L1410.04 826.471L1414.33 850.7L1421.29 863.307C1421.29 863.307 1424.1 869.777 1426.76 869.66C1428.51 869.583 1430.12 869.395 1430.6 867.71L1429.49 859.285C1429.49 859.285 1436.09 869.357 1438.03 872.854C1439.98 876.35 1447.73 875.413 1445.86 872.062C1444 868.711 1440.33 862.084 1440.33 862.084C1440.33 862.084 1442.49 866.003 1444.93 870.374C1447.36 874.745 1453.46 870.996 1450.49 865.654C1447.52 860.312 1446.75 858.518 1446.75 858.518C1446.75 858.518 1449.47 863.828 1450.87 866.353C1452.28 868.879 1457.12 863.86 1454.61 859.343C1452.09 854.826 1451.37 851.747 1451.37 851.747C1451.37 851.747 1453.23 859.352 1455.97 860.542C1458.72 861.733 1459.51 850.051 1453.33 840.168C1447.14 830.285 1424.28 814.352 1424.28 814.352Z" fill="#FFC487"/>
<path d="M1422.97 684L1297.47 527.5L1307.47 722.5C1345.76 697.203 1370.37 683.404 1422.97 684Z" fill="#F54C48"/>
<path d="M867.157 553.5C517.613 256.301 57.698 428.36 0 624.592V1020H1918V160C1867.22 662.5 1314.67 934 867.157 553.5Z" fill="url(#paint0_linear)"/>
<defs>
<linearGradient id="paint0_linear" x1="491.5" y1="1001" x2="373.5" y2="276.5" gradientUnits="userSpaceOnUse">
<stop offset="0.354542" stop-color="white"/>
<stop offset="0.774513" stop-color="white" stop-opacity="0"/>
</linearGradient>
</defs>
</svg>
