<?xml version="1.0" encoding="UTF-8"?>
<svg width="1980px" height="1020px" viewBox="0 0 1980 1020" version="1.1" xmlns="http://www.w3.org/2000/svg" xmlns:xlink="http://www.w3.org/1999/xlink">
    <title>404</title>
    <defs>
        <linearGradient x1="23.4444236%" y1="53.3811733%" x2="20.8606604%" y2="46.7065653%" id="linearGradient-1">
            <stop stop-color="#FFFFFF" offset="0%"></stop>
            <stop stop-color="#FFFFFF" stop-opacity="0" offset="100%"></stop>
        </linearGradient>
    </defs>
    <g id="404" stroke="none" stroke-width="1" fill="none" fill-rule="evenodd">
        <g id="Group" transform="translate(967.000000, 0.000000)" fill-rule="nonzero">
            <g>
                <polygon id="Path" fill="#F6F6F6" points="124 71.5658118 233 0 233 518 124 518"></polygon>
                <polygon id="Path" fill="#F0F0F0" points="233 0 315 24.3355383 315 518 233 518"></polygon>
                <rect id="Rectangle" fill="#C4C4C4" x="144" y="102" width="20" height="14"></rect>
                <rect id="Rectangle" fill="#C4C4C4" x="185" y="102" width="20" height="14"></rect>
                <rect id="Rectangle" fill="#C4C4C4" x="185" y="136" width="20" height="14"></rect>
                <rect id="Rectangle" fill="#C4C4C4" x="144" y="136" width="20" height="14"></rect>
                <rect id="Rectangle" fill="#C4C4C4" x="144" y="170" width="20" height="14"></rect>
                <rect id="Rectangle" fill="#C4C4C4" x="185" y="170" width="20" height="14"></rect>
                <rect id="Rectangle" fill="#C4C4C4" x="185" y="204" width="20" height="14"></rect>
                <rect id="Rectangle" fill="#C4C4C4" x="144" y="204" width="20" height="14"></rect>
                <rect id="Rectangle" fill="#C4C4C4" x="144" y="238" width="20" height="14"></rect>
                <rect id="Rectangle" fill="#C4C4C4" x="185" y="238" width="20" height="14"></rect>
                <rect id="Rectangle" fill="#C4C4C4" x="185" y="272" width="20" height="14"></rect>
                <rect id="Rectangle" fill="#C4C4C4" x="144" y="272" width="20" height="14"></rect>
                <rect id="Rectangle" fill="#C4C4C4" x="144" y="307" width="20" height="14"></rect>
                <rect id="Rectangle" fill="#C4C4C4" x="185" y="307" width="20" height="14"></rect>
                <rect id="Rectangle" fill="#C4C4C4" x="185" y="341" width="20" height="14"></rect>
                <rect id="Rectangle" fill="#C4C4C4" x="144" y="341" width="20" height="14"></rect>
                <polygon id="Path" fill="#F3F2F2" points="0 730 0 171 173 201.556797 173 730"></polygon>
                <rect id="Rectangle" fill="#ECEBEB" x="114" y="231" width="23" height="84"></rect>
                <polygon id="Path" fill="#ECEBEB" points="209 218.381008 173 201 173 730 209 712.497432"></polygon>
                <rect id="Rectangle" fill="#ECEBEB" x="36" y="230" width="23" height="84"></rect>
                <rect id="Rectangle" fill="#ECEBEB" x="75" y="298" width="23" height="84"></rect>
                <rect id="Rectangle" fill="#ECEBEB" x="36" y="366" width="23" height="84"></rect>
                <rect id="Rectangle" fill="#ECEBEB" x="114" y="366" width="23" height="84"></rect>
                <rect id="Rectangle" fill="#ECEBEB" x="112" y="501" width="23" height="84"></rect>
                <rect id="Rectangle" fill="#ECEBEB" x="36" y="501" width="23" height="84"></rect>
                <polygon id="Path" fill="#F7F7F7" points="311 81.3079293 379 61 379 132.077652 311 160"></polygon>
                <polygon id="Path" fill="#E3E3E3" points="379 126.955144 379 61 465 81.8823009 465 149"></polygon>
                <polygon id="Path" fill="#EDEDED" points="491 756 390 753.991269 390 122 491 144.751934"></polygon>
                <polygon id="Path" fill="#F9F9F9" points="281 152.311398 390 122 390 756 281 728.214968"></polygon>
                <polygon id="Path" fill="#C4C4C4" opacity="0.6" points="417 530 417 128 425 129.716007 425 530"></polygon>
                <polygon id="Path" fill="#C4C4C4" opacity="0.6" points="441 530 441 133.001563 449 134.702861 449 530"></polygon>
                <polygon id="Path" fill="#C4C4C4" opacity="0.6" points="462 530 462 137.99994 470 139.713794 470 530"></polygon>
                <polygon id="Path" fill="#F0F0F0" points="634 187 517 190.350144 517 786 634 786"></polygon>
                <polygon id="Path" fill="#F2F2F2" points="634 783 634 187 770 214.792881 770 783"></polygon>
                <rect id="Rectangle" fill="#D5D4D2" transform="translate(702.569989, 257.191600) rotate(6.622650) translate(-702.569989, -257.191600) " x="660" y="251" width="85.1399772" height="12.3832006"></rect>
                <rect id="Rectangle" fill="#D5D4D2" transform="translate(702.569989, 279.191600) rotate(6.622650) translate(-702.569989, -279.191600) " x="660" y="273" width="85.1399772" height="12.3832006"></rect>
                <rect id="Rectangle" fill="#D5D4D2" transform="translate(702.569989, 303.191600) rotate(6.622650) translate(-702.569989, -303.191600) " x="660" y="297" width="85.1399772" height="12.3832006"></rect>
                <rect id="Rectangle" fill="#D5D4D2" transform="translate(702.569989, 377.191600) rotate(6.622650) translate(-702.569989, -377.191600) " x="660" y="371" width="85.1399772" height="12.3832006"></rect>
                <rect id="Rectangle" fill="#D5D4D2" transform="translate(701.569989, 399.191600) rotate(6.622650) translate(-701.569989, -399.191600) " x="659" y="393" width="85.1399772" height="12.3832006"></rect>
                <rect id="Rectangle" fill="#D5D4D2" transform="translate(702.569989, 421.191600) rotate(6.622650) translate(-702.569989, -421.191600) " x="660" y="415" width="85.1399772" height="12.3832006"></rect>
                <rect id="Rectangle" fill="#D5D4D2" transform="translate(702.569989, 487.191600) rotate(6.622650) translate(-702.569989, -487.191600) " x="660" y="481" width="85.1399772" height="12.3832006"></rect>
                <rect id="Rectangle" fill="#D5D4D2" transform="translate(702.569989, 511.191600) rotate(6.622650) translate(-702.569989, -511.191600) " x="660" y="505" width="85.1399772" height="12.3832006"></rect>
                <rect id="Rectangle" fill="#D5D4D2" transform="translate(702.569989, 534.191600) rotate(6.622650) translate(-702.569989, -534.191600) " x="660" y="528" width="85.1399772" height="12.3832006"></rect>
                <rect id="Rectangle" fill="#F4F4F4" transform="translate(575.570015, 486.191601) rotate(-0.449978) translate(-575.570015, -486.191601) " x="533" y="480" width="85.1400308" height="12.3832012"></rect>
                <rect id="Rectangle" fill="#F4F4F4" transform="translate(575.570015, 511.191601) rotate(-0.449978) translate(-575.570015, -511.191601) " x="533" y="505" width="85.1400308" height="12.3832012"></rect>
                <rect id="Rectangle" fill="#F4F4F4" transform="translate(575.570015, 536.191601) rotate(-0.449978) translate(-575.570015, -536.191601) " x="533" y="530" width="85.1400308" height="12.3832012"></rect>
                <rect id="Rectangle" fill="#F4F4F4" transform="translate(575.570015, 366.191601) rotate(-0.449978) translate(-575.570015, -366.191601) " x="533" y="360" width="85.1400308" height="12.3832012"></rect>
                <rect id="Rectangle" fill="#F4F4F4" transform="translate(575.570015, 391.191601) rotate(-0.449978) translate(-575.570015, -391.191601) " x="533" y="385" width="85.1400308" height="12.3832012"></rect>
                <rect id="Rectangle" fill="#F4F4F4" transform="translate(575.570015, 416.191601) rotate(-0.449978) translate(-575.570015, -416.191601) " x="533" y="410" width="85.1400308" height="12.3832012"></rect>
                <rect id="Rectangle" fill="#F4F4F4" transform="translate(575.570015, 248.191601) rotate(-0.449978) translate(-575.570015, -248.191601) " x="533" y="242" width="85.1400308" height="12.3832012"></rect>
                <rect id="Rectangle" fill="#F4F4F4" transform="translate(575.570015, 273.191601) rotate(-0.449978) translate(-575.570015, -273.191601) " x="533" y="267" width="85.1400308" height="12.3832012"></rect>
                <rect id="Rectangle" fill="#F4F4F4" transform="translate(575.570015, 298.191601) rotate(-0.449978) translate(-575.570015, -298.191601) " x="533" y="292" width="85.1400308" height="12.3832012"></rect>
            </g>
        </g>
        <g id="Group" transform="translate(1371.792784, 251.999997)" fill-rule="nonzero">
            <g>
                <path d="M4.62,399.507 C7.7,402.587 11.74,404.127 15.78,404.127 C19.81,404.127 23.85,402.587 26.93,399.507 L141.74,292.646 C147.9,286.486 147.9,276.498 141.74,270.338 C135.57,264.179 125.59,264.178 119.43,270.338 L4.62,377.199 C-1.54,383.359 -1.54,393.347 4.62,399.507 Z" id="Path" fill="#D4D4D4"></path>
                <path d="M237.4,332.834 C329.16,332.834 403.82,258.18 403.82,166.417 C403.82,74.654 329.16,-8.52651283e-14 237.4,-8.52651283e-14 C145.64,-8.52651283e-14 70.98,74.654 70.98,166.417 C70.98,258.18 145.64,332.834 237.4,332.834 Z M237.4,31.548 C311.77,31.548 372.27,92.05 372.27,166.417 C372.27,240.784 311.77,301.286 237.4,301.286 C163.03,301.286 102.53,240.784 102.53,166.417 C102.53,92.05 163.04,31.548 237.4,31.548 Z" id="Shape" fill="#C4C4C4"></path>
            </g>
        </g>
        <g id="Group" transform="translate(990.000000, 251.999997)">
            <path d="M270.381,327.752016 C198.471,228.675016 172.001,169.684016 203.041,45.0220157 L195.481,40.2570157 C156.411,150.682016 178.581,217.356016 257.071,340.487016 L256.661,324.384016 L270.381,327.752016 Z" id="Path" fill="#405FD3" fill-rule="nonzero"></path>
            <path d="M151.851,441.865016 C210.621,243.911016 38.541,227.860016 208.351,33.8840157 L215.211,35.5680157 C74.811,216.397016 228.371,307.908016 173.411,436.976016 L166.841,422.271016 L151.851,441.865016 Z" id="Path" fill="#FFD800" fill-rule="nonzero"></path>
            <path d="M308.851,377.627016 L160.341,372.322016 L144.571,260.748016 C144.571,260.748016 213.381,260.748016 199.231,172.533016 L232.831,168.997016 C237.501,229.729016 239.961,245.598016 290.251,259.009016 C307.541,287.024016 315.261,311.956016 308.851,377.627016 Z" id="Path" fill="#F7C28C" fill-rule="nonzero"></path>
            <path d="M216.631,192.000016 C205.431,192.340016 162.181,148.943016 171.351,77.5950157 L254.041,77.5950157 C262.761,155.525016 223.901,193.947016 217.181,192.084016 C216.991,192.032016 216.831,191.994016 216.631,192.000016 Z" id="Path" fill="#FFC487" fill-rule="nonzero"></path>
            <path d="M220.451,110.652016 C222.081,109.055016 225.751,107.116016 229.291,110.652016" id="Path" stroke="#A0522D" stroke-width="3"></path>
            <path d="M193.501,110.652016 C195.131,109.055016 198.801,107.116016 202.341,110.652016" id="Path" stroke="#A0522D" stroke-width="3"></path>
            <path d="M219.821,167.000016 C216.671,163.854016 210.031,161.696016 206.501,167.000016" id="Path" stroke="#FF3A00" stroke-width="3"></path>
            <ellipse id="Oval" fill="#723969" fill-rule="nonzero" cx="225.751" cy="126.564016" rx="3.53609" ry="7.07218"></ellipse>
            <ellipse id="Oval" fill="#723969" fill-rule="nonzero" cx="198.691" cy="126.564016" rx="3.53609" ry="7.07218"></ellipse>
            <polygon id="Path" fill="#FFAF5B" fill-rule="nonzero" points="208.071 147.781016 209.961 136.500016 213.501 136.500016 215.151 147.781016"></polygon>
            <path d="M170.951,115.956016 C168.641,75.2910157 243.441,59.3790157 254.041,117.724016 C268.191,85.8990157 254.041,52.3070157 241.671,43.4660157 C284.101,15.1780157 202.771,-32.5599843 209.841,32.8580157 C183.321,45.4940157 156.801,64.6830157 170.951,115.956016 Z" id="Path" fill="#A0522D" fill-rule="nonzero"></path>
            <path d="M149.981,92.7440157 C166.521,72.8790157 190.581,52.7450157 213.081,71.4070157 C214.251,72.3810157 215.291,73.5240157 216.241,74.7170157 L217.821,76.6990157 C218.911,78.0670157 218.601,80.0730157 217.151,81.0540157 L206.591,88.2020157 C202.521,90.9590157 197.151,90.1580157 193.121,87.3330157 C179.461,77.7500157 166.551,84.5070157 149.981,92.7440157 Z" id="Path" fill="#A0522D" fill-rule="nonzero"></path>
            <path d="M172.531,115.956016 L173.721,115.956016 L179.781,140.709016 C176.171,140.709016 172.961,138.383016 171.841,134.946016 L167.781,122.508016 C166.721,119.276016 169.131,115.956016 172.531,115.956016 Z" id="Path" fill="#FFC487" fill-rule="nonzero"></path>
            <path d="M254.221,115.956016 L253.031,115.956016 L246.971,140.709016 C250.591,140.709016 253.791,138.383016 254.911,134.946016 L258.981,122.508016 C260.031,119.276016 257.621,115.956016 254.221,115.956016 Z" id="Path" fill="#FFC487" fill-rule="nonzero"></path>
            <path d="M250.511,147.781016 L246.971,96.5080157 L255.811,110.652016 C252.221,111.801016 252.691,127.570016 250.511,147.781016 Z" id="Path" fill="#A0522D" fill-rule="nonzero"></path>
            <path d="M188.831,240.080016 L172.931,267.846016 L225.921,332.633016 L268.311,267.846016 L247.111,236.377016 C303.371,252.542016 346.021,299.099016 360.071,356.875016 L360.151,356.697016 L360.561,358.930016 C361.781,364.257016 362.771,369.677016 363.501,375.174016 L447.001,533.500016 L0,482.500016 L60.501,371.500016 C81.451,312.825016 131.511,254.382016 188.831,240.080016 Z" id="Path" fill="#234EA0" fill-rule="nonzero"></path>
            <ellipse id="Oval" fill="#1A3A78" fill-rule="nonzero" transform="translate(111.001000, 332.939016) scale(-1, 1) rotate(-40.172527) translate(-111.001000, -332.939016) " cx="111.001" cy="332.939016" rx="36.3678791" ry="14.2202918"></ellipse>
            <path d="M165.741,204.648016 L69.501,362.818016 C75.771,384.662016 85.351,390.268016 109.431,387.380016 L184.191,207.725016 L199.951,188.826016 L205.101,175.375016 C205.101,175.375016 208.231,169.056016 206.431,167.096016 C205.241,165.807016 204.061,164.699016 202.461,165.418016 L196.741,171.702016 C196.741,171.702016 200.181,160.164016 201.601,156.423016 C203.021,152.682016 197.311,147.361016 195.951,150.946016 C194.591,154.531016 191.891,161.605016 191.891,161.605016 C191.891,161.605016 193.491,157.427016 195.261,152.751016 C197.041,148.075016 190.241,145.826016 188.071,151.541016 C185.901,157.256016 185.031,159.003016 185.031,159.003016 C185.031,159.003016 187.331,153.498016 188.361,150.796016 C189.381,148.094016 182.421,147.629016 180.591,152.462016 C178.761,157.294016 176.871,159.829016 176.871,159.829016 C176.871,159.829016 181.481,153.509016 180.631,150.644016 C179.771,147.779016 170.321,154.699016 166.751,165.800016 C163.191,176.901016 165.741,204.648016 165.741,204.648016 Z" id="Path" fill="#FFC487" fill-rule="nonzero"></path>
            <path d="M114.221,421.447016 L46.581,412.312016 C31.734,410.307016 24.281,393.293016 32.871,381.021016 L84.001,308.000016 C91.041,341.836016 109.591,353.256016 139.501,355.500016 L114.221,421.447016 Z" id="Path" fill="#234EA0" fill-rule="nonzero"></path>
            <ellipse id="Oval" fill="#1A3A78" fill-rule="nonzero" transform="translate(397.741000, 474.155016) scale(-1, 1) rotate(18.796144) translate(-397.741000, -474.155016) " cx="397.741" cy="474.155016" rx="60.7693034" ry="14.2203008"></ellipse>
            <path d="M456.811,584.352016 L397.941,408.810016 C377.201,399.518016 366.731,403.235016 353.421,423.504016 L442.571,596.471016 L446.861,620.700016 L453.821,633.307016 C453.821,633.307016 456.631,639.777016 459.291,639.660016 C461.041,639.583016 462.651,639.395016 463.131,637.710016 L462.021,629.285016 C462.021,629.285016 468.621,639.357016 470.561,642.854016 C472.511,646.350016 480.261,645.413016 478.391,642.062016 C476.531,638.711016 472.861,632.084016 472.861,632.084016 C472.861,632.084016 475.021,636.003016 477.461,640.374016 C479.891,644.745016 485.991,640.996016 483.021,635.654016 C480.051,630.312016 479.281,628.518016 479.281,628.518016 C479.281,628.518016 482.001,633.828016 483.401,636.353016 C484.811,638.879016 489.651,633.860016 487.141,629.343016 C484.621,624.826016 483.901,621.747016 483.901,621.747016 C483.901,621.747016 485.761,629.352016 488.501,630.542016 C491.251,631.733016 492.041,620.051016 485.861,610.168016 C479.671,600.285016 456.811,584.352016 456.811,584.352016 Z" id="Path" fill="#FFC487" fill-rule="nonzero"></path>
            <path d="M455.501,454.000016 L330.001,297.500016 L340.001,492.500016 C378.291,467.203016 402.901,453.404016 455.501,454.000016 Z" id="Path" fill="#234EA0" fill-rule="nonzero"></path>
        </g>
        <g id="Group" transform="translate(0.000000, 160.000000)" fill="url(#linearGradient-1)" fill-rule="nonzero">
            <g id="Path">
                <path d="M895.188144,393.5 C534.345016,96.301 59.5631074,268.36 0,464.592 L0,860 L1980,860 L1980,0 C1927.57852,502.5 1357.16715,774 895.188144,393.5 Z"></path>
            </g>
        </g>
    </g>
</svg>