<?xml version="1.0" encoding="UTF-8"?>
<svg width="1918px" height="1020px" viewBox="0 0 1918 1020" version="1.1" xmlns="http://www.w3.org/2000/svg" xmlns:xlink="http://www.w3.org/1999/xlink">
    <title>404</title>
    <defs>
        <linearGradient x1="25.6256517%" y1="59.6082229%" x2="19.4734098%" y2="42.6711001%" id="linearGradient-1">
            <stop stop-color="#FFFFFF" offset="35.4542%"></stop>
            <stop stop-color="#FFFFFF" stop-opacity="0" offset="77.4513%"></stop>
        </linearGradient>
    </defs>
    <g id="Page-1" stroke="none" stroke-width="1" fill="none" fill-rule="evenodd">
        <g id="404">
            <polygon id="Path" fill="#F6F6F6" fill-rule="nonzero" points="1028.72 71.5607 1137.77 0 1137.77 521.371 1028.72 521.371"></polygon>
            <polygon id="Path" fill="#F0F0F0" fill-rule="nonzero" points="1137.77 0 1219.55 24.3338 1219.55 517.963 1137.77 517.963"></polygon>
            <rect id="Rectangle" fill="#C4C4C4" fill-rule="nonzero" x="1049.17" y="102.23" width="20.4459" height="13.6306"></rect>
            <rect id="Rectangle" fill="#C4C4C4" fill-rule="nonzero" x="1090.06" y="102.23" width="20.4459" height="13.6306"></rect>
            <rect id="Rectangle" fill="#C4C4C4" fill-rule="nonzero" x="1090.06" y="136.306" width="20.4459" height="13.6306"></rect>
            <rect id="Rectangle" fill="#C4C4C4" fill-rule="nonzero" x="1049.17" y="136.306" width="20.4459" height="13.6306"></rect>
            <rect id="Rectangle" fill="#C4C4C4" fill-rule="nonzero" x="1049.17" y="170.383" width="20.4459" height="13.6306"></rect>
            <rect id="Rectangle" fill="#C4C4C4" fill-rule="nonzero" x="1090.06" y="170.383" width="20.4459" height="13.6306"></rect>
            <rect id="Rectangle" fill="#C4C4C4" fill-rule="nonzero" x="1090.06" y="204.459" width="20.4459" height="13.6306"></rect>
            <rect id="Rectangle" fill="#C4C4C4" fill-rule="nonzero" x="1049.17" y="204.459" width="20.4459" height="13.6306"></rect>
            <rect id="Rectangle" fill="#C4C4C4" fill-rule="nonzero" x="1049.17" y="238.536" width="20.4459" height="13.6306"></rect>
            <rect id="Rectangle" fill="#C4C4C4" fill-rule="nonzero" x="1090.06" y="238.536" width="20.4459" height="13.6306"></rect>
            <rect id="Rectangle" fill="#C4C4C4" fill-rule="nonzero" x="1090.06" y="272.612" width="20.4459" height="13.6306"></rect>
            <rect id="Rectangle" fill="#C4C4C4" fill-rule="nonzero" x="1049.17" y="272.612" width="20.4459" height="13.6306"></rect>
            <rect id="Rectangle" fill="#C4C4C4" fill-rule="nonzero" x="1049.17" y="306.689" width="20.4459" height="13.6306"></rect>
            <rect id="Rectangle" fill="#C4C4C4" fill-rule="nonzero" x="1090.06" y="306.689" width="20.4459" height="13.6306"></rect>
            <rect id="Rectangle" fill="#C4C4C4" fill-rule="nonzero" x="1090.06" y="340.765" width="20.4459" height="13.6306"></rect>
            <rect id="Rectangle" fill="#C4C4C4" fill-rule="nonzero" x="1049.17" y="340.765" width="20.4459" height="13.6306"></rect>
            <polygon id="Path" fill="#F3F2F2" fill-rule="nonzero" points="905 729.762 905 148.888 1077.81 197.878 1077.81 729.762"></polygon>
            <polygon id="Path" fill="#ECEBEB" fill-rule="nonzero" points="1114.2 218.335 1077.81 197.878 1077.81 729.762 1114.2 712.266"></polygon>
            <rect id="Rectangle" fill="#ECEBEB" fill-rule="nonzero" x="932.287" y="225.872" width="22.7387" height="83.9818"></rect>
            <rect id="Rectangle" fill="#ECEBEB" fill-rule="nonzero" x="1023.24" y="225.872" width="22.7387" height="83.9818"></rect>
            <rect id="Rectangle" fill="#ECEBEB" fill-rule="nonzero" x="977.764" y="302.855" width="22.7387" height="83.9818"></rect>
            <rect id="Rectangle" fill="#ECEBEB" fill-rule="nonzero" x="932.287" y="365.841" width="22.7387" height="83.9818"></rect>
            <rect id="Rectangle" fill="#ECEBEB" fill-rule="nonzero" x="1014.15" y="365.841" width="22.7387" height="83.9818"></rect>
            <rect id="Rectangle" fill="#ECEBEB" fill-rule="nonzero" x="1014.15" y="491.814" width="22.7387" height="83.9818"></rect>
            <rect id="Rectangle" fill="#ECEBEB" fill-rule="nonzero" x="932.287" y="498.812" width="22.7387" height="83.9818"></rect>
            <polygon id="Path" fill="#F7F7F7" fill-rule="nonzero" points="1216.32 81.4552 1292.11 58.7165 1292.11 129.459 1216.32 159.778"></polygon>
            <polygon id="Path" fill="#E3E3E3" fill-rule="nonzero" points="1292.11 129.459 1292.11 58.7165 1370.44 61.243 1370.44 152.198"></polygon>
            <polygon id="Path" fill="#EDEDED" fill-rule="nonzero" points="1395.7 723.193 1289.59 753.512 1292.11 121.88 1395.7 144.618"></polygon>
            <polygon id="Path" fill="#F9F9F9" fill-rule="nonzero" points="1186 152.198 1294.64 121.88 1294.64 756.038 1186 728.246"></polygon>
            <polygon id="Path" fill="#C4C4C4" fill-rule="nonzero" opacity="0.6" points="1314.85 528.651 1314.85 126.933 1322.43 128.591 1322.43 528.651"></polygon>
            <polygon id="Path" fill="#C4C4C4" fill-rule="nonzero" opacity="0.6" points="1337.59 528.651 1337.59 131.986 1345.17 133.723 1345.17 528.651"></polygon>
            <polygon id="Path" fill="#C4C4C4" fill-rule="nonzero" opacity="0.6" points="1362.86 528.651 1362.86 137.039 1370.44 139.565 1370.44 528.651"></polygon>
            <polygon id="Path" fill="#F0F0F0" fill-rule="nonzero" points="1545.65 184.079 1434.72 160 1434.72 786.279 1545.65 786.279"></polygon>
            <polygon id="Path" fill="#F2F2F2" fill-rule="nonzero" points="1539.48 783.191 1539.48 187.167 1675.36 214.961 1675.36 783.191"></polygon>
            <rect id="Rectangle" fill="#D5D4D2" fill-rule="nonzero" transform="translate(1607.356999, 255.134502) rotate(6.622650) translate(-1607.356999, -255.134502) " x="1564.78701" y="248.942902" width="85.1399772" height="12.3832006"></rect>
            <rect id="Rectangle" fill="#D5D4D2" fill-rule="nonzero" transform="translate(1607.356999, 276.566502) rotate(6.622650) translate(-1607.356999, -276.566502) " x="1564.78701" y="270.374902" width="85.1399772" height="12.3832006"></rect>
            <rect id="Rectangle" fill="#D5D4D2" fill-rule="nonzero" transform="translate(1607.356999, 301.272502) rotate(6.622650) translate(-1607.356999, -301.272502) " x="1564.78701" y="295.080902" width="85.1399772" height="12.3832006"></rect>
            <rect id="Rectangle" fill="#D5D4D2" fill-rule="nonzero" transform="translate(1607.356999, 372.486502) rotate(6.622650) translate(-1607.356999, -372.486502) " x="1564.78701" y="366.294902" width="85.1399772" height="12.3832006"></rect>
            <rect id="Rectangle" fill="#D5D4D2" fill-rule="nonzero" transform="translate(1607.356999, 393.918502) rotate(6.622650) translate(-1607.356999, -393.918502) " x="1564.78701" y="387.726902" width="85.1399772" height="12.3832006"></rect>
            <rect id="Rectangle" fill="#D5D4D2" fill-rule="nonzero" transform="translate(1607.356999, 418.624502) rotate(6.622650) translate(-1607.356999, -418.624502) " x="1564.78701" y="412.432902" width="85.1399772" height="12.3832006"></rect>
            <rect id="Rectangle" fill="#D5D4D2" fill-rule="nonzero" transform="translate(1607.356999, 489.838502) rotate(6.622650) translate(-1607.356999, -489.838502) " x="1564.78701" y="483.646902" width="85.1399772" height="12.3832006"></rect>
            <rect id="Rectangle" fill="#D5D4D2" fill-rule="nonzero" transform="translate(1607.356999, 511.270502) rotate(6.622650) translate(-1607.356999, -511.270502) " x="1564.78701" y="505.078902" width="85.1399772" height="12.3832006"></rect>
            <rect id="Rectangle" fill="#D5D4D2" fill-rule="nonzero" transform="translate(1607.356999, 535.976502) rotate(6.622650) translate(-1607.356999, -535.976502) " x="1564.78701" y="529.784902" width="85.1399772" height="12.3832006"></rect>
            <rect id="Rectangle" fill="#F4F4F4" fill-rule="nonzero" transform="translate(1487.957624, 489.929539) rotate(1.550022) translate(-1487.957624, -489.929539) " x="1445.38761" y="483.737939" width="85.1400308" height="12.3832012"></rect>
            <rect id="Rectangle" fill="#F4F4F4" fill-rule="nonzero" transform="translate(1489.857624, 511.276539) rotate(1.550022) translate(-1489.857624, -511.276539) " x="1447.28761" y="505.084939" width="85.1400308" height="12.3832012"></rect>
            <rect id="Rectangle" fill="#F4F4F4" fill-rule="nonzero" transform="translate(1492.057624, 535.884539) rotate(1.550022) translate(-1492.057624, -535.884539) " x="1449.48761" y="529.692939" width="85.1400308" height="12.3832012"></rect>
            <rect id="Rectangle" fill="#F4F4F4" fill-rule="nonzero" transform="translate(1487.957624, 370.028539) rotate(1.550022) translate(-1487.957624, -370.028539) " x="1445.38761" y="363.836939" width="85.1400308" height="12.3832012"></rect>
            <rect id="Rectangle" fill="#F4F4F4" fill-rule="nonzero" transform="translate(1489.857624, 391.375539) rotate(1.550022) translate(-1489.857624, -391.375539) " x="1447.28761" y="385.183939" width="85.1400308" height="12.3832012"></rect>
            <rect id="Rectangle" fill="#F4F4F4" fill-rule="nonzero" transform="translate(1492.057624, 415.983539) rotate(1.550022) translate(-1492.057624, -415.983539) " x="1449.48761" y="409.791939" width="85.1400308" height="12.3832012"></rect>
            <rect id="Rectangle" fill="#F4F4F4" fill-rule="nonzero" transform="translate(1487.957624, 252.676539) rotate(1.550022) translate(-1487.957624, -252.676539) " x="1445.38761" y="246.484939" width="85.1400308" height="12.3832012"></rect>
            <rect id="Rectangle" fill="#F4F4F4" fill-rule="nonzero" transform="translate(1489.857624, 274.023539) rotate(1.550022) translate(-1489.857624, -274.023539) " x="1447.28761" y="267.831939" width="85.1400308" height="12.3832012"></rect>
            <rect id="Rectangle" fill="#F4F4F4" fill-rule="nonzero" transform="translate(1492.057624, 298.631539) rotate(1.550022) translate(-1492.057624, -298.631539) " x="1449.48761" y="292.439939" width="85.1400308" height="12.3832012"></rect>
            <path d="M1336.81,622.433 C1339.89,625.513 1343.93,627.053 1347.97,627.053 C1352,627.053 1356.04,625.513 1359.12,622.433 L1473.93,515.572 C1480.09,509.412 1480.09,499.424 1473.93,493.264 C1467.76,487.105 1457.78,487.104 1451.62,493.264 L1336.81,600.125 C1330.65,606.285 1330.65,616.273 1336.81,622.433 Z" id="Path" fill="#D4D4D4" fill-rule="nonzero"></path>
            <path d="M1569.59,555.76 C1661.35,555.76 1736.01,481.106 1736.01,389.343 C1736.01,297.58 1661.35,222.926 1569.59,222.926 C1477.83,222.926 1403.17,297.58 1403.17,389.343 C1403.17,481.106 1477.83,555.76 1569.59,555.76 Z M1569.59,254.474 C1643.96,254.474 1704.46,314.976 1704.46,389.343 C1704.46,463.71 1643.96,524.212 1569.59,524.212 C1495.22,524.212 1434.72,463.71 1434.72,389.343 C1434.72,314.976 1495.23,254.474 1569.59,254.474 Z" id="Shape" fill="#C4C4C4" fill-rule="nonzero"></path>
            <path d="M1237.85,557.752 C1165.94,458.675 1139.47,399.684 1170.51,275.022 L1162.95,270.257 C1123.88,380.682 1146.05,447.356 1224.54,570.487 L1224.13,554.384 L1237.85,557.752 Z" id="Path" fill="#405FD3" fill-rule="nonzero"></path>
            <path d="M1119.32,671.865 C1178.09,473.911 1006.01,457.86 1175.82,263.884 L1182.68,265.568 C1042.28,446.397 1195.84,537.908 1140.88,666.976 L1134.31,652.271 L1119.32,671.865 Z" id="Path" fill="#FFD800" fill-rule="nonzero"></path>
            <path d="M1276.32,607.627 L1127.81,602.322 L1112.04,490.748 C1112.04,490.748 1180.85,490.748 1166.7,402.533 L1200.3,398.997 C1204.97,459.729 1207.43,475.598 1257.72,489.009 C1275.01,517.024 1282.73,541.956 1276.32,607.627 Z" id="Path" fill="#F7C28C" fill-rule="nonzero"></path>
            <path d="M1184.1,422 C1172.9,422.34 1129.65,378.943 1138.82,307.595 L1221.51,307.595 C1230.23,385.525 1191.37,423.947 1184.65,422.084 C1184.46,422.032 1184.3,421.994 1184.1,422 Z" id="Path" fill="#FFC487" fill-rule="nonzero"></path>
            <path d="M1187.92,340.652 C1189.55,339.055 1193.22,337.116 1196.76,340.652" id="Path" stroke="#A0522D" stroke-width="3"></path>
            <path d="M1160.97,340.652 C1162.6,339.055 1166.27,337.116 1169.81,340.652" id="Path" stroke="#A0522D" stroke-width="3"></path>
            <path d="M1187.29,397 C1184.14,393.854 1177.5,391.696 1173.97,397" id="Path" stroke="#FF3A00" stroke-width="3"></path>
            <ellipse id="Oval" fill="#723969" fill-rule="nonzero" cx="1193.22" cy="356.564" rx="3.53609" ry="7.07218"></ellipse>
            <ellipse id="Oval" fill="#723969" fill-rule="nonzero" cx="1166.16" cy="356.564" rx="3.53609" ry="7.07218"></ellipse>
            <polygon id="Path" fill="#FFAF5B" fill-rule="nonzero" points="1175.54 377.781 1177.43 366.5 1180.97 366.5 1182.62 377.781"></polygon>
            <path d="M1138.42,345.956 C1136.11,305.291 1210.91,289.379 1221.51,347.724 C1235.66,315.899 1221.51,282.307 1209.14,273.466 C1251.57,245.178 1170.24,197.44 1177.31,262.858 C1150.79,275.494 1124.27,294.683 1138.42,345.956 Z" id="Path" fill="#A0522D" fill-rule="nonzero"></path>
            <path d="M1117.45,322.744 C1133.99,302.879 1158.05,282.745 1180.55,301.407 C1181.72,302.381 1182.76,303.524 1183.71,304.717 L1185.29,306.699 C1186.38,308.067 1186.07,310.073 1184.62,311.054 L1174.06,318.202 C1169.99,320.959 1164.62,320.158 1160.59,317.333 C1146.93,307.75 1134.02,314.507 1117.45,322.744 Z" id="Path" fill="#A0522D" fill-rule="nonzero"></path>
            <path d="M1140,345.956 L1141.19,345.956 L1147.25,370.709 C1143.64,370.709 1140.43,368.383 1139.31,364.946 L1135.25,352.508 C1134.19,349.276 1136.6,345.956 1140,345.956 Z" id="Path" fill="#FFC487" fill-rule="nonzero"></path>
            <path d="M1221.69,345.956 L1220.5,345.956 L1214.44,370.709 C1218.06,370.709 1221.26,368.383 1222.38,364.946 L1226.45,352.508 C1227.5,349.276 1225.09,345.956 1221.69,345.956 Z" id="Path" fill="#FFC487" fill-rule="nonzero"></path>
            <path d="M1217.98,377.781 L1214.44,326.508 L1223.28,340.652 C1219.69,341.801 1220.16,357.57 1217.98,377.781 Z" id="Path" fill="#A0522D" fill-rule="nonzero"></path>
            <path d="M1156.3,470.08 L1140.4,497.846 L1193.39,562.633 L1235.78,497.846 L1214.58,466.377 C1270.84,482.542 1313.49,529.099 1327.54,586.875 L1327.62,586.697 L1328.03,588.93 C1329.25,594.257 1330.24,599.677 1330.97,605.174 L1414.47,763.5 L967.469,712.5 L1027.97,601.5 C1048.92,542.825 1098.98,484.382 1156.3,470.08 Z" id="Path" fill="#234EA0" fill-rule="nonzero"></path>
            <ellipse id="Oval" fill="#1A3A78" fill-rule="nonzero" transform="translate(1078.470000, 562.939000) scale(-1, 1) rotate(-40.172527) translate(-1078.470000, -562.939000) " cx="1078.47" cy="562.939" rx="36.3678791" ry="14.2202918"></ellipse>
            <path d="M1133.21,434.648 L1036.97,592.818 C1043.24,614.662 1052.82,620.268 1076.9,617.38 L1151.66,437.725 L1167.42,418.826 L1172.57,405.375 C1172.57,405.375 1175.7,399.056 1173.9,397.096 C1172.71,395.807 1171.53,394.699 1169.93,395.418 L1164.21,401.702 C1164.21,401.702 1167.65,390.164 1169.07,386.423 C1170.49,382.682 1164.78,377.361 1163.42,380.946 C1162.06,384.531 1159.36,391.605 1159.36,391.605 C1159.36,391.605 1160.96,387.427 1162.73,382.751 C1164.51,378.075 1157.71,375.826 1155.54,381.541 C1153.37,387.256 1152.5,389.003 1152.5,389.003 C1152.5,389.003 1154.8,383.498 1155.83,380.796 C1156.85,378.094 1149.89,377.629 1148.06,382.462 C1146.23,387.294 1144.34,389.829 1144.34,389.829 C1144.34,389.829 1148.95,383.509 1148.1,380.644 C1147.24,377.779 1137.79,384.699 1134.22,395.8 C1130.66,406.901 1133.21,434.648 1133.21,434.648 Z" id="Path" fill="#FFC487" fill-rule="nonzero"></path>
            <path d="M1081.69,651.447 L1014.05,642.312 C999.203,640.307 991.75,623.293 1000.34,611.021 L1051.47,538 C1058.51,571.836 1077.06,583.256 1106.97,585.5 L1081.69,651.447 Z" id="Path" fill="#234EA0" fill-rule="nonzero"></path>
            <ellipse id="Oval" fill="#1A3A78" fill-rule="nonzero" transform="translate(1365.210000, 704.155000) scale(-1, 1) rotate(18.796144) translate(-1365.210000, -704.155000) " cx="1365.21" cy="704.155" rx="60.7693034" ry="14.2203008"></ellipse>
            <path d="M1424.28,814.352 L1365.41,638.81 C1344.67,629.518 1334.2,633.235 1320.89,653.504 L1410.04,826.471 L1414.33,850.7 L1421.29,863.307 C1421.29,863.307 1424.1,869.777 1426.76,869.66 C1428.51,869.583 1430.12,869.395 1430.6,867.71 L1429.49,859.285 C1429.49,859.285 1436.09,869.357 1438.03,872.854 C1439.98,876.35 1447.73,875.413 1445.86,872.062 C1444,868.711 1440.33,862.084 1440.33,862.084 C1440.33,862.084 1442.49,866.003 1444.93,870.374 C1447.36,874.745 1453.46,870.996 1450.49,865.654 C1447.52,860.312 1446.75,858.518 1446.75,858.518 C1446.75,858.518 1449.47,863.828 1450.87,866.353 C1452.28,868.879 1457.12,863.86 1454.61,859.343 C1452.09,854.826 1451.37,851.747 1451.37,851.747 C1451.37,851.747 1453.23,859.352 1455.97,860.542 C1458.72,861.733 1459.51,850.051 1453.33,840.168 C1447.14,830.285 1424.28,814.352 1424.28,814.352 Z" id="Path" fill="#FFC487" fill-rule="nonzero"></path>
            <path d="M1422.97,684 L1297.47,527.5 L1307.47,722.5 C1345.76,697.203 1370.37,683.404 1422.97,684 Z" id="Path" fill="#234EA0" fill-rule="nonzero"></path>
            <path d="M867.157,553.5 C517.613,256.301 57.698,428.36 0,624.592 L0,1020 L1918,1020 L1918,160 C1867.22,662.5 1314.67,934 867.157,553.5 Z" id="Path" fill="url(#linearGradient-1)" fill-rule="nonzero"></path>
        </g>
    </g>
</svg>