<?xml version="1.0" encoding="UTF-8"?>
<svg width="375px" height="406px" viewBox="0 0 375 406" version="1.1" xmlns="http://www.w3.org/2000/svg" xmlns:xlink="http://www.w3.org/1999/xlink">
    <title>404_sm</title>
    <g id="Page-1" stroke="none" stroke-width="1" fill="none" fill-rule="evenodd">
        <g id="404_sm">
            <polygon id="Path" fill="#F6F6F6" fill-rule="nonzero" points="105.554 32.5822 150.992 0 150.992 237.385 105.554 237.385"></polygon>
            <polygon id="Path" fill="#F0F0F0" fill-rule="nonzero" points="150.992 0 185.07 11.0794 185.07 235.833 150.992 235.833"></polygon>
            <rect id="Rectangle" fill="#C4C4C4" fill-rule="nonzero" x="114.074" y="46.546" width="8.51958" height="6.20614"></rect>
            <rect id="Rectangle" fill="#C4C4C4" fill-rule="nonzero" x="131.113" y="46.546" width="8.51958" height="6.20614"></rect>
            <rect id="Rectangle" fill="#C4C4C4" fill-rule="nonzero" x="131.113" y="62.0614" width="8.51958" height="6.20614"></rect>
            <rect id="Rectangle" fill="#C4C4C4" fill-rule="nonzero" x="114.074" y="62.0614" width="8.51958" height="6.20614"></rect>
            <rect id="Rectangle" fill="#C4C4C4" fill-rule="nonzero" x="114.074" y="77.5768" width="8.51958" height="6.20614"></rect>
            <rect id="Rectangle" fill="#C4C4C4" fill-rule="nonzero" x="131.113" y="77.5768" width="8.51958" height="6.20614"></rect>
            <rect id="Rectangle" fill="#C4C4C4" fill-rule="nonzero" x="131.113" y="93.092" width="8.51958" height="6.20614"></rect>
            <rect id="Rectangle" fill="#C4C4C4" fill-rule="nonzero" x="114.074" y="93.092" width="8.51958" height="6.20614"></rect>
            <rect id="Rectangle" fill="#C4C4C4" fill-rule="nonzero" x="114.074" y="108.607" width="8.51958" height="6.20614"></rect>
            <rect id="Rectangle" fill="#C4C4C4" fill-rule="nonzero" x="131.113" y="108.607" width="8.51958" height="6.20614"></rect>
            <rect id="Rectangle" fill="#C4C4C4" fill-rule="nonzero" x="131.113" y="124.123" width="8.51958" height="6.20614"></rect>
            <rect id="Rectangle" fill="#C4C4C4" fill-rule="nonzero" x="114.074" y="124.123" width="8.51958" height="6.20614"></rect>
            <rect id="Rectangle" fill="#C4C4C4" fill-rule="nonzero" x="114.074" y="139.638" width="8.51958" height="6.20614"></rect>
            <rect id="Rectangle" fill="#C4C4C4" fill-rule="nonzero" x="131.113" y="139.638" width="8.51958" height="6.20614"></rect>
            <rect id="Rectangle" fill="#C4C4C4" fill-rule="nonzero" x="131.113" y="155.154" width="8.51958" height="6.20614"></rect>
            <rect id="Rectangle" fill="#C4C4C4" fill-rule="nonzero" x="114.074" y="155.154" width="8.51958" height="6.20614"></rect>
            <polygon id="Path" fill="#F3F2F2" fill-rule="nonzero" points="54 332.267 54 67.7901 126.01 90.0954 126.01 332.267"></polygon>
            <polygon id="Path" fill="#ECEBEB" fill-rule="nonzero" points="141.17 99.4097 126.01 90.0954 126.01 332.267 141.17 324.301"></polygon>
            <rect id="Rectangle" fill="#ECEBEB" fill-rule="nonzero" x="65.37" y="102.841" width="9.47498" height="38.2376"></rect>
            <rect id="Rectangle" fill="#ECEBEB" fill-rule="nonzero" x="103.27" y="102.841" width="9.47498" height="38.2376"></rect>
            <rect id="Rectangle" fill="#ECEBEB" fill-rule="nonzero" x="84.3197" y="137.892" width="9.47498" height="38.2376"></rect>
            <rect id="Rectangle" fill="#ECEBEB" fill-rule="nonzero" x="65.37" y="166.571" width="9.47498" height="38.2376"></rect>
            <rect id="Rectangle" fill="#ECEBEB" fill-rule="nonzero" x="99.48" y="166.571" width="9.47498" height="38.2376"></rect>
            <rect id="Rectangle" fill="#ECEBEB" fill-rule="nonzero" x="99.48" y="223.927" width="9.47498" height="38.2376"></rect>
            <rect id="Rectangle" fill="#ECEBEB" fill-rule="nonzero" x="65.37" y="227.114" width="9.47498" height="38.2376"></rect>
            <polygon id="Path" fill="#F7F7F7" fill-rule="nonzero" points="183.723 37.0873 215.306 26.7341 215.306 58.9439 183.723 72.7481"></polygon>
            <polygon id="Path" fill="#E3E3E3" fill-rule="nonzero" points="215.306 57.7936 215.306 26.7341 247.943 27.8845 247.943 69.2971"></polygon>
            <polygon id="Path" fill="#EDEDED" fill-rule="nonzero" points="258.47 329.276 214.253 343.081 215.306 55.4929 258.47 65.8461"></polygon>
            <polygon id="Path" fill="#F9F9F9" fill-rule="nonzero" points="171.09 69.2971 216.359 55.4929 216.359 344.231 171.09 331.577"></polygon>
            <polygon id="Path" fill="#C4C4C4" fill-rule="nonzero" opacity="0.6" points="224.781 240.699 224.781 57.7936 227.94 58.5485 227.94 240.699"></polygon>
            <polygon id="Path" fill="#C4C4C4" fill-rule="nonzero" opacity="0.6" points="234.256 240.699 234.256 60.0944 237.415 60.8852 237.415 240.699"></polygon>
            <polygon id="Path" fill="#C4C4C4" fill-rule="nonzero" opacity="0.6" points="244.784 240.699 244.784 62.395 247.942 63.5454 247.942 240.699"></polygon>
            <polygon id="Path" fill="#F0F0F0" fill-rule="nonzero" points="320.953 83.8128 269.481 72.7481 269.481 358 320.953 358"></polygon>
            <polygon id="Path" fill="#F2F2F2" fill-rule="nonzero" points="318.38 356.594 318.38 85.2189 375 97.8737 375 356.594"></polygon>
            <rect id="Rectangle" fill="#F4F4F4" fill-rule="nonzero" transform="translate(296.909565, 223.068930) rotate(1.418720) translate(-296.909565, -223.068930) " x="279.170773" y="220.250011" width="35.4775836" height="5.63783803"></rect>
            <rect id="Rectangle" fill="#F4F4F4" fill-rule="nonzero" transform="translate(297.703565, 232.788930) rotate(1.418720) translate(-297.703565, -232.788930) " x="279.964773" y="229.970011" width="35.4775836" height="5.63783803"></rect>
            <rect id="Rectangle" fill="#F4F4F4" fill-rule="nonzero" transform="translate(298.618565, 243.992930) rotate(1.418720) translate(-298.618565, -243.992930) " x="280.879773" y="241.174011" width="35.4775836" height="5.63783803"></rect>
            <rect id="Rectangle" fill="#F4F4F4" fill-rule="nonzero" transform="translate(296.909565, 168.476930) rotate(1.418720) translate(-296.909565, -168.476930) " x="279.170773" y="165.658011" width="35.4775836" height="5.63783803"></rect>
            <rect id="Rectangle" fill="#F4F4F4" fill-rule="nonzero" transform="translate(297.703565, 178.196930) rotate(1.418720) translate(-297.703565, -178.196930) " x="279.964773" y="175.378011" width="35.4775836" height="5.63783803"></rect>
            <rect id="Rectangle" fill="#F4F4F4" fill-rule="nonzero" transform="translate(298.618565, 189.400930) rotate(1.418720) translate(-298.618565, -189.400930) " x="280.879773" y="186.582011" width="35.4775836" height="5.63783803"></rect>
            <rect id="Rectangle" fill="#F4F4F4" fill-rule="nonzero" transform="translate(296.909565, 115.045930) rotate(1.418720) translate(-296.909565, -115.045930) " x="279.170773" y="112.227011" width="35.4775836" height="5.63783803"></rect>
            <rect id="Rectangle" fill="#F4F4F4" fill-rule="nonzero" transform="translate(297.703565, 124.765930) rotate(1.418720) translate(-297.703565, -124.765930) " x="279.964773" y="121.947011" width="35.4775836" height="5.63783803"></rect>
            <rect id="Rectangle" fill="#F4F4F4" fill-rule="nonzero" transform="translate(298.618565, 135.969930) rotate(1.418720) translate(-298.618565, -135.969930) " x="280.879773" y="133.151011" width="35.4775836" height="5.63783803"></rect>
            <path d="M332.837,172.541 C332.837,142.837 311.008,118.232 282.516,113.892 C285.453,113.445 288.462,113.212 291.524,113.212 C324.29,113.212 350.853,139.775 350.853,172.541 C350.853,205.307 324.29,231.87 291.524,231.87 C288.462,231.87 285.453,231.637 282.516,231.19 C311.008,226.85 332.837,202.245 332.837,172.541 L332.837,172.541 Z" id="Path" fill="#F9F9F9" fill-rule="nonzero"></path>
            <path d="M200.82,264.34 C202.033,265.553 203.622,266.16 205.212,266.16 C206.802,266.16 208.392,265.553 209.605,264.34 L254.82,222.255 C257.246,219.828 257.246,215.895 254.82,213.469 C252.393,211.043 248.46,211.043 246.034,213.469 L200.82,255.554 C198.394,257.981 198.394,261.914 200.82,264.34 Z" id="Path" fill="#D4D4D4" fill-rule="nonzero"></path>
            <path d="M292.497,238.082 C328.636,238.082 358.038,208.681 358.038,172.541 C358.038,136.402 328.636,107 292.497,107 C256.357,107 226.955,136.402 226.955,172.541 C226.955,208.681 256.357,238.082 292.497,238.082 Z M292.497,119.425 C321.785,119.425 345.613,143.253 345.613,172.541 C345.613,201.83 321.785,225.657 292.497,225.657 C263.208,225.657 239.38,201.83 239.38,172.541 C239.38,143.253 263.208,119.425 292.497,119.425 Z" id="Shape" fill="#C4C4C4" fill-rule="nonzero"></path>
            <path d="M141.887,259.732 C109.471,215.073 97.5427,188.484 111.533,132.293 L108.126,130.146 C90.5155,179.919 100.508,209.971 135.889,265.472 L135.703,258.214 L141.887,259.732 Z" id="Path" fill="#405FD3" fill-rule="nonzero"></path>
            <path d="M88.4586,311.167 C114.949,221.941 37.388,214.706 113.925,127.273 L117.017,128.032 C53.7367,209.539 122.949,250.787 98.1789,308.963 L95.2161,302.335 L88.4586,311.167 Z" id="Path" fill="#FFD800" fill-rule="nonzero"></path>
            <path d="M159.228,282.212 L92.2853,279.821 L85.1768,229.53 C85.1768,229.53 116.193,229.53 109.818,189.768 L124.959,188.174 C127.065,215.548 128.174,222.701 150.843,228.746 C158.638,241.374 162.115,252.612 159.228,282.212 Z" id="Path" fill="#F7C28C" fill-rule="nonzero"></path>
            <path d="M117.5,198.541 C112.208,198.289 93.1598,178.802 97.2475,146.975 L134.522,146.975 C138.385,181.5 121.531,198.821 118.074,198.608 C117.881,198.596 117.694,198.55 117.5,198.541 Z" id="Path" fill="#FFC487" fill-rule="nonzero"></path>
            <path d="M119.381,161.875 C120.114,161.155 121.772,160.282 123.366,161.875" id="Path" stroke="#A0522D"></path>
            <path d="M107.233,161.875 C107.966,161.155 109.624,160.282 111.218,161.875" id="Path" stroke="#A0522D"></path>
            <path d="M119.097,187.274 C117.679,185.856 114.686,184.883 113.092,187.274" id="Path" stroke="#FF3A00"></path>
            <ellipse id="Oval" fill="#723969" fill-rule="nonzero" cx="121.771" cy="169.048" rx="1.59386" ry="3.18773"></ellipse>
            <ellipse id="Oval" fill="#723969" fill-rule="nonzero" cx="109.572" cy="169.048" rx="1.59386" ry="3.18773"></ellipse>
            <polygon id="Path" fill="#FFAF5B" fill-rule="nonzero" points="113.802 178.611 114.654 173.526 116.248 173.526 116.99 178.611"></polygon>
            <path d="M97.0668,164.266 C96.0257,145.937 129.741,138.764 134.523,165.063 C140.898,150.718 134.523,135.577 128.944,131.592 C148.07,118.841 111.412,97.3239 114.599,126.811 C102.645,132.506 90.6913,141.155 97.0668,164.266 Z" id="Path" fill="#A0522D" fill-rule="nonzero"></path>
            <path d="M87.6164,153.804 C94.9831,144.958 105.657,135.993 115.691,143.889 C116.478,144.509 117.153,145.264 117.778,146.048 C118.494,146.947 118.293,148.265 117.341,148.909 L116.585,149.421 C112.761,152.009 107.789,150.752 103.322,149.584 C98.4637,148.315 93.5635,150.848 87.6164,153.804 Z" id="Path" fill="#A0522D" fill-rule="nonzero"></path>
            <path d="M97.4709,172.826 L95.8067,167.729 C95.2489,166.021 96.522,164.266 98.319,164.266 L101.051,175.423 C99.4216,175.423 97.9768,174.375 97.4709,172.826 Z" id="Path" fill="#FFC487" fill-rule="nonzero"></path>
            <path d="M134.915,172.826 L136.579,167.729 C137.137,166.021 135.864,164.266 134.067,164.266 L131.335,175.423 C132.964,175.423 134.409,174.375 134.915,172.826 Z" id="Path" fill="#FFC487" fill-rule="nonzero"></path>
            <path d="M132.929,178.611 L131.335,155.5 L135.32,161.875 C133.701,162.393 133.913,169.501 132.929,178.611 Z" id="Path" fill="#A0522D" fill-rule="nonzero"></path>
            <path d="M105.127,220.214 L97.9618,232.729 L121.845,261.932 L140.952,232.729 L131.399,218.545 C156.754,225.831 175.98,246.817 182.314,272.858 L182.351,272.778 L182.533,273.785 C183.086,276.186 183.53,278.629 183.86,281.107 L221.496,352.471 L20.0143,329.483 L47.2842,279.451 C56.7297,253.003 79.2917,226.661 105.127,220.214 Z" id="Path" fill="#234EA0" fill-rule="nonzero"></path>
            <ellipse id="Oval" fill="#1A3A78" fill-rule="nonzero" transform="translate(70.048800, 262.070000) scale(-1, 1) rotate(-40.172527) translate(-70.048800, -262.070000) " cx="70.0488" cy="262.07" rx="16.3924906" ry="6.40967631"></ellipse>
            <path d="M94.7227,204.244 L51.3408,275.537 C54.1652,285.383 58.4875,287.91 69.3406,286.608 L103.038,205.631 L110.14,197.112 L112.461,191.049 C112.461,191.049 113.873,188.2 113.059,187.317 C112.524,186.736 111.992,186.237 111.272,186.561 L108.693,189.393 C108.693,189.393 110.246,184.193 110.886,182.506 C111.525,180.82 108.95,178.422 108.337,180.038 C107.724,181.654 106.505,184.842 106.505,184.842 C106.505,184.842 107.228,182.959 108.028,180.851 C108.828,178.743 105.762,177.73 104.785,180.306 C103.807,182.882 103.414,183.669 103.414,183.669 C103.414,183.669 104.452,181.188 104.914,179.97 C105.376,178.752 102.24,178.543 101.414,180.721 C100.587,182.899 99.7357,184.042 99.7357,184.042 C99.7357,184.042 101.817,181.193 101.43,179.902 C101.043,178.61 96.7857,181.729 95.1779,186.733 C93.5701,191.737 94.7227,204.244 94.7227,204.244 Z" id="Path" fill="#FFC487" fill-rule="nonzero"></path>
            <path d="M71.4966,301.964 L58.8817,300.26 C44.0356,298.255 36.583,281.241 45.1753,268.969 L57.8767,250.829 C61.0484,266.08 69.4131,271.228 82.8931,272.239 L71.4966,301.964 Z" id="Path" fill="#234EA0" fill-rule="nonzero"></path>
            <ellipse id="Oval" fill="#E90022" fill-rule="nonzero" transform="translate(199.292000, 325.722000) scale(-1, 1) rotate(18.796144) translate(-199.292000, -325.722000) " cx="199.292" cy="325.722" rx="27.3913015" ry="6.40968036"></ellipse>
            <path d="M225.919,375.392 L199.383,296.268 C190.036,292.08 185.318,293.755 179.316,302.891 L219.498,380.855 L221.432,391.775 L224.57,397.458 C224.57,397.458 225.838,400.374 227.038,400.322 C227.827,400.287 228.551,400.202 228.768,399.443 L228.265,395.645 C228.265,395.645 231.24,400.185 232.117,401.761 C232.993,403.337 236.487,402.915 235.647,401.404 C234.807,399.894 233.155,396.907 233.155,396.907 C233.155,396.907 234.128,398.673 235.224,400.644 C236.32,402.614 239.071,400.924 237.732,398.516 C236.392,396.108 236.044,395.3 236.044,395.3 C236.044,395.3 237.272,397.693 237.905,398.831 C238.538,399.97 240.72,397.708 239.587,395.672 C238.455,393.636 238.131,392.248 238.131,392.248 C238.131,392.248 238.967,395.675 240.203,396.212 C241.44,396.749 241.8,391.483 239.011,387.028 C236.223,382.574 225.919,375.392 225.919,375.392 Z" id="Path" fill="#FFC487" fill-rule="nonzero"></path>
            <path d="M225.327,316.637 L168.759,246.096 L173.266,333.991 C190.526,322.588 201.619,316.368 225.327,316.637 Z" id="Path" fill="#234EA0" fill-rule="nonzero"></path>
            <path d="M205.457,295.949 C273.798,282.393 363.719,290.241 375,299.191 L375,406 L0,406 L0,278 C9.92734,300.921 117.96,313.305 205.457,295.949 Z" id="Path" fill="#FFFFFF" fill-rule="nonzero"></path>
        </g>
    </g>
</svg>