<?xml version="1.0" encoding="UTF-8"?>
<svg width="375px" height="406px" viewBox="0 0 375 406" version="1.1" xmlns="http://www.w3.org/2000/svg" xmlns:xlink="http://www.w3.org/1999/xlink">
    <title>500_sm</title>
    <g id="500_sm" stroke="none" stroke-width="1" fill="none" fill-rule="evenodd">
        <g id="Group" transform="translate(74.000000, 0.000000)" fill-rule="nonzero">
            <g id="City">
                <polygon id="Path" fill="#F6F6F6" points="48.4727273 27.9525499 91.0818182 0 91.0818182 202.323155 48.4727273 202.323155"></polygon>
                <polygon id="Path" fill="#F0F0F0" points="91.0818182 0 123.136364 9.50510209 123.136364 202.323155 91.0818182 202.323155"></polygon>
                <rect id="Rectangle" fill="#C4C4C4" x="56.2909091" y="39.8396947" width="7.81818182" height="5.46819338"></rect>
                <rect id="Rectangle" fill="#C4C4C4" x="72.3181818" y="39.8396947" width="7.81818182" height="5.46819338"></rect>
                <rect id="Rectangle" fill="#C4C4C4" x="72.3181818" y="53.1195929" width="7.81818182" height="5.46819338"></rect>
                <rect id="Rectangle" fill="#C4C4C4" x="56.2909091" y="53.1195929" width="7.81818182" height="5.46819338"></rect>
                <rect id="Rectangle" fill="#C4C4C4" x="56.2909091" y="66.3994911" width="7.81818182" height="5.46819338"></rect>
                <rect id="Rectangle" fill="#C4C4C4" x="72.3181818" y="66.3994911" width="7.81818182" height="5.46819338"></rect>
                <rect id="Rectangle" fill="#C4C4C4" x="72.3181818" y="79.6793893" width="7.81818182" height="5.46819338"></rect>
                <rect id="Rectangle" fill="#C4C4C4" x="56.2909091" y="79.6793893" width="7.81818182" height="5.46819338"></rect>
                <rect id="Rectangle" fill="#C4C4C4" x="56.2909091" y="92.9592875" width="7.81818182" height="5.46819338"></rect>
                <rect id="Rectangle" fill="#C4C4C4" x="72.3181818" y="92.9592875" width="7.81818182" height="5.46819338"></rect>
                <rect id="Rectangle" fill="#C4C4C4" x="72.3181818" y="106.239186" width="7.81818182" height="5.46819338"></rect>
                <rect id="Rectangle" fill="#C4C4C4" x="56.2909091" y="106.239186" width="7.81818182" height="5.46819338"></rect>
                <rect id="Rectangle" fill="#C4C4C4" x="56.2909091" y="119.909669" width="7.81818182" height="5.46819338"></rect>
                <rect id="Rectangle" fill="#C4C4C4" x="72.3181818" y="119.909669" width="7.81818182" height="5.46819338"></rect>
                <rect id="Rectangle" fill="#C4C4C4" x="72.3181818" y="133.189567" width="7.81818182" height="5.46819338"></rect>
                <rect id="Rectangle" fill="#C4C4C4" x="56.2909091" y="133.189567" width="7.81818182" height="5.46819338"></rect>
                <polygon id="Path" fill="#F3F2F2" points="0 285.127226 0 66.7900763 67.6272727 78.7251101 67.6272727 285.127226"></polygon>
                <rect id="Rectangle" fill="#ECEBEB" x="44.5636364" y="90.2251908" width="8.99090909" height="32.8091603"></rect>
                <polygon id="Path" fill="#ECEBEB" points="81.7 85.296399 67.6272727 78.5076336 67.6272727 285.127226 81.7 278.290982"></polygon>
                <rect id="Rectangle" fill="#ECEBEB" x="14.0727273" y="89.8346056" width="8.99090909" height="32.8091603"></rect>
                <rect id="Rectangle" fill="#ECEBEB" x="29.3181818" y="116.394402" width="8.99090909" height="32.8091603"></rect>
                <rect id="Rectangle" fill="#ECEBEB" x="14.0727273" y="142.954198" width="8.99090909" height="32.8091603"></rect>
                <rect id="Rectangle" fill="#ECEBEB" x="44.5636364" y="142.954198" width="8.99090909" height="32.8091603"></rect>
                <rect id="Rectangle" fill="#ECEBEB" x="43.7818182" y="195.683206" width="8.99090909" height="32.8091603"></rect>
                <rect id="Rectangle" fill="#ECEBEB" x="14.0727273" y="195.683206" width="8.99090909" height="32.8091603"></rect>
                <polygon id="Path" fill="#F7F7F7" points="121.572727 31.7576772 148.154545 23.8256997 148.154545 51.5875817 121.572727 62.4936387"></polygon>
                <polygon id="Path" fill="#E3E3E3" points="148.154545 49.5868057 148.154545 23.8256997 181.772727 31.9820183 181.772727 58.197201"></polygon>
                <polygon id="Path" fill="#EDEDED" points="191.936364 295.282443 152.454545 294.497862 152.454545 47.6513995 191.936364 56.5379691"></polygon>
                <polygon id="Path" fill="#F9F9F9" points="109.845455 59.4905843 152.454545 47.6513995 152.454545 295.282443 109.845455 284.430019"></polygon>
                <polygon id="Path" fill="#C4C4C4" opacity="0.6" points="163.009091 207.010178 163.009091 49.9949109 166.136364 50.6651579 166.136364 207.010178"></polygon>
                <polygon id="Path" fill="#C4C4C4" opacity="0.6" points="172.390909 207.010178 172.390909 51.9484478 175.518182 52.6129497 175.518182 207.010178"></polygon>
                <polygon id="Path" fill="#C4C4C4" opacity="0.6" points="180.6 207.010178 180.6 53.9007401 183.727273 54.5701461 183.727273 207.010178"></polygon>
                <polygon id="Path" fill="#F0F0F0" points="247.836364 73.0394402 202.1 74.347957 202.1 307 247.836364 307"></polygon>
                <polygon id="Path" fill="#F2F2F2" points="247.836364 305.828244 247.836364 73.0394402 301 83.8949293 301 305.828244"></polygon>
                <polygon id="Rectangle" fill="#D5D4D2" transform="translate(274.640996, 100.455243) rotate(6.622650) translate(-274.640996, -100.455243) " points="258.000413 98.0384484 291.282037 98.0352896 291.281578 102.872038 257.999954 102.875197"></polygon>
                <polygon id="Rectangle" fill="#D5D4D2" transform="translate(274.640996, 109.048119) rotate(6.622650) translate(-274.640996, -109.048119) " points="258.000413 106.631324 291.282037 106.628165 291.281578 111.464914 257.999954 111.468072"></polygon>
                <polygon id="Rectangle" fill="#D5D4D2" transform="translate(274.640996, 118.422164) rotate(6.622650) translate(-274.640996, -118.422164) " points="258.000413 116.005369 291.282037 116.002211 291.281578 120.83896 257.999954 120.842118"></polygon>
                <polygon id="Rectangle" fill="#D5D4D2" transform="translate(274.640996, 147.325472) rotate(6.622650) translate(-274.640996, -147.325472) " points="258.000413 144.908677 291.282037 144.905519 291.281578 149.742267 257.999954 149.745426"></polygon>
                <polygon id="Rectangle" fill="#D5D4D2" transform="translate(274.250086, 155.918348) rotate(6.622650) translate(-274.250086, -155.918348) " points="257.609504 153.501553 290.891128 153.498394 290.890669 158.335143 257.609045 158.338301"></polygon>
                <polygon id="Rectangle" fill="#D5D4D2" transform="translate(274.640996, 164.511223) rotate(6.622650) translate(-274.640996, -164.511223) " points="258.000413 162.094428 291.282037 162.091269 291.281578 166.928018 257.999954 166.931177"></polygon>
                <polygon id="Rectangle" fill="#D5D4D2" transform="translate(274.640996, 190.289849) rotate(6.622650) translate(-274.640996, -190.289849) " points="258.000413 187.873054 291.282037 187.869895 291.281578 192.706644 257.999954 192.709803"></polygon>
                <polygon id="Rectangle" fill="#D5D4D2" transform="translate(274.640996, 199.663895) rotate(6.622650) translate(-274.640996, -199.663895) " points="258.000413 197.2471 291.282037 197.243941 291.281578 202.08069 257.999954 202.083849"></polygon>
                <polygon id="Rectangle" fill="#D5D4D2" transform="translate(274.640996, 208.647355) rotate(6.622650) translate(-274.640996, -208.647355) " points="258.000413 206.23056 291.282037 206.227402 291.281578 211.06415 257.999954 211.067309"></polygon>
                <polygon id="Rectangle" fill="#F4F4F4" transform="translate(224.995551, 189.899264) rotate(-0.449978) translate(-224.995551, -189.899264) " points="208.354531 187.480808 241.636541 187.481024 241.636572 192.31772 208.354562 192.317504"></polygon>
                <polygon id="Rectangle" fill="#F4F4F4" transform="translate(224.995551, 199.663895) rotate(-0.449978) translate(-224.995551, -199.663895) " points="208.354531 197.245439 241.636541 197.245655 241.636572 202.082351 208.354562 202.082135"></polygon>
                <polygon id="Rectangle" fill="#F4F4F4" transform="translate(224.995551, 209.428526) rotate(-0.449978) translate(-224.995551, -209.428526) " points="208.354531 207.01007 241.636541 207.010286 241.636572 211.846982 208.354562 211.846766"></polygon>
                <polygon id="Rectangle" fill="#F4F4F4" transform="translate(224.995551, 143.029035) rotate(-0.449978) translate(-224.995551, -143.029035) " points="208.354531 140.610579 241.636541 140.610795 241.636572 145.447491 208.354562 145.447275"></polygon>
                <polygon id="Rectangle" fill="#F4F4F4" transform="translate(224.995551, 152.793666) rotate(-0.449978) translate(-224.995551, -152.793666) " points="208.354531 150.37521 241.636541 150.375426 241.636572 155.212122 208.354562 155.211906"></polygon>
                <polygon id="Rectangle" fill="#F4F4F4" transform="translate(224.995551, 162.558297) rotate(-0.449978) translate(-224.995551, -162.558297) " points="208.354531 160.139841 241.636541 160.140057 241.636572 164.976753 208.354562 164.976537"></polygon>
                <polygon id="Rectangle" fill="#F4F4F4" transform="translate(224.995551, 96.939976) rotate(-0.449978) translate(-224.995551, -96.939976) " points="208.354531 94.5215201 241.636541 94.5217366 241.636572 99.3584325 208.354562 99.358216"></polygon>
                <polygon id="Rectangle" fill="#F4F4F4" transform="translate(224.995551, 106.704607) rotate(-0.449978) translate(-224.995551, -106.704607) " points="208.354531 104.286151 241.636541 104.286368 241.636572 109.123064 208.354562 109.122847"></polygon>
                <polygon id="Rectangle" fill="#F4F4F4" transform="translate(224.995551, 116.469238) rotate(-0.449978) translate(-224.995551, -116.469238) " points="208.354531 114.050782 241.636541 114.050999 241.636572 118.887695 208.354562 118.887478"></polygon>
            </g>
        </g>
        <g id="Group" transform="translate(180.000000, 87.000000)" fill-rule="nonzero">
            <g id="Gears">
                <path d="M99.1623608,139.031288 L116.749109,121.414589 L107.847728,112.500715 C110.639599,107.911923 112.64078,103.006762 113.904254,97.943211 L126.490089,97.943211 L126.490089,72.9422356 L113.904254,72.9422356 C112.64078,67.8786849 110.639599,62.9735233 107.847728,58.3847315 L116.749109,49.4708575 L99.1623608,31.8014986 L90.26098,40.7153726 C85.6798664,37.9198877 80.7808463,35.9155315 75.7269488,34.6496438 L75.7269488,22.0438356 L50.8161247,22.0438356 L50.8161247,34.6496438 C45.7622272,35.9155315 40.8632071,37.9198877 36.2820935,40.7153726 L27.331804,31.8014986 L9.74097996,49.4181973 L18.6423608,58.3320712 C15.85049,62.920863 13.8493096,67.8260247 12.5858352,72.8895753 L9.26712307e-14,72.8895753 L9.26712307e-14,97.8378904 L12.5858352,97.8378904 C13.8493096,102.901033 15.85049,107.806603 18.6423608,112.395395 L9.74097996,121.309268 L27.331804,138.925559 L36.2291091,130.012093 C40.8102227,132.807578 45.7092428,134.811526 50.767216,136.077414 L50.767216,148.68363 L75.6739644,148.68363 L75.6739644,136.077414 C80.7278619,134.811526 85.626882,132.807578 90.2079955,130.012093 L99.1623608,139.031288 Z M35.7563252,112.922814 C20.5905568,97.7321616 20.5905568,73.1006247 35.7563252,57.9099726 C50.9220935,42.7197288 75.5150111,42.7197288 90.6807795,57.9099726 C105.846548,73.1006247 105.846548,97.7321616 90.6807795,112.922814 C75.5150111,128.113058 50.9220935,128.113058 35.7563252,112.922814 Z" id="Shape" fill="#C4C4C4"></path>
                <ellipse id="Oval" fill="#D4D4D4" cx="63.1737194" cy="85.3178082" rx="25.2694878" ry="25.309589"></ellipse>
                <path d="M167.9402,64.4582164 L177.632272,54.7515808 L172.729176,49.8402959 C174.265724,47.3117863 175.370245,44.6093753 176.067194,41.8191973 L183,41.8191973 L183,28.0442493 L176.067194,28.0442493 C175.370245,25.2544795 174.265724,22.5516603 172.729176,20.0231507 L177.632272,15.1118658 L167.9402,5.37624658 L163.037105,10.2875315 C160.514232,8.74732055 157.816102,7.64308767 155.028307,6.94584932 L155.028307,2.32045737e-14 L141.305345,2.32045737e-14 L141.305345,6.94584932 C138.51755,7.64308767 135.819421,8.74732055 133.296548,10.2875315 L128.364922,5.37624658 L118.672851,15.0828822 L123.575947,19.9941671 C122.039399,22.5226767 120.934878,25.2254959 120.237929,28.0152658 L113.305122,28.0152658 L113.305122,41.7612301 L120.237929,41.7612301 C120.934878,44.551 122.039399,47.2538192 123.575947,49.7823288 L118.672851,54.6936137 L128.364922,64.4002493 L133.268018,59.4885562 C135.790891,61.0287671 138.48902,62.1334082 141.276815,62.8306466 L141.276815,69.7764959 L154.999777,69.7764959 L154.999777,62.8306466 C157.787572,62.1334082 160.485702,61.0287671 163.008575,59.4885562 L167.9402,64.4582164 Z M133.007171,50.0729808 C124.651938,41.703263 124.651938,28.1316082 133.007171,19.7618904 C141.362405,11.3921726 154.914187,11.3921726 163.269421,19.7618904 C171.624655,28.1316082 171.624655,41.703263 163.269421,50.0729808 C154.914187,58.4422904 141.362405,58.4422904 133.007171,50.0729808 Z" id="Shape" fill="#C4C4C4"></path>
                <ellipse id="Oval" fill="#D4D4D4" cx="148.111804" cy="34.8631425" rx="13.9230802" ry="13.9451753"></ellipse>
            </g>
        </g>
        <g id="Group" transform="translate(30.000000, 87.000000)">
            <path d="M121.8727,147.731941 C89.4567,103.072941 77.5284,76.483941 91.5187,20.292941 L88.1117,18.145941 C70.5012,67.918941 80.4937,97.970941 115.8747,153.471941 L115.6887,146.213941 L121.8727,147.731941 Z" id="Path" fill="#405FD3" fill-rule="nonzero"></path>
            <path d="M68.4443,199.166941 C94.9347,109.940941 17.3737,102.705941 93.9107,15.272941 L97.0027,16.031941 C33.7224,97.538941 102.9347,138.786941 78.1646,196.962941 L75.2018,190.334941 L68.4443,199.166941 Z" id="Path" fill="#FFD800" fill-rule="nonzero"></path>
            <path d="M139.2137,170.211941 L72.271,167.820941 L65.1625,117.529941 C65.1625,117.529941 96.1787,117.529941 89.8037,77.767941 L104.9447,76.173941 C107.0507,103.547941 108.1597,110.700941 130.8287,116.745941 C138.6237,129.373941 142.1007,140.611941 139.2137,170.211941 Z" id="Path" fill="#F7C28C" fill-rule="nonzero"></path>
            <path d="M97.4857,86.540941 C92.1937,86.288941 73.1455,66.801941 77.2332,34.974941 L114.5077,34.974941 C118.3707,69.499941 101.5167,86.820941 98.0597,86.607941 C97.8667,86.595941 97.6797,86.549941 97.4857,86.540941 Z" id="Path" fill="#FFC487" fill-rule="nonzero"></path>
            <path d="M99.3667,49.874941 C100.0997,49.154941 101.7577,48.281941 103.3517,49.874941" id="Path" stroke="#A0522D"></path>
            <path d="M87.2187,49.874941 C87.9517,49.154941 89.6097,48.281941 91.2037,49.874941" id="Path" stroke="#A0522D"></path>
            <path d="M99.0827,75.273941 C97.6647,73.855941 94.6717,72.882941 93.0777,75.273941" id="Path" stroke="#FF3A00"></path>
            <ellipse id="Oval" fill="#723969" fill-rule="nonzero" cx="101.7567" cy="57.047941" rx="1.59386" ry="3.18773"></ellipse>
            <ellipse id="Oval" fill="#723969" fill-rule="nonzero" cx="89.5577" cy="57.047941" rx="1.59386" ry="3.18773"></ellipse>
            <polygon id="Path" fill="#FFAF5B" fill-rule="nonzero" points="93.7877 66.610941 94.6397 61.525941 96.2337 61.525941 96.9757 66.610941"></polygon>
            <path d="M77.0525,52.265941 C76.0114,33.936941 109.7267,26.763941 114.5087,53.062941 C120.8837,38.717941 114.5087,23.576941 108.9297,19.591941 C128.0557,6.84094102 91.3977,-14.676159 94.5847,14.810941 C82.6307,20.505941 70.677,29.154941 77.0525,52.265941 Z" id="Path" fill="#A0522D" fill-rule="nonzero"></path>
            <path d="M67.6021,41.803941 C74.9688,32.957941 85.6427,23.992941 95.6767,31.888941 C96.4637,32.508941 97.1387,33.263941 97.7637,34.047941 C98.4797,34.946941 98.2787,36.264941 97.3267,36.908941 L96.5707,37.420941 C92.7467,40.008941 87.7747,38.751941 83.3077,37.583941 C78.4494,36.314941 73.5492,38.847941 67.6021,41.803941 Z" id="Path" fill="#A0522D" fill-rule="nonzero"></path>
            <path d="M77.4566,60.825941 L75.7924,55.728941 C75.2346,54.020941 76.5077,52.265941 78.3047,52.265941 L81.0367,63.422941 C79.4073,63.422941 77.9625,62.374941 77.4566,60.825941 Z" id="Path" fill="#FFC487" fill-rule="nonzero"></path>
            <path d="M114.9007,60.825941 L116.5647,55.728941 C117.1227,54.020941 115.8497,52.265941 114.0527,52.265941 L111.3207,63.422941 C112.9497,63.422941 114.3947,62.374941 114.9007,60.825941 Z" id="Path" fill="#FFC487" fill-rule="nonzero"></path>
            <path d="M112.9147,66.610941 L111.3207,43.499941 L115.3057,49.874941 C113.6867,50.392941 113.8987,57.500941 112.9147,66.610941 Z" id="Path" fill="#A0522D" fill-rule="nonzero"></path>
            <path d="M85.1127,108.213941 L77.9475,120.728941 L101.8307,149.931941 L120.9377,120.728941 L111.3847,106.544941 C136.7397,113.830941 155.9657,134.816941 162.2997,160.857941 L162.3367,160.777941 L162.5187,161.784941 C163.0717,164.185941 163.5157,166.628941 163.8457,169.106941 L201.4817,240.470941 L-9.9475983e-14,217.482941 L27.2699,167.450941 C36.7154,141.002941 59.2774,114.660941 85.1127,108.213941 Z" id="Path" fill="#234EA0" fill-rule="nonzero"></path>
            <ellipse id="Oval" fill="#1A3A78" fill-rule="nonzero" transform="translate(50.034500, 150.069941) scale(-1, 1) rotate(-40.172527) translate(-50.034500, -150.069941) " cx="50.0345" cy="150.069941" rx="16.3924906" ry="6.40967631"></ellipse>
            <path d="M74.7084,92.243941 L31.3265,163.536941 C34.1509,173.382941 38.4732,175.909941 49.3263,174.607941 L83.0237,93.630941 L90.1257,85.111941 L92.4467,79.048941 C92.4467,79.048941 93.8587,76.199941 93.0447,75.316941 C92.5097,74.735941 91.9777,74.236941 91.2577,74.560941 L88.6787,77.392941 C88.6787,77.392941 90.2317,72.192941 90.8717,70.505941 C91.5107,68.819941 88.9357,66.421941 88.3227,68.037941 C87.7097,69.653941 86.4907,72.841941 86.4907,72.841941 C86.4907,72.841941 87.2137,70.958941 88.0137,68.850941 C88.8137,66.742941 85.7477,65.729941 84.7707,68.305941 C83.7927,70.881941 83.3997,71.668941 83.3997,71.668941 C83.3997,71.668941 84.4377,69.187941 84.8997,67.969941 C85.3617,66.751941 82.2257,66.542941 81.3997,68.720941 C80.5727,70.898941 79.7214,72.041941 79.7214,72.041941 C79.7214,72.041941 81.8027,69.192941 81.4157,67.901941 C81.0287,66.609941 76.7714,69.728941 75.1636,74.732941 C73.5558,79.736941 74.7084,92.243941 74.7084,92.243941 Z" id="Path" fill="#FFC487" fill-rule="nonzero"></path>
            <path d="M51.4823,189.963941 L38.8674,188.259941 C24.0213,186.254941 16.5687,169.240941 25.161,156.968941 L37.8624,138.828941 C41.0341,154.079941 49.3988,159.227941 62.8788,160.238941 L51.4823,189.963941 Z" id="Path" fill="#234EA0" fill-rule="nonzero"></path>
            <ellipse id="Oval" fill="#1A3A78" fill-rule="nonzero" transform="translate(179.277700, 213.721941) scale(-1, 1) rotate(18.796144) translate(-179.277700, -213.721941) " cx="179.2777" cy="213.721941" rx="27.3913015" ry="6.40968036"></ellipse>
            <path d="M205.9047,263.391941 L179.3687,184.267941 C170.0217,180.079941 165.3037,181.754941 159.3017,190.890941 L199.4837,268.854941 L201.4177,279.774941 L204.5557,285.457941 C204.5557,285.457941 205.8237,288.373941 207.0237,288.321941 C207.8127,288.286941 208.5367,288.201941 208.7537,287.442941 L208.2507,283.644941 C208.2507,283.644941 211.2257,288.184941 212.1027,289.760941 C212.9787,291.336941 216.4727,290.914941 215.6327,289.403941 C214.7927,287.893941 213.1407,284.906941 213.1407,284.906941 C213.1407,284.906941 214.1137,286.672941 215.2097,288.643941 C216.3057,290.613941 219.0567,288.923941 217.7177,286.515941 C216.3777,284.107941 216.0297,283.299941 216.0297,283.299941 C216.0297,283.299941 217.2577,285.692941 217.8907,286.830941 C218.5237,287.969941 220.7057,285.707941 219.5727,283.671941 C218.4407,281.635941 218.1167,280.247941 218.1167,280.247941 C218.1167,280.247941 218.9527,283.674941 220.1887,284.211941 C221.4257,284.748941 221.7857,279.482941 218.9967,275.027941 C216.2087,270.573941 205.9047,263.391941 205.9047,263.391941 Z" id="Path" fill="#FFC487" fill-rule="nonzero"></path>
            <path d="M205.3127,204.636941 L148.7447,134.095941 L153.2517,221.990941 C170.5117,210.587941 181.6047,204.367941 205.3127,204.636941 Z" id="Path" fill="#234EA0" fill-rule="nonzero"></path>
        </g>
        <g id="Group" transform="translate(0.000000, 266.000000)" fill="#FFFFFF" fill-rule="nonzero">
            <g id="Path">
                <path d="M169.543,27.074 C101.202,6.626 11.2809,18.464 0,31.965 L0,140 L375,140 L375,0 C365.073,34.573 257.04,53.253 169.543,27.074 Z"></path>
            </g>
        </g>
    </g>
</svg>