<?xml version="1.0" encoding="UTF-8"?>
<svg width="375px" height="406px" viewBox="0 0 375 406" version="1.1" xmlns="http://www.w3.org/2000/svg" xmlns:xlink="http://www.w3.org/1999/xlink">
    <title>500_sm</title>
    <g id="Page-1" stroke="none" stroke-width="1" fill="none" fill-rule="evenodd">
        <g id="500_sm">
            <polygon id="Path" fill="#F6F6F6" fill-rule="nonzero" points="105.554 32.5822 150.992 0 150.992 237.385 105.554 237.385"></polygon>
            <polygon id="Path" fill="#F0F0F0" fill-rule="nonzero" points="150.992 0 185.07 11.0794 185.07 235.833 150.992 235.833"></polygon>
            <rect id="Rectangle" fill="#C4C4C4" fill-rule="nonzero" x="114.074" y="46.546" width="8.51958" height="6.20614"></rect>
            <rect id="Rectangle" fill="#C4C4C4" fill-rule="nonzero" x="131.113" y="46.546" width="8.51958" height="6.20614"></rect>
            <rect id="Rectangle" fill="#C4C4C4" fill-rule="nonzero" x="131.113" y="62.0614" width="8.51958" height="6.20614"></rect>
            <rect id="Rectangle" fill="#C4C4C4" fill-rule="nonzero" x="114.074" y="62.0614" width="8.51958" height="6.20614"></rect>
            <rect id="Rectangle" fill="#C4C4C4" fill-rule="nonzero" x="114.074" y="77.5768" width="8.51958" height="6.20614"></rect>
            <rect id="Rectangle" fill="#C4C4C4" fill-rule="nonzero" x="131.113" y="77.5768" width="8.51958" height="6.20614"></rect>
            <rect id="Rectangle" fill="#C4C4C4" fill-rule="nonzero" x="131.113" y="93.092" width="8.51958" height="6.20614"></rect>
            <rect id="Rectangle" fill="#C4C4C4" fill-rule="nonzero" x="114.074" y="93.092" width="8.51958" height="6.20614"></rect>
            <rect id="Rectangle" fill="#C4C4C4" fill-rule="nonzero" x="114.074" y="108.607" width="8.51958" height="6.20614"></rect>
            <rect id="Rectangle" fill="#C4C4C4" fill-rule="nonzero" x="131.113" y="108.607" width="8.51958" height="6.20614"></rect>
            <rect id="Rectangle" fill="#C4C4C4" fill-rule="nonzero" x="131.113" y="124.123" width="8.51958" height="6.20614"></rect>
            <rect id="Rectangle" fill="#C4C4C4" fill-rule="nonzero" x="114.074" y="124.123" width="8.51958" height="6.20614"></rect>
            <rect id="Rectangle" fill="#C4C4C4" fill-rule="nonzero" x="114.074" y="139.638" width="8.51958" height="6.20614"></rect>
            <rect id="Rectangle" fill="#C4C4C4" fill-rule="nonzero" x="131.113" y="139.638" width="8.51958" height="6.20614"></rect>
            <rect id="Rectangle" fill="#C4C4C4" fill-rule="nonzero" x="131.113" y="155.154" width="8.51958" height="6.20614"></rect>
            <rect id="Rectangle" fill="#C4C4C4" fill-rule="nonzero" x="114.074" y="155.154" width="8.51958" height="6.20614"></rect>
            <polygon id="Path" fill="#F3F2F2" fill-rule="nonzero" points="54 332.267 54 67.7901 126.01 90.0954 126.01 332.267"></polygon>
            <polygon id="Path" fill="#ECEBEB" fill-rule="nonzero" points="141.17 99.4097 126.01 90.0954 126.01 332.267 141.17 324.301"></polygon>
            <rect id="Rectangle" fill="#ECEBEB" fill-rule="nonzero" x="65.3701" y="102.841" width="9.47498" height="38.2376"></rect>
            <rect id="Rectangle" fill="#ECEBEB" fill-rule="nonzero" x="103.27" y="102.841" width="9.47498" height="38.2376"></rect>
            <rect id="Rectangle" fill="#ECEBEB" fill-rule="nonzero" x="84.3198" y="137.892" width="9.47498" height="38.2376"></rect>
            <rect id="Rectangle" fill="#ECEBEB" fill-rule="nonzero" x="65.3701" y="166.571" width="9.47498" height="38.2376"></rect>
            <rect id="Rectangle" fill="#ECEBEB" fill-rule="nonzero" x="99.48" y="166.571" width="9.47498" height="38.2376"></rect>
            <rect id="Rectangle" fill="#ECEBEB" fill-rule="nonzero" x="99.48" y="223.927" width="9.47498" height="38.2376"></rect>
            <rect id="Rectangle" fill="#ECEBEB" fill-rule="nonzero" x="65.3701" y="227.114" width="9.47498" height="38.2376"></rect>
            <polygon id="Path" fill="#F7F7F7" fill-rule="nonzero" points="183.723 37.0873 215.306 26.7341 215.306 58.9439 183.723 72.7481"></polygon>
            <polygon id="Path" fill="#E3E3E3" fill-rule="nonzero" points="215.306 57.7936 215.306 26.7341 247.943 27.8845 247.943 69.2971"></polygon>
            <polygon id="Path" fill="#EDEDED" fill-rule="nonzero" points="258.47 329.276 214.253 343.081 215.306 55.4929 258.47 65.8461"></polygon>
            <polygon id="Path" fill="#F9F9F9" fill-rule="nonzero" points="171.09 69.2971 216.359 55.4929 216.359 344.231 171.09 331.577"></polygon>
            <polygon id="Path" fill="#C4C4C4" fill-rule="nonzero" opacity="0.6" points="224.781 240.699 224.781 57.7936 227.94 58.5485 227.94 240.699"></polygon>
            <polygon id="Path" fill="#C4C4C4" fill-rule="nonzero" opacity="0.6" points="234.256 240.699 234.256 60.0944 237.415 60.8852 237.415 240.699"></polygon>
            <polygon id="Path" fill="#C4C4C4" fill-rule="nonzero" opacity="0.6" points="244.784 240.699 244.784 62.395 247.942 63.5454 247.942 240.699"></polygon>
            <polygon id="Path" fill="#F0F0F0" fill-rule="nonzero" points="320.953 83.8128 274.6437 72.7481 269.48 358 320.953 358"></polygon>
            <polygon id="Path" fill="#F2F2F2" fill-rule="nonzero" points="318.38 356.594 318.38 85.2189 375 97.8737 375 356.594"></polygon>
            <rect id="Rectangle" fill="#F4F4F4" fill-rule="nonzero" transform="translate(296.909565, 223.068930) rotate(1.418720) translate(-296.909565, -223.068930) " x="279.170773" y="220.250011" width="35.4775836" height="5.63783803"></rect>
            <rect id="Rectangle" fill="#F4F4F4" fill-rule="nonzero" transform="translate(297.703565, 232.788930) rotate(1.418720) translate(-297.703565, -232.788930) " x="279.964773" y="229.970011" width="35.4775836" height="5.63783803"></rect>
            <rect id="Rectangle" fill="#F4F4F4" fill-rule="nonzero" transform="translate(298.618565, 243.992930) rotate(1.418720) translate(-298.618565, -243.992930) " x="280.879773" y="241.174011" width="35.4775836" height="5.63783803"></rect>
            <rect id="Rectangle" fill="#F4F4F4" fill-rule="nonzero" transform="translate(296.909565, 168.476930) rotate(1.418720) translate(-296.909565, -168.476930) " x="279.170773" y="165.658011" width="35.4775836" height="5.63783803"></rect>
            <rect id="Rectangle" fill="#F4F4F4" fill-rule="nonzero" transform="translate(297.703565, 178.196930) rotate(1.418720) translate(-297.703565, -178.196930) " x="279.964773" y="175.378011" width="35.4775836" height="5.63783803"></rect>
            <rect id="Rectangle" fill="#F4F4F4" fill-rule="nonzero" transform="translate(298.618565, 189.400930) rotate(1.418720) translate(-298.618565, -189.400930) " x="280.879773" y="186.582011" width="35.4775836" height="5.63783803"></rect>
            <rect id="Rectangle" fill="#F4F4F4" fill-rule="nonzero" transform="translate(296.909565, 115.045930) rotate(1.418720) translate(-296.909565, -115.045930) " x="279.170773" y="112.227011" width="35.4775836" height="5.63783803"></rect>
            <rect id="Rectangle" fill="#F4F4F4" fill-rule="nonzero" transform="translate(297.703565, 124.765930) rotate(1.418720) translate(-297.703565, -124.765930) " x="279.964773" y="121.947011" width="35.4775836" height="5.63783803"></rect>
            <rect id="Rectangle" fill="#F4F4F4" fill-rule="nonzero" transform="translate(298.618565, 135.969930) rotate(1.418720) translate(-298.618565, -135.969930) " x="280.879773" y="133.151011" width="35.4775836" height="5.63783803"></rect>
            <path d="M141.887,259.732 C109.471,215.073 97.5426,188.484 111.533,132.293 L108.126,130.146 C90.5154,179.919 100.507,209.971 135.889,265.472 L135.703,258.214 L141.887,259.732 Z" id="Path" fill="#405FD3" fill-rule="nonzero"></path>
            <path d="M88.4587,311.167 C114.949,221.941 37.3882,214.706 113.925,127.273 L117.017,128.032 C53.7368,209.539 122.949,250.787 98.179,308.963 L95.2162,302.335 L88.4587,311.167 Z" id="Path" fill="#FFD800" fill-rule="nonzero"></path>
            <path d="M159.228,282.212 L92.2853,279.821 L85.1768,229.53 C85.1768,229.53 116.193,229.53 109.818,189.768 L124.959,188.174 C127.065,215.548 128.174,222.701 150.843,228.746 C158.638,241.374 162.115,252.612 159.228,282.212 Z" id="Path" fill="#F7C28C" fill-rule="nonzero"></path>
            <path d="M117.5,198.541 C112.208,198.289 93.1598,178.802 97.2475,146.975 L134.522,146.975 C138.385,181.5 121.531,198.821 118.074,198.608 C117.881,198.596 117.694,198.55 117.5,198.541 Z" id="Path" fill="#FFC487" fill-rule="nonzero"></path>
            <path d="M119.381,161.875 C120.114,161.155 121.772,160.282 123.366,161.875" id="Path" stroke="#A0522D"></path>
            <path d="M107.233,161.875 C107.966,161.155 109.624,160.282 111.218,161.875" id="Path" stroke="#A0522D"></path>
            <path d="M119.097,187.274 C117.679,185.856 114.686,184.883 113.092,187.274" id="Path" stroke="#FF3A00"></path>
            <ellipse id="Oval" fill="#723969" fill-rule="nonzero" cx="121.771" cy="169.048" rx="1.59386" ry="3.18773"></ellipse>
            <ellipse id="Oval" fill="#723969" fill-rule="nonzero" cx="109.572" cy="169.048" rx="1.59386" ry="3.18773"></ellipse>
            <polygon id="Path" fill="#FFAF5B" fill-rule="nonzero" points="113.802 178.611 114.654 173.526 116.248 173.526 116.99 178.611"></polygon>
            <path d="M97.0667,164.266 C96.0256,145.937 129.741,138.764 134.523,165.063 C140.898,150.718 134.523,135.577 128.944,131.592 C148.07,118.841 111.411,97.3239 114.599,126.811 C102.645,132.506 90.6912,141.155 97.0667,164.266 Z" id="Path" fill="#A0522D" fill-rule="nonzero"></path>
            <path d="M87.6162,153.804 C94.9829,144.958 105.657,135.993 115.69,143.889 C116.478,144.509 117.153,145.264 117.777,146.048 C118.494,146.947 118.292,148.265 117.341,148.909 L116.585,149.421 C112.761,152.009 107.789,150.752 103.322,149.584 C98.4635,148.315 93.5633,150.848 87.6162,153.804 Z" id="Path" fill="#A0522D" fill-rule="nonzero"></path>
            <path d="M97.4708,172.826 L95.8066,167.729 C95.2488,166.021 96.5218,164.266 98.3189,164.266 L101.051,175.423 C99.4215,175.423 97.9766,174.375 97.4708,172.826 Z" id="Path" fill="#FFC487" fill-rule="nonzero"></path>
            <path d="M134.915,172.826 L136.579,167.729 C137.137,166.021 135.864,164.266 134.067,164.266 L131.335,175.423 C132.964,175.423 134.409,174.375 134.915,172.826 Z" id="Path" fill="#FFC487" fill-rule="nonzero"></path>
            <path d="M132.929,178.611 L131.335,155.5 L135.32,161.875 C133.701,162.393 133.913,169.501 132.929,178.611 Z" id="Path" fill="#A0522D" fill-rule="nonzero"></path>
            <path d="M105.127,220.214 L97.9617,232.729 L121.845,261.932 L140.952,232.729 L131.399,218.545 C156.754,225.831 175.98,246.817 182.314,272.858 L182.351,272.778 L182.533,273.785 C183.086,276.186 183.53,278.629 183.859,281.107 L221.496,352.471 L20.0142,329.483 L47.2841,279.451 C56.7296,253.003 79.2915,226.661 105.127,220.214 Z" id="Path" fill="#234EA0" fill-rule="nonzero"></path>
            <ellipse id="Oval" fill="#1A3A78" fill-rule="nonzero" transform="translate(70.048800, 262.070000) scale(-1, 1) rotate(-40.172527) translate(-70.048800, -262.070000) " cx="70.0488" cy="262.07" rx="16.3924906" ry="6.40967631"></ellipse>
            <path d="M94.7226,204.244 L51.3407,275.537 C54.165,285.383 58.4874,287.91 69.3405,286.608 L103.038,205.631 L110.14,197.112 L112.461,191.049 C112.461,191.049 113.873,188.2 113.059,187.317 C112.524,186.736 111.992,186.237 111.272,186.561 L108.693,189.393 C108.693,189.393 110.246,184.193 110.885,182.506 C111.525,180.82 108.95,178.422 108.337,180.038 C107.724,181.654 106.505,184.842 106.505,184.842 C106.505,184.842 107.228,182.959 108.028,180.851 C108.827,178.743 105.762,177.73 104.785,180.306 C103.807,182.882 103.414,183.669 103.414,183.669 C103.414,183.669 104.452,181.188 104.914,179.97 C105.376,178.752 102.24,178.543 101.414,180.721 C100.587,182.899 99.7356,184.042 99.7356,184.042 C99.7356,184.042 101.817,181.193 101.43,179.902 C101.043,178.61 96.7856,181.729 95.1778,186.733 C93.57,191.737 94.7226,204.244 94.7226,204.244 Z" id="Path" fill="#FFC487" fill-rule="nonzero"></path>
            <path d="M71.4965,301.964 L58.8816,300.26 C44.0355,298.255 36.5829,281.241 45.1752,268.969 L57.8765,250.829 C61.0482,266.08 69.413,271.228 82.893,272.239 L71.4965,301.964 Z" id="Path" fill="#234EA0" fill-rule="nonzero"></path>
            <ellipse id="Oval" fill="#E90022" fill-rule="nonzero" transform="translate(199.292000, 325.722000) scale(-1, 1) rotate(18.796144) translate(-199.292000, -325.722000) " cx="199.292" cy="325.722" rx="27.3913015" ry="6.40968036"></ellipse>
            <path d="M225.919,375.392 L199.383,296.268 C190.036,292.08 185.318,293.755 179.316,302.891 L219.498,380.855 L221.432,391.775 L224.571,397.458 C224.571,397.458 225.838,400.374 227.038,400.322 C227.827,400.287 228.551,400.202 228.768,399.443 L228.265,395.645 C228.265,395.645 231.24,400.185 232.117,401.761 C232.993,403.337 236.487,402.915 235.647,401.404 C234.807,399.894 233.155,396.907 233.155,396.907 C233.155,396.907 234.129,398.673 235.224,400.644 C236.32,402.614 239.071,400.924 237.732,398.516 C236.393,396.108 236.044,395.3 236.044,395.3 C236.044,395.3 237.272,397.693 237.905,398.831 C238.538,399.97 240.72,397.708 239.588,395.672 C238.455,393.636 238.131,392.248 238.131,392.248 C238.131,392.248 238.967,395.675 240.204,396.212 C241.44,396.749 241.8,391.483 239.012,387.028 C236.223,382.574 225.919,375.392 225.919,375.392 Z" id="Path" fill="#FFC487" fill-rule="nonzero"></path>
            <path d="M225.328,316.637 L168.759,246.096 L173.267,333.991 C190.527,322.588 201.619,316.368 225.328,316.637 Z" id="Path" fill="#234EA0" fill-rule="nonzero"></path>
            <path d="M205.457,295.949 C273.798,282.393 363.719,290.241 375,299.191 L375,406 L0,406 L0,278 C9.92734,300.921 117.96,313.305 205.457,295.949 Z" id="Path" fill="#FFFFFF" fill-rule="nonzero"></path>
            <path d="M284.174,231.431 L299.814,215.791 L291.9,207.877 C294.382,203.803 296.161,199.449 297.285,194.953 L308.476,194.953 L308.476,172.758 L297.285,172.758 C296.161,168.262 294.382,163.907 291.9,159.834 L299.814,151.92 L284.174,136.233 L276.26,144.147 C272.186,141.665 267.831,139.886 263.336,138.762 L263.336,127.57 L241.187,127.57 L241.187,138.762 C236.692,139.886 232.337,141.665 228.263,144.147 L220.303,136.233 L204.663,151.873 L212.576,159.787 C210.095,163.861 208.315,168.215 207.191,172.711 L196,172.711 L196,194.86 L207.191,194.86 C208.315,199.355 210.095,203.71 212.576,207.784 L204.663,215.697 L220.303,231.337 L228.216,223.424 C232.29,225.905 236.645,227.685 241.14,228.809 L241.14,240 L263.289,240 L263.289,228.809 C267.785,227.685 272.139,225.905 276.213,223.424 L284.174,231.431 Z M227.795,208.252 C214.309,194.766 214.309,172.898 227.795,159.412 C241.281,145.926 263.149,145.926 276.635,159.412 C290.121,172.898 290.121,194.766 276.635,208.252 C263.149,221.738 241.281,221.738 227.795,208.252 Z" id="Shape" fill="#C4C4C4" fill-rule="nonzero"></path>
            <circle id="Oval" fill="#D4D4D4" fill-rule="nonzero" cx="252.174" cy="183.744" r="22.4697"></circle>
            <path d="M345.334,165.225 L353.952,156.608 L349.591,152.248 C350.959,150.003 351.939,147.604 352.558,145.127 L358.725,145.127 L358.725,132.897 L352.558,132.897 C351.939,130.421 350.959,128.021 349.591,125.777 L353.952,121.416 L345.334,112.773 L340.974,117.133 C338.729,115.766 336.33,114.786 333.853,114.166 L333.853,108 L321.649,108 L321.649,114.166 C319.173,114.786 316.773,115.766 314.528,117.133 L310.142,112.773 L301.525,121.39 L305.885,125.751 C304.518,127.995 303.537,130.395 302.918,132.872 L296.752,132.872 L296.752,145.075 L302.918,145.075 C303.537,147.552 304.518,149.952 305.885,152.196 L301.525,156.557 L310.142,165.174 L314.503,160.814 C316.747,162.181 319.147,163.161 321.624,163.781 L321.624,169.947 L333.827,169.947 L333.827,163.781 C336.304,163.161 338.704,162.181 340.948,160.814 L345.334,165.225 Z M314.27,152.454 C306.84,145.024 306.84,132.975 314.27,125.544 C321.701,118.114 333.75,118.114 341.18,125.544 C348.611,132.975 348.611,145.024 341.18,152.454 C333.75,159.885 321.701,159.885 314.27,152.454 Z" id="Shape" fill="#C4C4C4" fill-rule="nonzero"></path>
            <circle id="Oval" fill="#D4D4D4" fill-rule="nonzero" cx="327.703" cy="138.951" r="12.3804"></circle>
        </g>
    </g>
</svg>