<svg width="3750" height="4060" viewBox="0 0 375 406" fill="none" xmlns="http://www.w3.org/2000/svg">
<path d="M105.554 32.5822L150.992 0V237.385H105.554V32.5822Z" fill="#F6F6F6"/>
<path d="M150.992 0L185.07 11.0794V235.833H150.992V0Z" fill="#F0F0F0"/>
<rect x="114.074" y="46.546" width="8.51958" height="6.20614" fill="#C4C4C4"/>
<rect x="131.113" y="46.546" width="8.51958" height="6.20614" fill="#C4C4C4"/>
<rect x="131.113" y="62.0614" width="8.51958" height="6.20614" fill="#C4C4C4"/>
<rect x="114.074" y="62.0614" width="8.51958" height="6.20614" fill="#C4C4C4"/>
<rect x="114.074" y="77.5768" width="8.51958" height="6.20614" fill="#C4C4C4"/>
<rect x="131.113" y="77.5768" width="8.51958" height="6.20614" fill="#C4C4C4"/>
<rect x="131.113" y="93.092" width="8.51958" height="6.20614" fill="#C4C4C4"/>
<rect x="114.074" y="93.092" width="8.51958" height="6.20614" fill="#C4C4C4"/>
<rect x="114.074" y="108.607" width="8.51958" height="6.20614" fill="#C4C4C4"/>
<rect x="131.113" y="108.607" width="8.51958" height="6.20614" fill="#C4C4C4"/>
<rect x="131.113" y="124.123" width="8.51958" height="6.20614" fill="#C4C4C4"/>
<rect x="114.074" y="124.123" width="8.51958" height="6.20614" fill="#C4C4C4"/>
<rect x="114.074" y="139.638" width="8.51958" height="6.20614" fill="#C4C4C4"/>
<rect x="131.113" y="139.638" width="8.51958" height="6.20614" fill="#C4C4C4"/>
<rect x="131.113" y="155.154" width="8.51958" height="6.20614" fill="#C4C4C4"/>
<rect x="114.074" y="155.154" width="8.51958" height="6.20614" fill="#C4C4C4"/>
<path d="M54 332.267V67.7901L126.957 91.6887V332.267H54Z" fill="#F3F2F2"/>
<path d="M141.17 99.4097L126.01 90.0954V332.267L141.17 324.301V99.4097Z" fill="#ECEBEB"/>
<rect x="65.3701" y="102.841" width="9.47498" height="38.2376" fill="#ECEBEB"/>
<rect x="103.27" y="102.841" width="9.47498" height="38.2376" fill="#ECEBEB"/>
<rect x="84.3198" y="137.892" width="9.47498" height="38.2376" fill="#ECEBEB"/>
<rect x="65.3701" y="166.571" width="9.47498" height="38.2376" fill="#ECEBEB"/>
<rect x="99.48" y="166.571" width="9.47498" height="38.2376" fill="#ECEBEB"/>
<rect x="99.48" y="223.927" width="9.47498" height="38.2376" fill="#ECEBEB"/>
<rect x="65.3701" y="227.114" width="9.47498" height="38.2376" fill="#ECEBEB"/>
<path d="M183.723 37.0873L215.306 26.7341V58.9439L183.723 72.7481V37.0873Z" fill="#F7F7F7"/>
<path d="M212.148 57.7936V27.8845H247.943V69.2971L212.148 57.7936Z" fill="#E3E3E3"/>
<path d="M258.47 329.276L214.253 343.081L215.306 55.4929L258.47 65.8461V329.276Z" fill="#EDEDED"/>
<path d="M171.09 69.2971L216.359 55.4929V344.231L171.09 331.577V69.2971Z" fill="#F9F9F9"/>
<path opacity="0.6" d="M224.781 240.699V57.7936L227.94 58.5485V240.699H224.781Z" fill="#C4C4C4"/>
<path opacity="0.6" d="M234.256 240.699V60.0944L237.415 60.8852V240.699H234.256Z" fill="#C4C4C4"/>
<path opacity="0.6" d="M244.784 240.699V62.395L247.942 63.5454V240.699H244.784Z" fill="#C4C4C4"/>
<path d="M320.953 83.8128L278.488 72.5641L269.48 358H320.953V83.8128Z" fill="#F0F0F0"/>
<path d="M318.38 356.594V85.2189L375 97.8737V356.594H318.38Z" fill="#F2F2F2"/>
<rect width="35.4776" height="5.63784" transform="matrix(0.999863 -0.0165245 -0.024763 0.999693 279.243 220.544)" fill="#F4F4F4"/>
<rect width="35.4776" height="5.63784" transform="matrix(0.999863 -0.0165245 -0.024763 0.999693 280.037 230.264)" fill="#F4F4F4"/>
<rect width="35.4776" height="5.63784" transform="matrix(0.999863 -0.0165245 -0.024763 0.999693 280.952 241.468)" fill="#F4F4F4"/>
<rect width="35.4776" height="5.63784" transform="matrix(0.999863 -0.0165245 -0.024763 0.999693 279.243 165.952)" fill="#F4F4F4"/>
<rect width="35.4776" height="5.63784" transform="matrix(0.999863 -0.0165245 -0.024763 0.999693 280.037 175.672)" fill="#F4F4F4"/>
<rect width="35.4776" height="5.63784" transform="matrix(0.999863 -0.0165245 -0.024763 0.999693 280.952 186.876)" fill="#F4F4F4"/>
<rect width="35.4776" height="5.63784" transform="matrix(0.999863 -0.0165245 -0.024763 0.999693 279.243 112.521)" fill="#F4F4F4"/>
<rect width="35.4776" height="5.63784" transform="matrix(0.999863 -0.0165245 -0.024763 0.999693 280.037 122.241)" fill="#F4F4F4"/>
<rect width="35.4776" height="5.63784" transform="matrix(0.999863 -0.0165245 -0.024763 0.999693 280.952 133.445)" fill="#F4F4F4"/>
<path d="M141.887 259.732C109.471 215.073 97.5426 188.484 111.533 132.293L108.126 130.146C90.5154 179.919 100.507 209.971 135.889 265.472L135.703 258.214L141.887 259.732Z" fill="#FFAEC3"/>
<path d="M88.4587 311.167C114.949 221.941 37.3882 214.706 113.925 127.273L117.017 128.032C53.7368 209.539 122.949 250.787 98.179 308.963L95.2162 302.335L88.4587 311.167Z" fill="#FFAEC3"/>
<path d="M159.228 282.212L92.2853 279.821L85.1768 229.53C85.1768 229.53 116.193 229.53 109.818 189.768L124.959 188.174C127.065 215.548 128.174 222.701 150.843 228.746C158.638 241.374 162.115 252.612 159.228 282.212Z" fill="#F7C28C"/>
<path d="M117.5 198.541C112.208 198.289 93.1598 178.802 97.2475 146.975H134.522C138.385 181.5 121.531 198.821 118.074 198.608C117.881 198.596 117.694 198.55 117.5 198.541Z" fill="#FFC487"/>
<path d="M119.381 161.875C120.114 161.155 121.772 160.282 123.366 161.875" stroke="#FF8B00"/>
<path d="M107.233 161.875C107.966 161.155 109.624 160.282 111.218 161.875" stroke="#FF8B00"/>
<path d="M119.097 187.274C117.679 185.856 114.686 184.883 113.092 187.274" stroke="#FF3A00"/>
<ellipse cx="121.771" cy="169.048" rx="1.59386" ry="3.18773" fill="#723969"/>
<ellipse cx="109.572" cy="169.048" rx="1.59386" ry="3.18773" fill="#723969"/>
<path d="M113.802 178.611L114.654 173.526H116.248L116.99 178.611H113.802Z" fill="#FFAF5B"/>
<path d="M97.0667 164.266C96.0256 145.937 129.741 138.764 134.523 165.063C140.898 150.718 134.523 135.577 128.944 131.592C148.07 118.841 111.411 97.3239 114.599 126.811C102.645 132.506 90.6912 141.155 97.0667 164.266Z" fill="#FFB50C"/>
<path d="M87.6162 153.804C94.9829 144.958 105.657 135.993 115.69 143.889C116.478 144.509 117.153 145.264 117.777 146.048C118.494 146.947 118.292 148.265 117.341 148.909L116.585 149.421C112.761 152.009 107.789 150.752 103.322 149.584C98.4635 148.315 93.5633 150.848 87.6162 153.804Z" fill="#FAB008"/>
<path d="M97.4708 172.826L95.8066 167.729C95.2488 166.021 96.5218 164.266 98.3189 164.266L101.051 175.423C99.4215 175.423 97.9766 174.375 97.4708 172.826Z" fill="#FFC487"/>
<path d="M134.915 172.826L136.579 167.729C137.137 166.021 135.864 164.266 134.067 164.266L131.335 175.423C132.964 175.423 134.409 174.375 134.915 172.826Z" fill="#FFC487"/>
<path d="M132.929 178.611L131.335 155.5L135.32 161.875C133.701 162.393 133.913 169.501 132.929 178.611Z" fill="#FFB50C"/>
<path d="M105.127 220.214L97.9617 232.729L121.845 261.932L140.952 232.729L131.399 218.545C156.754 225.831 175.98 246.817 182.314 272.858L182.351 272.778L182.533 273.785C183.086 276.186 183.53 278.629 183.859 281.107L221.496 352.471L20.0142 329.483L47.2841 279.451C56.7296 253.003 79.2915 226.661 105.127 220.214Z" fill="#F54C48"/>
<ellipse rx="16.3925" ry="6.40968" transform="matrix(-0.764105 -0.645091 -0.645091 0.764105 70.0488 262.07)" fill="#E90022"/>
<path d="M94.7226 204.244L51.3407 275.537C54.165 285.383 58.4874 287.91 69.3405 286.608L103.038 205.631L110.14 197.112L112.461 191.049C112.461 191.049 113.873 188.2 113.059 187.317C112.524 186.736 111.992 186.237 111.272 186.561L108.693 189.393C108.693 189.393 110.246 184.193 110.885 182.506C111.525 180.82 108.95 178.422 108.337 180.038C107.724 181.654 106.505 184.842 106.505 184.842C106.505 184.842 107.228 182.959 108.028 180.851C108.827 178.743 105.762 177.73 104.785 180.306C103.807 182.882 103.414 183.669 103.414 183.669C103.414 183.669 104.452 181.188 104.914 179.97C105.376 178.752 102.24 178.543 101.414 180.721C100.587 182.899 99.7356 184.042 99.7356 184.042C99.7356 184.042 101.817 181.193 101.43 179.902C101.043 178.61 96.7856 181.729 95.1778 186.733C93.57 191.737 94.7226 204.244 94.7226 204.244Z" fill="#FFC487"/>
<path d="M71.4965 301.964L58.8816 300.26C44.0355 298.255 36.5829 281.241 45.1752 268.969L57.8765 250.829C61.0482 266.08 69.413 271.228 82.893 272.239L71.4965 301.964Z" fill="#F54C48"/>
<ellipse rx="27.3913" ry="6.40968" transform="matrix(-0.946671 0.322202 0.322202 0.946671 199.292 325.722)" fill="#E90022"/>
<path d="M225.919 375.392L199.383 296.268C190.036 292.08 185.318 293.755 179.316 302.891L219.498 380.855L221.432 391.775L224.571 397.458C224.571 397.458 225.838 400.374 227.038 400.322C227.827 400.287 228.551 400.202 228.768 399.443L228.265 395.645C228.265 395.645 231.24 400.185 232.117 401.761C232.993 403.337 236.487 402.915 235.647 401.404C234.807 399.894 233.155 396.907 233.155 396.907C233.155 396.907 234.129 398.673 235.224 400.644C236.32 402.614 239.071 400.924 237.732 398.516C236.393 396.108 236.044 395.3 236.044 395.3C236.044 395.3 237.272 397.693 237.905 398.831C238.538 399.97 240.72 397.708 239.588 395.672C238.455 393.636 238.131 392.248 238.131 392.248C238.131 392.248 238.967 395.675 240.204 396.212C241.44 396.749 241.8 391.483 239.012 387.028C236.223 382.574 225.919 375.392 225.919 375.392Z" fill="#FFC487"/>
<path d="M225.328 316.637L168.759 246.096L173.267 333.991C190.527 322.588 201.619 316.368 225.328 316.637Z" fill="#F54C48"/>
<path d="M205.457 295.949C273.798 282.393 363.719 290.241 375 299.191V406H0V278C9.92734 300.921 117.96 313.305 205.457 295.949Z" fill="white"/>
<path d="M284.174 231.431L299.814 215.791L291.9 207.877C294.382 203.803 296.161 199.449 297.285 194.953H308.476V172.758H297.285C296.161 168.262 294.382 163.907 291.9 159.834L299.814 151.92L284.174 136.233L276.26 144.147C272.186 141.665 267.831 139.886 263.336 138.762V127.57H241.187V138.762C236.692 139.886 232.337 141.665 228.263 144.147L220.303 136.233L204.663 151.873L212.576 159.787C210.095 163.861 208.315 168.215 207.191 172.711H196V194.86H207.191C208.315 199.355 210.095 203.71 212.576 207.784L204.663 215.697L220.303 231.337L228.216 223.424C232.29 225.905 236.645 227.685 241.14 228.809V240H263.289V228.809C267.785 227.685 272.139 225.905 276.213 223.424L284.174 231.431ZM227.795 208.252C214.309 194.766 214.309 172.898 227.795 159.412C241.281 145.926 263.149 145.926 276.635 159.412C290.121 172.898 290.121 194.766 276.635 208.252C263.149 221.738 241.281 221.738 227.795 208.252Z" fill="#C4C4C4"/>
<circle cx="252.174" cy="183.744" r="22.4697" fill="#D4D4D4"/>
<path d="M345.334 165.225L353.952 156.608L349.591 152.248C350.959 150.003 351.939 147.604 352.558 145.127H358.725V132.897H352.558C351.939 130.421 350.959 128.021 349.591 125.777L353.952 121.416L345.334 112.773L340.974 117.133C338.729 115.766 336.33 114.786 333.853 114.166V108H321.649V114.166C319.173 114.786 316.773 115.766 314.528 117.133L310.142 112.773L301.525 121.39L305.885 125.751C304.518 127.995 303.537 130.395 302.918 132.872H296.752V145.075H302.918C303.537 147.552 304.518 149.952 305.885 152.196L301.525 156.557L310.142 165.174L314.503 160.814C316.747 162.181 319.147 163.161 321.624 163.781V169.947H333.827V163.781C336.304 163.161 338.704 162.181 340.948 160.814L345.334 165.225ZM314.27 152.454C306.84 145.024 306.84 132.975 314.27 125.544C321.701 118.114 333.75 118.114 341.18 125.544C348.611 132.975 348.611 145.024 341.18 152.454C333.75 159.885 321.701 159.885 314.27 152.454Z" fill="#C4C4C4"/>
<circle cx="327.703" cy="138.951" r="12.3804" fill="#D4D4D4"/>
</svg>
