<svg width="169" height="25" viewBox="0 0 169 25" fill="none" xmlns="http://www.w3.org/2000/svg">
<path d="M10.4111 19.815C10.2065 19.8711 9.89012 19.9271 9.46213 19.9832C9.03415 20.0392 8.61547 20.0673 8.2061 20.0673C7.35013 20.0673 6.70816 19.9271 6.28018 19.6469C5.8522 19.3479 5.6382 18.7313 5.6382 17.7971V14.0135C5.17301 13.3221 4.67059 12.5561 4.13096 11.7152C3.59133 10.8744 3.06101 10.0149 2.53998 9.13677C2.01896 8.2586 1.53515 7.3991 1.08856 6.5583C0.641974 5.6988 0.279119 4.91405 0 4.20404C0.241903 3.86771 0.567542 3.55942 0.976916 3.27915C1.4049 2.99888 1.92592 2.85874 2.53998 2.85874C3.26569 2.85874 3.85184 3.00822 4.29843 3.30717C4.76363 3.60613 5.20092 4.16667 5.61029 4.98879L7.92698 9.66928H8.09445C8.35496 9.09006 8.57826 8.56689 8.76434 8.09978C8.96902 7.61398 9.16441 7.13752 9.35049 6.6704C9.53657 6.1846 9.73195 5.68946 9.93664 5.18498C10.1413 4.66181 10.3739 4.0639 10.6344 3.39126C10.9694 3.22309 11.3415 3.0923 11.7509 2.99888C12.1603 2.90546 12.5511 2.85874 12.9232 2.85874C13.5745 2.85874 14.1234 3.03625 14.57 3.39126C15.0352 3.72758 15.2678 4.24141 15.2678 4.93274C15.2678 5.15695 15.2213 5.42788 15.1283 5.74552C15.0352 6.06315 14.8212 6.54895 14.4863 7.20291C14.1513 7.83819 13.6582 8.70703 13.0069 9.80942C12.3743 10.9118 11.509 12.3505 10.4111 14.1256V19.815Z" fill="#405FD3"/>
<path d="M16.6547 6.50224C16.8408 6.44619 17.1292 6.39013 17.52 6.33408C17.9293 6.27803 18.348 6.25 18.776 6.25C19.1854 6.25 19.5482 6.27803 19.8645 6.33408C20.1995 6.39013 20.4786 6.50224 20.7019 6.6704C20.9252 6.83856 21.0927 7.07212 21.2043 7.37108C21.3346 7.65135 21.3997 8.02504 21.3997 8.49215V14.5179C21.3997 15.284 21.5858 15.8352 21.9579 16.1715C22.3301 16.4892 22.8697 16.648 23.5768 16.648C24.0048 16.648 24.3491 16.6106 24.6096 16.5359C24.8887 16.4611 25.1027 16.3864 25.2515 16.3117V6.50224C25.4376 6.44619 25.726 6.39013 26.1168 6.33408C26.5262 6.27803 26.9449 6.25 27.3729 6.25C27.7822 6.25 28.1451 6.27803 28.4614 6.33408C28.7964 6.39013 29.0755 6.50224 29.2988 6.6704C29.5221 6.83856 29.6895 7.07212 29.8012 7.37108C29.9314 7.65135 29.9966 8.02504 29.9966 8.49215V17.0123C29.9966 17.9466 29.6058 18.6472 28.8243 19.1143C28.173 19.5254 27.3915 19.8337 26.4797 20.0392C25.5865 20.2635 24.6096 20.3756 23.5489 20.3756C22.5441 20.3756 21.6137 20.2635 20.7577 20.0392C19.9204 19.815 19.1947 19.4694 18.5806 19.0022C17.9665 18.5351 17.492 17.9372 17.1571 17.2085C16.8222 16.4611 16.6547 15.5643 16.6547 14.5179V6.50224Z" fill="#405FD3"/>
<path d="M39.4038 5.88565C40.1667 5.88565 40.911 5.99776 41.6367 6.22197C42.381 6.4275 43.023 6.74514 43.5626 7.17489C44.1209 6.8012 44.7442 6.4929 45.4327 6.25C46.1398 6.0071 46.9865 5.88565 47.9727 5.88565C48.6798 5.88565 49.3683 5.97907 50.0382 6.16592C50.7267 6.35277 51.3314 6.65172 51.8525 7.06278C52.3921 7.45516 52.8201 7.98767 53.1364 8.66031C53.4527 9.31428 53.6109 10.1177 53.6109 11.0706V19.8991C53.4248 19.9552 53.1271 20.0112 52.7177 20.0673C52.327 20.1233 51.9176 20.1513 51.4896 20.1513C51.0802 20.1513 50.7081 20.1233 50.3731 20.0673C50.0568 20.0112 49.787 19.8991 49.5637 19.7309C49.3404 19.5628 49.1636 19.3386 49.0334 19.0583C48.9217 18.7593 48.8659 18.3763 48.8659 17.9092V11.2108C48.8659 10.6502 48.7077 10.2485 48.3914 10.0056C48.0751 9.74402 47.6471 9.61323 47.1074 9.61323C46.8469 9.61323 46.5678 9.67862 46.2701 9.80942C45.9724 9.92153 45.7491 10.043 45.6002 10.1738C45.6188 10.2485 45.6281 10.3232 45.6281 10.398C45.6281 10.454 45.6281 10.5101 45.6281 10.5661V19.8991C45.4234 19.9552 45.1164 20.0112 44.707 20.0673C44.3162 20.1233 43.9162 20.1513 43.5068 20.1513C43.0974 20.1513 42.7253 20.1233 42.3903 20.0673C42.074 20.0112 41.8042 19.8991 41.5809 19.7309C41.3576 19.5628 41.1808 19.3386 41.0506 19.0583C40.9389 18.7593 40.8831 18.3763 40.8831 17.9092V11.2108C40.8831 10.6502 40.7063 10.2485 40.3528 10.0056C40.0178 9.74402 39.6084 9.61323 39.1246 9.61323C38.7897 9.61323 38.5013 9.66928 38.2594 9.78139C38.0175 9.87481 37.8128 9.96824 37.6453 10.0617V19.8991C37.4592 19.9552 37.1615 20.0112 36.7521 20.0673C36.3614 20.1233 35.952 20.1513 35.524 20.1513C35.1146 20.1513 34.7425 20.1233 34.4075 20.0673C34.0912 20.0112 33.8214 19.8991 33.5981 19.7309C33.3748 19.5628 33.198 19.3386 33.0678 19.0583C32.9561 18.7593 32.9003 18.3763 32.9003 17.9092V9.44507C32.9003 8.94058 33.0026 8.53886 33.2073 8.23991C33.4306 7.94096 33.7283 7.66069 34.1005 7.3991C34.7332 6.95067 35.5147 6.58632 36.4451 6.30605C37.3941 6.02578 38.3803 5.88565 39.4038 5.88565Z" fill="#405FD3"/>
<path d="M63.0089 5.88565C63.7719 5.88565 64.5162 5.99776 65.2419 6.22197C65.9862 6.4275 66.6282 6.74514 67.1678 7.17489C67.726 6.8012 68.3494 6.4929 69.0379 6.25C69.745 6.0071 70.5917 5.88565 71.5779 5.88565C72.285 5.88565 72.9735 5.97907 73.6434 6.16592C74.3319 6.35277 74.9366 6.65172 75.4576 7.06278C75.9973 7.45516 76.4253 7.98767 76.7416 8.66031C77.0579 9.31428 77.2161 10.1177 77.2161 11.0706V19.8991C77.03 19.9552 76.7323 20.0112 76.3229 20.0673C75.9321 20.1233 75.5228 20.1513 75.0948 20.1513C74.6854 20.1513 74.3133 20.1233 73.9783 20.0673C73.662 20.0112 73.3922 19.8991 73.1689 19.7309C72.9456 19.5628 72.7688 19.3386 72.6385 19.0583C72.5269 18.7593 72.4711 18.3763 72.4711 17.9092V11.2108C72.4711 10.6502 72.3129 10.2485 71.9966 10.0056C71.6802 9.74402 71.2522 9.61323 70.7126 9.61323C70.4521 9.61323 70.173 9.67862 69.8753 9.80942C69.5775 9.92153 69.3542 10.043 69.2054 10.1738C69.224 10.2485 69.2333 10.3232 69.2333 10.398C69.2333 10.454 69.2333 10.5101 69.2333 10.5661V19.8991C69.0286 19.9552 68.7216 20.0112 68.3122 20.0673C67.9214 20.1233 67.5214 20.1513 67.112 20.1513C66.7026 20.1513 66.3304 20.1233 65.9955 20.0673C65.6792 20.0112 65.4094 19.8991 65.1861 19.7309C64.9628 19.5628 64.786 19.3386 64.6557 19.0583C64.5441 18.7593 64.4883 18.3763 64.4883 17.9092V11.2108C64.4883 10.6502 64.3115 10.2485 63.9579 10.0056C63.623 9.74402 63.2136 9.61323 62.7298 9.61323C62.3949 9.61323 62.1064 9.66928 61.8645 9.78139C61.6226 9.87481 61.418 9.96824 61.2505 10.0617V19.8991C61.0644 19.9552 60.7667 20.0112 60.3573 20.0673C59.9665 20.1233 59.5572 20.1513 59.1292 20.1513C58.7198 20.1513 58.3476 20.1233 58.0127 20.0673C57.6964 20.0112 57.4266 19.8991 57.2033 19.7309C56.98 19.5628 56.8032 19.3386 56.6729 19.0583C56.5613 18.7593 56.5055 18.3763 56.5055 17.9092V9.44507C56.5055 8.94058 56.6078 8.53886 56.8125 8.23991C57.0358 7.94096 57.3335 7.66069 57.7057 7.3991C58.3383 6.95067 59.1199 6.58632 60.0503 6.30605C60.9993 6.02578 61.9855 5.88565 63.0089 5.88565Z" fill="#405FD3"/>
<path d="M81.8231 16.4518C81.6184 15.9847 81.3951 15.4615 81.1532 14.8823C80.9299 14.3031 80.688 13.6398 80.4275 12.8924C80.1856 12.145 79.9251 11.2948 79.646 10.3419C79.3854 9.37033 79.1063 8.2586 78.8086 7.00673C79.0691 6.74514 79.4134 6.52093 79.8413 6.33408C80.2879 6.12855 80.7717 6.02578 81.2928 6.02578C81.944 6.02578 82.4837 6.16592 82.9116 6.44619C83.3396 6.70777 83.656 7.21226 83.8606 7.95964L86.0657 15.667H86.1773C86.4006 15.0318 86.6146 14.3404 86.8193 13.5931C87.0426 12.8457 87.2566 12.0796 87.4613 11.2948C87.666 10.4914 87.8521 9.69731 88.0195 8.91256C88.2056 8.10912 88.3638 7.32436 88.494 6.5583C89.1639 6.20329 89.8989 6.02578 90.6991 6.02578C91.3503 6.02578 91.89 6.16592 92.3179 6.44619C92.7459 6.72646 92.9599 7.21226 92.9599 7.90359C92.9599 8.40807 92.8948 8.99664 92.7645 9.66928C92.6343 10.3232 92.4575 11.0239 92.2342 11.7713C92.0295 12.5187 91.7783 13.2941 91.4806 14.0975C91.2015 14.8823 90.9038 15.6577 90.5874 16.4238C90.2711 17.1898 89.9454 17.9185 89.6105 18.6099C89.2756 19.2825 88.9499 19.8898 88.6336 20.4316C88.1126 21.3472 87.6288 22.0945 87.1822 22.6738C86.7356 23.253 86.3076 23.7014 85.8982 24.0191C85.4888 24.3554 85.0795 24.5796 84.6701 24.6917C84.2607 24.8225 83.8327 24.8879 83.3861 24.8879C82.6046 24.8879 81.9719 24.6543 81.4881 24.1872C81.0043 23.7201 80.7159 23.1129 80.6229 22.3655C81.2183 21.8984 81.8138 21.3752 82.4092 20.796C83.0047 20.2354 83.5443 19.6562 84.0281 19.0583C83.7118 18.9649 83.3675 18.75 82.9954 18.4137C82.6418 18.0587 82.2511 17.4047 81.8231 16.4518Z" fill="#405FD3"/>
<path d="M103.622 20.0112C102.821 20.0112 102.189 19.7777 101.724 19.3105C101.258 18.8434 101.026 18.2081 101.026 17.4047V2.9148C101.23 2.87743 101.556 2.83072 102.003 2.77466C102.449 2.69992 102.877 2.66256 103.287 2.66256C103.715 2.66256 104.087 2.69992 104.403 2.77466C104.738 2.83072 105.017 2.94283 105.241 3.11099C105.464 3.27915 105.631 3.51271 105.743 3.81166C105.855 4.11061 105.91 4.50299 105.91 4.98879V16.0594H112.302C112.432 16.2649 112.553 16.5452 112.665 16.9002C112.777 17.2365 112.833 17.5916 112.833 17.9652C112.833 18.7126 112.674 19.2451 112.358 19.5628C112.042 19.8617 111.623 20.0112 111.102 20.0112H103.622Z" fill="#405FD3"/>
<path d="M114.862 2.52242C114.862 1.81241 115.094 1.2145 115.559 0.728699C116.043 0.2429 116.676 0 117.457 0C118.239 0 118.862 0.2429 119.328 0.728699C119.811 1.2145 120.053 1.81241 120.053 2.52242C120.053 3.23244 119.811 3.83034 119.328 4.31614C118.862 4.80194 118.239 5.04484 117.457 5.04484C116.676 5.04484 116.043 4.80194 115.559 4.31614C115.094 3.83034 114.862 3.23244 114.862 2.52242ZM119.83 19.8991C119.625 19.9365 119.318 19.9832 118.909 20.0392C118.518 20.114 118.118 20.1513 117.709 20.1513C117.299 20.1513 116.927 20.1233 116.592 20.0673C116.276 20.0112 116.006 19.8991 115.783 19.7309C115.559 19.5628 115.383 19.3386 115.252 19.0583C115.141 18.7593 115.085 18.3763 115.085 17.9092V6.50224C115.29 6.46487 115.587 6.41816 115.978 6.36211C116.387 6.28737 116.797 6.25 117.206 6.25C117.616 6.25 117.978 6.27803 118.295 6.33408C118.63 6.39013 118.909 6.50224 119.132 6.6704C119.355 6.83856 119.523 7.07212 119.635 7.37108C119.765 7.65135 119.83 8.02504 119.83 8.49215V19.8991Z" fill="#405FD3"/>
<path d="M131.448 11.2948C131.448 10.7156 131.28 10.2952 130.945 10.0336C130.629 9.75336 130.192 9.61323 129.633 9.61323C129.261 9.61323 128.889 9.65994 128.517 9.75336C128.163 9.84679 127.856 9.98692 127.596 10.1738V19.8991C127.41 19.9552 127.112 20.0112 126.703 20.0673C126.312 20.1233 125.902 20.1513 125.474 20.1513C125.065 20.1513 124.693 20.1233 124.358 20.0673C124.042 20.0112 123.772 19.8991 123.549 19.7309C123.325 19.5628 123.148 19.3386 123.018 19.0583C122.907 18.7593 122.851 18.3763 122.851 17.9092V9.50112C122.851 8.99664 122.953 8.58558 123.158 8.26794C123.381 7.9503 123.679 7.66069 124.051 7.3991C124.684 6.95067 125.474 6.58632 126.423 6.30605C127.391 6.02578 128.461 5.88565 129.633 5.88565C131.736 5.88565 133.355 6.35277 134.49 7.287C135.625 8.20254 136.193 9.48244 136.193 11.1267V19.8991C136.007 19.9552 135.709 20.0112 135.299 20.0673C134.909 20.1233 134.499 20.1513 134.071 20.1513C133.662 20.1513 133.29 20.1233 132.955 20.0673C132.639 20.0112 132.369 19.8991 132.145 19.7309C131.922 19.5628 131.745 19.3386 131.615 19.0583C131.503 18.7593 131.448 18.3763 131.448 17.9092V11.2948Z" fill="#405FD3"/>
<path d="M145.739 5.88565C146.799 5.88565 147.758 6.02578 148.614 6.30605C149.488 6.56764 150.223 6.9133 150.819 7.34305C151.191 7.60463 151.479 7.89425 151.684 8.21188C151.907 8.52952 152.019 8.94058 152.019 9.44507V19.2545C152.019 20.2448 151.833 21.0949 151.461 21.8049C151.088 22.5336 150.577 23.1315 149.925 23.5987C149.293 24.0845 148.539 24.4395 147.665 24.6637C146.809 24.8879 145.888 25 144.901 25C143.208 25 141.878 24.7664 140.91 24.2993C139.942 23.8509 139.459 23.1129 139.459 22.0852C139.459 21.6555 139.542 21.2724 139.71 20.9361C139.896 20.6185 140.101 20.3756 140.324 20.2074C140.863 20.5064 141.468 20.7586 142.138 20.9641C142.827 21.1697 143.534 21.2724 144.259 21.2724C145.264 21.2724 146.064 21.1043 146.66 20.7679C147.255 20.4316 147.553 19.8898 147.553 19.1424V18.6939C146.79 19.0303 145.86 19.1984 144.762 19.1984C143.924 19.1984 143.124 19.077 142.361 18.8341C141.617 18.5725 140.956 18.1801 140.38 17.657C139.821 17.1151 139.365 16.4238 139.012 15.583C138.677 14.7422 138.51 13.7425 138.51 12.5841C138.51 11.4443 138.686 10.454 139.04 9.61323C139.412 8.77242 139.914 8.08109 140.547 7.53924C141.198 6.9787 141.961 6.56764 142.836 6.30605C143.729 6.02578 144.697 5.88565 145.739 5.88565ZM147.469 9.94955C147.339 9.87481 147.144 9.80008 146.883 9.72534C146.641 9.6506 146.334 9.61323 145.962 9.61323C145.05 9.61323 144.362 9.87481 143.897 10.398C143.45 10.9025 143.227 11.6312 143.227 12.5841C143.227 13.6678 143.45 14.4525 143.897 14.9383C144.362 15.4055 144.948 15.639 145.655 15.639C146.418 15.639 147.023 15.4615 147.469 15.1065V9.94955Z" fill="#405FD3"/>
<path d="M169 13.1166C169 14.275 168.823 15.312 168.47 16.2276C168.116 17.1244 167.614 17.8812 166.962 18.4978C166.33 19.1143 165.567 19.5815 164.674 19.8991C163.78 20.2167 162.785 20.3756 161.687 20.3756C160.589 20.3756 159.594 20.2074 158.701 19.8711C157.807 19.5348 157.035 19.0583 156.384 18.4417C155.751 17.8064 155.258 17.0404 154.904 16.1435C154.551 15.2466 154.374 14.2377 154.374 13.1166C154.374 12.0142 154.551 11.0146 154.904 10.1177C155.258 9.22085 155.751 8.46413 156.384 7.84753C157.035 7.21226 157.807 6.72646 158.701 6.39013C159.594 6.05381 160.589 5.88565 161.687 5.88565C162.785 5.88565 163.78 6.06315 164.674 6.41816C165.567 6.75448 166.33 7.24028 166.962 7.87556C167.614 8.49215 168.116 9.24888 168.47 10.1457C168.823 11.0426 169 12.0329 169 13.1166ZM159.231 13.1166C159.231 14.2564 159.445 15.1345 159.873 15.7511C160.319 16.349 160.933 16.648 161.715 16.648C162.497 16.648 163.092 16.3397 163.501 15.7231C163.929 15.1065 164.143 14.2377 164.143 13.1166C164.143 11.9955 163.929 11.136 163.501 10.5381C163.073 9.92153 162.469 9.61323 161.687 9.61323C160.906 9.61323 160.301 9.92153 159.873 10.5381C159.445 11.136 159.231 11.9955 159.231 13.1166Z" fill="#405FD3"/>
</svg>
