<?xml version="1.0" encoding="UTF-8"?>
<svg width="169px" height="25px" viewBox="0 0 169 25" version="1.1" xmlns="http://www.w3.org/2000/svg" xmlns:xlink="http://www.w3.org/1999/xlink">
    <title>brand_footer</title>
    <g id="Page-1" stroke="none" stroke-width="1" fill="none" fill-rule="evenodd">
        <g id="brand_footer" fill="#FFFFFF" fill-rule="nonzero">
            <path d="M10.2284874,19.7507578 C10.0274761,19.8061779 9.71664549,19.8614992 9.29616251,19.9169193 C8.87568936,19.9722406 8.46435308,20 8.06216351,20 C7.22120738,20 6.59049765,19.8614992 6.1700245,19.5846951 C5.74955134,19.2893188 5.53930494,18.6801917 5.53930494,17.7573138 L5.53930494,14.0195693 C5.08227446,13.3365488 4.588667,12.5798324 4.05850221,11.7491237 C3.52833742,10.9185138 3.00731933,10.0694306 2.49542829,9.2019431 C1.98354707,8.33441613 1.50822319,7.48533288 1.06946646,6.654723 C0.630713659,5.80563975 0.274223202,5.03040057 0,4.32899557 C0.237659977,3.99674174 0.55758721,3.69218807 0.959780715,3.41531482 C1.3802578,3.13844157 1.89213901,3 2.49542829,3 C3.2084092,3 3.78427802,3.14766837 4.22303475,3.44299523 C4.68007506,3.73833197 5.10969491,4.29207848 5.51188449,5.10423475 L7.78793932,9.72799932 L7.95247187,9.72799932 C8.20841248,9.15579921 8.42779575,8.63896979 8.61061188,8.17752095 C8.81170175,7.69760863 9.00366458,7.22692311 9.1864807,6.7654644 C9.36929682,6.28555207 9.56124982,5.79641295 9.76234952,5.29804702 C9.96341975,4.7812176 10.1919399,4.190554 10.4478707,3.5260661 C10.7769947,3.35993424 11.142568,3.23072936 11.5447871,3.13844157 C11.9470061,3.04615377 12.3309514,3 12.6965247,3 C13.3364008,3 13.875673,3.17535866 14.3144395,3.5260661 C14.7714798,3.85831005 15,4.36591266 15,5.04886405 C15,5.27035673 14.9543156,5.53800318 14.8629469,5.85179353 C14.7714798,6.16557399 14.5612334,6.64548632 14.2322077,7.29152062 C13.9030836,7.91910131 13.4186327,8.77741136 12.7787566,9.86644089 C12.1572525,10.9554605 11.30713,12.3767241 10.2284874,14.1303107 L10.2284874,19.7507578 Z" id="Path"></path>
            <path d="M17,6.24999717 C17.181331,6.19444555 17.4623404,6.13888401 17.8431258,6.08333239 C18.2419371,6.02778077 18.6499074,6 19.0669395,6 C19.4658482,6 19.8193511,6.02778077 20.1275456,6.08333239 C20.4539608,6.13888401 20.7259086,6.24999717 20.9434863,6.41666195 C21.161064,6.58332673 21.3242717,6.81480999 21.4330118,7.11111174 C21.5599727,7.38888968 21.6234045,7.75925695 21.6234045,8.22221357 L21.6234045,14.1943847 C21.6234045,14.9536728 21.8047355,15.4999717 22.1673,15.8332814 C22.529962,16.1481565 23.0557342,16.3055445 23.744714,16.3055445 C24.1617461,16.3055445 24.497223,16.2684771 24.7510475,16.1944413 C25.0229952,16.1203064 25.2315113,16.0462706 25.3764981,15.9722348 L25.3764981,6.24999717 C25.5578291,6.19444555 25.8388385,6.13888401 26.2196239,6.08333239 C26.6185326,6.02778077 27.026503,6 27.443535,6 C27.8423463,6 28.1959466,6.02778077 28.5041411,6.08333239 C28.8305564,6.13888401 29.1025041,6.24999717 29.3200818,6.41666195 C29.5376596,6.58332673 29.7007698,6.81480999 29.8096073,7.11111174 C29.9364708,7.38888968 30,7.75925695 30,8.22221357 L30,16.6666053 C30,17.5925978 29.6192147,18.2869683 28.8577414,18.749915 C28.2231316,19.1573597 27.4616584,19.4629184 26.5732242,19.6665912 C25.7029134,19.8888968 24.7510475,20 23.717529,20 C22.738478,20 21.8319205,19.8888968 20.9978564,19.6665912 C20.1820131,19.4443847 19.4749099,19.1018576 18.8765468,18.6388118 C18.2781838,18.1758651 17.8158433,17.5832814 17.4895255,16.8610608 C17.1632076,16.1203064 17,15.2314804 17,14.1943847 L17,6.24999717 Z" id="Path"></path>
            <path d="M39.5943768,6 C40.3679372,6 41.1226377,6.11002233 41.8584783,6.33005717 C42.6131788,6.53175986 43.2641498,6.84348487 43.8112899,7.26523222 C44.3773913,6.89850094 45.009401,6.595942 45.7075218,6.3575652 C46.4245024,6.1191884 47.2830338,6 48.2830145,6 C49,6 49.6981159,6.09168037 50.3773768,6.27505091 C51.0754976,6.45842145 51.6886474,6.75180451 52.217029,7.15520989 C52.7641691,7.54028313 53.1981497,8.06287691 53.5188696,8.72299124 C53.8395894,9.36478324 54,10.1532422 54,11.0883977 L54,19.7524964 C53.8112995,19.8075517 53.5094396,19.8625089 53.0943189,19.9175642 C52.6981594,19.9725214 52.2830386,20 51.849058,20 C51.4339372,20 51.0566377,19.9725214 50.7169565,19.9175642 C50.3962367,19.8625089 50.1226667,19.7524964 49.8962464,19.5874285 C49.6698261,19.4224588 49.4905556,19.2024338 49.3585362,18.9273535 C49.2452754,18.6339213 49.1886956,18.2580534 49.1886956,17.7996516 L49.1886956,11.2259869 C49.1886956,10.6758262 49.028285,10.2816065 48.7075652,10.0432297 C48.3868454,9.78652077 47.9528647,9.65816629 47.4056232,9.65816629 C47.1414831,9.65816629 46.8584831,9.72233862 46.5566232,9.85070291 C46.2547633,9.96072524 46.028343,10.0799333 45.8773623,10.2082976 C45.8962222,10.2816065 45.9056522,10.3549155 45.9056522,10.4283226 C45.9056522,10.4832798 45.9056522,10.5383351 45.9056522,10.5932923 L45.9056522,19.7524964 C45.6980918,19.8075517 45.3868019,19.8625089 44.9716812,19.9175642 C44.5754203,19.9725214 44.1698309,20 43.7547101,20 C43.3395894,20 42.9622898,19.9725214 42.6226087,19.9175642 C42.3018889,19.8625089 42.0283188,19.7524964 41.8018985,19.5874285 C41.5754783,19.4224588 41.3962077,19.2024338 41.2641884,18.9273535 C41.1509275,18.6339213 41.0943478,18.2580534 41.0943478,17.7996516 L41.0943478,11.2259869 C41.0943478,10.6758262 40.9150773,10.2816065 40.5566377,10.0432297 C40.2169565,9.78652077 39.8018358,9.65816629 39.3112754,9.65816629 C38.9716957,9.65816629 38.6792657,9.71317255 38.4339855,9.82319488 C38.1887053,9.91487524 37.9811449,10.0065654 37.8113044,10.098285 L37.8113044,19.7524964 C37.6226039,19.8075517 37.320744,19.8625089 36.9056232,19.9175642 C36.5094638,19.9725214 36.094343,20 35.6603623,20 C35.2452416,20 34.867942,19.9725214 34.5282609,19.9175642 C34.2075411,19.8625089 33.933971,19.7524964 33.7075507,19.5874285 C33.4811304,19.4224588 33.3018599,19.2024338 33.1698406,18.9273535 C33.0565797,18.6339213 33,18.2580534 33,17.7996516 L33,9.49313771 C33,8.99804215 33.1037295,8.60380284 33.3112899,8.31041978 C33.5377102,8.01703673 33.8395701,7.74198582 34.216971,7.48526706 C34.8585121,7.04518757 35.6509324,6.68762237 36.5943333,6.41257146 C37.5565942,6.13752055 38.5565749,6 39.5943768,6 Z" id="Path"></path>
            <path d="M62.5942754,6 C63.3679372,6 64.1226377,6.11002233 64.8584783,6.33005717 C65.6131788,6.53175986 66.2641498,6.84348487 66.8112899,7.26523222 C67.3772899,6.89850094 68.009401,6.595942 68.7075218,6.3575652 C69.4245024,6.1191884 70.2830338,6 71.2830145,6 C72,6 72.6981159,6.09168037 73.3773768,6.27505091 C74.0754976,6.45842145 74.6886474,6.75180451 75.2169276,7.15520989 C75.7641691,7.54028313 76.1981497,8.06287691 76.5188696,8.72299124 C76.8395894,9.36478324 77,10.1532422 77,11.0883977 L77,19.7524964 C76.8112995,19.8075517 76.5094396,19.8625089 76.0943189,19.9175642 C75.698058,19.9725214 75.2830386,20 74.849058,20 C74.4339372,20 74.0566377,19.9725214 73.7169565,19.9175642 C73.3962367,19.8625089 73.1226667,19.7524964 72.8962464,19.5874285 C72.6698261,19.4224588 72.4905556,19.2024338 72.3584348,18.9273535 C72.2452754,18.6339213 72.1886956,18.2580534 72.1886956,17.7996516 L72.1886956,11.2259869 C72.1886956,10.6758262 72.028285,10.2816065 71.7075652,10.0432297 C71.386744,9.78652077 70.9527633,9.65816629 70.4056232,9.65816629 C70.1414831,9.65816629 69.8584831,9.72233862 69.5566232,9.85070291 C69.2546619,9.96072524 69.0282416,10.0799333 68.8773623,10.2082976 C68.8962222,10.2816065 68.9056522,10.3549155 68.9056522,10.4283226 C68.9056522,10.4832798 68.9056522,10.5383351 68.9056522,10.5932923 L68.9056522,19.7524964 C68.6980918,19.8075517 68.3868019,19.8625089 67.9716812,19.9175642 C67.5754203,19.9725214 67.1698309,20 66.7547101,20 C66.3395894,20 65.9621884,19.9725214 65.6226087,19.9175642 C65.3018889,19.8625089 65.0283188,19.7524964 64.8018985,19.5874285 C64.5754783,19.4224588 64.3962077,19.2024338 64.264087,18.9273535 C64.1509275,18.6339213 64.0943478,18.2580534 64.0943478,17.7996516 L64.0943478,11.2259869 C64.0943478,10.6758262 63.9150773,10.2816065 63.5565363,10.0432297 C63.2169565,9.78652077 62.8018358,9.65816629 62.3112754,9.65816629 C61.9716957,9.65816629 61.6791643,9.71317255 61.4338841,9.82319488 C61.1886039,9.91487524 60.9811449,10.0065654 60.8113044,10.098285 L60.8113044,19.7524964 C60.6226039,19.8075517 60.320744,19.8625089 59.9056232,19.9175642 C59.5093624,19.9725214 59.094343,20 58.6603623,20 C58.2452416,20 57.8678406,19.9725214 57.5282609,19.9175642 C57.2075411,19.8625089 56.933971,19.7524964 56.7075507,19.5874285 C56.4811304,19.4224588 56.3018599,19.2024338 56.1697392,18.9273535 C56.0565797,18.6339213 56,18.2580534 56,17.7996516 L56,9.49313771 C56,8.99804215 56.1037295,8.60380284 56.3112899,8.31041978 C56.5377102,8.01703673 56.8395701,7.74198582 57.216971,7.48526706 C57.8584107,7.04518757 58.6509324,6.68762237 59.5943333,6.41257146 C60.5565942,6.13752055 61.5565749,6 62.5942754,6 Z" id="Path"></path>
            <path d="M81.9822702,16.502233 C81.7797588,16.0317186 81.5588462,15.5046941 81.3195325,14.9212602 C81.0986199,14.3378263 80.8593062,13.6696776 80.6015914,12.9168142 C80.3622777,12.1639508 80.1045628,11.307536 79.8284469,10.3476704 C79.5706331,9.36899829 79.2945171,8.24914167 79,6.98812064 C79.2577148,6.72461844 79.5983337,6.49876949 80.0216588,6.31055364 C80.4634839,6.10352124 80.9421113,6 81.4576399,6 C82.1018776,6 82.6358073,6.14116441 83.0591324,6.42348315 C83.4825564,6.68697527 83.7955736,7.19515304 83.9979861,7.9479963 L86.17951,15.7116962 L86.2899168,15.7116962 C86.5108294,15.071853 86.7225414,14.3753989 86.9250528,13.6226363 C87.1459654,12.8697729 87.3576774,12.0980728 87.5601888,11.307536 C87.7627002,10.4982632 87.9468105,9.69836848 88.1124208,8.90788204 C88.2965311,8.09856898 88.4530397,7.30807248 88.5818476,6.53641266 C89.2445853,6.17880758 89.971727,6 90.7633716,6 C91.4076092,6 91.9415389,6.14116441 92.364864,6.42348315 C92.788288,6.70580189 93,7.19515304 93,7.89153658 C93,8.39970428 92.935596,8.99257666 92.8066891,9.67013358 C92.6778812,10.3288337 92.5029715,11.0346557 92.2820589,11.7875191 C92.0795475,12.5403825 91.8310332,13.3214506 91.5365161,14.1307234 C91.2604001,14.9212602 90.965883,15.7023283 90.6528658,16.4740284 C90.3399476,17.2456277 90.0177298,17.9796545 89.6864104,18.6761085 C89.3550911,19.3536251 89.0328733,19.9653644 88.7199551,20.5111249 C88.2045254,21.4334179 87.725898,22.1861806 87.2840728,22.7697152 C86.8422477,23.3531491 86.4188237,23.8048268 86.0138009,24.1248492 C85.608778,24.4636075 85.2038541,24.6894464 84.7988312,24.8023658 C84.3938083,24.9341219 83.9703843,25 83.5285592,25 C82.7554147,25 82.1294793,24.7646924 81.6508519,24.294178 C81.1722245,23.8236635 80.8869079,23.2120249 80.7949022,22.4591615 C81.3839365,21.9886471 81.9730696,21.4616226 82.5621038,20.8781887 C83.151237,20.3134907 83.6850678,19.7300569 84.1636952,19.1277863 C83.850777,19.0337035 83.5101581,18.8172326 83.1420364,18.4784743 C82.792217,18.1208793 82.4056942,17.4620986 81.9822702,16.502233 Z" id="Path"></path>
            <path d="M103.638435,20 C102.824341,20 102.182011,19.7711924 101.70941,19.3133813 C101.235792,18.8556682 101,18.2331353 101,17.4458805 L101,3.24717096 C101.207335,3.21055195 101.538664,3.16478064 101.99297,3.10984723 C102.446261,3.03660921 102.881257,3 103.297959,3 C103.732955,3 104.111036,3.03660921 104.432201,3.10984723 C104.772677,3.16478064 105.056238,3.27463767 105.283899,3.43941831 C105.510545,3.60419895 105.680274,3.8330653 105.794105,4.12600757 C105.907936,4.41894984 105.963835,4.80344454 105.963835,5.27948185 L105.963835,16.1276158 L112.46032,16.1276158 C112.592445,16.328986 112.715423,16.6036531 112.829254,16.951519 C112.943085,17.2810606 113,17.6290245 113,17.9951166 C113,18.7274968 112.838401,19.2492956 112.517236,19.5606111 C112.19607,19.8535044 111.770221,20 111.240705,20 L103.638435,20 Z" id="Path"></path>
            <path d="M115,2.50348116 C115,1.79880206 115.223464,1.20538129 115.671354,0.723227782 C116.137546,0.241076258 116.747255,0 117.499518,0 C118.252745,0 118.852822,0.241076258 119.301676,0.723227782 C119.766904,1.20538129 120,1.79880206 120,2.50348116 C120,3.20817019 119.766904,3.80158104 119.301676,4.28373356 C118.852822,4.76588607 118.252745,5.00696233 117.499518,5.00696233 C116.747255,5.00696233 116.137546,4.76588607 115.671354,4.28373356 C115.223464,3.80158104 115,3.20817019 115,2.50348116 Z M119.785205,19.7496936 C119.587748,19.7868128 119.292044,19.8331621 118.898093,19.8887417 C118.521479,19.9629801 118.136197,20 117.742246,20 C117.347332,20 116.989019,19.9722102 116.666346,19.9166307 C116.361973,19.8609519 116.101907,19.7496936 115.887112,19.5827564 C115.671354,19.4159186 115.50183,19.1934019 115.37565,18.9152065 C115.268734,18.6184514 115.214795,18.2383271 115.214795,17.7747341 L115.214795,6.45341988 C115.412252,6.41633046 115.698324,6.36997117 116.074937,6.314342 C116.468888,6.24016317 116.863803,6.20307375 117.257754,6.20307375 C117.652668,6.20307375 118.001348,6.23089329 118.306685,6.28652246 C118.629359,6.34215162 118.898093,6.45341988 119.112888,6.6203173 C119.327683,6.78721472 119.489501,7.01902111 119.59738,7.31573645 C119.722597,7.59390213 119.785205,7.96478639 119.785205,8.42838924 L119.785205,19.7496936 Z" id="Shape"></path>
            <path d="M131.37663,11.3084227 C131.37663,10.7400083 131.212937,10.3274369 130.886524,10.0707083 C130.578624,9.79568684 130.152826,9.65816629 129.608155,9.65816629 C129.24569,9.65816629 128.883226,9.70400648 128.520762,9.79568684 C128.175836,9.88737702 127.876705,10.0248976 127.62337,10.2082976 L127.62337,19.7524964 C127.442138,19.8075517 127.151776,19.8625089 126.75326,19.9175642 C126.372283,19.9725214 125.972793,20 125.555764,20 C125.157248,20 124.794783,19.9725214 124.468371,19.9175642 C124.160471,19.8625089 123.897392,19.7524964 123.680108,19.5874285 C123.46185,19.4224588 123.289387,19.2024338 123.162719,18.9273535 C123.054565,18.6339213 123,18.2580534 123,17.7996516 L123,9.54814397 C123,9.05305822 123.099385,8.64965284 123.299131,8.33792782 C123.516414,8.0262028 123.806776,7.74198582 124.16924,7.48526706 C124.786014,7.04518757 125.555764,6.68762237 126.480438,6.41257146 C127.423625,6.13752055 128.466197,6 129.608155,6 C131.657248,6 133.234747,6.45842145 134.340654,7.37525455 C135.44656,8.27374568 136,9.52981182 136,11.143453 L136,19.7524964 C135.818768,19.8075517 135.528407,19.8625089 135.128916,19.9175642 C134.748913,19.9725214 134.349423,20 133.932394,20 C133.533878,20 133.171414,19.9725214 132.845001,19.9175642 C132.537101,19.8625089 132.274022,19.7524964 132.055764,19.5874285 C131.83848,19.4224588 131.666017,19.2024338 131.539349,18.9273535 C131.43022,18.6339213 131.37663,18.2580534 131.37663,17.7996516 L131.37663,11.3084227 Z" id="Path"></path>
            <path d="M145.491746,6 C146.590273,6 147.584129,6.13929168 148.471241,6.41788499 C149.377008,6.67791005 150.138722,7.02150217 150.756385,7.44868123 C151.141905,7.70869635 151.440373,7.99658372 151.652824,8.31231352 C151.883929,8.62805327 152,9.03665414 152,9.53812607 L152,19.288872 C152,20.2732476 151.80724,21.1182619 151.421719,21.8240144 C151.035162,22.548355 150.505589,23.1426781 149.829891,23.6070832 C149.17492,24.0899769 148.393515,24.4428531 147.487749,24.6657119 C146.600637,24.8885706 145.646162,25 144.623288,25 C142.868754,25 141.490414,24.7677975 140.487231,24.3034919 C139.484048,23.8577744 138.983492,23.1241894 138.983492,22.1026375 C138.983492,21.6755082 139.069509,21.2947001 139.243615,20.9604119 C139.436376,20.644712 139.648827,20.4032651 139.879932,20.2360713 C140.438522,20.5332826 141.065512,20.7839738 141.759864,20.9882444 C142.473906,21.1926144 143.206603,21.2947001 143.957954,21.2947001 C144.999482,21.2947001 145.828559,21.1276057 146.446221,20.7932182 C147.062847,20.4589301 147.371678,19.9203713 147.371678,19.1774426 L147.371678,18.7316257 C146.580946,19.0660132 145.617144,19.2331076 144.479236,19.2331076 C143.610778,19.2331076 142.781701,19.1124339 141.990969,18.870987 C141.219927,18.610952 140.534903,18.2208995 139.937967,17.7009289 C139.35865,17.1622708 138.886076,16.4751064 138.520246,15.6393364 C138.17307,14.8035664 138,13.8098471 138,12.6583771 C138,11.5253958 138.182397,10.5410202 138.549263,9.70528006 C138.934784,8.86950014 139.45503,8.18230596 140.111037,7.64369754 C140.785698,7.08651092 141.576431,6.67791005 142.483233,6.41788499 C143.408691,6.13929168 144.411874,6 145.491746,6 Z M147.284625,10.0395881 C147.1499,9.96529518 146.947813,9.89101225 146.677326,9.81671938 C146.42653,9.7424265 146.108372,9.70528006 145.722851,9.70528006 C144.777704,9.70528006 144.064698,9.96529518 143.582797,10.4853552 C143.11955,10.9868371 142.888445,11.7111777 142.888445,12.6583771 C142.888445,13.7355939 143.11955,14.5155995 143.582797,14.9984933 C144.064698,15.4628983 144.671996,15.6950014 145.404693,15.6950014 C146.195425,15.6950014 146.822415,15.5185633 147.284625,15.165687 L147.284625,10.0395881 Z" id="Shape"></path>
            <path d="M169,12.9864492 C169,14.1056801 168.818474,15.107616 168.456447,15.9922567 C168.093395,16.8587331 167.578559,17.5899434 166.909887,18.1856942 C166.261726,18.7813485 165.479215,19.232751 164.56338,19.5396119 C163.64652,19.8464729 162.626077,20 161.5,20 C160.373923,20 159.35348,19.8374874 158.437645,19.5125587 C157.520785,19.18763 156.729044,18.727242 156.061398,18.1314911 C155.412211,17.5176726 154.906605,16.7775734 154.543553,15.9110004 C154.181526,15.0444273 154,14.0696414 154,12.9864492 C154,11.9213248 154.181526,10.9555243 154.543553,10.0889513 C154.906605,9.22242658 155.412211,8.49129362 156.061398,7.89554277 C156.729044,7.28175322 157.520785,6.81237961 158.437645,6.48742197 C159.35348,6.16247399 160.373923,6 161.5,6 C162.626077,6 163.64652,6.17149818 164.56338,6.51450419 C165.479215,6.83945217 166.261726,7.30882577 166.909887,7.92262499 C167.578559,8.51836618 168.093395,9.2495088 168.456447,10.1160045 C168.818474,10.9825776 169,11.9393925 169,12.9864492 Z M158.981198,12.9864492 C158.981198,14.0877091 159.20067,14.9361178 159.639614,15.5318686 C160.097019,16.1095518 160.72672,16.3984417 161.528716,16.3984417 C162.330712,16.3984417 162.940927,16.1005663 163.360386,15.5048154 C163.79933,14.9090646 164.018802,14.0696414 164.018802,12.9864492 C164.018802,11.9032571 163.79933,11.0728194 163.360386,10.4951363 C162.921441,9.89941442 162.301996,9.601539 161.5,9.601539 C160.699029,9.601539 160.078559,9.89941442 159.639614,10.4951363 C159.20067,11.0728194 158.981198,11.9032571 158.981198,12.9864492 Z" id="Shape"></path>
        </g>
    </g>
</svg>