<?xml version="1.0" encoding="UTF-8"?>
<svg width="93px" height="48px" viewBox="0 0 93 48" version="1.1" xmlns="http://www.w3.org/2000/svg" xmlns:xlink="http://www.w3.org/1999/xlink">
    <title>Logo Transparent</title>
    <g id="Page-1" stroke="none" stroke-width="1" fill="none" fill-rule="evenodd">
        <g id="Logo-Transparent" fill="#405FD3" fill-rule="nonzero">
            <path d="M10.2286528,16.7506717 C10.0274811,16.8061902 9.71671411,16.8614562 9.29610492,16.9167223 C8.87574257,16.9722408 8.46426632,17 8.06216986,17 C7.22119831,17 6.59050667,16.8614562 6.1700209,16.5846211 C5.74955981,16.2893639 5.53930458,15.6801752 5.53930458,14.7573072 L5.53930458,11.0194018 C5.08226234,10.3365249 4.58866363,9.57970756 4.05850845,8.74920211 C3.52835327,7.9184443 3.00730636,7.06951681 2.49544175,6.20191494 C1.98355247,5.33431307 1.50821965,4.48538559 1.06946799,3.65462777 C0.630716319,2.80570029 0.274235219,2.03046092 0,1.32890967 C0.237654067,0.996808432 0.5575787,0.692214058 0.959773898,0.415378906 C1.38025967,0.138543754 1.89214896,0 2.49544175,0 C3.20840396,0 3.78427323,0.147628591 4.22304958,0.442885772 C4.68009182,0.738395309 5.10968586,1.29206561 5.51188106,2.10414904 L7.78793464,6.72807838 L7.9525745,6.72807838 C8.20854383,6.15573369 8.42773454,5.63890744 8.61064029,5.17759964 C8.81181194,4.69761746 9.00360381,4.22697246 9.18650957,3.76541231 C9.36941533,3.28543012 9.56120719,2.7963631 9.76237884,2.29795888 C9.96355049,1.78113264 10.1918741,1.19061827 10.4478435,0.526163438 C10.7768764,0.359860462 11.1426879,0.2306539 11.5447843,0.138543754 C11.9468808,0.0461812514 12.3309582,0 12.6965229,0 C13.3363228,0 13.8756603,0.175387813 14.3145354,0.526163438 C14.7714295,0.858264678 15,1.36600609 15,2.04888295 C15,2.27045202 14.9543353,2.53794997 14.8630058,2.85188154 C14.7714295,3.16556075 14.5613718,3.64554294 14.232092,4.29157574 C13.9030591,4.91918652 13.4187661,5.7774512 12.7787194,6.86636978 C12.1571854,7.95554071 11.3070809,9.37681289 10.2286528,11.1301863 L10.2286528,16.7506717 Z" id="Path"></path>
            <path d="M17,3.25014468 C17.1813988,3.19444444 17.4624322,3.1389974 17.8431003,3.08355035 C18.2418839,3.02785012 18.6499699,3 19.0668688,3 C19.4658971,3 19.8193921,3.02785012 20.1275987,3.08355035 C20.4539206,3.1389974 20.7258964,3.25014468 20.9435259,3.416739 C21.1611555,3.58333333 21.324194,3.81499566 21.4331312,4.11121962 C21.559939,4.38896123 21.6233429,4.75936777 21.6233429,5.22243924 L21.6233429,11.1945168 C21.6233429,11.9538122 21.8047416,12.5001808 22.1672944,12.8333695 C22.5298471,13.148329 23.0556832,13.3055556 23.7448027,13.3055556 C24.1617016,13.3055556 24.4970812,13.2685909 24.7509415,13.1946615 C25.0229173,13.1204789 25.2314892,13.0462963 25.3764123,12.9723669 L25.3764123,3.25014468 C25.5578111,3.19444444 25.8388445,3.1389974 26.2195127,3.08355035 C26.618541,3.02785012 27.0263822,3 27.4435259,3 C27.8423094,3 28.1958045,3.02785012 28.504011,3.08355035 C28.8305777,3.1389974 29.1023087,3.25014468 29.3199382,3.416739 C29.5375678,3.58333333 29.7008512,3.81499566 29.8095435,4.11121962 C29.9363513,4.38896123 30,4.75936777 30,5.22243924 L30,13.6668475 C30,14.5927373 29.6190871,15.2872179 28.8577508,15.7500362 C28.2229776,16.1574074 27.4616413,16.4629991 26.5732525,16.6668113 C25.7029791,16.8891059 24.7509415,17 23.7176296,17 C22.738419,17 21.8319147,16.8891059 20.9978721,16.6668113 C20.1819449,16.4445168 19.4749548,16.1019604 18.8766571,15.6388889 C18.2783594,15.1760706 17.8159272,14.5833695 17.4896053,13.861292 C17.1632834,13.1204789 17,12.2315538 17,11.1945168 L17,3.25014468 Z" id="Path"></path>
            <path d="M39.5942644,3 C40.3679473,3 41.1225237,3.11005462 41.8585033,3.33016385 C42.6130797,3.53172173 43.2642267,3.84358492 43.81118,4.26525204 C44.3772397,3.89848688 45.0092803,3.59589936 45.7075564,3.35748948 C46.4244295,3.11933029 47.2829449,3 48.2828479,3 C48.9999757,3 49.6979972,3.09175396 50.3771669,3.27501119 C51.0754431,3.45851912 51.688632,3.75183096 52.2169883,4.15519742 C52.7641964,4.54026323 53.1980396,5.06295998 53.5187728,5.72303698 C53.839506,6.36481332 54,7.15324559 54,8.08833378 L54,16.7523144 C53.8112285,16.8074671 53.509347,16.8623691 53.0943554,16.9175217 C52.6979608,16.9724237 52.2829692,17 51.8488712,17 C51.4338796,17 51.0565914,16.9724237 50.7170065,16.9175217 C50.3962733,16.8623691 50.1226693,16.7523144 49.8961945,16.5873579 C49.6697197,16.4224013 49.490374,16.2022921 49.3584123,15.9272809 C49.2453022,15.633969 49.1884925,15.2579282 49.1884925,14.7996598 L49.1884925,8.22596472 C49.1884925,7.67594234 49.0282532,7.28160086 48.70752,7.04319098 C48.3867868,6.78648044 47.9526889,6.65812517 47.4054808,6.65812517 C47.1415574,6.65812517 46.8585275,6.7223028 46.556646,6.85065807 C46.2547645,6.96071269 46.0282896,7.07979228 45.8772215,7.20814755 C45.8960732,7.28160086 45.905499,7.35505417 45.905499,7.42825678 C45.905499,7.48340944 45.905499,7.5383114 45.905499,7.59321336 L45.905499,16.7523144 C45.6981306,16.8074671 45.3868232,16.8623691 44.9715769,16.9175217 C44.575437,16.9724237 44.1698713,17 43.754625,17 C43.3396334,17 42.9623452,16.9724237 42.6225055,16.9175217 C42.3017723,16.8623691 42.0281683,16.7523144 41.8019482,16.5873579 C41.5754734,16.4224013 41.3961278,16.2022921 41.2641661,15.9272809 C41.1508013,15.633969 41.0942462,15.2579282 41.0942462,14.7996598 L41.0942462,8.22596472 C41.0942462,7.67594234 40.9151553,7.28160086 40.556464,7.04319098 C40.2168792,6.78648044 39.8018876,6.65812517 39.3112346,6.65812517 C38.9716497,6.65812517 38.679194,6.71327782 38.4338675,6.82308174 C38.188541,6.91483571 37.9811726,7.00658967 37.8112528,7.09834363 L37.8112528,16.7523144 C37.622736,16.8074671 37.3208545,16.8623691 36.9056082,16.9175217 C36.5094683,16.9724237 36.094222,17 35.6603787,17 C35.2453872,17 34.8678442,16.9724237 34.5282593,16.9175217 C34.2075261,16.8623691 33.9339221,16.7523144 33.7074473,16.5873579 C33.4812272,16.4224013 33.3018815,16.2022921 33.1699198,15.9272809 C33.056555,15.633969 33,15.2579282 33,14.7996598 L33,6.49316859 C33,5.99804817 33.1036842,5.60370669 33.3113074,5.31039484 C33.5377822,5.017083 33.8396637,4.74207181 34.2169519,4.48536127 C34.8584184,4.04514281 35.6509529,3.68765333 36.5943008,3.41264213 C37.5565004,3.13763094 38.5566581,3 39.5942644,3 Z" id="Path"></path>
            <path d="M62.5943444,3 C63.3677819,3 64.1226223,3.11005462 64.858356,3.33016385 C65.6131963,3.53172173 66.2640965,3.84358492 66.8113111,4.26525204 C67.3773777,3.89848688 68.009426,3.59589936 68.7074558,3.35748948 C69.4245924,3.11933029 70.2831182,3 71.2830333,3 C71.9999151,3 72.6981997,3.09175396 73.3773777,3.27501119 C74.0754076,3.45851912 74.6886039,3.75183096 75.2169667,4.15519742 C75.7641814,4.54026323 76.1982846,5.06295998 76.5190217,5.72303698 C76.8397588,6.36481332 77,7.15324559 77,8.08833378 L77,16.7523144 C76.811481,16.8074671 76.5095958,16.8623691 76.0943444,16.9175217 C75.6981997,16.9724237 75.2829484,17 74.8490999,17 C74.4341033,17 74.0565557,16.9724237 73.7169667,16.9175217 C73.3962296,16.8623691 73.1226223,16.7523144 72.8961447,16.5873579 C72.6699219,16.4224013 72.490574,16.2022921 72.3586107,15.9272809 C72.2452446,15.633969 72.1886889,15.2579282 72.1886889,14.7996598 L72.1886889,8.22596472 C72.1886889,7.67594234 72.0284477,7.28160086 71.7074558,7.04319098 C71.3867188,6.78648044 70.9528702,6.65812517 70.4056556,6.65812517 C70.1414742,6.65812517 69.8584409,6.7223028 69.5565557,6.85065807 C69.2546705,6.96071269 69.0281929,7.07979228 68.8773777,7.20814755 C68.8962296,7.28160086 68.9056556,7.35505417 68.9056556,7.42825678 C68.9056556,7.48340944 68.9056556,7.5383114 68.9056556,7.59321336 L68.9056556,16.7523144 C68.6980299,16.8074671 68.3867188,16.8623691 67.9717221,16.9175217 C67.5755774,16.9724237 67.169752,17 66.7547554,17 C66.3395041,17 65.9622113,16.9724237 65.6226223,16.9175217 C65.3018852,16.8623691 65.0282779,16.7523144 64.8018003,16.5873579 C64.5753227,16.4224013 64.3962296,16.2022921 64.2640115,15.9272809 C64.1509001,15.633969 64.0943444,15.2579282 64.0943444,14.7996598 L64.0943444,8.22596472 C64.0943444,7.67594234 63.9149966,7.28160086 63.5565557,7.04319098 C63.2169667,6.78648044 62.8017154,6.65812517 62.3113111,6.65812517 C61.9717221,6.65812517 61.6792629,6.71327782 61.4339334,6.82308174 C61.1886039,6.91483571 60.9809783,7.00658967 60.8113111,7.09834363 L60.8113111,16.7523144 C60.6225374,16.8074671 60.3206522,16.8623691 59.9056556,16.9175217 C59.5092561,16.9724237 59.0942595,17 58.660411,17 C58.2451596,17 57.8678668,16.9724237 57.5282779,16.9175217 C57.2075408,16.8623691 56.9339334,16.7523144 56.7074558,16.5873579 C56.4809783,16.4224013 56.3018852,16.2022921 56.1696671,15.9272809 C56.0565557,15.633969 56,15.2579282 56,14.7996598 L56,6.49316859 C56,5.99804817 56.1036855,5.60370669 56.3113111,5.31039484 C56.537534,5.017083 56.8394192,4.74207181 57.2169667,4.48536127 C57.8584409,4.04514281 58.6507303,3.68765333 59.5943444,3.41264213 C60.5565557,3.13763094 61.5564708,3 62.5943444,3 Z" id="Path"></path>
            <path d="M81.9821926,12.9494021 C81.7796183,12.5037718 81.5588992,12.0045099 81.3195384,11.4516164 C81.0985708,10.8989666 80.8592099,10.2658694 80.6014558,9.55281228 C80.362095,8.83951136 80.1045894,8.02821079 79.8284421,7.11891057 C79.570688,6.19157062 79.2945406,5.13063911 79,3.93611604 C79.2577541,3.6864851 79.5982779,3.47244606 80.0215712,3.29424272 C80.4635064,3.09799965 80.9419796,3 81.4574878,3 C82.1017488,3 82.6356502,3.13359156 83.0591922,3.40101846 C83.4824856,3.6506494 83.7954194,4.13211534 83.9979938,4.84541625 L86.1793342,12.2005092 L86.2899423,12.2005092 C86.5109099,11.5944716 86.7224323,10.9345586 86.9250067,10.2215014 C87.1459743,9.5082005 87.3577452,8.77710362 87.560071,8.02821079 C87.7626454,7.261522 87.9468265,6.5036093 88.1123657,5.75471647 C88.2965468,4.98802768 88.4528895,4.23913485 88.5818908,3.50803798 C89.2445451,3.16942725 89.9718242,3 90.7632312,3 C91.4077408,3 91.9413937,3.13359156 92.3649356,3.40101846 C92.788229,3.66868914 93,4.13211534 93,4.79202839 C93,5.27325054 92.9356236,5.83492016 92.8066223,6.47703726 C92.6778695,7.10111462 92.502885,7.76955998 92.282166,8.4828609 C92.0795917,9.19616182 91.8310342,9.93603478 91.5364936,10.7027236 C91.2603462,11.4516164 90.9658056,12.1917331 90.6528717,12.92283 C90.3399379,13.6539269 90.0178074,14.3491881 89.6864802,15.0088573 C89.3549046,15.6509744 89.0327741,16.23044 88.7198402,16.7474979 C88.204332,17.6212062 87.7258589,18.3345071 87.2839237,18.8871568 C86.842237,19.4398066 86.4186951,19.8678847 86.0137949,20.1709035 C85.6088948,20.491962 85.2037461,20.7060011 84.798846,20.8127768 C84.3936973,20.9375923 83.9704039,21 83.5284687,21 C82.7554549,21 82.1295872,20.7771849 81.6508655,20.3315546 C81.1721438,19.8856806 80.8867998,19.306215 80.7948336,18.5929141 C81.3839148,18.1472839 81.972996,17.648022 82.5620772,17.0951285 C83.1511585,16.5602747 83.6850599,16.0073811 84.1637816,15.4369354 C83.8505992,15.3477119 83.5100755,15.1426927 83.1419618,14.8216341 C82.7922415,14.4830234 82.405486,13.8589461 81.9821926,12.9494021 Z" id="Path"></path>
            <path d="M15.6383504,43 C14.8250378,43 14.1820484,42.7712073 13.7093822,42.3133715 C13.2364607,41.8555358 13,41.2332396 13,40.445732 L13,26.2470661 C13.2081161,26.2105193 13.539059,26.1647107 13.9928287,26.1098906 C14.4468538,26.0365468 14.8817271,26 15.2979593,26 C15.7328325,26 16.1112719,26.0365468 16.4327666,26.1098906 C16.7731577,26.1647107 17.0568595,26.2746013 17.2838721,26.4393121 C17.5106292,26.6040228 17.6809525,26.8330658 17.7943311,27.1259405 C17.907965,27.4188152 17.9646543,27.8033072 17.9646543,28.2794163 L17.9646543,39.1275455 L24.4611963,39.1275455 C24.5934714,39.3290533 24.7162982,39.6036547 24.8299321,39.9515998 C24.9433107,40.2810213 25,40.6289665 25,40.995185 C25,41.7273718 24.8393803,42.2492895 24.5178856,42.5604376 C24.196391,42.8535626 23.7707105,43 23.2413551,43 L15.6383504,43 Z" id="Path"></path>
            <path d="M27,26.3782516 C27,25.7089017 27.22383,25.1450484 27.6719741,24.6869327 C28.1380245,24.2290579 28.7473261,24 29.499879,24 C30.2526739,24 30.8530223,24.2290579 31.3011663,24.6869327 C31.7669748,25.1450484 32,25.7089017 32,26.3782516 C32,27.0478424 31.7669748,27.6114548 31.3011663,28.0695705 C30.8530223,28.5276862 30.2526739,28.7565032 29.499879,28.7565032 C28.7473261,28.7565032 28.1380245,28.5276862 27.6719741,28.0695705 C27.22383,27.6114548 27,27.0478424 27,26.3782516 Z M31.7848812,42.7622712 C31.5879108,42.7974367 31.2922131,42.8415141 30.8977883,42.8945033 C30.5215119,42.9648344 30.1362822,43 29.7418574,43 C29.3476746,43 28.9893046,42.9737463 28.6665053,42.9207571 C28.3618545,42.8680087 28.1019697,42.7622712 27.8870929,42.6037853 C27.6719741,42.4450586 27.5016213,42.2338243 27.3762764,41.9696009 C27.268596,41.6875539 27.2148768,41.3265047 27.2148768,40.8859718 L27.2148768,30.1308504 C27.4120892,30.0954439 27.6988337,30.0513666 28.0751101,29.9986182 C28.4695349,29.9280462 28.8637178,29.8928807 29.2581426,29.8928807 C29.6523254,29.8928807 30.0017422,29.9193753 30.3063931,29.9721236 C30.6289503,30.0251128 30.8977883,30.1308504 31.1129071,30.2893362 C31.3280259,30.4478221 31.4891836,30.6679682 31.596864,30.9500152 C31.7222088,31.2142386 31.7848812,31.5666168 31.7848812,32.0069089 L31.7848812,42.7622712 Z" id="Shape"></path>
            <path d="M43.3765701,34.3085381 C43.3765701,33.7399542 43.2135284,33.3275553 42.8872003,33.0708402 C42.5787432,32.7955734 42.1527786,32.6581907 41.6088168,32.6581907 C41.2462573,32.6581907 40.8836977,32.7040685 40.5208934,32.7955734 C40.1764495,32.887329 39.8772951,33.0249624 39.6234299,33.2082229 L39.6234299,42.7525607 C39.4420278,42.8074636 39.1519312,42.8626173 38.7531401,42.9175202 C38.3724648,42.9726739 37.973429,43 37.5565222,43 C37.1574864,43 36.7949268,42.9726739 36.4685988,42.9175202 C36.1603864,42.8626173 35.8974634,42.7525607 35.6798298,42.5876012 C35.4624409,42.4223909 35.2900966,42.2025285 35.1632864,41.9275124 C35.0543472,41.6339446 35,41.2581477 35,40.7996204 L35,32.5481341 C35,32.0530048 35.0996366,31.6496311 35.2991545,31.338013 C35.5167881,31.0261443 35.8068847,30.7418523 36.1694443,30.4851372 C36.785869,30.0451615 37.5565222,29.6876656 38.4811593,29.4126495 C39.423912,29.1373827 40.4665461,29 41.6088168,29 C43.6576088,29 45.2351468,29.4582766 46.341186,30.3753313 C47.4472252,31.2738343 48,32.5298331 48,34.1433278 L48,42.7525607 C47.8188426,42.8074636 47.528746,42.8626173 47.1297102,42.9175202 C46.7490349,42.9726739 46.3502439,43 45.9330923,43 C45.5343013,43 45.1717417,42.9726739 44.8451688,42.9175202 C44.5369565,42.8626173 44.2740335,42.7525607 44.0566446,42.5876012 C43.839011,42.4223909 43.6666667,42.2025285 43.5398565,41.9275124 C43.4309173,41.6339446 43.3765701,41.2581477 43.3765701,40.7996204 L43.3765701,34.3085381 Z" id="Path"></path>
            <path d="M57.9567045,29 C58.9772178,29 59.8995723,29.1391514 60.7232844,29.4179619 C61.5648875,29.677982 62.2720662,30.0215436 62.8450623,30.4486468 C63.2031244,30.7086669 63.480677,30.9966188 63.6777199,31.3122486 C63.8926539,31.6281323 64,32.036699 64,32.5382025 L64,42.2889542 C64,43.2731707 63.8210898,44.1182359 63.4627859,44.8241497 C63.1047238,45.5483461 62.6122373,46.1427865 61.9855682,46.6069629 C61.37679,47.0899298 60.6514785,47.4428867 59.8098754,47.6655797 C58.9864051,47.8885266 58.0998326,48 57.1508834,48 C55.5213502,48 54.2411754,47.7679118 53.3098754,47.3034815 C52.3788172,46.8578416 51.9131672,46.1242499 51.9131672,45.1027063 C51.9131672,44.6753491 51.9939185,44.2947143 52.1549377,43.960294 C52.3340896,43.6446642 52.5311326,43.4031808 52.7458248,43.2360976 C53.2651479,43.5331908 53.8470895,43.7840695 54.4918914,43.9882259 C55.1543426,44.1926362 55.8346848,44.2947143 56.5331598,44.2947143 C57.5,44.2947143 58.2700391,44.1276311 58.8430351,43.7932108 C59.4160312,43.4590444 59.7025293,42.9202138 59.7025293,42.1774808 L59.7025293,41.731587 C58.9682723,42.0660074 58.0729961,42.2330905 57.0167008,42.2330905 C56.2108797,42.2330905 55.4408406,42.1124758 54.7065836,41.8709923 C53.9904594,41.6109723 53.3548447,41.2209422 52.7997396,40.7009021 C52.2625256,40.1623254 51.8237121,39.4749482 51.483541,38.6392783 C51.1612609,37.8036084 51,36.8097427 51,35.658443 C51,34.525426 51.1702064,33.5409556 51.5103775,32.7052857 C51.8684397,31.8693618 52.3519807,31.1822386 52.9607588,30.6436619 C53.5874279,30.0865486 54.321685,29.677982 55.1632881,29.4179619 C56.0227822,29.1391514 56.9538404,29 57.9567045,29 Z M59.6220197,33.0394521 C59.4965408,32.9653057 59.3086851,32.8909054 59.0579691,32.8167591 C58.8251441,32.7423588 58.5297006,32.7052857 58.1716385,32.7052857 C57.2942533,32.7052857 56.6315603,32.9653057 56.1840431,33.4853458 C55.7541752,33.9868493 55.5392412,34.7110458 55.5392412,35.658443 C55.5392412,36.7355964 55.7541752,37.5156565 56.1840431,37.9986235 C56.6315603,38.4627999 57.1956109,38.6948881 57.8761949,38.6948881 C58.6102102,38.6948881 59.1921518,38.5186635 59.6220197,38.1657066 L59.6220197,33.0394521 Z" id="Shape"></path>
            <path d="M82,35.986425 C82,37.1057438 81.8186003,38.1075773 81.4560587,38.9921723 C81.093517,39.8587497 80.5781771,40.5900709 79.9102965,41.1856423 C79.2614835,41.7814605 78.4789398,42.2328902 77.562923,42.5396848 C76.6469062,42.8464793 75.6260178,43 74.5,43 C73.3739822,43 72.3530938,42.8375939 71.437077,42.5125348 C70.5210602,42.1877226 69.7289827,41.7274074 69.0611021,41.1315892 C68.4122891,40.5177533 67.906483,39.7775466 67.5439413,38.9109693 C67.181142,38.0443919 67,37.0697084 67,35.986425 C67,34.9214062 67.181142,33.9556081 67.5439413,33.0890307 C67.906483,32.2224534 68.4122891,31.491379 69.0611021,30.8955608 C69.7289827,30.2817249 70.5210602,29.8122774 71.437077,29.4874652 C72.3530938,29.1624061 73.3739822,29 74.5,29 C75.6260178,29 76.6469062,29.1715384 77.562923,29.5143683 C78.4789398,29.8394274 79.2614835,30.3088749 79.9102965,30.9227108 C80.5781771,31.5182821 81.093517,32.2496033 81.4560587,33.1159339 C81.8186003,33.9825112 82,34.9394239 82,35.986425 Z M71.9807606,35.986425 C71.9807606,37.0877261 72.2002955,37.9362857 72.6393651,38.5318571 C73.0972446,39.1096576 73.7269901,39.3984345 74.5286014,39.3984345 C75.3302127,39.3984345 75.9408905,39.1005254 76.3606349,38.504954 C76.7994469,37.9091358 77.0189817,37.0697084 77.0189817,35.986425 C77.0189817,34.9033885 76.7994469,34.0728465 76.3606349,33.495046 C75.9215653,32.8994746 75.3013536,32.6015655 74.5,32.6015655 C73.6983887,32.6015655 73.0781771,32.8994746 72.6393651,33.495046 C72.2002955,34.0728465 71.9807606,34.9033885 71.9807606,35.986425 Z" id="Shape"></path>
        </g>
    </g>
</svg>