<?xml version="1.0" encoding="UTF-8"?>
<svg width="733px" height="1045px" viewBox="0 0 733 1045" version="1.1" xmlns="http://www.w3.org/2000/svg" xmlns:xlink="http://www.w3.org/1999/xlink">
    <title>courses_en_uk</title>
    <g id="courses_en_uk" stroke="none" stroke-width="1" fill="none" fill-rule="evenodd">
        <g id="Path" transform="translate(275.000000, 0.000000)" fill="#D9DFF6">
            <path d="M44.0829912,437.909 C37.9419912,419.946 3.92199123,422.873 4.08799123,372.842 C4.33699123,297.513 111.730991,306.457 118.261991,249.718 C124.792991,192.982 55.7579912,194.116 53.7849912,146.237 C51.8119912,98.3569 104.640991,-0.255306999 184.279991,-5.68434189e-14 C247.074991,0.202491001 194.800991,76.255 245.362991,110.503 C295.923991,144.751 353.954991,101.27 382.416991,154.961 C421.622991,228.918 447.275991,307.516 457.036991,364.145 C466.794991,420.777 399.135991,417.332 400.732991,479.525 C402.329991,541.72 316.367991,552.386 324.278991,605.739 C329.266991,639.371 383.682991,628.322 386.307991,694.616 C388.529991,750.744 201.461991,819.585 61.5089912,704.933 C-78.4450088,590.281 67.5309912,506.463 44.0829912,437.909 Z"></path>
        </g>
        <g id="Quote" transform="translate(367.000000, 399.000000)">
            <path d="M20,35 L337,35 C348.045695,35 357,43.954305 357,55 L357,116 C357,118.761424 354.761424,121 352,121 L5,121 C2.23857625,121 6.8079094e-15,118.761424 0,116 L0,55 C-4.90542118e-15,43.954305 8.954305,35 20,35 Z" id="Rectangle" fill="#FFFFFF"></path>
            <path d="M20,210 C8.954305,210 -2.20000618e-15,201.045695 0,190 L0,129 C-1.2263553e-15,126.238576 2.23857625,124 5,124 L352,124 C354.761424,124 357,126.238576 357,129 L357,190 C357,201.045695 348.045695,210 337,210 L156,210 L96.6024188,242.398681 C95.8804397,242.792487 95.0284503,242.872638 94.2456935,242.62039 C92.6687031,242.112194 91.8022739,240.421816 92.3104676,238.844825 C97.3511502,223.203005 100.026812,214.66476 100.337452,213.230089 C100.692566,211.590017 100.097435,210.51332 98.5520582,210 L98.5520582,210 L20,210 Z" id="Combined-Shape" fill="#FFFFFF"></path>
            <text id="Вона-працює-старанно" font-family="Nunito-Regular, Nunito" font-size="20" font-weight="normal" letter-spacing="0.187500007" fill="#000000" fill-opacity="0.87">
                <tspan x="71.1549999" y="156">Вона працює старанно </tspan>
                <tspan x="146.2375" y="183">щодня.</tspan>
            </text>
            <text id="She-works-hard-every" font-family="Nunito-Bold, Nunito" font-size="20" font-weight="bold" letter-spacing="0.187500007" fill-opacity="0.87">
                <tspan x="57.0162499" y="89" fill="#E65C00">She works</tspan>
                <tspan x="155.60375" y="89" font-family="Nunito-Regular, Nunito" font-weight="normal" fill="#000000"> hard every day.</tspan>
            </text>
        </g>
        <g id="Group" transform="translate(275.000000, 59.000000)">
            <g id="Quote" transform="translate(0.000000, 35.000000)">
                <path d="M20,0 L337,0 C348.045695,2.38498688e-14 357,8.954305 357,20 L357,81 C357,83.7614237 354.761424,86 352,86 L5,86 C2.23857625,86 6.8079094e-15,83.7614237 0,81 L0,20 C-4.90542118e-15,8.954305 8.954305,-5.0763661e-15 20,0 Z" id="Rectangle" fill="#FFFFFF"></path>
                <path d="M20,175 C8.954305,175 -2.20000618e-15,166.045695 0,155 L0,94 C-1.2263553e-15,91.2385763 2.23857625,89 5,89 L352,89 C354.761424,89 357,91.2385763 357,94 L357,155 C357,166.045695 348.045695,175 337,175 L317.447942,175 C315.902565,175.51332 315.307434,176.590017 315.662548,178.230089 C315.973188,179.66476 318.64885,188.203005 323.689532,203.844825 C324.197726,205.421816 323.331297,207.112194 321.754306,207.62039 C320.97155,207.872638 320.11956,207.792487 319.397581,207.398681 L260,175 L20,175 Z" id="Combined-Shape" fill="#FFFFFF"></path>
                <text id="Вона-добре-говорить" font-family="Nunito-Regular, Nunito" font-size="20" font-weight="normal" letter-spacing="0.187500007" fill="#000000" fill-opacity="0.87">
                    <tspan x="79.8487499" y="121">Вона добре говорить </tspan>
                    <tspan x="119.645" y="148">англійською.</tspan>
                </text>
                <text id="She-speaks-English-w" font-family="Nunito-Bold, Nunito" font-size="20" font-weight="bold" letter-spacing="0.187500007" fill-opacity="0.87">
                    <tspan x="66.0899999" y="54" fill="#E65C00">She speaks</tspan>
                    <tspan x="171.885" y="54" font-family="Nunito-Regular, Nunito" font-weight="normal" fill="#000000"> English well.</tspan>
                </text>
            </g>
        </g>
        <g id="Girl" transform="translate(0.884825, 181.896122)">
            <path d="M26.6289755,490.227878 L47.5765755,413.838878 L52.8095755,395.066878 L82.5324755,403.352878 L41.4004755,497.716878 L42.7157755,519.465878 L38.0160755,542.356878 C36.7557755,545.428878 37.7696755,547.002878 35.4529755,547.452878 C33.9299755,547.748878 32.3887755,547.036878 31.6265755,545.685878 L33.9375755,531.099878 L28.4555755,534.953878 C28.4555755,534.953878 22.0726755,557.850878 21.1213755,561.263878 C20.1699755,564.676878 13.9549755,565.932878 14.8666755,562.662878 C15.7783755,559.391878 22.6766755,534.645878 22.6766755,534.645878 L21.1122755,534.209878 C21.1122755,534.209878 14.3329755,558.528878 13.1437755,562.794878 C11.9544755,567.060878 7.26147549,565.752878 8.71497549,560.538878 C10.1684755,555.324878 16.4191755,532.900878 16.4191755,532.900878 L14.8547755,532.464878 C14.8547755,532.464878 8.41917549,555.551878 7.73197549,558.016878 C7.04487549,560.481878 2.82747549,557.466878 4.05647549,553.058878 C5.28537549,548.649878 11.0338755,528.027878 11.0338755,528.027878 L9.46947549,527.591878 C9.46947549,527.591878 4.67237549,544.800878 3.80027549,547.928878 C2.92827549,551.057878 -1.32877451,548.184878 0.415475489,541.927878 C2.15967549,535.670878 6.95667549,518.462878 6.95667549,518.462878 L26.6289755,490.227878 Z" id="Path" fill="#FFC487" fill-rule="nonzero"></path>
            <path d="M330.497822,847.374538 C282.574822,836.504538 273.171822,827.944538 271.420822,824.464538 C271.070822,823.764538 270.101822,822.964538 269.337822,823.124538 L252.901822,826.514538 C252.510822,826.594538 252.204822,826.904538 252.124822,827.294538 L249.136822,841.954538 C249.057822,842.334538 249.196822,842.724538 249.524822,842.944538 C254.020822,845.934538 287.374822,866.534538 330.691822,849.254538 C331.591822,848.894538 331.443822,847.584538 330.497822,847.374538 Z" id="Path" fill="#9F5617" fill-rule="nonzero"></path>
            <path d="M270.580176,823.042878 L259.915176,792.535878 L243.115176,785.103878 C247.799176,797.219878 255.249176,822.722878 255.940176,826.062878 C256.632176,829.412878 265.988176,825.442878 270.580176,823.042878 Z" id="Path" fill="#FFC589" fill-rule="nonzero" transform="translate(256.847676, 806.227334) rotate(7.000000) translate(-256.847676, -806.227334) "></path>
            <path d="M62.6207755,560.103878 L373.515175,524.282878 C298.628202,502.21194 242.888069,493.53492 206.294775,498.251818 C169.701481,502.968716 121.810148,523.586069 62.6207755,560.103878 Z" id="Path-2" fill="#1A3A78" fill-rule="nonzero"></path>
            <path d="M264.811175,800.119878 L301.307175,480.749878 L301.029175,437.194878 L175.118175,461.031878 C196.292175,496.814878 208.980175,526.364878 234.283175,610.171878 C220.985175,686.174878 228.523175,727.128878 245.125175,799.825878 C251.674175,803.991878 255.889175,804.402878 264.811175,800.119878 Z" id="Path" fill="#8DA023" fill-rule="nonzero"></path>
            <path d="M109.997175,860.403878 C70.1767755,832.133878 68.1097755,819.373878 68.8469755,815.439878 C68.9791755,814.733878 68.6098755,813.818878 67.9182755,813.624878 L51.5116755,809.014878 C51.1265755,808.906878 50.7139755,809.038878 50.4628755,809.349878 L41.0230755,821.053878 C40.8014755,821.323878 40.7359755,821.693878 40.8672755,822.013878 C45.9328755,834.653878 66.8886755,854.773878 109.305175,862.203878 C110.347175,862.383878 110.860175,861.013878 109.997175,860.403878 Z" id="Path" fill="#9F5617" fill-rule="nonzero"></path>
            <path d="M66.8728755,816.291878 L75.8669755,785.252878 L66.4858755,769.458878 C63.2791755,782.045878 53.3197755,806.856878 53.1907755,810.270878 C52.9423755,816.844878 63.1860755,820.013878 66.8728755,816.291878 Z" id="Path" fill="#FFC589" fill-rule="nonzero"></path>
            <path d="M59.3915755,785.578878 L77.2126755,789.492878 L173.515175,620.845878 L224.804175,470.161878 L93.2231755,486.955878 L126.914175,609.762878 L126.151175,610.975878 C92.2641755,664.873878 72.2817755,696.654878 59.3915755,785.578878 Z" id="Path" fill="#8DA023" fill-rule="nonzero"></path>
            <path d="M223.344175,292.239878 C150.974175,196.011878 124.342175,138.717878 155.578175,17.6418778 L147.972175,13.0138778 C108.654175,120.262878 130.962175,185.018878 209.953175,304.608878 L209.539175,288.967878 L223.344175,292.239878 Z" id="Path" fill="#405FD3" fill-rule="nonzero"></path>
            <path d="M103.957994,404.350878 C163.098994,212.091878 -10.0610258,196.500878 160.812994,8.10387784 L167.715994,9.73887784 C26.4383947,185.368878 180.959994,274.247878 125.658994,399.602878 L119.043994,385.320878 L103.957994,404.350878 Z" id="Path" fill="#FFD800" fill-rule="nonzero"></path>
            <path d="M222.346175,137.040878 L292.668175,234.925878 L266.972175,251.893878 L208.825175,137.040878 L197.365175,120.024878 C195.479175,117.224878 198.129175,113.809878 201.526175,114.446878 C208.022175,115.664878 210.188175,113.939878 203.416175,101.800878 L205.887175,88.9278778 C206.070175,87.9668778 206.482175,87.0608778 207.090175,86.2788778 C210.279175,82.1738778 216.936175,83.2348778 218.590175,88.1098778 L221.786175,97.5338778 C222.158175,98.6318778 222.346175,99.7798778 222.346175,100.934878 L222.346175,137.040878 Z" id="Path" fill="#FFC589" fill-rule="nonzero"></path>
            <path d="M107.221175,258.420878 L242.521175,249.094878 L220.778175,172.140878 C220.778175,172.140878 150.711175,155.817878 177.288175,118.507878 L157.959175,83.5298778 C150.711175,174.473878 97.5561755,162.812878 107.221175,258.420878 Z" id="Path" fill="#FFC487" fill-rule="nonzero"></path>
            <path d="M373.515175,524.282878 C314.147175,297.734878 263.772208,165.626288 180.074208,153.020288 L206.166175,172.201878 L197.004175,237.217878 L129.523175,170.349878 L137.948245,150.714631 C66.7739459,170.629631 64.5191755,268.022878 39.0743755,408.753878 L73.0783755,418.083878 L62.6207755,560.103878 C196.281175,504.430878 265.228175,493.602878 373.515175,524.282878 Z" id="Path" fill="#234EA0" fill-rule="nonzero"></path>
            <path d="M186.586175,131.040878 C195.404175,129.948878 221.443175,85.9048778 210.200175,44.7708778 C184.630175,52.3568778 171.496175,59.1908778 149.796175,75.0848778 C148.132175,100.752878 179.349175,131.192878 185.495175,131.162922 C185.861175,131.161878 186.223175,131.085878 186.586175,131.040878 Z" id="Path" fill="#FFC487" fill-rule="nonzero"></path>
            <path d="M210.198175,51.7668778 C195.894175,46.6468778 157.587175,69.1438778 152.212175,89.0768778 C139.383175,73.1118778 139.209175,57.3578778 142.547175,26.1158778 C118.387175,9.79287784 166.709175,-18.1901222 169.124175,16.7888778 C181.205175,21.4528778 188.271175,19.2928778 205.366175,40.1078778 C226.252175,40.7318778 234.054175,45.2538778 231.942175,70.4218778 C225.572175,58.0158778 210.198175,51.7668778 210.198175,51.7668778 Z" id="Path" fill="#A0522D" fill-rule="nonzero"></path>
            <path d="M172.71003,18.0857378 L168.936765,14.2255418 C159.115765,21.3265418 153.607295,24.0721718 141.013295,24.9721718 L142.228338,28.9479948 C155.334338,27.9149948 162.49403,24.3817378 172.71003,18.0857378 Z" id="Path" fill="#FFD800" fill-rule="nonzero"></path>
            <path d="M203.235175,76.8768778 C207.581175,75.4168778 209.391175,75.1978778 210.484175,76.8768778" id="Path" stroke="#A0522D" stroke-width="2"></path>
            <path d="M188.739175,76.8768778 C184.632175,75.5938778 182.464175,75.7548778 179.075175,79.2088778" id="Path" stroke="#A0522D" stroke-width="2"></path>
            <path d="M198.426175,112.242878 C194.613175,115.921878 190.635175,115.162878 187.618175,112.242878" id="Path" stroke="#FF3A00" stroke-width="2"></path>
            <path d="M183.906175,90.8688778 C182.571175,90.8688778 181.490175,88.7808778 181.490175,86.2048778 C181.490175,83.6288778 182.571175,81.5408778 183.906175,81.5408778 C185.240175,81.5408778 186.322175,83.6288778 186.322175,86.2048778 C186.322175,88.7808778 185.240175,90.8688778 183.906175,90.8688778 Z" id="Path" fill="#723969" fill-rule="nonzero"></path>
            <path d="M203.235175,90.8688778 C201.901175,90.8688778 200.819175,88.7808778 200.819175,86.2048778 C200.819175,83.6288778 201.901175,81.5408778 203.235175,81.5408778 C204.569175,81.5408778 205.651175,83.6288778 205.651175,86.2048778 C205.651175,88.7808778 204.569175,90.8688778 203.235175,90.8688778 Z" id="Path" fill="#723969" fill-rule="nonzero"></path>
            <polygon id="Path" stroke="#FFAF5B" fill="#FFAF5B" fill-rule="nonzero" points="196.520175 100.601878 193.978175 92.0138778 193.978175 94.8768778 193.978175 100.601878"></polygon>
            <path d="M181.778175,67.8678778 C184.396175,52.9928778 187.629175,46.5498778 202.063175,44.3748778 L206.119175,49.5958778 C195.974175,53.5778778 190.490175,56.8168778 181.778175,67.8678778 Z" id="Path" fill="#A0522D" fill-rule="nonzero"></path>
            <path d="M155.416175,107.021878 C151.083175,98.6698778 149.775175,93.0088778 152.712175,78.3088778 L150.007175,86.1398778 C147.865175,98.2488778 151.064175,100.948878 155.416175,107.021878 Z" id="Path" fill="#A0522D" fill-rule="nonzero"></path>
            <path d="M157.438175,99.1908778 C153.591175,93.8768778 152.126175,91.5788778 154.734175,82.2238778 L150.677175,86.1398778 C148.775175,93.8458778 153.573175,95.3258778 157.438175,99.1908778 Z" id="Path" fill="#A0522D" fill-rule="nonzero"></path>
            <path d="M268.472175,228.760878 L285.465175,213.201878 L307.553175,278.929878 C307.869175,279.872878 307.348175,280.884878 306.381175,281.213878 L289.241175,287.002878 L268.472175,228.760878 Z" id="Path" fill="#234EA0" fill-rule="nonzero"></path>
            <path d="M161.563175,98.1478778 C166.829175,98.1478778 171.097175,94.0278778 171.097175,88.9468778 C171.097175,83.8648778 166.829175,79.7448778 161.563175,79.7448778 C156.298175,79.7448778 152.030175,83.8648778 152.030175,88.9468778 C152.030175,94.0278778 156.298175,98.1478778 161.563175,98.1478778 Z" id="Path" fill="#FFFFFF" fill-rule="nonzero"></path>
            <path d="M158.623175,96.1038778 C155.894175,126.963878 155.483175,149.160878 157.801175,168.322878 C160.073175,187.105878 164.962175,202.937878 172.811175,221.132878 C172.655175,315.231878 168.726175,359.673878 161.643175,382.744878 C156.533175,399.384878 150.091175,405.308878 142.565175,412.230878 C139.674175,414.890878 130.272175,430.545878 127.074175,434.162878 L128.525175,435.354878 C131.542175,431.942878 140.847175,416.377878 143.696175,413.755878 C151.333175,406.729878 158.208175,400.405878 163.471175,383.265878 C170.665175,359.834878 174.466175,315.121878 174.597175,220.488878 C174.597175,220.488878 173.976175,217.809878 174.016175,215.437878 C174.069175,212.249878 174.612175,207.649878 175.870175,200.670878 C178.385175,186.724878 185.602175,166.596878 195.430175,126.527878 L193.574175,126.103878 C183.749175,166.163878 176.518175,186.346878 173.992175,200.355878 C172.827175,206.814878 172.257175,211.329878 172.132175,214.607878 C165.752175,198.903878 161.697175,184.661878 159.695175,168.109878 C157.399175,149.127878 157.797175,127.075878 160.523175,96.2598778 L158.623175,96.1038778 Z" id="Path" fill="#FFFFFF" fill-rule="nonzero"></path>
            <rect id="Rectangle" fill="#8DA023" fill-rule="nonzero" transform="translate(126.715792, 426.384649) rotate(24.148100) translate(-126.715792, -426.384649) " x="97.2157919" y="417.384649" width="59" height="18"></rect>
        </g>
    </g>
</svg>