<?xml version="1.0" encoding="UTF-8"?>
<svg width="733px" height="1045px" viewBox="0 0 733 1045" version="1.1" xmlns="http://www.w3.org/2000/svg" xmlns:xlink="http://www.w3.org/1999/xlink">
    <title>courses</title>
    <g id="Page-1" stroke="none" stroke-width="1" fill="none" fill-rule="evenodd">
        <g id="courses">
            <path d="M319.083,437.909 C312.942,419.946 278.922,422.873 279.088,372.842 C279.337,297.513 386.731,306.457 393.262,249.718 C399.793,192.982 330.758,194.116 328.785,146.237 C326.812,98.3569 379.641,-0.255307 459.28,-9.27514066e-10 C522.075,0.202491 469.801,76.255 520.363,110.503 C570.924,144.751 628.955,101.27 657.417,154.961 C696.623,228.918 722.276,307.516 732.037,364.145 C741.795,420.777 674.136,417.332 675.733,479.525 C677.33,541.72 591.368,552.386 599.279,605.739 C604.267,639.371 658.683,628.322 661.308,694.616 C663.53,750.744 476.462,819.585 336.509,704.933 C196.555,590.281 342.531,506.463 319.083,437.909 Z" id="Path" fill="#405FD3" opacity="0.15"></path>
            <polygon id="Path" fill="#D7D7D7" fill-rule="nonzero" points="479.674 444.654 367.61 444.654 367.61 479.658 479.674 479.658"></polygon>
            <polygon id="Path" fill="#D7D7D7" fill-rule="nonzero" points="511.938 503.364 335.335 503.364 335.335 550.159 511.938 550.159"></polygon>
            <polygon id="Path" fill="#ECEBEB" fill-rule="nonzero" points="447.412 444.654 432.153 444.654 432.153 479.658 447.412 479.658"></polygon>
            <polygon id="Path" fill="#C4C4C4" fill-rule="nonzero" points="439.785 444.654 432.153 444.654 432.153 479.658 439.785 479.658"></polygon>
            <polygon id="Path" fill="#ECEBEB" fill-rule="nonzero" points="479.681 444.654 464.424 444.654 464.424 479.658 479.681 479.658"></polygon>
            <polygon id="Path" fill="#C4C4C4" fill-rule="nonzero" points="472.055 444.654 464.424 444.654 464.424 479.658 472.055 479.658"></polygon>
            <polygon id="Path" fill="#ECEBEB" fill-rule="nonzero" points="415.142 444.654 399.885 444.654 399.885 479.658 415.142 479.658"></polygon>
            <polygon id="Path" fill="#C4C4C4" fill-rule="nonzero" points="407.51 444.654 399.885 444.654 399.885 479.658 407.51 479.658"></polygon>
            <polygon id="Path" fill="#ECEBEB" fill-rule="nonzero" points="382.879 444.654 367.615 444.654 367.615 479.658 382.879 479.658"></polygon>
            <polygon id="Path" fill="#C4C4C4" fill-rule="nonzero" points="375.247 444.654 367.615 444.654 367.615 479.658 375.247 479.658"></polygon>
            <path d="M469.368,387.113 L378.262,387.113 C373.8,387.113 370.184,390.07 370.184,393.718 L370.184,406.929 L477.448,406.929 L477.448,393.718 C477.446,390.07 473.83,387.113 469.368,387.113 Z" id="Path" fill="#B1B1B1" fill-rule="nonzero"></path>
            <path d="M423.815,347.202 C401.167,347.202 382.807,365.07 382.807,387.113 L464.823,387.113 C464.823,365.07 446.463,347.202 423.815,347.202 Z" id="Path" fill="#C4C4C4" fill-rule="nonzero"></path>
            <path d="M433.855,348.412 C408.072,342.097 382.807,360.995 382.807,387.113 L407.512,387.113 C407.514,368.442 418.719,352.771 433.855,348.412 Z" id="Path" fill="#B1B1B1" fill-rule="nonzero"></path>
            <polygon id="Path" fill="#ECEBEB" fill-rule="nonzero" points="447.411 503.364 432.148 503.364 432.148 550.159 447.411 550.159"></polygon>
            <polygon id="Path" fill="#C4C4C4" fill-rule="nonzero" points="439.785 503.364 432.153 503.364 432.153 550.159 439.785 550.159"></polygon>
            <polygon id="Path" fill="#ECEBEB" fill-rule="nonzero" points="479.681 503.364 464.424 503.364 464.424 550.159 479.681 550.159"></polygon>
            <polygon id="Path" fill="#C4C4C4" fill-rule="nonzero" points="472.055 503.364 464.424 503.364 464.424 550.159 472.055 550.159"></polygon>
            <polygon id="Path" fill="#ECEBEB" fill-rule="nonzero" points="511.943 503.364 496.687 503.364 496.687 550.159 511.943 550.159"></polygon>
            <polygon id="Path" fill="#D7D7D7" fill-rule="nonzero" points="505.038 503.364 496.691 503.364 496.691 550.159 505.038 550.159"></polygon>
            <polygon id="Path" fill="#ECEBEB" fill-rule="nonzero" points="415.142 503.364 399.88 503.364 399.88 550.159 415.142 550.159"></polygon>
            <polygon id="Path" fill="#C4C4C4" fill-rule="nonzero" points="407.516 503.364 399.885 503.364 399.885 550.159 407.516 550.159"></polygon>
            <polygon id="Path" fill="#ECEBEB" fill-rule="nonzero" points="382.873 503.364 367.615 503.364 367.615 550.159 382.873 550.159"></polygon>
            <polygon id="Path" fill="#C4C4C4" fill-rule="nonzero" points="375.247 503.364 367.615 503.364 367.615 550.159 375.247 550.159"></polygon>
            <polygon id="Path" fill="#828282" fill-rule="nonzero" points="462.093 387.113 446.837 387.113 446.837 406.931 462.093 406.931"></polygon>
            <polygon id="Path" fill="#828282" fill-rule="nonzero" points="431.451 387.113 416.188 387.113 416.188 406.931 431.451 406.931"></polygon>
            <polygon id="Path" fill="#828282" fill-rule="nonzero" points="400.796 387.113 385.534 387.113 385.534 406.931 400.796 406.931"></polygon>
            <polygon id="Path" fill="#ECEBEB" fill-rule="nonzero" points="350.603 503.364 335.347 503.364 335.347 550.159 350.603 550.159"></polygon>
            <polygon id="Path" fill="#C4C4C4" fill-rule="nonzero" points="342.977 503.364 335.347 503.364 335.347 550.159 342.977 550.159"></polygon>
            <polygon id="Path" fill="#C4C4C4" fill-rule="nonzero" points="423.815 408.019 477.142 429.668 477.142 406.932 370.488 406.932 370.488 429.668"></polygon>
            <polygon id="Path" fill="#C4C4C4" fill-rule="nonzero" points="385.865 406.932 370.488 406.932 370.488 429.668 385.865 423.425"></polygon>
            <path d="M479.348,410.549 L368.872,410.549 C366.428,410.549 364.448,408.929 364.448,406.931 C364.448,404.932 366.428,403.312 368.872,403.312 L479.346,403.312 C481.79,403.312 483.770002,404.932 483.770002,406.931 C483.772,408.929 481.792,410.549 479.348,410.549 Z" id="Path" fill="#969696" fill-rule="nonzero"></path>
            <path d="M423.642,406.931 C423.642,404.932 425.623,403.312 428.065,403.312 L368.872,403.312 C366.428,403.312 364.448,404.932 364.448,406.931 C364.448,408.929 366.428,410.549 368.872,410.549 L428.065,410.549 C425.623,410.549 423.642,408.929 423.642,406.931 Z" id="Path" fill="#828282" fill-rule="nonzero"></path>
            <polygon id="Path" fill="#969696" fill-rule="nonzero" points="323.508 490.706 323.508 491.766 335.121 504.243 512.507 504.243 524.121 491.766 524.121 490.706"></polygon>
            <polygon id="Path" fill="#828282" fill-rule="nonzero" points="338.885 490.706 323.508 490.706 323.508 491.766 335.121 504.243 350.496 504.243 338.885 491.766"></polygon>
            <path d="M485.806,432.221 L361.823,432.221 L359.859,433.018 L359.859,439.707 C359.859,442.901 363.023,445.49 366.927,445.496 L480.702,445.496 C484.606,445.49 487.768,442.901 487.768,439.707 L487.768,433.018 L485.806,432.221 Z" id="Path" fill="#B1B1B1" fill-rule="nonzero"></path>
            <path d="M380.8,439.707 L380.8,433.018 L382.764,432.221 L361.823,432.221 L359.859,433.018 L359.859,439.707 C359.859,442.901 363.023,445.49 366.927,445.496 L387.868,445.496 C383.964,445.49 380.8,442.901 380.8,439.707 Z" id="Path" fill="#828282" fill-rule="nonzero"></path>
            <path d="M428.624,409.007 C424.315,407.257 420.483,408.436 419.348,408.866 L359.86,433.019 L487.769,433.019 L428.624,409.007 Z" id="Path" fill="#C4C4C4" fill-rule="nonzero"></path>
            <path d="M428.624,409.007 C424.315,407.257 420.483,408.436 419.348,408.866 L359.86,433.019 L386.125,433.019 L436.946,412.385 L428.624,409.007 Z" id="Path" fill="#8E8E8E" fill-rule="nonzero"></path>
            <path d="M517.043,479.288 L330.586,479.288 C326.676,479.288 323.508,481.879 323.508,485.077 L323.508,491.766 L524.121,491.766 L524.121,485.077 C524.121,481.879 520.952,479.288 517.043,479.288 Z" id="Path" fill="#B1B1B1" fill-rule="nonzero"></path>
            <path d="M345.961,479.288 L330.586,479.288 C326.676,479.288 323.508,481.879 323.508,485.077 L323.508,491.766 L338.883,491.766 L338.883,485.077 C338.885,481.879 342.054,479.288 345.961,479.288 Z" id="Path" fill="#828282" fill-rule="nonzero"></path>
            <polygon id="Path" fill="#B1B1B1" fill-rule="nonzero" points="425.747 330.4 423.815 330.4 423.815 347.781 425.747 347.781"></polygon>
            <path d="M423.815,324.607 C439.894,332.095 442.256,328.347 448.934,324.607 C447.345,332.657 447.508,335.843 448.934,340.057 C440.101,344.64 434.558,344.438 423.815,340.057 L423.815,324.607 Z" id="Path" fill="#C4C4C4" fill-rule="nonzero"></path>
            <path d="M188.209,31 C171.524,31 158,44.0535 158,60.1558 L158,105.814 C158,121.917 171.524,134.97 188.209,134.97 L192.67,134.97 L192.67,150.967 C192.67,155.67 198.414,158.178 202.074,155.073 L225.762,134.97 L291.235,134.97 C307.919,134.97 321.443,121.917 321.443,105.814 L321.443,60.1558 C321.443,44.0535 307.919,31 291.235,31 L188.209,31 Z" id="Path" fill="#405FD3" opacity="0.5"></path>
            <path d="M337.676,215 C345.694,215 352.194,221.179 352.194,228.802 L352.194,255.211 C352.194,262.834 345.694,269.013 337.676,269.013 L333.91,269.013 L333.91,277.882 C333.91,280.106 331.15,281.294 329.391,279.824 L316.458,269.013 L280.517,269.013 C272.499,269.013 266,262.834 266,255.211 L266,228.802 C266,221.179 272.499,215 280.517,215 L337.676,215 Z" id="Path" fill="#405FD3" fill-rule="nonzero" opacity="0.5"></path>
            <path d="M27.5138,672.124 L48.4614,595.735 L53.6944,576.963 L83.4173,585.249 L42.2853,679.613 L43.6006,701.362 L38.9009,724.253 C37.6406,727.325 38.6545,728.899 36.3378,729.349 C34.8148,729.645 33.2736,728.933 32.5114,727.582 L34.8224,712.996 L29.3404,716.85 C29.3404,716.85 22.9575,739.747 22.0062,743.16 C21.0548,746.573 14.8398,747.829 15.7515,744.559 C16.6632,741.288 23.5615,716.542 23.5615,716.542 L21.9971,716.106 C21.9971,716.106 15.2178,740.425 14.0286,744.691 C12.8393,748.957 8.1463,747.649 9.5998,742.435 C11.0533,737.221 17.304,714.797 17.304,714.797 L15.7396,714.361 C15.7396,714.361 9.304,737.448 8.6168,739.913 C7.9297,742.378 3.7123,739.363 4.9413,734.955 C6.1702,730.546 11.9187,709.924 11.9187,709.924 L10.3543,709.488 C10.3543,709.488 5.5572,726.697 4.6851,729.825 C3.8131,732.954 -0.44395,730.081 1.3003,723.824 C3.0445,717.567 7.8415,700.359 7.8415,700.359 L27.5138,672.124 Z" id="Path" fill="#FFC487" fill-rule="nonzero"></path>
            <path d="M331.382647,1029.27066 C283.459647,1018.40066 274.056647,1009.84066 272.305647,1006.36066 C271.955647,1005.66066 270.986647,1004.86066 270.222647,1005.02066 L253.786647,1008.41066 C253.395647,1008.49066 253.089647,1008.80066 253.009647,1009.19066 L250.021647,1023.85066 C249.942647,1024.23066 250.081647,1024.62066 250.409647,1024.84066 C254.905647,1027.83066 288.259647,1048.43066 331.576647,1031.15066 C332.476647,1030.79066 332.328647,1029.48066 331.382647,1029.27066 Z" id="Path" fill="#9F5617" fill-rule="nonzero"></path>
            <path d="M271.465,1004.939 L260.8,974.432 L244,967 C248.684,979.116 256.134,1004.619 256.825,1007.959 C257.517,1011.309 266.873,1007.339 271.465,1004.939 Z" id="Path" fill="#FFC589" fill-rule="nonzero" transform="translate(257.732500, 988.123456) rotate(7.000000) translate(-257.732500, -988.123456) "></path>
            <path d="M63.5056,742 L374.4,706.179 C299.513027,684.108062 243.772894,675.431042 207.1796,680.14794 C170.586306,684.864838 122.694973,705.482191 63.5056,742 Z" id="Path-2" fill="#1A3A78"></path>
            <path d="M265.696,982.016 L302.192,662.646 L301.914,619.091 L176.003,642.928 C197.177,678.711 209.865,708.261 235.168,792.068 C221.87,868.071 229.408,909.025 246.01,981.722 C252.559,985.888 256.774,986.299 265.696,982.016 Z" id="Path" fill="#8DA023" fill-rule="nonzero"></path>
            <path d="M110.882,1042.3 C71.0616,1014.03 68.9946,1001.27 69.7318,997.336 C69.864,996.63 69.4947,995.715 68.8031,995.521 L52.3965,990.911 C52.0114,990.803 51.5988,990.935 51.3477,991.246 L41.9079,1002.95 C41.6863,1003.22 41.6208,1003.59 41.7521,1003.91 C46.8177,1016.55 67.7735,1036.67 110.19,1044.1 C111.232,1044.28 111.745,1042.91 110.882,1042.3 Z" id="Path" fill="#9F5617" fill-rule="nonzero"></path>
            <path d="M67.7577,998.188 L76.7518,967.149 L67.3707,951.355 C64.164,963.942 54.2046,988.753 54.0756,992.167 C53.8272,998.741 64.0709,1001.91 67.7577,998.188 Z" id="Path" fill="#FFC589" fill-rule="nonzero"></path>
            <path d="M60.2764,967.475 L78.0975,971.389 L174.4,802.742 L225.689,652.058 L94.108,668.852 L127.799,791.659 L127.036,792.872 C93.149,846.77 73.1666,878.551 60.2764,967.475 Z" id="Path" fill="#8DA023" fill-rule="nonzero"></path>
            <path d="M224.229,474.136 C151.859,377.908 125.227,320.614 156.463,199.538 L148.857,194.91 C109.539,302.159 131.847,366.915 210.838,486.505 L210.424,470.864 L224.229,474.136 Z" id="Path" fill="#405FD3" fill-rule="nonzero"></path>
            <path d="M104.842819,586.247 C163.983819,393.988 -9.17620125,378.397 161.697819,190 L168.600819,191.635 C27.3232192,367.265 181.844819,456.144 126.543819,581.499 L119.928819,567.217 L104.842819,586.247 Z" id="Path" fill="#FFD800" fill-rule="nonzero"></path>
            <path d="M223.231,318.937 L293.553,416.822 L267.857,433.79 L209.71,318.937 L198.25,301.921 C196.364,299.121 199.014,295.706 202.411,296.343 C208.907,297.561 211.073,295.836 204.301,283.697 L206.772,270.824 C206.955,269.863 207.367,268.957 207.975,268.175 C211.164,264.07 217.821,265.131 219.475,270.006 L222.671,279.43 C223.043,280.528 223.231,281.676 223.231,282.831 L223.231,318.937 Z" id="Path" fill="#FFC589" fill-rule="nonzero"></path>
            <path d="M108.106,440.317 L243.406,430.991 L221.663,354.037 C221.663,354.037 151.596,337.714 178.173,300.404 L158.844,265.426 C151.596,356.37 98.441,344.709 108.106,440.317 Z" id="Path" fill="#FFC487" fill-rule="nonzero"></path>
            <path d="M374.4,706.179 C315.032,479.631 264.657033,347.52241 180.959033,334.91641 L207.051,354.098 L197.889,419.114 L130.408,352.246 L138.83307,332.610753 C67.6587704,352.525753 65.404,449.919 39.9592,590.65 L73.9632,599.98 L63.5056,742 C197.166,686.327 266.113,675.499 374.4,706.179 Z" id="Path" fill="#234EA0" fill-rule="nonzero"></path>
            <path d="M187.471,312.937 C196.289,311.845 222.328,267.801 211.085,226.667 C185.515,234.253 172.381,241.087 150.681,256.981 C149.017,282.649 180.234,313.089 186.38,313.059022 C186.746,313.058 187.108,312.982 187.471,312.937 Z" id="Path" fill="#FFC487" fill-rule="nonzero"></path>
            <path d="M211.083,233.663 C196.779,228.543 158.472,251.04 153.097,270.973 C140.268,255.008 140.094,239.254 143.432,208.012 C119.272,191.689 167.594,163.706 170.009,198.685 C182.09,203.349 189.156,201.189 206.251,222.004 C227.137,222.628 234.939,227.15 232.827,252.318 C226.457,239.912 211.083,233.663 211.083,233.663 Z" id="Path" fill="#A0522D" fill-rule="nonzero"></path>
            <path d="M173.594855,199.98186 L169.82159,196.121664 C160.00059,203.222664 154.49212,205.968294 141.89812,206.868294 L143.113163,210.844117 C156.219163,209.811117 163.378855,206.27786 173.594855,199.98186 Z" id="Path" fill="#FFD800" fill-rule="nonzero"></path>
            <path d="M204.12,258.773 C208.466,257.313 210.276,257.094 211.369,258.773" id="Path" stroke="#A0522D" stroke-width="2"></path>
            <path d="M189.624,258.773 C185.517,257.49 183.349,257.651 179.96,261.105" id="Path" stroke="#A0522D" stroke-width="2"></path>
            <path d="M199.311,294.139 C195.498,297.818 191.52,297.059 188.503,294.139" id="Path" stroke="#FF3A00" stroke-width="2"></path>
            <path d="M184.791,272.765 C183.456,272.765 182.375,270.677 182.375,268.101 C182.375,265.525 183.456,263.437 184.791,263.437 C186.125,263.437 187.207,265.525 187.207,268.101 C187.207,270.677 186.125,272.765 184.791,272.765 Z" id="Path" fill="#723969" fill-rule="nonzero"></path>
            <path d="M204.12,272.765 C202.786,272.765 201.704,270.677 201.704,268.101 C201.704,265.525 202.786,263.437 204.12,263.437 C205.454,263.437 206.536,265.525 206.536,268.101 C206.536,270.677 205.454,272.765 204.12,272.765 Z" id="Path" fill="#723969" fill-rule="nonzero"></path>
            <polygon id="Path" stroke="#FFAF5B" fill="#FFAF5B" fill-rule="nonzero" points="197.405 282.498 194.863 273.91 194.863 276.773 194.863 282.498"></polygon>
            <path d="M182.663,249.764 C185.281,234.889 188.514,228.446 202.948,226.271 L207.004,231.492 C196.859,235.474 191.375,238.713 182.663,249.764 Z" id="Path" fill="#A0522D" fill-rule="nonzero"></path>
            <path d="M156.301,288.918 C151.968,280.566 150.66,274.905 153.597,260.205 L150.892,268.036 C148.75,280.145 151.949,282.845 156.301,288.918 Z" id="Path" fill="#A0522D" fill-rule="nonzero"></path>
            <path d="M158.323,281.087 C154.476,275.773 153.011,273.475 155.619,264.12 L151.562,268.036 C149.66,275.742 154.458,277.222 158.323,281.087 Z" id="Path" fill="#A0522D" fill-rule="nonzero"></path>
            <path d="M269.357,410.657 L286.35,395.098 L308.438,460.826 C308.754,461.769 308.233,462.781 307.266,463.11 L290.126,468.899 L269.357,410.657 Z" id="Path" fill="#234EA0" fill-rule="nonzero"></path>
            <path d="M162.448,280.044 C167.714,280.044 171.982,275.924 171.982,270.843 C171.982,265.761 167.714,261.641 162.448,261.641 C157.183,261.641 152.915,265.761 152.915,270.843 C152.915,275.924 157.183,280.044 162.448,280.044 Z" id="Path" fill="#FFFFFF" fill-rule="nonzero"></path>
            <path d="M159.508,278 C156.779,308.86 156.368,331.057 158.686,350.219 C160.958,369.002 165.847,384.834 173.696,403.029 C173.54,497.128 169.611,541.57 162.528,564.641 C157.418,581.281 150.976,587.205 143.45,594.127 C140.559,596.787 131.157,612.442 127.959,616.059 L129.41,617.251 C132.427,613.839 141.732,598.274 144.581,595.652 C152.218,588.626 159.093,582.302 164.356,565.162 C171.55,541.731 175.351,497.018 175.482,402.385 C175.482,402.385 174.861,399.706 174.901,397.334 C174.954,394.146 175.497,389.546 176.755,382.567 C179.27,368.621 186.487,348.493 196.315,308.424 L194.459,308 C184.634,348.06 177.403,368.243 174.877,382.252 C173.712,388.711 173.142,393.226 173.017,396.504 C166.637,380.8 162.582,366.558 160.58,350.006 C158.284,331.024 158.682,308.972 161.408,278.156 L159.508,278 Z" id="Path" fill="#FFFFFF" fill-rule="nonzero"></path>
            <polygon id="Path" fill="#C4C4C4" fill-rule="nonzero" points="480.635 89.5291 498.267 89.5291 498.267 123.568 480.635 123.568"></polygon>
            <polygon id="Path" fill="#B9B9B9" fill-rule="nonzero" points="630.525 293.761 630.525 361.84 648.158 361.84 674.609 327.801"></polygon>
            <polygon id="Path" fill="#D7D7D7" fill-rule="nonzero" points="463 149.097 463 115.058 507.086 115.058 507.086 140.587 489.451 140.587 533.535 234.194 498.268 268.232"></polygon>
            <polygon id="Path" fill="#ECEBEB" fill-rule="nonzero" points="639.139 361.92 665.576 310.886 700.829 327.897 674.388 378.931"></polygon>
            <path d="M559.989,191.646 L612.891,191.646 L612.891,234.194 C612.891,240.964 610.102,247.458 605.142,252.246 C600.181,257.033 593.454,259.724 586.438,259.724 C579.423,259.724 572.696,257.033 567.734,252.246 C562.773,247.458 559.989,240.964 559.989,234.194 L559.989,191.646 Z" id="Path" fill="#ECEBEB" fill-rule="nonzero"></path>
            <path d="M498.267,268.232 L533.535,234.194 L619.843,275.843 C625.702,278.671 630.628,283.016 634.071,288.394 C637.515,293.772 639.339,299.967 639.339,306.29 L639.339,523.522 L498.267,523.522 L498.267,268.232 Z" id="Path" fill="#ECEBEB" fill-rule="nonzero"></path>
            <path d="M618.502,431.811 L624.979,429.31 C626.771,428.617 628.277,427.378 629.27,425.779 C630.264,424.182 630.684,422.313 630.471,420.462 L612.838,267.287 C612.629,265.461 611.814,263.75 610.511,262.408 C609.212,261.067 607.496,260.167 605.622,259.846 C603.749,259.521 601.818,259.793 600.116,260.619 C598.415,261.443 597.036,262.779 596.186,264.423 L573.064,309.056 C554.001,345.864 527.256,378.473 494.515,404.832 C494.265,405.03 494.061,405.278 493.912,405.554 C493.76,405.832 493.665,406.135 493.639,406.443 C493.61,406.756 493.643,407.071 493.739,407.368 C493.836,407.668 493.994,407.944 494.201,408.183 L502.336,417.6 C502.755,418.084 503.358,418.389 504.009,418.446 C504.659,418.503 505.31,418.307 505.812,417.902 C540.429,390.036 568.701,355.561 588.854,316.644 L598.606,297.816 L612.2,415.909 L579.635,428.484 L593.533,354.71 C593.949,352.49 593.436,350.201 592.107,348.347 C590.775,346.492 588.737,345.224 586.438,344.82 C584.138,344.417 581.767,344.912 579.844,346.196 C577.922,347.48 576.608,349.449 576.189,351.668 L560.129,436.915 C559.72,439.08 560.201,441.313 561.465,443.147 L573.072,459.953 L503.182,486.932 C502.106,487.345 501.125,487.963 500.296,488.742 C499.467,489.523 498.808,490.454 498.351,491.48 C497.895,492.509 497.653,493.613 497.638,494.729 C497.624,495.846 497.84,496.956 498.269,497.995 C498.699,499.031 499.336,499.978 500.144,500.78 C500.953,501.579 501.917,502.217 502.982,502.659 C504.046,503.098 505.189,503.334 506.348,503.346 C507.506,503.36 508.657,503.152 509.73,502.739 L548.4,487.81 L542.352,523.522 L559.868,524.923 L567.554,480.412 L589.705,471.858 C590.924,471.388 592.02,470.662 592.909,469.732 C593.802,468.801 594.465,467.691 594.854,466.48 C595.244,465.27 595.349,463.994 595.16,462.738 C594.974,461.487 594.499,460.289 593.769,459.236 L584.019,445.121 L600.687,438.688 L626.873,463.955 C628.527,465.552 630.768,466.446 633.106,466.446 C635.445,466.446 637.689,465.552 639.341,463.955 C640.995,462.358 641.922,460.195 641.922,457.939 C641.922,455.682 640.995,453.518 639.341,451.921 L618.502,431.811 Z" id="Path" fill="#C4C4C4" fill-rule="nonzero"></path>
            <path d="M504.931,334.395 C518.907,329.003 531.643,321.01 542.413,310.866 C553.183,300.724 561.78,288.631 567.707,275.282 L576.907,254.567 L560.707,247.865 L551.501,268.571 C546.485,279.867 539.212,290.099 530.098,298.679 C520.984,307.263 510.21,314.027 498.387,318.589 C497.94,318.761 497.533,319.014 497.19,319.339 C496.848,319.663 496.573,320.047 496.384,320.472 C496.195,320.9 496.093,321.356 496.087716,321.818 C496.082,322.282 496.171,322.742 496.349,323.171 L500.183,332.426 C500.361,332.855 500.624,333.248 500.96,333.579 C501.293,333.911 501.693,334.176 502.134,334.358 C502.576,334.54 503.05,334.639 503.53,334.645136 C504.008,334.649 504.484,334.565 504.931,334.393 L504.931,334.395 Z" id="Path" fill="#C4C4C4" fill-rule="nonzero"></path>
            <path d="M471.818,81.0194 C471.818,85.5331 473.673,89.8621 476.982,93.0538 C480.29,96.2455 484.774,98.0386 489.453,98.0386 C494.128,98.0386 498.614,96.2455 501.92,93.0538 C505.228,89.8621 507.086,85.5331 507.086,81.0194 L507.086,79.5588 C507.086,75.0454 508.943,70.7167 512.249,67.5251 L515.902,64 L489.453,64 C484.774,64 480.29,65.7931 476.982,68.9848 C473.673,72.1766 471.818,76.5056 471.818,81.0194 Z" id="Path" fill="#ECEBEB" fill-rule="nonzero"></path>
            <path d="M474.199,89.4134 C476.11,92.6822 479.089,95.247 482.673,96.7059 C486.256,98.1649 490.239,98.4356 494.001,97.4762 C497.759,96.5166 501.083,94.3806 503.451,91.4028 C505.82,88.4249 507.096,84.7732 507.086,81.0197 L507.086,79.5591 C507.088,78.4051 507.211,77.2543 507.457,76.1245 C498.333,84.1904 486.557,88.8957 474.199,89.4134 Z" id="Path" fill="#A1A1A1" fill-rule="nonzero"></path>
            <path d="M646.042,365.073 L674.607,378.859 L701.058,327.801 L689.121,322.039 C678.229,339.278 663.519,353.974 646.042,365.073 Z" id="Path" fill="#C4C4C4" fill-rule="nonzero"></path>
            <path d="M619.681,207.06 C617.331,203.748 614.228,201 610.61,199.029 C598.584,192.323 579.517,191.762 566.937,196.122 C560.7,198.062 555.28,201.898 551.484,207.06 C551.063,203.558 551.205,200.015 551.904,196.555 C552.733,191.99 554.759,187.707 557.786,184.113 C564.484,176.464 574.982,173.915 585.53,173.915 C606.022,173.915 616.069,183.068 618.918,195.408 C619.845,199.223 620.104,203.162 619.681,207.06 Z" id="Path" fill="#828282" fill-rule="nonzero"></path>
            <path d="M593.1,174.374 C588.074,173.763 582.989,173.763 577.963,174.374 L582.498,145.869 C582.74,144.424 584.029,143.363 585.544,143.363 C587.058,143.363 588.349,144.424 588.589,145.869 L593.1,174.374 Z" id="Path" fill="#ECEBEB" fill-rule="nonzero"></path>
            <path d="M625.09,154.156 C625.09,154.921 625.853,152.804 613.302,184.063 C609.833,180.135 605.249,177.279 600.114,175.853 L619.682,152.295 C620.503,151.345 621.849,150.99 623.056,151.405 C624.263,151.82 625.073,152.918 625.09,154.156 Z" id="Path" fill="#ECEBEB" fill-rule="nonzero"></path>
            <path d="M570.972,175.853 C565.838,177.275 561.251,180.131 557.787,184.063 L546.183,155.227 C545.66,153.862 546.235,152.332 547.538,151.607 C548.843,150.882 550.499,151.172 551.458,152.294 L570.972,175.853 Z" id="Path" fill="#ECEBEB" fill-rule="nonzero"></path>
            <path d="M557.655,184.114 C554.905,187.428 553.006,191.325 552.116,195.485 L533.972,181.768 C532.763,180.871 532.423,179.25 533.172,177.967 C533.921,176.684 535.534,176.131 536.952,176.668 L557.655,184.114 Z" id="Path" fill="#ECEBEB" fill-rule="nonzero"></path>
            <path d="M636.825,181.768 L618.919,195.409 C618.018,191.269 616.111,187.397 613.353,184.114 L633.845,176.643 C635.279,176.054 636.944,176.602 637.707,177.916 C638.472,179.23 638.091,180.889 636.825,181.768 Z" id="Path" fill="#ECEBEB" fill-rule="nonzero"></path>
            <path d="M635.506,204.893 C614.169,208.106 621.58,207.086 619.682,207.086 C620.098,203.593 619.957,200.058 619.261,196.607 L635.611,199.156 C636.965,199.51 637.897,200.708 637.873,202.065 C637.848,203.421 636.873,204.587 635.506,204.893 Z" id="Path" fill="#ECEBEB" fill-rule="nonzero"></path>
            <path d="M585.399,193.242 C584.317,207.698 566.278,208.998 551.377,207.086 C551.377,206.704 556.019,199.947 566.832,196.123 C572.798,194.119 579.082,193.144 585.399,193.242 Z" id="Path" fill="#C4C4C4" fill-rule="nonzero"></path>
            <path d="M551.484,207.06 C549.795,207.06 556.177,208.004 535.423,204.893 L533.656,199.794 C534.553,198.927 534.103,199.208 551.906,196.556 C551.213,200.016 551.069,203.559 551.484,207.06 Z" id="Path" fill="#ECEBEB" fill-rule="nonzero"></path>
            <path d="M619.682,206.88 C613.511,207.772 607.235,207.772 601.064,206.88 C588.591,204.713 585.978,197.548 585.635,192.985 C595.141,192.709 604.514,195.177 612.563,200.073 C615.409,201.826 617.837,204.147 619.682,206.88 Z" id="Path" fill="#C4C4C4" fill-rule="nonzero"></path>
            <path d="M570.075,207.06 C569.601,214.709 564.512,220.242 551.616,219.808 C550.852,219.77 550.144,219.414 549.674,218.832 C549.202,218.25 549.017,217.499 549.163,216.774 C551.115,207.774 551.115,207.366 551.115,207.06 C557.401,207.959 563.789,207.959 570.075,207.06 Z" id="Path" fill="#C4C4C4" fill-rule="nonzero"></path>
            <path d="M621.871,216.361 C622.031,217.12 621.826,217.908 621.313,218.503 C620.8,219.099 620.035,219.436 619.234,219.42 C606.761,219.573 601.538,214.321 601.064,206.672 C607.325,207.541 613.685,207.541 619.946,206.672 C619.92,206.697 620.5,209.579 621.871,216.361 Z" id="Path" fill="#C4C4C4" fill-rule="nonzero"></path>
            <path d="M577.488,225.838 L572.212,225.838 C570.757,225.838 569.575,224.697 569.575,223.29 C569.575,221.882 570.757,220.741 572.212,220.741 L577.488,220.741 C578.943,220.741 580.125,221.882 580.125,223.29 C580.125,224.697 578.943,225.838 577.488,225.838 Z" id="Path" fill="#C4C4C4" fill-rule="nonzero"></path>
            <path d="M598.585,225.838 L593.311,225.838 C591.854,225.838 590.674,224.697 590.674,223.29 C590.674,221.882 591.854,220.741 593.311,220.741 L598.585,220.741 C600.042,220.741 601.222,221.882 601.222,223.29 C601.222,224.697 600.042,225.838 598.585,225.838 Z" id="Path" fill="#C4C4C4" fill-rule="nonzero"></path>
            <path d="M588.036,246.235 L582.761,246.235 C581.304,246.235 580.124,245.094 580.124,243.687 C580.124,242.279 581.304,241.138 582.761,241.138 L588.036,241.138 C589.493,241.138 590.673,242.279 590.673,243.687 C590.673,245.094 589.493,246.235 588.036,246.235 Z" id="Path" fill="#C4C4C4" fill-rule="nonzero"></path>
            <path d="M586.136,238.588 C585.313,238.695 584.478,238.504 583.79,238.053 C581.629,236.947 580.539,234.552 581.153,232.265 L582.762,225.228 C582.957,224.313 583.655,223.574 584.58,223.304 C585.504,223.033 586.509,223.273 587.197,223.93 C587.884,224.586 588.145,225.554 587.878,226.452 L586.136,233.489 C587.593,233.489 588.773,234.63 588.773,236.038 C588.773,237.447 587.593,238.588 586.136,238.588 Z" id="Path" fill="#C4C4C4" fill-rule="nonzero"></path>
            <path d="M604.604,267.408 L600.744,268.161 C598.517,268.59 596.202,268.316 594.164,267.384 L572.394,257.303 C571.606,256.996 570.742,257.303 566.806,254.47 L566.806,242.566 C570.566,248.911 576.23,253.941 584.765,254.717 C593.3,253.941 598.94,248.911 602.699,242.589 L604.604,267.408 Z" id="Path" fill="#828282" fill-rule="nonzero"></path>
            <path d="M623.074,262.72 L604.454,266.374 L602.552,241.794 C604.214,238.887 611.848,217.963 612.813,214.789 L615.891,232.646 L623.074,262.72 Z" id="Path" fill="#C4C4C4" fill-rule="nonzero"></path>
            <path d="M568.69,246.533 L566.467,254.469 L555.35,243.325 L559.455,213.796 C560.633,217.616 566.533,243.05 568.69,246.533 Z" id="Path" fill="#C4C4C4" fill-rule="nonzero"></path>
            <rect id="Rectangle" fill="#8DA023" fill-rule="nonzero" transform="translate(127.600616, 608.280771) rotate(24.148100) translate(-127.600616, -608.280771) " x="98.1006165" y="599.280771" width="59" height="18"></rect>
        </g>
    </g>
</svg>