<svg width="200" height="200" xmlns="http://www.w3.org/2000/svg">
  <g fill="none" fill-rule="evenodd">
    <path fill="#FFF" d="M0 0h200v200H0z"/>
    <g fill="#000">
      <path d="M180 138h7v7h-7zM173 145h7v21h-7zM166 152h7v7h-7zM180 159h7v28h-7zM159 166h14v7h-14zM145 173h14v7h-14zM159 180h7v7h-7zM138 180h7v7h-7zM124 180h7v7h-7zM110 173h28v7h-28zM96 166h35v7H96zM89 180h14v7H89zM68 173h7v14h-7zM75 173h14v7H75zM82 166h7v7h-7zM75 159h21v7H75zM75 152h7v7h-7zM68 131h7v21h-7zM75 110h14v7H75zM68 117h28v7H68zM75 124h7v21h-7zM82 131h7v21h-7zM89 131h7v28h-7zM96 152h14v7H96zM103 159h42v7h-42zM103 124h7v21h-7zM110 124h7v7h-7zM110 145h14v7h-14zM117 152h42v7h-42zM152 124h7v28h-7zM124 124h28v7h-28zM124 131h7v21h-7zM138 138h7v7h-7zM12 138h49v7H12zM54 145h7v42h-7zM12 145h7v42h-7zM26 152h21v21H26zM19 180h35v7H19zM166 124h7v7h-7zM131 75h7v7h-7zM131 89h14v7h-14zM138 96h7v7h-7zM152 68h14v7h-14zM145 75h35v7h-35zM152 89h14v7h-14zM159 82h7v7h-7zM173 82h14v7h-14zM180 89h7v14h-7zM173 103h7v14h-7zM180 110h7v14h-7zM131 110h7v14h-7zM138 117h14v7h-14zM145 103h7v14h-7zM152 110h14v7h-14zM159 117h14v7h-14zM89 68h28v7H89zM110 75h14v7h-14zM96 82h14v7H96zM89 89h7v7h-7zM96 96h7v7h-7zM89 103h7v7h-7zM103 103h7v14h-7zM110 89h7v7h-7zM110 110h14v7h-14zM117 103h14v7h-14zM124 96h7v7h-7zM117 82h35v7h-35zM82 82h7v7h-7zM75 68h7v7h-7zM68 75h28v7H68zM54 68h14v7H54zM47 68h7v14h-7zM54 82h14v7H54zM75 96h7v7h-7zM54 110h14v7H54zM61 103h14v7H61zM54 96h14v7H54zM61 89h21v7H61zM54 124h7v7h-7zM47 117h7v7h-7zM40 124h7v7h-7zM26 117h7v7h-7zM33 110h14v7H33zM40 82h7v7h-7zM33 89h21v7H33zM19 89h7v21h-7zM26 96h14v14H26zM12 89h7v42h-7zM12 68h14v7H12zM19 75h21v7H19zM68 54h7v7h-7zM124 54h7v14h-7zM117 61h7v7h-7zM124 19h7v28h-7zM138 12h7v49h-7zM145 12h42v7h-42zM180 19h7v42h-7zM145 54h35v7h-35zM12 12h49v7H12zM54 19h7v42h-7zM12 54h42v7H12zM12 19h7v35h-7zM26 26h21v21H26zM75 12h14v7H75zM110 12h7v28h-7zM103 19h7v7h-7zM75 26h21v7H75zM68 33h14v14H68zM89 33h7v14h-7zM96 33h14v7H96zM82 47h7v14h-7zM96 47h7v14h-7zM103 40h7v14h-7zM110 47h7v14h-7zM152 26h21v21h-21zM19 82h14v7H19z"/>
    </g>
  </g>
</svg>
