<?xml version="1.0" encoding="UTF-8"?>
<svg width="200px" height="200px" viewBox="0 0 200 200" version="1.1" xmlns="http://www.w3.org/2000/svg" xmlns:xlink="http://www.w3.org/1999/xlink">
    <title>Group 2</title>
    <g id="Page-1" stroke="none" stroke-width="1" fill="none" fill-rule="evenodd">
        <g id="Group-2">
            <rect id="Rectangle" fill="#FFFFFF" x="0" y="0" width="200" height="200"></rect>
            <g id="Group" transform="translate(12.000000, 12.000000)" fill="#000000">
                <rect id="Rectangle" x="168" y="126" width="7" height="7"></rect>
                <rect id="Rectangle" x="161" y="133" width="7" height="21"></rect>
                <rect id="Rectangle" x="154" y="140" width="7" height="7"></rect>
                <rect id="Rectangle" x="168" y="147" width="7" height="28"></rect>
                <rect id="Rectangle" x="147" y="154" width="14" height="7"></rect>
                <rect id="Rectangle" x="133" y="161" width="14" height="7"></rect>
                <rect id="Rectangle" x="147" y="168" width="7" height="7"></rect>
                <rect id="Rectangle" x="126" y="168" width="7" height="7"></rect>
                <rect id="Rectangle" x="112" y="168" width="7" height="7"></rect>
                <rect id="Rectangle" x="98" y="161" width="28" height="7"></rect>
                <rect id="Rectangle" x="84" y="154" width="35" height="7"></rect>
                <rect id="Rectangle" x="77" y="168" width="14" height="7"></rect>
                <rect id="Rectangle" x="56" y="161" width="7" height="14"></rect>
                <rect id="Rectangle" x="63" y="161" width="14" height="7"></rect>
                <rect id="Rectangle" x="70" y="154" width="7" height="7"></rect>
                <rect id="Rectangle" x="63" y="147" width="21" height="7"></rect>
                <rect id="Rectangle" x="63" y="140" width="7" height="7"></rect>
                <rect id="Rectangle" x="56" y="119" width="7" height="21"></rect>
                <rect id="Rectangle" x="63" y="98" width="14" height="7"></rect>
                <rect id="Rectangle" x="56" y="105" width="28" height="7"></rect>
                <rect id="Rectangle" x="63" y="112" width="7" height="21"></rect>
                <rect id="Rectangle" x="70" y="119" width="7" height="21"></rect>
                <rect id="Rectangle" x="77" y="119" width="7" height="28"></rect>
                <rect id="Rectangle" x="84" y="140" width="14" height="7"></rect>
                <rect id="Rectangle" x="91" y="147" width="42" height="7"></rect>
                <rect id="Rectangle" x="91" y="112" width="7" height="21"></rect>
                <rect id="Rectangle" x="98" y="112" width="7" height="7"></rect>
                <rect id="Rectangle" x="98" y="133" width="14" height="7"></rect>
                <rect id="Rectangle" x="105" y="140" width="42" height="7"></rect>
                <rect id="Rectangle" x="140" y="112" width="7" height="28"></rect>
                <rect id="Rectangle" x="112" y="112" width="28" height="7"></rect>
                <rect id="Rectangle" x="112" y="119" width="7" height="21"></rect>
                <rect id="Rectangle" x="126" y="126" width="7" height="7"></rect>
                <rect id="Rectangle" x="0" y="126" width="49" height="7"></rect>
                <rect id="Rectangle" x="42" y="133" width="7" height="42"></rect>
                <rect id="Rectangle" x="0" y="133" width="7" height="42"></rect>
                <rect id="Rectangle" x="14" y="140" width="21" height="21"></rect>
                <rect id="Rectangle" x="7" y="168" width="35" height="7"></rect>
                <rect id="Rectangle" x="154" y="112" width="7" height="7"></rect>
                <rect id="Rectangle" x="119" y="63" width="7" height="7"></rect>
                <rect id="Rectangle" x="119" y="77" width="14" height="7"></rect>
                <rect id="Rectangle" x="126" y="84" width="7" height="7"></rect>
                <rect id="Rectangle" x="140" y="56" width="14" height="7"></rect>
                <rect id="Rectangle" x="133" y="63" width="35" height="7"></rect>
                <rect id="Rectangle" x="140" y="77" width="14" height="7"></rect>
                <rect id="Rectangle" x="147" y="70" width="7" height="7"></rect>
                <rect id="Rectangle" x="161" y="70" width="14" height="7"></rect>
                <rect id="Rectangle" x="168" y="77" width="7" height="14"></rect>
                <rect id="Rectangle" x="161" y="91" width="7" height="14"></rect>
                <rect id="Rectangle" x="168" y="98" width="7" height="14"></rect>
                <rect id="Rectangle" x="119" y="98" width="7" height="14"></rect>
                <rect id="Rectangle" x="126" y="105" width="14" height="7"></rect>
                <rect id="Rectangle" x="133" y="91" width="7" height="14"></rect>
                <rect id="Rectangle" x="140" y="98" width="14" height="7"></rect>
                <rect id="Rectangle" x="147" y="105" width="14" height="7"></rect>
                <rect id="Rectangle" x="77" y="56" width="28" height="7"></rect>
                <rect id="Rectangle" x="98" y="63" width="14" height="7"></rect>
                <rect id="Rectangle" x="84" y="70" width="14" height="7"></rect>
                <rect id="Rectangle" x="77" y="77" width="7" height="7"></rect>
                <rect id="Rectangle" x="84" y="84" width="7" height="7"></rect>
                <rect id="Rectangle" x="77" y="91" width="7" height="7"></rect>
                <rect id="Rectangle" x="91" y="91" width="7" height="14"></rect>
                <rect id="Rectangle" x="98" y="77" width="7" height="7"></rect>
                <rect id="Rectangle" x="98" y="98" width="14" height="7"></rect>
                <rect id="Rectangle" x="105" y="91" width="14" height="7"></rect>
                <rect id="Rectangle" x="112" y="84" width="7" height="7"></rect>
                <rect id="Rectangle" x="105" y="70" width="35" height="7"></rect>
                <rect id="Rectangle" x="70" y="70" width="7" height="7"></rect>
                <rect id="Rectangle" x="63" y="56" width="7" height="7"></rect>
                <rect id="Rectangle" x="56" y="63" width="28" height="7"></rect>
                <rect id="Rectangle" x="42" y="56" width="14" height="7"></rect>
                <rect id="Rectangle" x="35" y="56" width="7" height="14"></rect>
                <rect id="Rectangle" x="42" y="70" width="14" height="7"></rect>
                <rect id="Rectangle" x="63" y="84" width="7" height="7"></rect>
                <rect id="Rectangle" x="42" y="98" width="14" height="7"></rect>
                <rect id="Rectangle" x="49" y="91" width="14" height="7"></rect>
                <rect id="Rectangle" x="42" y="84" width="14" height="7"></rect>
                <rect id="Rectangle" x="49" y="77" width="21" height="7"></rect>
                <rect id="Rectangle" x="42" y="112" width="7" height="7"></rect>
                <rect id="Rectangle" x="35" y="105" width="7" height="7"></rect>
                <rect id="Rectangle" x="28" y="112" width="7" height="7"></rect>
                <rect id="Rectangle" x="14" y="105" width="7" height="7"></rect>
                <rect id="Rectangle" x="21" y="98" width="14" height="7"></rect>
                <rect id="Rectangle" x="28" y="70" width="7" height="7"></rect>
                <rect id="Rectangle" x="21" y="77" width="21" height="7"></rect>
                <rect id="Rectangle" x="7" y="77" width="7" height="21"></rect>
                <rect id="Rectangle" x="14" y="84" width="14" height="14"></rect>
                <rect id="Rectangle" x="0" y="77" width="7" height="42"></rect>
                <rect id="Rectangle" x="0" y="56" width="14" height="7"></rect>
                <rect id="Rectangle" x="7" y="63" width="21" height="7"></rect>
                <rect id="Rectangle" x="56" y="42" width="7" height="7"></rect>
                <rect id="Rectangle" x="112" y="42" width="7" height="14"></rect>
                <rect id="Rectangle" x="105" y="49" width="7" height="7"></rect>
                <rect id="Rectangle" x="112" y="7" width="7" height="28"></rect>
                <rect id="Rectangle" x="126" y="0" width="7" height="49"></rect>
                <rect id="Rectangle" x="133" y="0" width="42" height="7"></rect>
                <rect id="Rectangle" x="168" y="7" width="7" height="42"></rect>
                <rect id="Rectangle" x="133" y="42" width="35" height="7"></rect>
                <rect id="Rectangle" x="0" y="0" width="49" height="7"></rect>
                <rect id="Rectangle" x="42" y="7" width="7" height="42"></rect>
                <rect id="Rectangle" x="0" y="42" width="42" height="7"></rect>
                <rect id="Rectangle" x="0" y="7" width="7" height="35"></rect>
                <rect id="Rectangle" x="14" y="14" width="21" height="21"></rect>
                <rect id="Rectangle" x="63" y="0" width="14" height="7"></rect>
                <rect id="Rectangle" x="98" y="0" width="7" height="28"></rect>
                <rect id="Rectangle" x="91" y="7" width="7" height="7"></rect>
                <rect id="Rectangle" x="63" y="14" width="21" height="7"></rect>
                <rect id="Rectangle" x="56" y="21" width="14" height="14"></rect>
                <rect id="Rectangle" x="77" y="21" width="7" height="14"></rect>
                <rect id="Rectangle" x="84" y="21" width="14" height="7"></rect>
                <rect id="Rectangle" x="70" y="35" width="7" height="14"></rect>
                <rect id="Rectangle" x="84" y="35" width="7" height="14"></rect>
                <rect id="Rectangle" x="91" y="28" width="7" height="14"></rect>
                <rect id="Rectangle" x="98" y="35" width="7" height="14"></rect>
                <rect id="Rectangle" x="140" y="14" width="21" height="21"></rect>
                <rect id="Rectangle" x="7" y="70" width="14" height="7"></rect>
            </g>
        </g>
    </g>
</svg>
