<?xml version="1.0" encoding="UTF-8"?>
<svg width="375px" height="358px" viewBox="0 0 375 358" version="1.1" xmlns="http://www.w3.org/2000/svg" xmlns:xlink="http://www.w3.org/1999/xlink">
    <title>index_sm</title>
    <g id="index_sm" stroke="none" stroke-width="1" fill="none" fill-rule="evenodd">
        <g id="Group" transform="translate(74.000000, 0.000000)" fill-rule="nonzero">
            <g id="City">
                <polygon id="Path" fill="#F6F6F6" points="48.4727273 27.9525499 91.0818182 0 91.0818182 202.323155 48.4727273 202.323155"></polygon>
                <polygon id="Path" fill="#F0F0F0" points="91.0818182 0 123.136364 9.50510209 123.136364 202.323155 91.0818182 202.323155"></polygon>
                <rect id="Rectangle" fill="#C4C4C4" x="56.2909091" y="39.8396947" width="7.81818182" height="5.46819338"></rect>
                <rect id="Rectangle" fill="#C4C4C4" x="72.3181818" y="39.8396947" width="7.81818182" height="5.46819338"></rect>
                <rect id="Rectangle" fill="#C4C4C4" x="72.3181818" y="53.1195929" width="7.81818182" height="5.46819338"></rect>
                <rect id="Rectangle" fill="#C4C4C4" x="56.2909091" y="53.1195929" width="7.81818182" height="5.46819338"></rect>
                <rect id="Rectangle" fill="#C4C4C4" x="56.2909091" y="66.3994911" width="7.81818182" height="5.46819338"></rect>
                <rect id="Rectangle" fill="#C4C4C4" x="72.3181818" y="66.3994911" width="7.81818182" height="5.46819338"></rect>
                <rect id="Rectangle" fill="#C4C4C4" x="72.3181818" y="79.6793893" width="7.81818182" height="5.46819338"></rect>
                <rect id="Rectangle" fill="#C4C4C4" x="56.2909091" y="79.6793893" width="7.81818182" height="5.46819338"></rect>
                <rect id="Rectangle" fill="#C4C4C4" x="56.2909091" y="92.9592875" width="7.81818182" height="5.46819338"></rect>
                <rect id="Rectangle" fill="#C4C4C4" x="72.3181818" y="92.9592875" width="7.81818182" height="5.46819338"></rect>
                <rect id="Rectangle" fill="#C4C4C4" x="72.3181818" y="106.239186" width="7.81818182" height="5.46819338"></rect>
                <rect id="Rectangle" fill="#C4C4C4" x="56.2909091" y="106.239186" width="7.81818182" height="5.46819338"></rect>
                <rect id="Rectangle" fill="#C4C4C4" x="56.2909091" y="119.909669" width="7.81818182" height="5.46819338"></rect>
                <rect id="Rectangle" fill="#C4C4C4" x="72.3181818" y="119.909669" width="7.81818182" height="5.46819338"></rect>
                <rect id="Rectangle" fill="#C4C4C4" x="72.3181818" y="133.189567" width="7.81818182" height="5.46819338"></rect>
                <rect id="Rectangle" fill="#C4C4C4" x="56.2909091" y="133.189567" width="7.81818182" height="5.46819338"></rect>
                <polygon id="Path" fill="#F3F2F2" points="0 285.127226 0 66.7900763 67.6272727 78.7251101 67.6272727 285.127226"></polygon>
                <rect id="Rectangle" fill="#ECEBEB" x="44.5636364" y="90.2251908" width="8.99090909" height="32.8091603"></rect>
                <polygon id="Path" fill="#ECEBEB" points="81.7 85.296399 67.6272727 78.5076336 67.6272727 285.127226 81.7 278.290982"></polygon>
                <rect id="Rectangle" fill="#ECEBEB" x="14.0727273" y="89.8346056" width="8.99090909" height="32.8091603"></rect>
                <rect id="Rectangle" fill="#ECEBEB" x="29.3181818" y="116.394402" width="8.99090909" height="32.8091603"></rect>
                <rect id="Rectangle" fill="#ECEBEB" x="14.0727273" y="142.954198" width="8.99090909" height="32.8091603"></rect>
                <rect id="Rectangle" fill="#ECEBEB" x="44.5636364" y="142.954198" width="8.99090909" height="32.8091603"></rect>
                <rect id="Rectangle" fill="#ECEBEB" x="43.7818182" y="195.683206" width="8.99090909" height="32.8091603"></rect>
                <rect id="Rectangle" fill="#ECEBEB" x="14.0727273" y="195.683206" width="8.99090909" height="32.8091603"></rect>
                <polygon id="Path" fill="#F7F7F7" points="121.572727 31.7576772 148.154545 23.8256997 148.154545 51.5875817 121.572727 62.4936387"></polygon>
                <polygon id="Path" fill="#E3E3E3" points="148.154545 49.5868057 148.154545 23.8256997 181.772727 31.9820183 181.772727 58.197201"></polygon>
                <polygon id="Path" fill="#EDEDED" points="191.936364 295.282443 152.454545 294.497862 152.454545 47.6513995 191.936364 56.5379691"></polygon>
                <polygon id="Path" fill="#F9F9F9" points="109.845455 59.4905843 152.454545 47.6513995 152.454545 295.282443 109.845455 284.430019"></polygon>
                <polygon id="Path" fill="#C4C4C4" opacity="0.6" points="163.009091 207.010178 163.009091 49.9949109 166.136364 50.6651579 166.136364 207.010178"></polygon>
                <polygon id="Path" fill="#C4C4C4" opacity="0.6" points="172.390909 207.010178 172.390909 51.9484478 175.518182 52.6129497 175.518182 207.010178"></polygon>
                <polygon id="Path" fill="#C4C4C4" opacity="0.6" points="180.6 207.010178 180.6 53.9007401 183.727273 54.5701461 183.727273 207.010178"></polygon>
                <polygon id="Path" fill="#F0F0F0" points="247.836364 73.0394402 202.1 74.347957 202.1 307 247.836364 307"></polygon>
                <polygon id="Path" fill="#F2F2F2" points="247.836364 305.828244 247.836364 73.0394402 301 83.8949293 301 305.828244"></polygon>
                <polygon id="Rectangle" fill="#D5D4D2" transform="translate(274.640996, 100.455243) rotate(6.622650) translate(-274.640996, -100.455243) " points="258.000413 98.0384484 291.282037 98.0352896 291.281578 102.872038 257.999954 102.875197"></polygon>
                <polygon id="Rectangle" fill="#D5D4D2" transform="translate(274.640996, 109.048119) rotate(6.622650) translate(-274.640996, -109.048119) " points="258.000413 106.631324 291.282037 106.628165 291.281578 111.464914 257.999954 111.468072"></polygon>
                <polygon id="Rectangle" fill="#D5D4D2" transform="translate(274.640996, 118.422164) rotate(6.622650) translate(-274.640996, -118.422164) " points="258.000413 116.005369 291.282037 116.002211 291.281578 120.83896 257.999954 120.842118"></polygon>
                <polygon id="Rectangle" fill="#D5D4D2" transform="translate(274.640996, 147.325472) rotate(6.622650) translate(-274.640996, -147.325472) " points="258.000413 144.908677 291.282037 144.905519 291.281578 149.742267 257.999954 149.745426"></polygon>
                <polygon id="Rectangle" fill="#D5D4D2" transform="translate(274.250086, 155.918348) rotate(6.622650) translate(-274.250086, -155.918348) " points="257.609504 153.501553 290.891128 153.498394 290.890669 158.335143 257.609045 158.338301"></polygon>
                <polygon id="Rectangle" fill="#D5D4D2" transform="translate(274.640996, 164.511223) rotate(6.622650) translate(-274.640996, -164.511223) " points="258.000413 162.094428 291.282037 162.091269 291.281578 166.928018 257.999954 166.931177"></polygon>
                <polygon id="Rectangle" fill="#D5D4D2" transform="translate(274.640996, 190.289849) rotate(6.622650) translate(-274.640996, -190.289849) " points="258.000413 187.873054 291.282037 187.869895 291.281578 192.706644 257.999954 192.709803"></polygon>
                <polygon id="Rectangle" fill="#D5D4D2" transform="translate(274.640996, 199.663895) rotate(6.622650) translate(-274.640996, -199.663895) " points="258.000413 197.2471 291.282037 197.243941 291.281578 202.08069 257.999954 202.083849"></polygon>
                <polygon id="Rectangle" fill="#D5D4D2" transform="translate(274.640996, 208.647355) rotate(6.622650) translate(-274.640996, -208.647355) " points="258.000413 206.23056 291.282037 206.227402 291.281578 211.06415 257.999954 211.067309"></polygon>
                <polygon id="Rectangle" fill="#F4F4F4" transform="translate(224.995551, 189.899264) rotate(-0.449978) translate(-224.995551, -189.899264) " points="208.354531 187.480808 241.636541 187.481024 241.636572 192.31772 208.354562 192.317504"></polygon>
                <polygon id="Rectangle" fill="#F4F4F4" transform="translate(224.995551, 199.663895) rotate(-0.449978) translate(-224.995551, -199.663895) " points="208.354531 197.245439 241.636541 197.245655 241.636572 202.082351 208.354562 202.082135"></polygon>
                <polygon id="Rectangle" fill="#F4F4F4" transform="translate(224.995551, 209.428526) rotate(-0.449978) translate(-224.995551, -209.428526) " points="208.354531 207.01007 241.636541 207.010286 241.636572 211.846982 208.354562 211.846766"></polygon>
                <polygon id="Rectangle" fill="#F4F4F4" transform="translate(224.995551, 143.029035) rotate(-0.449978) translate(-224.995551, -143.029035) " points="208.354531 140.610579 241.636541 140.610795 241.636572 145.447491 208.354562 145.447275"></polygon>
                <polygon id="Rectangle" fill="#F4F4F4" transform="translate(224.995551, 152.793666) rotate(-0.449978) translate(-224.995551, -152.793666) " points="208.354531 150.37521 241.636541 150.375426 241.636572 155.212122 208.354562 155.211906"></polygon>
                <polygon id="Rectangle" fill="#F4F4F4" transform="translate(224.995551, 162.558297) rotate(-0.449978) translate(-224.995551, -162.558297) " points="208.354531 160.139841 241.636541 160.140057 241.636572 164.976753 208.354562 164.976537"></polygon>
                <polygon id="Rectangle" fill="#F4F4F4" transform="translate(224.995551, 96.939976) rotate(-0.449978) translate(-224.995551, -96.939976) " points="208.354531 94.5215201 241.636541 94.5217366 241.636572 99.3584325 208.354562 99.358216"></polygon>
                <polygon id="Rectangle" fill="#F4F4F4" transform="translate(224.995551, 106.704607) rotate(-0.449978) translate(-224.995551, -106.704607) " points="208.354531 104.286151 241.636541 104.286368 241.636572 109.123064 208.354562 109.122847"></polygon>
                <polygon id="Rectangle" fill="#F4F4F4" transform="translate(224.995551, 116.469238) rotate(-0.449978) translate(-224.995551, -116.469238) " points="208.354531 114.050782 241.636541 114.050999 241.636572 118.887695 208.354562 118.887478"></polygon>
            </g>
        </g>
        <g id="Group" transform="translate(0.000000, 218.000000)" fill="#FFFFFF" fill-rule="nonzero">
            <g id="Path">
                <path d="M169.543,27.074 C101.202,6.626 11.2809,18.464 0,31.965 L0,140 L375,140 L375,0 C365.073,34.573 257.04,53.253 169.543,27.074 Z"></path>
            </g>
        </g>
        <g id="Group" transform="translate(225.000000, 66.000000)">
            <path d="M77.6507896,70.6210109 L42.4027896,68.1040109 L48.0677896,47.3330109 C48.0677896,47.3330109 66.3217896,42.9270109 59.3977896,32.8560109 L64.4327896,23.4140109 C66.3217896,47.9620109 80.1687896,44.8150109 77.6507896,70.6210109 Z" id="Path" fill="#FFC487" fill-rule="nonzero"></path>
            <path d="M92.1277896,143.635011 C37.1727896,138.267011 12.7957896,135.763011 10.9317896,134.194011 L11.3617816,133.000011 C43.2347816,126.457011 61.0677896,129.401011 92.1277896,143.635011 Z" id="Path" fill="#1A3A78" fill-rule="nonzero"></path>
            <path d="M37.5791706,238.736011 C46.2441706,234.651011 49.4901706,232.065011 50.6761706,230.594011 C51.1661706,229.987011 52.2891706,229.000011 53.0681706,229.000011 L56.2971706,229.000011 C56.6971706,229.000011 57.0581706,229.238011 57.2161706,229.606011 L58.5901706,232.812011 C58.7451706,233.173011 58.6751706,233.588011 58.3891706,233.858011 C56.5481706,235.593011 49.2071706,241.676011 37.8171706,240.504011 C36.8521706,240.405011 36.7021706,239.149011 37.5791706,238.736011 Z" id="Path" fill="#9F5617" fill-rule="nonzero"></path>
            <path d="M51.9997896,229.589011 L53.2577896,220.148011 L57.6637896,217.000011 C57.0347896,220.777011 56.4057896,228.582011 56.4057896,229.589011 C56.4057896,230.596011 53.4677896,230.009011 51.9997896,229.589011 Z" id="Path" fill="#FFC589" fill-rule="nonzero"></path>
            <path d="M99.6577896,227.151011 C106.09879,220.652011 107.54679,217.188011 107.70579,215.484011 C107.77279,214.769011 108.13179,213.716011 108.78879,213.425011 L111.97779,212.015011 C112.34379,211.853011 112.77079,211.925011 113.06379,212.197011 L115.67379,214.625011 C115.93179,214.866011 116.04979,215.223011 115.94779,215.561011 C114.85879,219.171011 110.31979,224.868011 100.61979,228.733011 C99.6367896,229.125011 98.9127896,227.903011 99.6577896,227.151011 Z" id="Path" fill="#9F5617" fill-rule="nonzero"></path>
            <path d="M108.22679,214.593011 L104.30179,205.914011 L106.37679,200.913011 C107.83979,204.451011 111.78479,211.272011 111.96579,212.263011 C112.31379,214.171011 109.45779,215.524011 108.22679,214.593011 Z" id="Path" fill="#FFC589" fill-rule="nonzero"></path>
            <path d="M52.4737896,221.684011 L22.8907896,131.676011 L20.3727896,119.087011 L58.1387896,118.458011 C54.1607896,130.050011 52.2607896,139.336011 49.9557896,165.036011 C58.3277896,186.181011 58.5947896,198.451011 58.1387896,220.425011 C56.4967896,222.019011 55.3047896,222.388011 52.4737896,221.684011 Z" id="Path" fill="#8DA023" fill-rule="nonzero"></path>
            <path d="M104.08679,207.207011 L40.8447896,123.554011 L80.7977896,119.717011 L82.0567896,156.853011 L82.3297896,157.175011 C94.4747896,171.480011 101.63579,179.915011 109.12279,205.319011 L104.08679,207.207011 Z" id="Path" fill="#8DA023" fill-rule="nonzero"></path>
            <path d="M105.29279,120.108011 L96.5817896,101.414011 L94.4187896,96.8240109 L87.1517896,100.248011 L101.82779,122.675011 L102.43879,128.315011 L104.64479,133.985011 C105.10179,134.719011 104.91079,135.167011 105.52479,135.181011 C105.92879,135.191011 106.29279,134.941011 106.42979,134.561011 L105.19979,130.918011 L106.77579,131.668011 C106.77579,131.668011 109.41279,137.266011 109.80579,138.101011 C110.19979,138.935011 111.84979,138.987011 111.47279,138.187011 C111.09579,137.387011 108.24579,131.336011 108.24579,131.336011 L108.62779,131.156011 C108.62779,131.156011 111.42979,137.103011 111.92079,138.146011 C112.41179,139.189011 113.55979,138.648011 112.95879,137.373011 C112.35879,136.098011 109.77579,130.616011 109.77579,130.616011 L110.15779,130.435011 C110.15779,130.435011 112.81779,136.080011 113.10079,136.683011 C113.38479,137.286011 114.33579,136.328011 113.82879,135.250011 C113.32079,134.172011 110.94479,129.130011 110.94479,129.130011 L111.32779,128.950011 C111.32779,128.950011 113.30979,133.157011 113.66979,133.922011 C114.03079,134.687011 114.99779,133.764011 114.27679,132.234011 C113.55679,130.704011 111.57379,126.496011 111.57379,126.496011 L105.29279,120.108011 Z" id="Path" fill="#FFC487" fill-rule="nonzero"></path>
            <path d="M58.1387896,42.9270109 C36.2787896,46.2490109 26.4367896,74.4840109 10.9317896,134.194011 C39.2127896,126.108011 57.2197896,128.961011 92.1277896,143.635011 L83.3157896,86.3570109 C85.8127896,99.6910109 84.2617896,99.6880109 94.0157896,111.534011 L99.6807896,107.128011 C93.0357896,70.0370109 88.6867896,47.5460109 70.0977896,42.2970109 L72.6157896,47.3330109 L54.9917896,64.9560109 L51.8447896,46.7030109 L58.1387896,42.9270109 Z" id="Path" fill="#234EA0" fill-rule="nonzero"></path>
            <path d="M4.10478965,60.3830109 C12.7277896,59.7700109 11.7080186,72.8088809 22.2910186,93.6788809 L25.8201116,83.0435919 L12.8197896,59.9220109 L11.5607896,53.6270109 C10.3527896,58.3260109 9.48378965,59.1770109 7.78478965,59.2920109 C7.78478965,59.2920109 3.82850765,50.0977309 1.61450765,48.8417309 C1.16850765,48.5887309 0.795789646,48.8720109 0.687789646,49.3730109 C-0.675210354,55.7100109 0.124789646,56.5580109 1.88578965,59.3490109 C2.35078965,60.0870109 3.23478965,60.4450109 4.10478965,60.3830109 Z" id="Path" fill="#FFC589" fill-rule="nonzero"></path>
            <path d="M127.37579,5.79041093 C104.78616,13.9603864 91.9527896,16.6920359 68.8243556,6.54331043 L68.3699136,7.53625253 C88.1059136,19.9935529 101.87879,18.7660109 129.26379,8.93761093 L126.085944,8.15829663 L127.37579,5.79041093 Z" id="Path" fill="#405FD3" fill-rule="nonzero"></path>
            <path d="M129.915362,31.2216669 C105.32109,25.5060699 93.8818496,43.5977479 68.3699136,8.51849843 L68.3699136,7.39288733 C91.2597706,35.2582869 111.864823,24.6225169 130.490936,27.1747189 C130.490936,27.1747189 129.673121,27.7401759 128.037489,28.8710899 C129.289404,30.4007019 129.915362,31.1842279 129.915362,31.2216669 Z" id="Path" fill="#FFD800" fill-rule="nonzero"></path>
            <line x1="52.4737896" y1="25.3030109" x2="58.7677896" y2="61.1800109" id="Path" stroke="#FFFFFF"></line>
            <path d="M56.5907896,35.3380109 C54.1667896,34.5900109 47.7167896,22.9610109 50.5857896,12.0847109 C53.6944876,13.5035581 56.0024876,14.604885 57.5097896,15.3886919 C59.4991546,16.4231739 62.4361546,18.0492799 66.3207896,20.2670109 C66.7427896,27.0010109 59.0717896,34.9520109 57.1707896,35.3850109 C56.9817896,35.4290109 56.7757896,35.3950109 56.5907896,35.3380109 Z" id="Path" fill="#FFC487" fill-rule="nonzero"></path>
            <path d="M51.8447896,20.8970109 C50.7127896,20.5030109 50.2407896,20.4430109 49.9557896,20.8970109" id="Path" stroke="#A0522D"></path>
            <path d="M55.6207896,20.8970109 C56.6907896,20.5500109 57.2557896,20.5940109 58.1387896,21.5260109" id="Path" stroke="#A0522D"></path>
            <path d="M54.9917896,30.3380109 C56.2007896,30.7140109 56.7237896,30.4970109 57.5097896,29.7090109" id="Path" stroke="#FF3A00"></path>
            <ellipse id="Oval" fill="#723969" fill-rule="nonzero" cx="56.8797896" cy="23.4140109" rx="1" ry="1.25886"></ellipse>
            <ellipse id="Oval" fill="#723969" fill-rule="nonzero" cx="51.8447896" cy="23.4140109" rx="1" ry="1.25886"></ellipse>
            <polygon id="Path" fill="#FFAF5B" fill-rule="nonzero" points="54.2887896 27.3140109 53.0087896 27.3140109 53.8617896 24.7540109 54.2887896 24.7540109 54.2887896 25.6070109"></polygon>
            <path d="M50.5857896,13.9731109 C54.3117896,12.5909109 64.2917896,18.6630109 65.6917896,24.0440109 C69.0337896,19.7350109 69.0787896,15.4820109 68.2097896,7.04941093 C74.5037896,2.64321093 61.9147896,-4.90988907 61.2857896,4.53171093 C58.1387896,5.79061093 56.2977896,5.20761093 51.8447896,10.8260109 C46.4037896,10.9943109 44.3707896,12.2151109 44.9207896,19.0090109 C46.5807896,15.6600109 50.5857896,13.9731109 50.5857896,13.9731109 Z" id="Path" fill="#A0522D" fill-rule="nonzero"></path>
            <polygon id="Path" fill="#405FD3" fill-rule="nonzero" points="60.9877106 4.46607813 61.3539476 3.86783273 68.8243556 6.54331043 68.4346216 7.53625253"></polygon>
            <polygon id="Path" fill="#6CA1FF" fill-rule="nonzero" points="6.89578965 58.9210109 1.23178965 38.1500109 9.41378965 38.1500109 15.0787896 58.9210109"></polygon>
            <polygon id="Path" fill="#405FD3" fill-rule="nonzero" points="5.89578965 59.9210109 0.231789646 39.1500109 8.41378965 39.1500109 14.0787896 59.9210109"></polygon>
            <path d="M7.46778965,50.6920109 L1.39678965,48.7620109 C1.13178965,48.6780109 0.860789646,48.8760109 0.860789646,49.1540109 C0.860789646,49.1980109 0.867789646,49.2420109 0.881789646,49.2840109 L1.39778965,50.8320109 C1.45478965,51.0030109 1.59978965,51.1300109 1.77678965,51.1650109 L7.29878965,52.2350109 C7.63478965,52.3010109 7.93578965,52.0170109 7.88978965,51.6780109 L7.81178965,51.1010109 C7.78578965,50.9100109 7.65178965,50.7500109 7.46778965,50.6920109 Z" id="Path" fill="#FFC589" fill-rule="nonzero"></path>
            <path d="M7.38178965,52.6180109 L1.40378965,51.2350109 C1.12578965,51.1710109 0.860789646,51.3820109 0.860789646,51.6670109 C0.860789646,51.7140109 0.868789646,51.7620109 0.883789646,51.8070109 L1.38678965,53.3170109 C1.44978965,53.5050109 1.61778965,53.6390109 1.81578965,53.6570109 L7.22378965,54.1520109 C7.51678965,54.1790109 7.76978965,53.9480109 7.76978965,53.6540109 L7.76978965,53.1050109 C7.76978965,52.8730109 7.60878965,52.6710109 7.38178965,52.6180109 Z" id="Path" fill="#FFC589" fill-rule="nonzero"></path>
            <path d="M7.12978965,54.5650109 L1.40678965,53.7090109 C1.11978965,53.6660109 0.860789646,53.8880109 0.860789646,54.1790109 C0.860789646,54.2300109 0.868789646,54.2810109 0.884789646,54.3300109 L1.37178965,55.7890109 C1.44178965,56.0000109 1.64278965,56.1390109 1.86478965,56.1300109 L7.07578965,55.9280109 C7.34378965,55.9170109 7.55578965,55.6970109 7.55578965,55.4280109 L7.55578965,55.0590109 C7.55578965,54.8120109 7.37478965,54.6010109 7.12978965,54.5650109 Z" id="Path" fill="#FFC589" fill-rule="nonzero"></path>
            <path d="M7.07078965,56.3220109 L1.37478965,56.1590109 C1.09378965,56.1510109 0.860789646,56.3770109 0.860789646,56.6590109 L0.860789646,56.6930109 C0.860789646,56.7470109 0.869789646,56.8000109 0.886789646,56.8510109 L1.35478965,58.2550109 C1.43278965,58.4890109 1.66978965,58.6310109 1.91378965,58.5890109 L7.14078965,57.6880109 C7.38078965,57.6460109 7.55578965,57.4380109 7.55578965,57.1950109 L7.55578965,56.8220109 C7.55578965,56.5510109 7.34078965,56.3300109 7.07078965,56.3220109 Z" id="Path" fill="#FFC589" fill-rule="nonzero"></path>
            <circle id="Oval" fill="#FFFFFF" fill-rule="nonzero" cx="65.0617896" cy="24.6730109" r="2.51771"></circle>
            <path d="M65.0627896,24.6730109 C53.4537896,110.115011 30.4437896,143.006011 11.5607896,61.1800109" id="Path" stroke="#FFFFFF"></path>
            <polygon id="Path" fill="#F4F4F4" fill-rule="nonzero" points="9.67278965 59.8740109 12.5557896 59.8740109 13.0117896 63.6230109 10.9317896 63.6980109"></polygon>
            <polygon id="Path-2" fill="#FFD800" fill-rule="nonzero" points="60.1147416 4.94964933 61.0238176 4.42833523 68.4788506 7.51333383 68.3699136 8.51849843"></polygon>
        </g>
    </g>
</svg>