<?xml version="1.0" encoding="UTF-8"?>
<svg width="1918px" height="1020px" viewBox="0 0 1918 1020" version="1.1" xmlns="http://www.w3.org/2000/svg" xmlns:xlink="http://www.w3.org/1999/xlink">
    <title>index</title>
    <defs>
        <linearGradient x1="25.6256517%" y1="59.6082229%" x2="19.4734098%" y2="42.6711001%" id="linearGradient-1">
            <stop stop-color="#FFFFFF" offset="35.4542%"></stop>
            <stop stop-color="#FFFFFF" stop-opacity="0" offset="77.4513%"></stop>
        </linearGradient>
        <linearGradient x1="49.9980732%" y1="0%" x2="49.9980732%" y2="99.9998579%" id="linearGradient-2">
            <stop stop-color="#FF7799" offset="0%"></stop>
            <stop stop-color="#FF8CA9" offset="100%"></stop>
        </linearGradient>
        <linearGradient x1="51.1376422%" y1="0%" x2="51.1376422%" y2="100%" id="linearGradient-3">
            <stop stop-color="#FF86A3" offset="0%"></stop>
            <stop stop-color="#FFA8BD" offset="100%"></stop>
        </linearGradient>
    </defs>
    <g id="Page-1" stroke="none" stroke-width="1" fill="none" fill-rule="evenodd">
        <g id="index">
            <polygon id="Path" fill="#F6F6F6" fill-rule="nonzero" points="1028.72 71.5607 1137.77 0 1137.77 521.371 1028.72 521.371"></polygon>
            <polygon id="Path" fill="#F0F0F0" fill-rule="nonzero" points="1137.77 0 1219.55 24.3338 1219.55 517.963 1137.77 517.963"></polygon>
            <rect id="Rectangle" fill="#C4C4C4" fill-rule="nonzero" x="1049.17" y="102.229" width="20.4459" height="13.6306"></rect>
            <rect id="Rectangle" fill="#C4C4C4" fill-rule="nonzero" x="1090.06" y="102.229" width="20.4459" height="13.6306"></rect>
            <rect id="Rectangle" fill="#C4C4C4" fill-rule="nonzero" x="1090.06" y="136.306" width="20.4459" height="13.6306"></rect>
            <rect id="Rectangle" fill="#C4C4C4" fill-rule="nonzero" x="1049.17" y="136.306" width="20.4459" height="13.6306"></rect>
            <rect id="Rectangle" fill="#C4C4C4" fill-rule="nonzero" x="1049.17" y="170.383" width="20.4459" height="13.6306"></rect>
            <rect id="Rectangle" fill="#C4C4C4" fill-rule="nonzero" x="1090.06" y="170.383" width="20.4459" height="13.6306"></rect>
            <rect id="Rectangle" fill="#C4C4C4" fill-rule="nonzero" x="1090.06" y="204.459" width="20.4459" height="13.6306"></rect>
            <rect id="Rectangle" fill="#C4C4C4" fill-rule="nonzero" x="1049.17" y="204.459" width="20.4459" height="13.6306"></rect>
            <rect id="Rectangle" fill="#C4C4C4" fill-rule="nonzero" x="1049.17" y="238.536" width="20.4459" height="13.6306"></rect>
            <rect id="Rectangle" fill="#C4C4C4" fill-rule="nonzero" x="1090.06" y="238.536" width="20.4459" height="13.6306"></rect>
            <rect id="Rectangle" fill="#C4C4C4" fill-rule="nonzero" x="1090.06" y="272.612" width="20.4459" height="13.6306"></rect>
            <rect id="Rectangle" fill="#C4C4C4" fill-rule="nonzero" x="1049.17" y="272.612" width="20.4459" height="13.6306"></rect>
            <rect id="Rectangle" fill="#C4C4C4" fill-rule="nonzero" x="1049.17" y="306.689" width="20.4459" height="13.6306"></rect>
            <rect id="Rectangle" fill="#C4C4C4" fill-rule="nonzero" x="1090.06" y="306.689" width="20.4459" height="13.6306"></rect>
            <rect id="Rectangle" fill="#C4C4C4" fill-rule="nonzero" x="1090.06" y="340.766" width="20.4459" height="13.6306"></rect>
            <rect id="Rectangle" fill="#C4C4C4" fill-rule="nonzero" x="1049.17" y="340.766" width="20.4459" height="13.6306"></rect>
            <polygon id="Path" fill="#F3F2F2" fill-rule="nonzero" points="905 729.762 905 148.888 1080.09 201.377 1080.09 729.762"></polygon>
            <polygon id="Path" fill="#ECEBEB" fill-rule="nonzero" points="1114.2 218.335 1077.81 197.877 1077.81 729.762 1114.2 712.266"></polygon>
            <rect id="Rectangle" fill="#ECEBEB" fill-rule="nonzero" x="932.287" y="225.872" width="22.7387" height="83.9818"></rect>
            <rect id="Rectangle" fill="#ECEBEB" fill-rule="nonzero" x="1023.24" y="225.872" width="22.7387" height="83.9818"></rect>
            <rect id="Rectangle" fill="#ECEBEB" fill-rule="nonzero" x="977.764" y="302.855" width="22.7387" height="83.9818"></rect>
            <rect id="Rectangle" fill="#ECEBEB" fill-rule="nonzero" x="932.287" y="365.841" width="22.7387" height="83.9818"></rect>
            <rect id="Rectangle" fill="#ECEBEB" fill-rule="nonzero" x="1014.15" y="365.841" width="22.7387" height="83.9818"></rect>
            <rect id="Rectangle" fill="#ECEBEB" fill-rule="nonzero" x="1014.15" y="491.814" width="22.7387" height="83.9818"></rect>
            <rect id="Rectangle" fill="#ECEBEB" fill-rule="nonzero" x="932.287" y="498.812" width="22.7387" height="83.9818"></rect>
            <polygon id="Path" fill="#F7F7F7" fill-rule="nonzero" points="1216.32 81.4551 1284.54 61.2427 1284.54 131.986 1216.32 159.777"></polygon>
            <polygon id="Path" fill="#E3E3E3" fill-rule="nonzero" points="1284.54 126.932 1284.54 61.2427 1370.44 61.2427 1370.44 152.198"></polygon>
            <polygon id="Path" fill="#EDEDED" fill-rule="nonzero" points="1395.7 723.193 1289.59 753.511 1292.11 121.879 1395.7 144.618"></polygon>
            <polygon id="Path" fill="#F9F9F9" fill-rule="nonzero" points="1186 152.198 1294.64 121.879 1294.64 756.038 1186 728.246"></polygon>
            <polygon id="Path" fill="#C4C4C4" fill-rule="nonzero" opacity="0.6" points="1314.85 528.65 1314.85 126.933 1322.43 128.591 1322.43 528.65"></polygon>
            <polygon id="Path" fill="#C4C4C4" fill-rule="nonzero" opacity="0.6" points="1337.59 528.651 1337.59 131.986 1345.17 133.723 1345.17 528.651"></polygon>
            <polygon id="Path" fill="#C4C4C4" fill-rule="nonzero" opacity="0.6" points="1362.86 528.65 1362.86 137.039 1370.44 139.565 1370.44 528.65"></polygon>
            <polygon id="Path" fill="#F0F0F0" fill-rule="nonzero" points="1545.65 184.079 1443.74 159.374 1422.13 786.28 1545.65 786.28"></polygon>
            <polygon id="Path" fill="#F2F2F2" fill-rule="nonzero" points="1539.48 783.191 1539.48 187.167 1675.36 214.961 1675.36 783.191"></polygon>
            <rect id="Rectangle" fill="#D5D4D2" fill-rule="nonzero" transform="translate(1607.356999, 255.134502) rotate(6.622650) translate(-1607.356999, -255.134502) " x="1564.78701" y="248.942902" width="85.1399772" height="12.3832006"></rect>
            <rect id="Rectangle" fill="#D5D4D2" fill-rule="nonzero" transform="translate(1607.356999, 276.566502) rotate(6.622650) translate(-1607.356999, -276.566502) " x="1564.78701" y="270.374902" width="85.1399772" height="12.3832006"></rect>
            <rect id="Rectangle" fill="#D5D4D2" fill-rule="nonzero" transform="translate(1607.356999, 301.272502) rotate(6.622650) translate(-1607.356999, -301.272502) " x="1564.78701" y="295.080902" width="85.1399772" height="12.3832006"></rect>
            <rect id="Rectangle" fill="#D5D4D2" fill-rule="nonzero" transform="translate(1607.356999, 372.486502) rotate(6.622650) translate(-1607.356999, -372.486502) " x="1564.78701" y="366.294902" width="85.1399772" height="12.3832006"></rect>
            <rect id="Rectangle" fill="#D5D4D2" fill-rule="nonzero" transform="translate(1607.356999, 393.918502) rotate(6.622650) translate(-1607.356999, -393.918502) " x="1564.78701" y="387.726902" width="85.1399772" height="12.3832006"></rect>
            <rect id="Rectangle" fill="#D5D4D2" fill-rule="nonzero" transform="translate(1607.356999, 418.624502) rotate(6.622650) translate(-1607.356999, -418.624502) " x="1564.78701" y="412.432902" width="85.1399772" height="12.3832006"></rect>
            <rect id="Rectangle" fill="#D5D4D2" fill-rule="nonzero" transform="translate(1607.356999, 489.838502) rotate(6.622650) translate(-1607.356999, -489.838502) " x="1564.78701" y="483.646902" width="85.1399772" height="12.3832006"></rect>
            <rect id="Rectangle" fill="#D5D4D2" fill-rule="nonzero" transform="translate(1607.356999, 511.270502) rotate(6.622650) translate(-1607.356999, -511.270502) " x="1564.78701" y="505.078902" width="85.1399772" height="12.3832006"></rect>
            <rect id="Rectangle" fill="#D5D4D2" fill-rule="nonzero" transform="translate(1607.356999, 535.976502) rotate(6.622650) translate(-1607.356999, -535.976502) " x="1564.78701" y="529.784902" width="85.1399772" height="12.3832006"></rect>
            <rect id="Rectangle" fill="#F4F4F4" fill-rule="nonzero" transform="translate(1487.957624, 489.929539) rotate(1.550022) translate(-1487.957624, -489.929539) " x="1445.38761" y="483.737939" width="85.1400308" height="12.3832012"></rect>
            <rect id="Rectangle" fill="#F4F4F4" fill-rule="nonzero" transform="translate(1489.857624, 511.276539) rotate(1.550022) translate(-1489.857624, -511.276539) " x="1447.28761" y="505.084939" width="85.1400308" height="12.3832012"></rect>
            <rect id="Rectangle" fill="#F4F4F4" fill-rule="nonzero" transform="translate(1492.057624, 535.884539) rotate(1.550022) translate(-1492.057624, -535.884539) " x="1449.48761" y="529.692939" width="85.1400308" height="12.3832012"></rect>
            <rect id="Rectangle" fill="#F4F4F4" fill-rule="nonzero" transform="translate(1487.957624, 370.028539) rotate(1.550022) translate(-1487.957624, -370.028539) " x="1445.38761" y="363.836939" width="85.1400308" height="12.3832012"></rect>
            <rect id="Rectangle" fill="#F4F4F4" fill-rule="nonzero" transform="translate(1489.857624, 391.376539) rotate(1.550022) translate(-1489.857624, -391.376539) " x="1447.28761" y="385.184939" width="85.1400308" height="12.3832012"></rect>
            <rect id="Rectangle" fill="#F4F4F4" fill-rule="nonzero" transform="translate(1492.057624, 415.983539) rotate(1.550022) translate(-1492.057624, -415.983539) " x="1449.48761" y="409.791939" width="85.1400308" height="12.3832012"></rect>
            <rect id="Rectangle" fill="#F4F4F4" fill-rule="nonzero" transform="translate(1487.957624, 252.676539) rotate(1.550022) translate(-1487.957624, -252.676539) " x="1445.38761" y="246.484939" width="85.1400308" height="12.3832012"></rect>
            <rect id="Rectangle" fill="#F4F4F4" fill-rule="nonzero" transform="translate(1489.857624, 274.024539) rotate(1.550022) translate(-1489.857624, -274.024539) " x="1447.28761" y="267.832939" width="85.1400308" height="12.3832012"></rect>
            <rect id="Rectangle" fill="#F4F4F4" fill-rule="nonzero" transform="translate(1492.057624, 298.631539) rotate(1.550022) translate(-1492.057624, -298.631539) " x="1449.48761" y="292.439939" width="85.1400308" height="12.3832012"></rect>
            <path d="M867.157,553.5 C517.613,256.301 57.698,428.36 0,624.592 L0,1020 L1918,1020 L1918,160 C1867.22,662.5 1314.67,934 867.157,553.5 Z" id="Path" fill="url(#linearGradient-1)" fill-rule="nonzero"></path>
            <path d="M1353.74,417.473 L1271.15,411.574 L1284.42,362.905 C1284.42,362.905 1327.19,352.581 1310.97,328.984 L1322.77,306.862 C1327.19,364.38 1359.64,357.006 1353.74,417.473 Z" id="Path" fill="#FFC487" fill-rule="nonzero"></path>
            <path d="M1386.19,586.349 C1257.42,573.771 1201.78,570.107 1197.41,566.429 L1198.3936,562.840359 C1273.0736,547.507359 1313.41,552.996 1386.19,586.349 Z" id="Path" fill="#E90022" fill-rule="nonzero"></path>
            <path d="M1255.91,812.207 C1284.19,799.269 1290.4,792.312 1291.62,789.373 C1291.92,788.654 1292.79,787.651 1293.57,787.651 L1304.41,787.651 C1304.81,787.651 1305.17,787.889 1305.33,788.257 L1309.24,797.38 C1309.4,797.742 1309.33,798.147 1309.06,798.425 C1305.97,801.497 1286.78,819.084 1256.11,814.056 C1255.16,813.9 1255.03,812.61 1255.91,812.207 Z" id="Path" fill="#590743" fill-rule="nonzero"></path>
            <path d="M1401.18,788.295 C1423.47,766.897 1424.75,757.945 1424.07,754.873 C1423.92,754.172 1424.18,753.193 1424.83,752.902 L1434.98,748.413 C1435.35,748.251 1435.77,748.323 1436.07,748.595 L1443.39,755.409 C1443.65,755.65 1443.76,756.003 1443.68,756.345 C1441.38,765.37 1429.34,780.704 1402.15,789.937 C1401.15,790.277 1400.41,789.027 1401.18,788.295 Z" id="Path" fill="#590743" fill-rule="nonzero"></path>
            <path d="M1293.27,787.651 L1296.22,765.529 L1306.55,758.155 C1305.07,767.004 1303.6,785.291 1303.6,787.651 C1303.6,790.011 1296.71,788.634 1293.27,787.651 Z" id="Path" fill="#FFC589" fill-rule="nonzero"></path>
            <path d="M1425.38,754.813 L1416.19,734.477 L1421.05,722.759 C1424.48,731.049 1433.72,747.032 1434.14,749.353 C1434.96,753.823 1428.27,756.994 1425.38,754.813 Z" id="Path" fill="#FFC589" fill-rule="nonzero"></path>
            <path d="M1294.75,771.428 L1225.43,560.53 L1219.53,531.033 L1308.02,529.559 C1298.7,556.719 1294.25,578.478 1288.85,638.695 C1308.46,688.239 1309.09,716.991 1308.02,768.478 C1304.17,772.211 1301.38,773.078 1294.75,771.428 Z" id="Path" fill="url(#linearGradient-2)" fill-rule="nonzero"></path>
            <path d="M1415.68,737.507 L1267.5,541.5 L1361.11,532.508 L1364.06,619.522 L1364.7,620.277 C1393.16,653.795 1409.94,673.559 1427.48,733.083 L1415.68,737.507 Z" id="Path" fill="url(#linearGradient-3)" fill-rule="nonzero"></path>
            <path d="M1418.51,533.424 L1398.1,489.624 L1393.03,478.869 L1376,486.891 L1410.39,539.439 L1411.82,552.654 L1416.99,565.941 C1418.06,567.659 1417.61,568.71 1419.05,568.743 C1420,568.765 1420.85,568.18 1421.17,567.289 L1418.29,558.753 L1421.98,560.51 C1421.98,560.51 1428.16,573.629 1429.08,575.584 C1430,577.539 1433.87,577.659 1432.99,575.786 C1432.1,573.912 1425.42,559.734 1425.42,559.734 L1426.32,559.312 C1426.32,559.312 1432.89,573.245 1434.04,575.689 C1435.19,578.133 1437.88,576.867 1436.47,573.879 C1435.06,570.892 1429.01,558.045 1429.01,558.045 L1429.91,557.623 C1429.91,557.623 1436.14,570.85 1436.8,572.262 C1437.47,573.674 1439.7,571.43 1438.51,568.904 C1437.32,566.378 1431.75,554.564 1431.75,554.564 L1432.65,554.141 C1432.65,554.141 1437.29,564.001 1438.14,565.793 C1438.98,567.585 1441.25,565.422 1439.56,561.838 C1437.87,558.253 1433.22,548.394 1433.22,548.394 L1418.51,533.424 Z" id="Path" fill="#FFC487" fill-rule="nonzero"></path>
            <path d="M1307.11494,352.615436 C1255.89494,360.401436 1233.74,426.524 1197.41,566.429 C1263.68,547.483 1304.4,551.966 1386.19,586.349 L1367.01,454.343 C1372.86,485.586 1369.23,485.579 1392.08,513.335 L1405.36,503.012 C1389.79,416.103 1379.6,363.405 1336.04,351.106 L1341.94,362.905 L1300.65,404.199 L1293.27,361.43 L1307.11494,352.615436 Z" id="Path" fill="#F54C48" fill-rule="nonzero"></path>
            <path d="M1179.46,393.717 C1201.73,390.064 1198.45926,420.566732 1224.02926,470.990732 L1232.14361,446.570538 L1201.83,392.402 L1198.88,377.654 C1196.05,388.664 1194.02,390.658 1190.04,390.927 C1190.04,390.927 1179.44,365.772 1174.57,365.637725 C1174.06,365.624 1173.75,366.147 1173.63,366.648 C1169.85,383.687 1172.32,384.587 1177.25,392.733 C1177.7,393.48 1178.6,393.858 1179.46,393.717 Z" id="Path" fill="#FFC589" fill-rule="nonzero"></path>
            <path d="M1470.25,265.567 C1417.71,288.084 1386.64,294.044 1333.09,267.042 L1331.96676,270.11611 C1378.20676,299.30511 1410.51,295.97 1474.67,272.941 L1467.3,271.467 L1470.25,265.567 Z" id="Path" fill="#FFAEC3" fill-rule="nonzero"></path>
            <path d="M1511.54,339.308 C1427.48,292.114 1402.41,368.804 1331.62,271.467 L1332.62089,268.313284 C1400.46089,350.903284 1458.45,290.639 1511.54,328.984 L1504.17,330.459 L1511.54,339.308 Z" id="Path" fill="#FFAEC3" fill-rule="nonzero"></path>
            <line x1="1294.75" y1="311.287" x2="1309.49" y2="395.351" id="Path" stroke="#FFFFFF"></line>
            <path d="M1304.78,334.882 C1299.44,334.346 1283.44,306.406 1290.32,280.315 C1297.52116,283.587808 1302.8452,286.12044 1306.29212,287.912898 C1311.03853,290.381107 1318.00449,294.239474 1327.19,299.488 C1328.21,315.787 1309,335.129 1305.36,334.954 C1305.16,334.944 1304.97,334.902 1304.78,334.882 Z" id="Path" fill="#FFC487" fill-rule="nonzero"></path>
            <path d="M1293.27,300.963 C1290.62,300.039 1289.51,299.901 1288.85,300.963" id="Path" stroke="#FF8B00" stroke-width="2"></path>
            <path d="M1302.12,300.963 C1304.63,300.151 1305.95,300.253 1308.02,302.437" id="Path" stroke="#FF8B00" stroke-width="2"></path>
            <path d="M1300.65,323.085 C1303.48,323.966 1304.7,323.458 1306.55,321.61" id="Path" stroke="#FF3A00" stroke-width="2"></path>
            <ellipse id="Oval" fill="#723969" fill-rule="nonzero" cx="1305.07" cy="306.862" rx="1.47481" ry="2.94962"></ellipse>
            <ellipse id="Oval" fill="#723969" fill-rule="nonzero" cx="1293.27" cy="306.862" rx="1.47481" ry="2.94962"></ellipse>
            <polygon id="Path" fill="#FFAF5B" fill-rule="nonzero" points="1299 316 1296 316 1298 310 1299 310 1299 312"></polygon>
            <path d="M1290.32,284.74 C1299.05,281.502 1322.44,295.73 1325.72,308.337 C1333.55,298.24 1333.65,288.277 1331.62,268.517 C1346.37,258.193 1316.87,240.496 1315.39,262.618 C1308.02,265.568 1303.71,264.202 1293.27,277.366 C1280.52,277.761 1275.76,280.621 1277.05,296.539 C1280.94,288.692 1290.32,284.74 1290.32,284.74 Z" id="Path" fill="#FFB50C" fill-rule="nonzero"></path>
            <polygon id="Path" fill="#FFAEC3" fill-rule="nonzero" points="1313.47033 263.427678 1315.54704 261.051894 1333.09 267.042 1331.62 271.467"></polygon>
            <polygon id="Path" fill="#6CA1FF" fill-rule="nonzero" points="1209.21 392.401 1190.04 392.401 1172.34 343.733 1176.76 342.258 1195.93 342.258"></polygon>
            <polygon id="Path" fill="#405FD3" fill-rule="nonzero" points="1185.61 392.401 1172.34 343.732 1191.51 343.732 1204.78 392.401"></polygon>
            <path d="M1189.7,370.904 L1174.46,366.062 C1174.14,365.959 1173.81,366.2 1173.81,366.538 L1173.81,367.248 C1173.81,367.302 1173.82,367.355 1173.84,367.406 L1175.19,371.477 C1175.25,371.648 1175.4,371.775 1175.57,371.809 L1189.82,374.571 C1190.15,374.636 1190.45,374.352 1190.41,374.013 L1190.04,371.314 C1190.02,371.122 1189.88,370.962 1189.7,370.904 Z" id="Path" fill="#FFC589" fill-rule="nonzero"></path>
            <path d="M1189.61,375.41 L1174.42,371.896 C1174.11,371.823 1173.81,372.061 1173.81,372.383 L1173.81,373.148 C1173.81,373.201 1173.82,373.255 1173.84,373.306 L1175.18,377.343 C1175.25,377.531 1175.41,377.665 1175.61,377.683 L1189.45,378.95 C1189.75,378.977 1190,378.746 1190,378.452 L1190,375.897 C1190,375.665 1189.84,375.463 1189.61,375.41 Z" id="Path" fill="#FFC589" fill-rule="nonzero"></path>
            <path d="M1189.07,379.936 L1174.39,377.739 C1174.08,377.694 1173.81,377.928 1173.81,378.234 L1173.81,379.047 C1173.81,379.101 1173.82,379.154 1173.84,379.205 L1175.17,383.196 C1175.24,383.407 1175.44,383.547 1175.66,383.538 L1189.02,383.019 C1189.29,383.008 1189.5,382.788 1189.5,382.519 L1189.5,380.431 C1189.5,380.183 1189.32,379.973 1189.07,379.936 Z" id="Path" fill="#FFC589" fill-rule="nonzero"></path>
            <path d="M1189.01,383.986 L1174.33,383.567 C1174.04,383.559 1173.81,383.785 1173.81,384.067 L1173.81,384.946 C1173.81,385 1173.82,385.053 1173.84,385.104 L1175.15,389.044 C1175.23,389.278 1175.47,389.42 1175.71,389.378 L1189.08,387.071 C1189.32,387.03 1189.5,386.822 1189.5,386.579 L1189.5,384.486 C1189.5,384.215 1189.28,383.994 1189.01,383.986 Z" id="Path" fill="#FFC589" fill-rule="nonzero"></path>
            <circle id="Oval" fill="#FFFFFF" fill-rule="nonzero" cx="1324.24" cy="309.812" r="5.89925"></circle>
            <path d="M1324.24,309.812 C1297.04,510.011 1243.13,587.077 1198.88,395.351" id="Path" stroke="#FFFFFF"></path>
            <polygon id="Path" fill="#F4F4F4" fill-rule="nonzero" points="1194.46 392.292 1201.21 392.292 1202.28 401.076 1197.41 401.25"></polygon>
        </g>
    </g>
</svg>