<?xml version="1.0" encoding="UTF-8"?>
<svg width="1980px" height="1020px" viewBox="0 0 1980 1020" version="1.1" xmlns="http://www.w3.org/2000/svg" xmlns:xlink="http://www.w3.org/1999/xlink">
    <title>index</title>
    <defs>
        <linearGradient x1="23.4444236%" y1="53.3811733%" x2="20.8606604%" y2="46.7065653%" id="linearGradient-1">
            <stop stop-color="#FFFFFF" offset="0%"></stop>
            <stop stop-color="#FFFFFF" stop-opacity="0" offset="100%"></stop>
        </linearGradient>
    </defs>
    <g id="index" stroke="none" stroke-width="1" fill="none" fill-rule="evenodd">
        <g id="Group" transform="translate(967.000000, 0.000000)" fill-rule="nonzero">
            <g>
                <polygon id="Path" fill="#F6F6F6" points="124 71.5658118 233 0 233 518 124 518"></polygon>
                <polygon id="Path" fill="#F0F0F0" points="233 0 315 24.3355383 315 518 233 518"></polygon>
                <rect id="Rectangle" fill="#C4C4C4" x="144" y="102" width="20" height="14"></rect>
                <rect id="Rectangle" fill="#C4C4C4" x="185" y="102" width="20" height="14"></rect>
                <rect id="Rectangle" fill="#C4C4C4" x="185" y="136" width="20" height="14"></rect>
                <rect id="Rectangle" fill="#C4C4C4" x="144" y="136" width="20" height="14"></rect>
                <rect id="Rectangle" fill="#C4C4C4" x="144" y="170" width="20" height="14"></rect>
                <rect id="Rectangle" fill="#C4C4C4" x="185" y="170" width="20" height="14"></rect>
                <rect id="Rectangle" fill="#C4C4C4" x="185" y="204" width="20" height="14"></rect>
                <rect id="Rectangle" fill="#C4C4C4" x="144" y="204" width="20" height="14"></rect>
                <rect id="Rectangle" fill="#C4C4C4" x="144" y="238" width="20" height="14"></rect>
                <rect id="Rectangle" fill="#C4C4C4" x="185" y="238" width="20" height="14"></rect>
                <rect id="Rectangle" fill="#C4C4C4" x="185" y="272" width="20" height="14"></rect>
                <rect id="Rectangle" fill="#C4C4C4" x="144" y="272" width="20" height="14"></rect>
                <rect id="Rectangle" fill="#C4C4C4" x="144" y="307" width="20" height="14"></rect>
                <rect id="Rectangle" fill="#C4C4C4" x="185" y="307" width="20" height="14"></rect>
                <rect id="Rectangle" fill="#C4C4C4" x="185" y="341" width="20" height="14"></rect>
                <rect id="Rectangle" fill="#C4C4C4" x="144" y="341" width="20" height="14"></rect>
                <polygon id="Path" fill="#F3F2F2" points="0 730 0 171 173 201.556797 173 730"></polygon>
                <rect id="Rectangle" fill="#ECEBEB" x="114" y="231" width="23" height="84"></rect>
                <polygon id="Path" fill="#ECEBEB" points="209 218.381008 173 201 173 730 209 712.497432"></polygon>
                <rect id="Rectangle" fill="#ECEBEB" x="36" y="230" width="23" height="84"></rect>
                <rect id="Rectangle" fill="#ECEBEB" x="75" y="298" width="23" height="84"></rect>
                <rect id="Rectangle" fill="#ECEBEB" x="36" y="366" width="23" height="84"></rect>
                <rect id="Rectangle" fill="#ECEBEB" x="114" y="366" width="23" height="84"></rect>
                <rect id="Rectangle" fill="#ECEBEB" x="112" y="501" width="23" height="84"></rect>
                <rect id="Rectangle" fill="#ECEBEB" x="36" y="501" width="23" height="84"></rect>
                <polygon id="Path" fill="#F7F7F7" points="311 81.3079293 379 61 379 132.077652 311 160"></polygon>
                <polygon id="Path" fill="#E3E3E3" points="379 126.955144 379 61 465 81.8823009 465 149"></polygon>
                <polygon id="Path" fill="#EDEDED" points="491 756 390 753.991269 390 122 491 144.751934"></polygon>
                <polygon id="Path" fill="#F9F9F9" points="281 152.311398 390 122 390 756 281 728.214968"></polygon>
                <polygon id="Path" fill="#C4C4C4" opacity="0.6" points="417 530 417 128 425 129.716007 425 530"></polygon>
                <polygon id="Path" fill="#C4C4C4" opacity="0.6" points="441 530 441 133.001563 449 134.702861 449 530"></polygon>
                <polygon id="Path" fill="#C4C4C4" opacity="0.6" points="462 530 462 137.99994 470 139.713794 470 530"></polygon>
                <polygon id="Path" fill="#F0F0F0" points="634 187 517 190.350144 517 786 634 786"></polygon>
                <polygon id="Path" fill="#F2F2F2" points="634 783 634 187 770 214.792881 770 783"></polygon>
                <rect id="Rectangle" fill="#D5D4D2" transform="translate(702.569989, 257.191600) rotate(6.622650) translate(-702.569989, -257.191600) " x="660" y="251" width="85.1399772" height="12.3832006"></rect>
                <rect id="Rectangle" fill="#D5D4D2" transform="translate(702.569989, 279.191600) rotate(6.622650) translate(-702.569989, -279.191600) " x="660" y="273" width="85.1399772" height="12.3832006"></rect>
                <rect id="Rectangle" fill="#D5D4D2" transform="translate(702.569989, 303.191600) rotate(6.622650) translate(-702.569989, -303.191600) " x="660" y="297" width="85.1399772" height="12.3832006"></rect>
                <rect id="Rectangle" fill="#D5D4D2" transform="translate(702.569989, 377.191600) rotate(6.622650) translate(-702.569989, -377.191600) " x="660" y="371" width="85.1399772" height="12.3832006"></rect>
                <rect id="Rectangle" fill="#D5D4D2" transform="translate(701.569989, 399.191600) rotate(6.622650) translate(-701.569989, -399.191600) " x="659" y="393" width="85.1399772" height="12.3832006"></rect>
                <rect id="Rectangle" fill="#D5D4D2" transform="translate(702.569989, 421.191600) rotate(6.622650) translate(-702.569989, -421.191600) " x="660" y="415" width="85.1399772" height="12.3832006"></rect>
                <rect id="Rectangle" fill="#D5D4D2" transform="translate(702.569989, 487.191600) rotate(6.622650) translate(-702.569989, -487.191600) " x="660" y="481" width="85.1399772" height="12.3832006"></rect>
                <rect id="Rectangle" fill="#D5D4D2" transform="translate(702.569989, 511.191600) rotate(6.622650) translate(-702.569989, -511.191600) " x="660" y="505" width="85.1399772" height="12.3832006"></rect>
                <rect id="Rectangle" fill="#D5D4D2" transform="translate(702.569989, 534.191600) rotate(6.622650) translate(-702.569989, -534.191600) " x="660" y="528" width="85.1399772" height="12.3832006"></rect>
                <rect id="Rectangle" fill="#F4F4F4" transform="translate(575.570015, 486.191601) rotate(-0.449978) translate(-575.570015, -486.191601) " x="533" y="480" width="85.1400308" height="12.3832012"></rect>
                <rect id="Rectangle" fill="#F4F4F4" transform="translate(575.570015, 511.191601) rotate(-0.449978) translate(-575.570015, -511.191601) " x="533" y="505" width="85.1400308" height="12.3832012"></rect>
                <rect id="Rectangle" fill="#F4F4F4" transform="translate(575.570015, 536.191601) rotate(-0.449978) translate(-575.570015, -536.191601) " x="533" y="530" width="85.1400308" height="12.3832012"></rect>
                <rect id="Rectangle" fill="#F4F4F4" transform="translate(575.570015, 366.191601) rotate(-0.449978) translate(-575.570015, -366.191601) " x="533" y="360" width="85.1400308" height="12.3832012"></rect>
                <rect id="Rectangle" fill="#F4F4F4" transform="translate(575.570015, 391.191601) rotate(-0.449978) translate(-575.570015, -391.191601) " x="533" y="385" width="85.1400308" height="12.3832012"></rect>
                <rect id="Rectangle" fill="#F4F4F4" transform="translate(575.570015, 416.191601) rotate(-0.449978) translate(-575.570015, -416.191601) " x="533" y="410" width="85.1400308" height="12.3832012"></rect>
                <rect id="Rectangle" fill="#F4F4F4" transform="translate(575.570015, 248.191601) rotate(-0.449978) translate(-575.570015, -248.191601) " x="533" y="242" width="85.1400308" height="12.3832012"></rect>
                <rect id="Rectangle" fill="#F4F4F4" transform="translate(575.570015, 273.191601) rotate(-0.449978) translate(-575.570015, -273.191601) " x="533" y="267" width="85.1400308" height="12.3832012"></rect>
                <rect id="Rectangle" fill="#F4F4F4" transform="translate(575.570015, 298.191601) rotate(-0.449978) translate(-575.570015, -298.191601) " x="533" y="292" width="85.1400308" height="12.3832012"></rect>
            </g>
        </g>
        <g id="Group" transform="translate(0.000000, 160.000000)" fill="url(#linearGradient-1)" fill-rule="nonzero">
            <g id="Path">
                <path d="M895.188144,393.5 C534.345016,96.301 59.5631074,268.36 0,464.592 L0,860 L1980,860 L1980,0 C1927.57852,502.5 1357.16715,774 895.188144,393.5 Z"></path>
            </g>
        </g>
        <g id="Group" transform="translate(1233.792784, 251.999997)">
            <path d="M181.947216,165.473003 L99.3572156,159.574003 L112.627216,110.905003 C112.627216,110.905003 155.397216,100.581003 139.177216,76.9840029 L150.977216,54.8620029 C155.397216,112.380003 187.847216,105.006003 181.947216,165.473003 Z" id="Path" fill="#FFC487" fill-rule="nonzero"></path>
            <path d="M214.397216,334.349003 C85.6272156,321.771003 29.9872156,318.107003 25.6172156,314.429003 L26.6008156,310.840362 C101.280816,295.507362 141.617216,300.996003 214.397216,334.349003 Z" id="Path" fill="#1A3A78" fill-rule="nonzero"></path>
            <path d="M84.1172156,560.207003 C112.397216,547.269003 118.607216,540.312003 119.827216,537.373003 C120.127216,536.654003 120.997216,535.651003 121.777216,535.651003 L132.617216,535.651003 C133.017216,535.651003 133.377216,535.889003 133.537216,536.257003 L137.447216,545.380003 C137.607216,545.742003 137.537216,546.147003 137.267216,546.425003 C134.177216,549.497003 114.987216,567.084003 84.3172156,562.056003 C83.3672156,561.900003 83.2372156,560.610003 84.1172156,560.207003 Z" id="Path" fill="#9F5617" fill-rule="nonzero"></path>
            <path d="M229.387216,536.295003 C251.677216,514.897003 252.957216,505.945003 252.277216,502.873003 C252.127216,502.172003 252.387216,501.193003 253.037216,500.902003 L263.187216,496.413003 C263.557216,496.251003 263.977216,496.323003 264.277216,496.595003 L271.597216,503.409003 C271.857216,503.650003 271.967216,504.003003 271.887216,504.345003 C269.587216,513.370003 257.547216,528.704003 230.357216,537.937003 C229.357216,538.277003 228.617216,537.027003 229.387216,536.295003 Z" id="Path" fill="#9F5617" fill-rule="nonzero"></path>
            <path d="M121.477216,535.651003 L124.427216,513.529003 L134.757216,506.155003 C133.277216,515.004003 131.807216,533.291003 131.807216,535.651003 C131.807216,538.011003 124.917216,536.634003 121.477216,535.651003 Z" id="Path" fill="#FFC589" fill-rule="nonzero"></path>
            <path d="M253.587216,502.813003 L244.397216,482.477003 L249.257216,470.759003 C252.687216,479.049003 261.927216,495.032003 262.347216,497.353003 C263.167216,501.823003 256.477216,504.994003 253.587216,502.813003 Z" id="Path" fill="#FFC589" fill-rule="nonzero"></path>
            <path d="M122.957216,519.428003 L53.6372156,308.530003 L47.7372156,279.033003 L136.227216,277.559003 C126.907216,304.719003 122.457216,326.478003 117.057216,386.695003 C136.667216,436.239003 137.297216,464.991003 136.227216,516.478003 C132.377216,520.211003 129.587216,521.078003 122.957216,519.428003 Z" id="Path" fill="#8DA023" fill-rule="nonzero"></path>
            <path d="M243.887216,485.507003 L95.7072156,289.500003 L189.317216,280.508003 L192.267216,367.522003 L192.907216,368.277003 C221.367216,401.795003 238.147216,421.559003 255.687216,481.083003 L243.887216,485.507003 Z" id="Path" fill="#8DA023" fill-rule="nonzero"></path>
            <path d="M246.717216,281.424003 L226.307216,237.624003 L221.237216,226.869003 L204.207216,234.891003 L238.597216,287.439003 L240.027216,300.654003 L245.197216,313.941003 C246.267216,315.659003 245.817216,316.710003 247.257216,316.743003 C248.207216,316.765003 249.057216,316.180003 249.377216,315.289003 L246.497216,306.753003 L250.187216,308.510003 C250.187216,308.510003 256.367216,321.629003 257.287216,323.584003 C258.207216,325.539003 262.077216,325.659003 261.197216,323.786003 C260.307216,321.912003 253.627216,307.734003 253.627216,307.734003 L254.527216,307.312003 C254.527216,307.312003 261.097216,321.245003 262.247216,323.689003 C263.397216,326.133003 266.087216,324.867003 264.677216,321.879003 C263.267216,318.892003 257.217216,306.045003 257.217216,306.045003 L258.117216,305.623003 C258.117216,305.623003 264.347216,318.850003 265.007216,320.262003 C265.677216,321.674003 267.907216,319.430003 266.717216,316.904003 C265.527216,314.378003 259.957216,302.564003 259.957216,302.564003 L260.857216,302.141003 C260.857216,302.141003 265.497216,312.001003 266.347216,313.793003 C267.187216,315.585003 269.457216,313.422003 267.767216,309.838003 C266.077216,306.253003 261.427216,296.394003 261.427216,296.394003 L246.717216,281.424003 Z" id="Path" fill="#FFC487" fill-rule="nonzero"></path>
            <path d="M135.322156,100.615439 C84.1021556,108.401439 61.9472156,174.524003 25.6172156,314.429003 C91.8872156,295.483003 132.607216,299.966003 214.397216,334.349003 L195.217216,202.343003 C201.067216,233.586003 197.437216,233.579003 220.287216,261.335003 L233.567216,251.012003 C217.997216,164.103003 207.807216,111.405003 164.247216,99.1060029 L170.147216,110.905003 L128.857216,152.199003 L121.477216,109.430003 L135.322156,100.615439 Z" id="Path" fill="#234EA0" fill-rule="nonzero"></path>
            <path d="M7.66721563,141.717003 C29.9372156,138.064003 26.6664756,168.566735 52.2364756,218.990735 L60.3508256,194.570541 L30.0372156,140.402003 L27.0872156,125.654003 C24.2572156,136.664003 22.2272156,138.658003 18.2472156,138.927003 C18.2472156,138.927003 7.22878563,115.504488 2.86573563,114.143781 C2.36369563,113.987209 1.95721563,114.147003 1.83721563,114.648003 C-1.94278437,131.687003 0.527215632,132.587003 5.45721563,140.733003 C5.90721563,141.480003 6.80721563,141.858003 7.66721563,141.717003 Z" id="Path" fill="#FFC589" fill-rule="nonzero"></path>
            <line x1="122.957216" y1="59.2870029" x2="137.697216" y2="143.351003" id="Path" stroke="#FFFFFF"></line>
            <path d="M132.987216,82.8820029 C127.647216,82.3460029 111.647216,54.4060029 118.527216,28.3150029 C125.728376,31.5878109 131.052416,34.1204429 134.499336,35.9129009 C139.245746,38.3811099 146.211706,42.2394769 155.397216,47.4880029 C156.417216,63.7870029 137.207216,83.1290029 133.567216,82.9540029 C133.367216,82.9440029 133.177216,82.9020029 132.987216,82.8820029 Z" id="Path" fill="#FFC487" fill-rule="nonzero"></path>
            <path d="M121.477216,48.9630029 C118.827216,48.0390029 117.717216,47.9010029 117.057216,48.9630029" id="Path" stroke="#A0522D" stroke-width="2"></path>
            <path d="M130.327216,48.9630029 C132.837216,48.1510029 134.157216,48.2530029 136.227216,50.4370029" id="Path" stroke="#A0522D" stroke-width="2"></path>
            <path d="M128.857216,71.0850029 C131.687216,71.9660029 132.907216,71.4580029 134.757216,69.6100029" id="Path" stroke="#FF3A00" stroke-width="2"></path>
            <ellipse id="Oval" fill="#723969" fill-rule="nonzero" cx="133.277216" cy="54.8620029" rx="1.47481" ry="2.94962"></ellipse>
            <ellipse id="Oval" fill="#723969" fill-rule="nonzero" cx="121.477216" cy="54.8620029" rx="1.47481" ry="2.94962"></ellipse>
            <polygon id="Path" fill="#FFAF5B" fill-rule="nonzero" points="127.207216 64.0000029 124.207216 64.0000029 126.207216 58.0000029 127.207216 58.0000029 127.207216 60.0000029"></polygon>
            <path d="M118.527216,32.7400029 C127.257216,29.5020029 150.647216,43.7300029 153.927216,56.3370029 C161.757216,46.2400029 161.857216,36.2770029 159.827216,16.5170029 C174.577216,6.19300294 145.077216,-11.5039971 143.597216,10.6180029 C136.227216,13.5680029 131.917216,12.2020029 121.477216,25.3660029 C108.727216,25.7610029 103.967216,28.6210029 105.257216,44.5390029 C109.147216,36.6920029 118.527216,32.7400029 118.527216,32.7400029 Z" id="Path" fill="#A0522D" fill-rule="nonzero"></path>
            <polygon id="Path" fill="#6CA1FF" fill-rule="nonzero" points="16.8172156 138.401003 3.54721563 89.7320029 22.7172156 89.7320029 35.9872156 138.401003"></polygon>
            <polygon id="Path" fill="#405FD3" fill-rule="nonzero" points="13.8172156 140.401003 0.547215632 91.7320029 19.7172156 91.7320029 32.9872156 140.401003"></polygon>
            <path d="M17.9072156,118.904003 L2.66721563,114.062003 C2.34721563,113.959003 2.01721563,114.200003 2.01721563,114.538003 L2.01721563,115.248003 C2.01721563,115.302003 2.02721563,115.355003 2.04721563,115.406003 L3.39721563,119.477003 C3.45721563,119.648003 3.60721563,119.775003 3.77721563,119.809003 L18.0272156,122.571003 C18.3572156,122.636003 18.6572156,122.352003 18.6172156,122.013003 L18.2472156,119.314003 C18.2272156,119.122003 18.0872156,118.962003 17.9072156,118.904003 Z" id="Path" fill="#FFC589" fill-rule="nonzero"></path>
            <path d="M17.8172156,123.410003 L2.62721563,119.896003 C2.31721563,119.823003 2.01721563,120.061003 2.01721563,120.383003 L2.01721563,121.148003 C2.01721563,121.201003 2.02721563,121.255003 2.04721563,121.306003 L3.38721563,125.343003 C3.45721563,125.531003 3.61721563,125.665003 3.81721563,125.683003 L17.6572156,126.950003 C17.9572156,126.977003 18.2072156,126.746003 18.2072156,126.452003 L18.2072156,123.897003 C18.2072156,123.665003 18.0472156,123.463003 17.8172156,123.410003 Z" id="Path" fill="#FFC589" fill-rule="nonzero"></path>
            <path d="M17.2772156,127.936003 L2.59721563,125.739003 C2.28721563,125.694003 2.01721563,125.928003 2.01721563,126.234003 L2.01721563,127.047003 C2.01721563,127.101003 2.02721563,127.154003 2.04721563,127.205003 L3.37721563,131.196003 C3.44721563,131.407003 3.64721563,131.547003 3.86721563,131.538003 L17.2272156,131.019003 C17.4972156,131.008003 17.7072156,130.788003 17.7072156,130.519003 L17.7072156,128.431003 C17.7072156,128.183003 17.5272156,127.973003 17.2772156,127.936003 Z" id="Path" fill="#FFC589" fill-rule="nonzero"></path>
            <path d="M17.2172156,131.986003 L2.53721563,131.567003 C2.24721563,131.559003 2.01721563,131.785003 2.01721563,132.067003 L2.01721563,132.946003 C2.01721563,133.000003 2.02721563,133.053003 2.04721563,133.104003 L3.35721563,137.044003 C3.43721563,137.278003 3.67721563,137.420003 3.91721563,137.378003 L17.2872156,135.071003 C17.5272156,135.030003 17.7072156,134.822003 17.7072156,134.579003 L17.7072156,132.486003 C17.7072156,132.215003 17.4872156,131.994003 17.2172156,131.986003 Z" id="Path" fill="#FFC589" fill-rule="nonzero"></path>
            <circle id="Oval" fill="#FFFFFF" fill-rule="nonzero" cx="152.447216" cy="57.8120029" r="5.89925"></circle>
            <path d="M152.447216,57.8120029 C125.247216,258.011003 71.3372156,335.077003 27.0872156,143.351003" id="Path" stroke="#FFFFFF"></path>
            <polygon id="Path" fill="#F4F4F4" fill-rule="nonzero" points="22.6672156 140.292003 29.4172156 140.292003 30.4872156 149.076003 25.6172156 149.250003"></polygon>
        </g>
    </g>
</svg>