<svg width="1918" height="1020" viewBox="0 0 1918 1020" fill="none" xmlns="http://www.w3.org/2000/svg">
<path d="M1028.72 71.5607L1137.77 0V521.371H1028.72V71.5607Z" fill="#F6F6F6"/>
<path d="M1137.77 0L1219.55 24.3338V517.963H1137.77V0Z" fill="#F0F0F0"/>
<rect x="1049.17" y="102.229" width="20.4459" height="13.6306" fill="#C4C4C4"/>
<rect x="1090.06" y="102.229" width="20.4459" height="13.6306" fill="#C4C4C4"/>
<rect x="1090.06" y="136.306" width="20.4459" height="13.6306" fill="#C4C4C4"/>
<rect x="1049.17" y="136.306" width="20.4459" height="13.6306" fill="#C4C4C4"/>
<rect x="1049.17" y="170.383" width="20.4459" height="13.6306" fill="#C4C4C4"/>
<rect x="1090.06" y="170.383" width="20.4459" height="13.6306" fill="#C4C4C4"/>
<rect x="1090.06" y="204.459" width="20.4459" height="13.6306" fill="#C4C4C4"/>
<rect x="1049.17" y="204.459" width="20.4459" height="13.6306" fill="#C4C4C4"/>
<rect x="1049.17" y="238.536" width="20.4459" height="13.6306" fill="#C4C4C4"/>
<rect x="1090.06" y="238.536" width="20.4459" height="13.6306" fill="#C4C4C4"/>
<rect x="1090.06" y="272.612" width="20.4459" height="13.6306" fill="#C4C4C4"/>
<rect x="1049.17" y="272.612" width="20.4459" height="13.6306" fill="#C4C4C4"/>
<rect x="1049.17" y="306.689" width="20.4459" height="13.6306" fill="#C4C4C4"/>
<rect x="1090.06" y="306.689" width="20.4459" height="13.6306" fill="#C4C4C4"/>
<rect x="1090.06" y="340.766" width="20.4459" height="13.6306" fill="#C4C4C4"/>
<rect x="1049.17" y="340.766" width="20.4459" height="13.6306" fill="#C4C4C4"/>
<path d="M905 729.762V148.888L1080.09 201.377V729.762H905Z" fill="#F3F2F2"/>
<path d="M1114.2 218.335L1077.81 197.877V729.762L1114.2 712.266V218.335Z" fill="#ECEBEB"/>
<rect x="932.287" y="225.872" width="22.7387" height="83.9818" fill="#ECEBEB"/>
<rect x="1023.24" y="225.872" width="22.7387" height="83.9818" fill="#ECEBEB"/>
<rect x="977.764" y="302.855" width="22.7387" height="83.9818" fill="#ECEBEB"/>
<rect x="932.287" y="365.841" width="22.7387" height="83.9818" fill="#ECEBEB"/>
<rect x="1014.15" y="365.841" width="22.7387" height="83.9818" fill="#ECEBEB"/>
<rect x="1014.15" y="491.814" width="22.7387" height="83.9818" fill="#ECEBEB"/>
<rect x="932.287" y="498.812" width="22.7387" height="83.9818" fill="#ECEBEB"/>
<path d="M1216.32 81.4551L1292.11 58.7163V129.459L1216.32 159.777V81.4551Z" fill="#F7F7F7"/>
<path d="M1284.54 126.932V61.2427H1370.44V152.198L1284.54 126.932Z" fill="#E3E3E3"/>
<path d="M1395.7 723.193L1289.59 753.511L1292.11 121.879L1395.7 144.618V723.193Z" fill="#EDEDED"/>
<path d="M1186 152.198L1294.64 121.879V756.038L1186 728.246V152.198Z" fill="#F9F9F9"/>
<path opacity="0.6" d="M1314.85 528.65V126.933L1322.43 128.591V528.65H1314.85Z" fill="#C4C4C4"/>
<path opacity="0.6" d="M1337.59 528.651V131.986L1345.17 133.723V528.651H1337.59Z" fill="#C4C4C4"/>
<path opacity="0.6" d="M1362.86 528.65V137.039L1370.44 139.565V528.65H1362.86Z" fill="#C4C4C4"/>
<path d="M1545.65 184.079L1443.74 159.374L1422.13 786.28H1545.65V184.079Z" fill="#F0F0F0"/>
<path d="M1539.48 783.191V187.167L1675.36 214.961V783.191H1539.48Z" fill="#F2F2F2"/>
<rect width="85.14" height="12.3832" transform="matrix(0.997273 0.0737972 -0.115788 0.993274 1565.62 245.843)" fill="#D5D4D2"/>
<rect width="85.14" height="12.3832" transform="matrix(0.997273 0.0737972 -0.115788 0.993274 1565.62 267.275)" fill="#D5D4D2"/>
<rect width="85.14" height="12.3832" transform="matrix(0.997273 0.0737972 -0.115788 0.993274 1565.62 291.981)" fill="#D5D4D2"/>
<rect width="85.14" height="12.3832" transform="matrix(0.997273 0.0737972 -0.115788 0.993274 1565.62 363.195)" fill="#D5D4D2"/>
<rect width="85.14" height="12.3832" transform="matrix(0.997273 0.0737972 -0.115788 0.993274 1565.62 384.627)" fill="#D5D4D2"/>
<rect width="85.14" height="12.3832" transform="matrix(0.997273 0.0737972 -0.115788 0.993274 1565.62 409.333)" fill="#D5D4D2"/>
<rect width="85.14" height="12.3832" transform="matrix(0.997273 0.0737972 -0.115788 0.993274 1565.62 480.547)" fill="#D5D4D2"/>
<rect width="85.14" height="12.3832" transform="matrix(0.997273 0.0737972 -0.115788 0.993274 1565.62 501.979)" fill="#D5D4D2"/>
<rect width="85.14" height="12.3832" transform="matrix(0.997273 0.0737972 -0.115788 0.993274 1565.62 526.685)" fill="#D5D4D2"/>
<rect width="85.14" height="12.3832" transform="matrix(0.999886 -0.0151232 -0.0270565 0.999634 1445.56 484.384)" fill="#F4F4F4"/>
<rect width="85.14" height="12.3832" transform="matrix(0.999886 -0.0151232 -0.0270565 0.999634 1447.46 505.731)" fill="#F4F4F4"/>
<rect width="85.14" height="12.3832" transform="matrix(0.999886 -0.0151232 -0.0270565 0.999634 1449.66 530.339)" fill="#F4F4F4"/>
<rect width="85.14" height="12.3832" transform="matrix(0.999886 -0.0151232 -0.0270565 0.999634 1445.56 364.483)" fill="#F4F4F4"/>
<rect width="85.14" height="12.3832" transform="matrix(0.999886 -0.0151232 -0.0270565 0.999634 1447.46 385.831)" fill="#F4F4F4"/>
<rect width="85.14" height="12.3832" transform="matrix(0.999886 -0.0151232 -0.0270565 0.999634 1449.66 410.438)" fill="#F4F4F4"/>
<rect width="85.14" height="12.3832" transform="matrix(0.999886 -0.0151232 -0.0270565 0.999634 1445.56 247.131)" fill="#F4F4F4"/>
<rect width="85.14" height="12.3832" transform="matrix(0.999886 -0.0151232 -0.0270565 0.999634 1447.46 268.479)" fill="#F4F4F4"/>
<rect width="85.14" height="12.3832" transform="matrix(0.999886 -0.0151232 -0.0270565 0.999634 1449.66 293.086)" fill="#F4F4F4"/>
<path d="M867.157 553.5C517.613 256.301 57.698 428.36 0 624.592V1020H1918V160C1867.22 662.5 1314.67 934 867.157 553.5Z" fill="url(#paint0_linear)"/>
<path d="M1353.74 417.473L1271.15 411.574L1284.42 362.905C1284.42 362.905 1327.19 352.581 1310.97 328.984L1322.77 306.862C1327.19 364.38 1359.64 357.006 1353.74 417.473Z" fill="#FFC487"/>
<path d="M1386.19 586.349C1257.42 573.771 1201.78 567.904 1197.41 564.226V562.752C1272.09 547.419 1313.41 552.996 1386.19 586.349Z" fill="#E90022"/>
<path d="M1255.91 812.207C1284.19 799.269 1290.4 792.312 1291.62 789.373C1291.92 788.654 1292.79 787.651 1293.57 787.651H1304.41C1304.81 787.651 1305.17 787.889 1305.33 788.257L1309.24 797.38C1309.4 797.742 1309.33 798.147 1309.06 798.425C1305.97 801.497 1286.78 819.084 1256.11 814.056C1255.16 813.9 1255.03 812.61 1255.91 812.207Z" fill="#590743"/>
<path d="M1401.18 788.295C1423.47 766.897 1424.75 757.945 1424.07 754.873C1423.92 754.172 1424.18 753.193 1424.83 752.902L1434.98 748.413C1435.35 748.251 1435.77 748.323 1436.07 748.595L1443.39 755.409C1443.65 755.65 1443.76 756.003 1443.68 756.345C1441.38 765.37 1429.34 780.704 1402.15 789.937C1401.15 790.277 1400.41 789.027 1401.18 788.295Z" fill="#590743"/>
<path d="M1293.27 787.651L1296.22 765.529L1306.55 758.155C1305.07 767.004 1303.6 785.291 1303.6 787.651C1303.6 790.011 1296.71 788.634 1293.27 787.651Z" fill="#FFC589"/>
<path d="M1425.38 754.813L1416.19 734.477L1421.05 722.759C1424.48 731.049 1433.72 747.032 1434.14 749.353C1434.96 753.823 1428.27 756.994 1425.38 754.813Z" fill="#FFC589"/>
<path d="M1294.75 771.428L1225.43 560.53L1219.53 531.033L1308.02 529.559C1298.7 556.719 1294.25 578.478 1288.85 638.695C1308.46 688.239 1309.09 716.991 1308.02 768.478C1304.17 772.211 1301.38 773.078 1294.75 771.428Z" fill="url(#paint1_linear)"/>
<path d="M1415.68 737.507L1267.5 541.5L1361.11 532.508L1364.06 619.522L1364.7 620.277C1393.16 653.795 1409.94 673.559 1427.48 733.083L1415.68 737.507Z" fill="url(#paint2_linear)"/>
<path d="M1418.51 533.424L1398.1 489.624L1393.03 478.869L1376 486.891L1410.39 539.439L1411.82 552.654L1416.99 565.941C1418.06 567.659 1417.61 568.71 1419.05 568.743C1420 568.765 1420.85 568.18 1421.17 567.289L1418.29 558.753L1421.98 560.51C1421.98 560.51 1428.16 573.629 1429.08 575.584C1430 577.539 1433.87 577.659 1432.99 575.786C1432.1 573.912 1425.42 559.734 1425.42 559.734L1426.32 559.312C1426.32 559.312 1432.89 573.245 1434.04 575.689C1435.19 578.133 1437.88 576.867 1436.47 573.879C1435.06 570.892 1429.01 558.045 1429.01 558.045L1429.91 557.623C1429.91 557.623 1436.14 570.85 1436.8 572.262C1437.47 573.674 1439.7 571.43 1438.51 568.904C1437.32 566.378 1431.75 554.564 1431.75 554.564L1432.65 554.141C1432.65 554.141 1437.29 564.001 1438.14 565.793C1438.98 567.585 1441.25 565.422 1439.56 561.838C1437.87 558.253 1433.22 548.394 1433.22 548.394L1418.51 533.424Z" fill="#FFC487"/>
<path d="M1308.02 352.581C1256.8 360.367 1233.74 426.524 1197.41 566.429C1263.68 547.483 1305.87 554.168 1387.66 588.551L1367.01 454.343C1372.86 485.586 1369.23 485.579 1392.08 513.335L1405.36 503.012C1389.79 416.103 1379.6 363.405 1336.04 351.106L1341.94 362.905L1300.65 404.199L1293.27 361.43L1308.02 352.581Z" fill="#F54C48"/>
<path d="M1179.46 393.717C1201.73 390.064 1199.43 422.576 1225 473L1232.8 446.97L1201.83 392.402L1198.88 377.654C1196.05 388.664 1194.02 390.658 1190.04 390.927C1190.04 390.927 1179.44 365.772 1174.57 365.638C1174.06 365.624 1173.75 366.147 1173.63 366.648C1169.85 383.687 1172.32 384.587 1177.25 392.733C1177.7 393.48 1178.6 393.858 1179.46 393.717Z" fill="#FFC589"/>
<path d="M1470.25 265.567C1417.71 288.084 1388.12 294.044 1334.57 267.042L1331.62 269.992C1377.86 299.181 1410.51 295.97 1474.67 272.941L1467.3 271.467L1470.25 265.567Z" fill="#FFAEC3"/>
<path d="M1511.54 339.308C1427.48 292.114 1402.41 368.804 1331.62 271.467L1333.09 268.517C1400.93 351.107 1458.45 290.639 1511.54 328.984L1504.17 330.459L1511.54 339.308Z" fill="#FFAEC3"/>
<path d="M1294.75 311.287L1309.49 395.351" stroke="white"/>
<path d="M1304.78 334.882C1299.44 334.346 1283.44 306.406 1290.32 280.315L1327.19 299.488C1328.21 315.787 1309 335.129 1305.36 334.954C1305.16 334.944 1304.97 334.902 1304.78 334.882Z" fill="#FFC487"/>
<path d="M1293.27 300.963C1290.62 300.039 1289.51 299.901 1288.85 300.963" stroke="#FF8B00" stroke-width="2"/>
<path d="M1302.12 300.963C1304.63 300.151 1305.95 300.253 1308.02 302.437" stroke="#FF8B00" stroke-width="2"/>
<path d="M1300.65 323.085C1303.48 323.966 1304.7 323.458 1306.55 321.61" stroke="#FF3A00" stroke-width="2"/>
<ellipse cx="1305.07" cy="306.862" rx="1.47481" ry="2.94962" fill="#723969"/>
<ellipse cx="1293.27" cy="306.862" rx="1.47481" ry="2.94962" fill="#723969"/>
<path d="M1299 316H1296L1298 310H1299V312V316Z" fill="#FFAF5B"/>
<path d="M1290.32 284.74C1299.05 281.502 1322.44 295.73 1325.72 308.337C1333.55 298.24 1333.65 288.277 1331.62 268.517C1346.37 258.193 1316.87 240.496 1315.39 262.618C1308.02 265.568 1303.71 264.202 1293.27 277.366C1280.52 277.761 1275.76 280.621 1277.05 296.539C1280.94 288.692 1290.32 284.74 1290.32 284.74Z" fill="#FFB50C"/>
<path d="M1313.92 264.093L1315.39 261.143L1333.09 267.042L1331.62 271.467L1313.92 264.093Z" fill="#FFAEC3"/>
<path d="M1209.21 392.401H1190.04L1172.34 343.733L1176.76 342.258H1195.93L1209.21 392.401Z" fill="#6CA1FF"/>
<path d="M1185.61 392.401L1172.34 343.732H1191.51L1204.78 392.401H1185.61Z" fill="#405FD3"/>
<path d="M1189.7 370.904L1174.46 366.062C1174.14 365.959 1173.81 366.2 1173.81 366.538V367.248C1173.81 367.302 1173.82 367.355 1173.84 367.406L1175.19 371.477C1175.25 371.648 1175.4 371.775 1175.57 371.809L1189.82 374.571C1190.15 374.636 1190.45 374.352 1190.41 374.013L1190.04 371.314C1190.02 371.122 1189.88 370.962 1189.7 370.904Z" fill="#FFC589"/>
<path d="M1189.61 375.41L1174.42 371.896C1174.11 371.823 1173.81 372.061 1173.81 372.383V373.148C1173.81 373.201 1173.82 373.255 1173.84 373.306L1175.18 377.343C1175.25 377.531 1175.41 377.665 1175.61 377.683L1189.45 378.95C1189.75 378.977 1190 378.746 1190 378.452V375.897C1190 375.665 1189.84 375.463 1189.61 375.41Z" fill="#FFC589"/>
<path d="M1189.07 379.936L1174.39 377.739C1174.08 377.694 1173.81 377.928 1173.81 378.234V379.047C1173.81 379.101 1173.82 379.154 1173.84 379.205L1175.17 383.196C1175.24 383.407 1175.44 383.547 1175.66 383.538L1189.02 383.019C1189.29 383.008 1189.5 382.788 1189.5 382.519V380.431C1189.5 380.183 1189.32 379.973 1189.07 379.936Z" fill="#FFC589"/>
<path d="M1189.01 383.986L1174.33 383.567C1174.04 383.559 1173.81 383.785 1173.81 384.067V384.946C1173.81 385 1173.82 385.053 1173.84 385.104L1175.15 389.044C1175.23 389.278 1175.47 389.42 1175.71 389.378L1189.08 387.071C1189.32 387.03 1189.5 386.822 1189.5 386.579V384.486C1189.5 384.215 1189.28 383.994 1189.01 383.986Z" fill="#FFC589"/>
<circle cx="1324.24" cy="309.812" r="5.89925" fill="white"/>
<path d="M1324.24 309.812C1297.04 510.011 1243.13 587.077 1198.88 395.351" stroke="white"/>
<path d="M1194.46 392.292L1201.21 392.292L1202.28 401.076L1197.41 401.25L1194.46 392.292Z" fill="#F4F4F4"/>
<defs>
<linearGradient id="paint0_linear" x1="491.5" y1="1001" x2="373.5" y2="276.5" gradientUnits="userSpaceOnUse">
<stop offset="0.354542" stop-color="white"/>
<stop offset="0.774513" stop-color="white" stop-opacity="0"/>
</linearGradient>
<linearGradient id="paint1_linear" x1="1263.93" y1="529.559" x2="1263.93" y2="772.227" gradientUnits="userSpaceOnUse">
<stop stop-color="#FF7799"/>
<stop offset="1" stop-color="#FF8CA9"/>
</linearGradient>
<linearGradient id="paint2_linear" x1="1349.31" y1="532.508" x2="1349.31" y2="737.507" gradientUnits="userSpaceOnUse">
<stop stop-color="#FF86A3"/>
<stop offset="1" stop-color="#FFA8BD"/>
</linearGradient>
</defs>
</svg>
