<?xml version="1.0" encoding="UTF-8"?>
<svg width="375px" height="358px" viewBox="0 0 375 358" version="1.1" xmlns="http://www.w3.org/2000/svg" xmlns:xlink="http://www.w3.org/1999/xlink">
    <title>index_sm</title>
    <g id="Page-1" stroke="none" stroke-width="1" fill="none" fill-rule="evenodd">
        <g id="index_sm">
            <polygon id="Path" fill="#F6F6F6" fill-rule="nonzero" points="105.554 32.5822 150.992 0 150.992 235.833 105.554 235.833"></polygon>
            <polygon id="Path" fill="#F0F0F0" fill-rule="nonzero" points="150.992 0 185.07 11.0794 185.07 235.833 150.992 235.833"></polygon>
            <rect id="Rectangle" fill="#C4C4C4" fill-rule="nonzero" x="114.074" y="46.546" width="8.51958" height="6.20614"></rect>
            <rect id="Rectangle" fill="#C4C4C4" fill-rule="nonzero" x="131.113" y="46.546" width="8.51958" height="6.20614"></rect>
            <rect id="Rectangle" fill="#C4C4C4" fill-rule="nonzero" x="131.113" y="62.0614" width="8.51958" height="6.20614"></rect>
            <rect id="Rectangle" fill="#C4C4C4" fill-rule="nonzero" x="114.074" y="62.0614" width="8.51958" height="6.20614"></rect>
            <rect id="Rectangle" fill="#C4C4C4" fill-rule="nonzero" x="114.074" y="77.5768" width="8.51958" height="6.20614"></rect>
            <rect id="Rectangle" fill="#C4C4C4" fill-rule="nonzero" x="131.113" y="77.5768" width="8.51958" height="6.20614"></rect>
            <rect id="Rectangle" fill="#C4C4C4" fill-rule="nonzero" x="131.113" y="93.092" width="8.51958" height="6.20614"></rect>
            <rect id="Rectangle" fill="#C4C4C4" fill-rule="nonzero" x="114.074" y="93.092" width="8.51958" height="6.20614"></rect>
            <rect id="Rectangle" fill="#C4C4C4" fill-rule="nonzero" x="114.074" y="108.607" width="8.51958" height="6.20614"></rect>
            <rect id="Rectangle" fill="#C4C4C4" fill-rule="nonzero" x="131.113" y="108.607" width="8.51958" height="6.20614"></rect>
            <rect id="Rectangle" fill="#C4C4C4" fill-rule="nonzero" x="131.113" y="124.123" width="8.51958" height="6.20614"></rect>
            <rect id="Rectangle" fill="#C4C4C4" fill-rule="nonzero" x="114.074" y="124.123" width="8.51958" height="6.20614"></rect>
            <rect id="Rectangle" fill="#C4C4C4" fill-rule="nonzero" x="114.074" y="139.638" width="8.51958" height="6.20614"></rect>
            <rect id="Rectangle" fill="#C4C4C4" fill-rule="nonzero" x="131.113" y="139.638" width="8.51958" height="6.20614"></rect>
            <rect id="Rectangle" fill="#C4C4C4" fill-rule="nonzero" x="131.113" y="155.154" width="8.51958" height="6.20614"></rect>
            <rect id="Rectangle" fill="#C4C4C4" fill-rule="nonzero" x="114.074" y="155.154" width="8.51958" height="6.20614"></rect>
            <polygon id="Path" fill="#F3F2F2" fill-rule="nonzero" points="54 332.267 54 67.7901 126.01 91.4301452 126.01 332.267"></polygon>
            <polygon id="Path" fill="#ECEBEB" fill-rule="nonzero" points="141.17 99.4097 126.01 91.4301452 126.01 332.267 141.17 324.301"></polygon>
            <rect id="Rectangle" fill="#ECEBEB" fill-rule="nonzero" x="65.37" y="102.841" width="9.47498" height="38.2376"></rect>
            <rect id="Rectangle" fill="#ECEBEB" fill-rule="nonzero" x="103.27" y="102.841" width="9.47498" height="38.2376"></rect>
            <rect id="Rectangle" fill="#ECEBEB" fill-rule="nonzero" x="84.3197" y="137.892" width="9.47498" height="38.2376"></rect>
            <rect id="Rectangle" fill="#ECEBEB" fill-rule="nonzero" x="65.37" y="166.571" width="9.47498" height="38.2376"></rect>
            <rect id="Rectangle" fill="#ECEBEB" fill-rule="nonzero" x="99.48" y="166.571" width="9.47498" height="38.2376"></rect>
            <rect id="Rectangle" fill="#ECEBEB" fill-rule="nonzero" x="99.48" y="223.927" width="9.47498" height="38.2376"></rect>
            <rect id="Rectangle" fill="#ECEBEB" fill-rule="nonzero" x="65.37" y="227.114" width="9.47498" height="38.2376"></rect>
            <polygon id="Path" fill="#F7F7F7" fill-rule="nonzero" points="183.723 37.0873 215.306 26.7341 215.306 58.9439 183.723 72.7481"></polygon>
            <polygon id="Path" fill="#E3E3E3" fill-rule="nonzero" points="215.306 57.7936 215.306 26.7341 247.943 27.8845 247.943 69.2971"></polygon>
            <polygon id="Path" fill="#EDEDED" fill-rule="nonzero" points="258.47 329.276 214.253 343.081 215.306 55.4929 258.47 65.8461"></polygon>
            <polygon id="Path" fill="#F9F9F9" fill-rule="nonzero" points="171.09 69.2971 215.306 55.4929 215.306 343.885847 171.09 331.577"></polygon>
            <polygon id="Path" fill="#C4C4C4" fill-rule="nonzero" opacity="0.6" points="224.781 240.699 224.781 57.7936 227.94 58.5485 227.94 240.699"></polygon>
            <polygon id="Path" fill="#C4C4C4" fill-rule="nonzero" opacity="0.6" points="234.256 240.699 234.256 60.0944 237.415 60.8852 237.415 240.699"></polygon>
            <polygon id="Path" fill="#C4C4C4" fill-rule="nonzero" opacity="0.6" points="244.784 240.699 244.784 62.395 247.942 63.5454 247.942 240.699"></polygon>
            <polygon id="Path" fill="#F0F0F0" fill-rule="nonzero" points="320.953 83.8128 278.488 72.5641 269.481 358 320.953 358"></polygon>
            <polygon id="Path" fill="#F2F2F2" fill-rule="nonzero" points="318.38 356.594 318.38 85.2189 375 97.8737 375 356.594"></polygon>
            <rect id="Rectangle" fill="#D5D4D2" fill-rule="nonzero" transform="translate(346.663338, 116.165498) rotate(6.075021) translate(-346.663338, -116.165498) " x="328.915538" y="113.349484" width="35.4956007" height="5.63202784"></rect>
            <rect id="Rectangle" fill="#D5D4D2" fill-rule="nonzero" transform="translate(346.663338, 125.923498) rotate(6.075021) translate(-346.663338, -125.923498) " x="328.915538" y="123.107484" width="35.4956007" height="5.63202784"></rect>
            <rect id="Rectangle" fill="#D5D4D2" fill-rule="nonzero" transform="translate(346.663338, 137.171498) rotate(6.075021) translate(-346.663338, -137.171498) " x="328.915538" y="134.355484" width="35.4956007" height="5.63202784"></rect>
            <rect id="Rectangle" fill="#D5D4D2" fill-rule="nonzero" transform="translate(346.663338, 169.596498) rotate(6.075021) translate(-346.663338, -169.596498) " x="328.915538" y="166.780484" width="35.4956007" height="5.63202784"></rect>
            <rect id="Rectangle" fill="#D5D4D2" fill-rule="nonzero" transform="translate(346.663338, 179.354498) rotate(6.075021) translate(-346.663338, -179.354498) " x="328.915538" y="176.538484" width="35.4956007" height="5.63202784"></rect>
            <rect id="Rectangle" fill="#D5D4D2" fill-rule="nonzero" transform="translate(346.663338, 190.603498) rotate(6.075021) translate(-346.663338, -190.603498) " x="328.915538" y="187.787484" width="35.4956007" height="5.63202784"></rect>
            <rect id="Rectangle" fill="#D5D4D2" fill-rule="nonzero" transform="translate(346.663338, 223.027498) rotate(6.075021) translate(-346.663338, -223.027498) " x="328.915538" y="220.211484" width="35.4956007" height="5.63202784"></rect>
            <rect id="Rectangle" fill="#D5D4D2" fill-rule="nonzero" transform="translate(346.663338, 232.785498) rotate(6.075021) translate(-346.663338, -232.785498) " x="328.915538" y="229.969484" width="35.4956007" height="5.63202784"></rect>
            <rect id="Rectangle" fill="#D5D4D2" fill-rule="nonzero" transform="translate(346.663338, 244.034498) rotate(6.075021) translate(-346.663338, -244.034498) " x="328.915538" y="241.218484" width="35.4956007" height="5.63202784"></rect>
            <rect id="Rectangle" fill="#F4F4F4" fill-rule="nonzero" transform="translate(296.909565, 223.068930) rotate(1.418720) translate(-296.909565, -223.068930) " x="279.170773" y="220.250011" width="35.4775836" height="5.63783803"></rect>
            <rect id="Rectangle" fill="#F4F4F4" fill-rule="nonzero" transform="translate(297.703565, 232.788930) rotate(1.418720) translate(-297.703565, -232.788930) " x="279.964773" y="229.970011" width="35.4775836" height="5.63783803"></rect>
            <rect id="Rectangle" fill="#F4F4F4" fill-rule="nonzero" transform="translate(298.618565, 243.992930) rotate(1.418720) translate(-298.618565, -243.992930) " x="280.879773" y="241.174011" width="35.4775836" height="5.63783803"></rect>
            <rect id="Rectangle" fill="#F4F4F4" fill-rule="nonzero" transform="translate(296.909565, 168.476930) rotate(1.418720) translate(-296.909565, -168.476930) " x="279.170773" y="165.658011" width="35.4775836" height="5.63783803"></rect>
            <rect id="Rectangle" fill="#F4F4F4" fill-rule="nonzero" transform="translate(297.703565, 178.196930) rotate(1.418720) translate(-297.703565, -178.196930) " x="279.964773" y="175.378011" width="35.4775836" height="5.63783803"></rect>
            <rect id="Rectangle" fill="#F4F4F4" fill-rule="nonzero" transform="translate(298.618565, 189.400930) rotate(1.418720) translate(-298.618565, -189.400930) " x="280.879773" y="186.582011" width="35.4775836" height="5.63783803"></rect>
            <rect id="Rectangle" fill="#F4F4F4" fill-rule="nonzero" transform="translate(296.909565, 115.045930) rotate(1.418720) translate(-296.909565, -115.045930) " x="279.170773" y="112.227011" width="35.4775836" height="5.63783803"></rect>
            <rect id="Rectangle" fill="#F4F4F4" fill-rule="nonzero" transform="translate(297.703565, 124.765930) rotate(1.418720) translate(-297.703565, -124.765930) " x="279.964773" y="121.947011" width="35.4775836" height="5.63783803"></rect>
            <rect id="Rectangle" fill="#F4F4F4" fill-rule="nonzero" transform="translate(298.618565, 135.969930) rotate(1.418720) translate(-298.618565, -135.969930) " x="280.879773" y="133.151011" width="35.4775836" height="5.63783803"></rect>
            <path d="M169.543,245.074 C101.202,224.626 11.2809,236.464 0,249.965 L0,358 L375,358 L375,218 C365.073,252.573 257.04,271.253 169.543,245.074 Z" id="Path" fill="#FFFFFF" fill-rule="nonzero"></path>
            <path d="M306.651,155.621 L271.403,153.104 L277.068,132.333 C277.068,132.333 295.322,127.927 288.398,117.856 L293.433,108.414 C295.322,132.962 309.169,129.815 306.651,155.621 Z" id="Path" fill="#FFC487" fill-rule="nonzero"></path>
            <path d="M321.128,228.635 C266.173,223.267 241.796,220.763 239.932,219.194 L240.361992,218 C272.234992,211.457 290.068,214.401 321.128,228.635 Z" id="Path" fill="#1A3A78" fill-rule="nonzero"></path>
            <path d="M266.579381,323.736 C275.244381,319.651 278.490381,317.065 279.676381,315.594 C280.166381,314.987 281.289381,314 282.068381,314 L285.297381,314 C285.697381,314 286.058381,314.238 286.216381,314.606 L287.590381,317.812 C287.745381,318.173 287.675381,318.588 287.389381,318.858 C285.548381,320.593 278.207381,326.676 266.817381,325.504 C265.852381,325.405 265.702381,324.149 266.579381,323.736 Z" id="Path" fill="#9F5617" fill-rule="nonzero"></path>
            <path d="M281,314.589 L282.258,305.148 L286.664,302 C286.035,305.777 285.406,313.582 285.406,314.589 C285.406,315.596 282.468,315.009 281,314.589 Z" id="Path" fill="#FFC589" fill-rule="nonzero"></path>
            <path d="M328.658,312.151 C335.099,305.652 336.547,302.188 336.706,300.484 C336.773,299.769 337.132,298.716 337.789,298.425 L340.978,297.015 C341.344,296.853 341.771,296.925 342.064,297.197 L344.674,299.625 C344.932,299.866 345.05,300.223 344.948,300.561 C343.859,304.171 339.32,309.868 329.62,313.733 C328.637,314.125 327.913,312.903 328.658,312.151 Z" id="Path" fill="#9F5617" fill-rule="nonzero"></path>
            <path d="M337.227,299.593 L333.302,290.914 L335.377,285.913 C336.84,289.451 340.785,296.272 340.966,297.263 C341.314,299.171 338.458,300.524 337.227,299.593 Z" id="Path" fill="#FFC589" fill-rule="nonzero"></path>
            <path d="M281.474,306.684 L251.891,216.676 L249.373,204.087 L287.139,203.458 C283.161,215.05 281.261,224.336 278.956,250.036 C287.328,271.181 287.595,283.451 287.139,305.425 C285.497,307.019 284.305,307.388 281.474,306.684 Z" id="Path" fill="#8DA023" fill-rule="nonzero"></path>
            <path d="M333.087,292.207 L269.845,208.554 L309.798,204.717 L311.057,241.853 L311.33,242.175 C323.475,256.48 330.636,264.915 338.123,290.319 L333.087,292.207 Z" id="Path" fill="#8DA023" fill-rule="nonzero"></path>
            <path d="M334.293,205.108 L325.582,186.414 L323.419,181.824 L316.152,185.248 L330.828,207.675 L331.439,213.315 L333.645,218.985 C334.102,219.719 333.911,220.167 334.525,220.181 C334.929,220.191 335.293,219.941 335.43,219.561 L334.2,215.918 L335.776,216.668 C335.776,216.668 338.413,222.266 338.806,223.101 C339.2,223.935 340.85,223.987 340.473,223.187 C340.096,222.387 337.246,216.336 337.246,216.336 L337.628,216.156 C337.628,216.156 340.43,222.103 340.921,223.146 C341.412,224.189 342.56,223.648 341.959,222.373 C341.359,221.098 338.776,215.616 338.776,215.616 L339.158,215.435 C339.158,215.435 341.818,221.08 342.101,221.683 C342.385,222.286 343.336,221.328 342.829,220.25 C342.321,219.172 339.945,214.13 339.945,214.13 L340.328,213.95 C340.328,213.95 342.31,218.157 342.67,218.922 C343.031,219.687 343.998,218.764 343.277,217.234 C342.557,215.704 340.574,211.496 340.574,211.496 L334.293,205.108 Z" id="Path" fill="#FFC487" fill-rule="nonzero"></path>
            <path d="M287.139,127.927 C265.279,131.249 255.437,159.484 239.932,219.194 C268.213,211.108 286.22,213.961 321.128,228.635 L312.316,171.357 C314.813,184.691 313.262,184.688 323.016,196.534 L328.681,192.128 C322.036,155.037 317.687,132.546 299.098,127.297 L301.616,132.333 L283.992,149.956 L280.845,131.703 L287.139,127.927 Z" id="Path" fill="#234EA0" fill-rule="nonzero"></path>
            <path d="M233.105,145.383 C241.728,144.77 240.708229,157.80887 251.291229,178.67887 L254.820322,168.043581 L241.82,144.922 L240.561,138.627 C239.353,143.326 238.484,144.177 236.785,144.292 C236.785,144.292 232.828718,135.09772 230.614718,133.84172 C230.168718,133.58872 229.796,133.872 229.688,134.373 C228.325,140.71 229.125,141.558 230.886,144.349 C231.351,145.087 232.235,145.445 233.105,145.383 Z" id="Path" fill="#FFC589" fill-rule="nonzero"></path>
            <path d="M356.376,90.7904 C333.78637,98.9603755 320.953,101.692025 297.824566,91.5432995 L297.370124,92.5362416 C317.106124,104.993542 330.879,103.766 358.264,93.9376 L355.086154,93.1582857 L356.376,90.7904 Z" id="Path" fill="#405FD3" fill-rule="nonzero"></path>
            <path d="M358.915572,116.221656 C334.3213,110.506059 322.88206,128.597737 297.370124,93.5184875 L297.370124,92.3928764 C320.259981,120.258276 340.865033,109.622506 359.491146,112.174708 C359.491146,112.174708 358.673331,112.740165 357.037699,113.871079 C358.289614,115.400691 358.915572,116.184217 358.915572,116.221656 Z" id="Path" fill="#FFD800" fill-rule="nonzero"></path>
            <line x1="281.474" y1="110.303" x2="287.768" y2="146.18" id="Path" stroke="#FFFFFF"></line>
            <path d="M285.591,120.338 C283.167,119.59 276.717,107.961 279.586,97.0847 C282.694698,98.5035472 285.002698,99.6048741 286.51,100.388681 C288.499365,101.423163 291.436365,103.049269 295.321,105.267 C295.743,112.001 288.072,119.952 286.171,120.385 C285.982,120.429 285.776,120.395 285.591,120.338 Z" id="Path" fill="#FFC487" fill-rule="nonzero"></path>
            <path d="M280.845,105.897 C279.713,105.503 279.241,105.443 278.956,105.897" id="Path" stroke="#A0522D"></path>
            <path d="M284.621,105.897 C285.691,105.55 286.256,105.594 287.139,106.526" id="Path" stroke="#A0522D"></path>
            <path d="M283.992,115.338 C285.201,115.714 285.724,115.497 286.51,114.709" id="Path" stroke="#FF3A00"></path>
            <ellipse id="Oval" fill="#723969" fill-rule="nonzero" cx="285.88" cy="108.414" rx="1" ry="1.25886"></ellipse>
            <ellipse id="Oval" fill="#723969" fill-rule="nonzero" cx="280.845" cy="108.414" rx="1" ry="1.25886"></ellipse>
            <polygon id="Path" fill="#FFAF5B" fill-rule="nonzero" points="283.289 112.314 282.009 112.314 282.862 109.754 283.289 109.754 283.289 110.607"></polygon>
            <path d="M279.586,98.9731 C283.312,97.5909 293.292,103.663 294.692,109.044 C298.034,104.735 298.079,100.482 297.21,92.0494 C303.504,87.6432 290.915,80.0901 290.286,89.5317 C287.139,90.7906 285.298,90.2076 280.845,95.826 C275.404,95.9943 273.371,97.2151 273.921,104.009 C275.581,100.66 279.586,98.9731 279.586,98.9731 Z" id="Path" fill="#A0522D" fill-rule="nonzero"></path>
            <polygon id="Path" fill="#405FD3" fill-rule="nonzero" points="289.987921 89.4660672 290.354158 88.8678218 297.824566 91.5432995 297.434832 92.5362416"></polygon>
            <polygon id="Path" fill="#6CA1FF" fill-rule="nonzero" points="235.896 143.921 230.232 123.15 238.414 123.15 244.079 143.921"></polygon>
            <polygon id="Path" fill="#405FD3" fill-rule="nonzero" points="234.896 144.921 229.232 124.15 237.414 124.15 243.079 144.921"></polygon>
            <path d="M236.468,135.692 L230.397,133.762 C230.132,133.678 229.861,133.876 229.861,134.154 C229.861,134.198 229.868,134.242 229.882,134.284 L230.398,135.832 C230.455,136.003 230.6,136.13 230.777,136.165 L236.299,137.235 C236.635,137.301 236.936,137.017 236.89,136.678 L236.812,136.101 C236.786,135.91 236.652,135.75 236.468,135.692 Z" id="Path" fill="#FFC589" fill-rule="nonzero"></path>
            <path d="M236.382,137.618 L230.404,136.235 C230.126,136.171 229.861,136.382 229.861,136.667 C229.861,136.714 229.869,136.762 229.884,136.807 L230.387,138.317 C230.45,138.505 230.618,138.639 230.816,138.657 L236.224,139.152 C236.517,139.179 236.77,138.948 236.77,138.654 L236.77,138.105 C236.77,137.873 236.609,137.671 236.382,137.618 Z" id="Path" fill="#FFC589" fill-rule="nonzero"></path>
            <path d="M236.13,139.565 L230.407,138.709 C230.12,138.666 229.861,138.888 229.861,139.179 C229.861,139.23 229.869,139.281 229.885,139.33 L230.372,140.789 C230.442,141 230.643,141.139 230.865,141.13 L236.076,140.928 C236.344,140.917 236.556,140.697 236.556,140.428 L236.556,140.059 C236.556,139.812 236.375,139.601 236.13,139.565 Z" id="Path" fill="#FFC589" fill-rule="nonzero"></path>
            <path d="M236.071,141.322 L230.375,141.159 C230.094,141.151 229.861,141.377 229.861,141.659 L229.861,141.693 C229.861,141.747 229.87,141.8 229.887,141.851 L230.355,143.255 C230.433,143.489 230.67,143.631 230.914,143.589 L236.141,142.688 C236.381,142.646 236.556,142.438 236.556,142.195 L236.556,141.822 C236.556,141.551 236.341,141.33 236.071,141.322 Z" id="Path" fill="#FFC589" fill-rule="nonzero"></path>
            <circle id="Oval" fill="#FFFFFF" fill-rule="nonzero" cx="294.062" cy="109.673" r="2.51771"></circle>
            <path d="M294.063,109.673 C282.454,195.115 259.444,228.006 240.561,146.18" id="Path" stroke="#FFFFFF"></path>
            <polygon id="Path" fill="#F4F4F4" fill-rule="nonzero" points="238.673 144.874 241.556 144.874 242.012 148.623 239.932 148.698"></polygon>
            <polygon id="Path-2" fill="#FFD800" points="289.114952 89.9496384 290.024028 89.4283243 297.479061 92.5133229 297.370124 93.5184875"></polygon>
        </g>
    </g>
</svg>