<?xml version="1.0" encoding="UTF-8"?>
<svg width="244px" height="244px" viewBox="0 0 244 244" version="1.1" xmlns="http://www.w3.org/2000/svg" xmlns:xlink="http://www.w3.org/1999/xlink">
    <title>telegram_white</title>
    <defs>
        <linearGradient x1="66%" y1="43.7%" x2="85.1%" y2="80.2%" id="linearGradient-1">
            <stop stop-color="#EFF7FC" offset="0%"></stop>
            <stop stop-color="#FFFFFF" offset="100%"></stop>
        </linearGradient>
    </defs>
    <g id="Page-1" stroke="none" stroke-width="1" fill="none" fill-rule="evenodd">
        <g id="telegram" transform="translate(2.000000, 2.000000)" fill-rule="nonzero">
            <path d="M120,0 C186.27417,0 240,53.72583 240,120 C240,186.27417 186.27417,240 120,240 C53.72583,240 0,186.27417 0,120 C0,53.72583 53.72583,0 120,0 Z M120,10 C59.2486775,10 10,59.2486775 10,120 C10,180.751322 59.2486775,230 120,230 C180.751322,230 230,180.751322 230,120 C230,59.2486775 180.751322,10 120,10 Z" id="Combined-Shape" fill="#D9DFF6"></path>
            <path d="M98,175 C94.112,175 94.773,173.532 93.432,169.83 L82,132.207 L170,80" id="Path" fill="#C8DAEA"></path>
            <path d="M98,175 C101,175 102.325,173.628 104,172 L120,156.442 L100.042,144.407" id="Path" fill="#A9C9DD"></path>
            <path d="M100.04,144.41 L148.4,180.139 C153.919,183.184 157.901,181.607 159.276,175.016 L178.961,82.253 C180.976,74.173 175.881,70.507 170.601,72.904 L55.011,117.475 C47.121,120.64 47.168,125.042 53.573,127.003 L83.236,136.262 L151.909,92.937 C155.151,90.971 158.127,92.027 155.685,94.195" id="Path" fill="url(#linearGradient-1)"></path>
        </g>
    </g>
</svg>