<svg width="742" height="1092" viewBox="0 0 742 1092" fill="none" xmlns="http://www.w3.org/2000/svg">
<path opacity="0.15" fill-rule="evenodd" clip-rule="evenodd" d="M328.083 437.909C321.942 419.946 287.922 422.873 288.088 372.842C288.337 297.513 395.731 306.457 402.262 249.718C408.793 192.982 339.758 194.116 337.785 146.237C335.812 98.3569 388.641 -0.255307 468.28 0.000496709C531.075 0.202491 478.801 76.255 529.363 110.503C579.924 144.751 637.955 101.27 666.417 154.961C705.623 228.918 731.276 307.516 741.037 364.145C750.795 420.777 683.136 417.332 684.733 479.525C686.33 541.72 600.368 552.386 608.279 605.739C613.267 639.371 667.683 628.322 670.308 694.616C672.53 750.744 485.462 819.585 345.509 704.933C205.555 590.281 351.531 506.463 328.083 437.909Z" fill="#405FD3"/>
<path d="M488.674 444.654H376.61V479.658H488.674V444.654Z" fill="#D7D7D7"/>
<path d="M520.938 503.364H344.335V550.159H520.938V503.364Z" fill="#D7D7D7"/>
<path d="M456.412 444.654H441.153V479.658H456.412V444.654Z" fill="#ECEBEB"/>
<path d="M448.785 444.654H441.153V479.658H448.785V444.654Z" fill="#C4C4C4"/>
<path d="M488.681 444.654H473.424V479.658H488.681V444.654Z" fill="#ECEBEB"/>
<path d="M481.055 444.654H473.424V479.658H481.055V444.654Z" fill="#C4C4C4"/>
<path d="M424.142 444.654H408.885V479.658H424.142V444.654Z" fill="#ECEBEB"/>
<path d="M416.51 444.654H408.885V479.658H416.51V444.654Z" fill="#C4C4C4"/>
<path d="M391.879 444.654H376.615V479.658H391.879V444.654Z" fill="#ECEBEB"/>
<path d="M384.247 444.654H376.615V479.658H384.247V444.654Z" fill="#C4C4C4"/>
<path d="M478.368 387.113H387.262C382.8 387.113 379.184 390.07 379.184 393.718V406.929H486.448V393.718C486.446 390.07 482.83 387.113 478.368 387.113Z" fill="#B1B1B1"/>
<path d="M432.815 347.202C410.167 347.202 391.807 365.07 391.807 387.113H473.823C473.823 365.07 455.463 347.202 432.815 347.202Z" fill="#C4C4C4"/>
<path d="M442.855 348.412C417.072 342.097 391.807 360.995 391.807 387.113H416.512C416.514 368.442 427.719 352.771 442.855 348.412Z" fill="#B1B1B1"/>
<path d="M456.411 503.364H441.148V550.159H456.411V503.364Z" fill="#ECEBEB"/>
<path d="M448.785 503.364H441.153V550.159H448.785V503.364Z" fill="#C4C4C4"/>
<path d="M488.681 503.364H473.424V550.159H488.681V503.364Z" fill="#ECEBEB"/>
<path d="M481.055 503.364H473.424V550.159H481.055V503.364Z" fill="#C4C4C4"/>
<path d="M520.943 503.364H505.687V550.159H520.943V503.364Z" fill="#ECEBEB"/>
<path d="M514.038 503.364H505.691V550.159H514.038V503.364Z" fill="#D7D7D7"/>
<path d="M424.142 503.364H408.88V550.159H424.142V503.364Z" fill="#ECEBEB"/>
<path d="M416.516 503.364H408.885V550.159H416.516V503.364Z" fill="#C4C4C4"/>
<path d="M391.873 503.364H376.615V550.159H391.873V503.364Z" fill="#ECEBEB"/>
<path d="M384.247 503.364H376.615V550.159H384.247V503.364Z" fill="#C4C4C4"/>
<path d="M471.093 387.113H455.837V406.931H471.093V387.113Z" fill="#828282"/>
<path d="M440.451 387.113H425.188V406.931H440.451V387.113Z" fill="#828282"/>
<path d="M409.796 387.113H394.534V406.931H409.796V387.113Z" fill="#828282"/>
<path d="M359.603 503.364H344.347V550.159H359.603V503.364Z" fill="#ECEBEB"/>
<path d="M351.977 503.364H344.347V550.159H351.977V503.364Z" fill="#C4C4C4"/>
<path d="M432.815 408.019L486.142 429.668V406.932H379.488V429.668L432.815 408.019Z" fill="#C4C4C4"/>
<path d="M394.865 406.932H379.488V429.668L394.865 423.425V406.932Z" fill="#C4C4C4"/>
<path d="M488.348 410.549H377.872C375.428 410.549 373.448 408.929 373.448 406.931C373.448 404.932 375.428 403.312 377.872 403.312H488.346C490.79 403.312 492.77 404.932 492.77 406.931C492.772 408.929 490.792 410.549 488.348 410.549Z" fill="#969696"/>
<path d="M432.642 406.931C432.642 404.932 434.623 403.312 437.065 403.312H377.872C375.428 403.312 373.448 404.932 373.448 406.931C373.448 408.929 375.428 410.549 377.872 410.549H437.065C434.623 410.549 432.642 408.929 432.642 406.931Z" fill="#828282"/>
<path d="M332.508 490.706V491.766L344.121 504.243H521.507L533.121 491.766V490.706H332.508Z" fill="#969696"/>
<path d="M347.885 490.706H332.508V491.766L344.121 504.243H359.496L347.885 491.766V490.706Z" fill="#828282"/>
<path d="M494.806 432.221H370.823L368.859 433.018V439.707C368.859 442.901 372.023 445.49 375.927 445.496H489.702C493.606 445.49 496.768 442.901 496.768 439.707V433.018L494.806 432.221Z" fill="#B1B1B1"/>
<path d="M389.8 439.707V433.018L391.764 432.221H370.823L368.859 433.018V439.707C368.859 442.901 372.023 445.49 375.927 445.496H396.868C392.964 445.49 389.8 442.901 389.8 439.707Z" fill="#828282"/>
<path d="M437.624 409.007C433.315 407.257 429.483 408.436 428.348 408.866L368.86 433.019H496.769L437.624 409.007Z" fill="#C4C4C4"/>
<path d="M437.624 409.007C433.315 407.257 429.483 408.436 428.348 408.866L368.86 433.019H395.125L445.946 412.385L437.624 409.007Z" fill="#8E8E8E"/>
<path d="M526.043 479.288H339.586C335.676 479.288 332.508 481.879 332.508 485.077V491.766H533.121V485.077C533.121 481.879 529.952 479.288 526.043 479.288Z" fill="#B1B1B1"/>
<path d="M354.961 479.288H339.586C335.676 479.288 332.508 481.879 332.508 485.077V491.766H347.883V485.077C347.885 481.879 351.054 479.288 354.961 479.288Z" fill="#828282"/>
<path d="M434.747 330.4H432.815V347.781H434.747V330.4Z" fill="#B1B1B1"/>
<path d="M432.815 324.607C448.894 332.095 451.256 328.347 457.934 324.607C456.345 332.657 456.508 335.843 457.934 340.057C449.101 344.64 443.558 344.438 432.815 340.057V324.607Z" fill="#C4C4C4"/>
<path opacity="0.5" fill-rule="evenodd" clip-rule="evenodd" d="M197.209 31C180.524 31 167 44.0535 167 60.1558V105.814C167 121.917 180.524 134.97 197.209 134.97H201.67V150.967C201.67 155.67 207.414 158.178 211.074 155.073L234.762 134.97H300.235C316.919 134.97 330.443 121.917 330.443 105.814V60.1558C330.443 44.0535 316.919 31 300.235 31H197.209Z" fill="#405FD3"/>
<path opacity="0.5" d="M346.676 215C354.694 215 361.194 221.179 361.194 228.802V255.211C361.194 262.834 354.694 269.013 346.676 269.013H342.91V277.882C342.91 280.106 340.15 281.294 338.391 279.824L325.458 269.013H289.517C281.499 269.013 275 262.834 275 255.211V228.802C275 221.179 281.499 215 289.517 215H346.676Z" fill="#405FD3"/>
<path d="M36.5138 672.124L57.4614 595.735L62.6944 576.963L92.4173 585.249L51.2853 679.613L52.6006 701.362L47.9009 724.253C46.6406 727.325 47.6545 728.899 45.3378 729.349C43.8148 729.645 42.2736 728.933 41.5114 727.582L43.8224 712.996L38.3404 716.85C38.3404 716.85 31.9575 739.747 31.0062 743.16C30.0548 746.573 23.8398 747.829 24.7515 744.559C25.6632 741.288 32.5615 716.542 32.5615 716.542L30.9971 716.106C30.9971 716.106 24.2178 740.425 23.0286 744.691C21.8393 748.957 17.1463 747.649 18.5998 742.435C20.0533 737.221 26.304 714.797 26.304 714.797L24.7396 714.361C24.7396 714.361 18.304 737.448 17.6168 739.913C16.9297 742.378 12.7123 739.363 13.9413 734.955C15.1702 730.546 20.9187 709.924 20.9187 709.924L19.3543 709.488C19.3543 709.488 14.5572 726.697 13.6851 729.825C12.8131 732.954 8.55605 730.081 10.3003 723.824C12.0445 717.567 16.8415 700.359 16.8415 700.359L36.5138 672.124Z" fill="#FFC487"/>
<path d="M343.052 1028.77C295.129 1017.9 285.726 1009.34 283.975 1005.86C283.625 1005.16 282.656 1004.36 281.892 1004.52L265.456 1007.91C265.065 1007.99 264.759 1008.3 264.679 1008.69L261.691 1023.35C261.612 1023.73 261.751 1024.12 262.079 1024.34C266.575 1027.33 299.929 1047.93 343.246 1030.65C344.146 1030.29 343.998 1028.98 343.052 1028.77Z" fill="#590743"/>
<path d="M281.541 1004.59L270.876 974.083L254.076 966.651C258.76 978.767 266.21 1004.27 266.901 1007.61C267.593 1010.96 276.949 1006.99 281.541 1004.59Z" fill="#FFC589"/>
<path d="M274.696 982.016L311.192 662.646L310.914 619.091L185.003 642.928C206.177 678.711 218.865 708.261 244.168 792.068C230.87 868.071 238.408 909.025 255.01 981.722C261.559 985.888 265.774 986.299 274.696 982.016Z" fill="url(#paint0_linear)"/>
<path d="M119.882 1042.3C80.0616 1014.03 77.9946 1001.27 78.7318 997.336C78.864 996.63 78.4947 995.715 77.8031 995.521L61.3965 990.911C61.0114 990.803 60.5988 990.935 60.3477 991.246L50.9079 1002.95C50.6863 1003.22 50.6208 1003.59 50.7521 1003.91C55.8177 1016.55 76.7735 1036.67 119.19 1044.1C120.232 1044.28 120.745 1042.91 119.882 1042.3Z" fill="#590743"/>
<path d="M76.7577 998.188L85.7518 967.149L76.3707 951.355C73.164 963.942 63.2046 988.753 63.0756 992.167C62.8272 998.741 73.0709 1001.91 76.7577 998.188Z" fill="#FFC589"/>
<path d="M69.2764 967.475L87.0975 971.389L183.4 802.742L234.689 652.058L103.108 668.852L136.799 791.659L136.036 792.872C102.149 846.77 82.1666 878.551 69.2764 967.475Z" fill="url(#paint1_linear)"/>
<path opacity="0.6" d="M233.229 474.136C160.859 377.908 134.227 320.614 165.463 199.538L157.857 194.91C118.539 302.159 140.847 366.915 219.838 486.505L219.424 470.864L233.229 474.136Z" fill="#FF94AE"/>
<path opacity="0.6" d="M113.945 584.967C173.086 392.708 -0.0740204 377.117 170.8 188.72L177.703 190.355C36.4254 365.985 190.947 454.864 135.646 580.219L129.031 565.937L113.945 584.967Z" fill="#FF94AE"/>
<path d="M232.231 318.937L302.553 416.822L276.857 433.79L218.71 318.937L207.25 301.921C205.364 299.121 208.014 295.706 211.411 296.343C217.907 297.561 220.073 295.836 213.301 283.697L215.772 270.824C215.955 269.863 216.367 268.957 216.975 268.175C220.164 264.07 226.821 265.131 228.475 270.006L231.671 279.43C232.043 280.528 232.231 281.676 232.231 282.831V318.937Z" fill="#FFC589"/>
<path d="M117.106 440.317L252.406 430.991L230.663 354.037C230.663 354.037 160.596 337.714 187.173 300.404L167.844 265.426C160.596 356.37 107.441 344.709 117.106 440.317Z" fill="#FFC487"/>
<path d="M383.4 706.179C324.032 479.631 272.373 347.57 188.675 334.964L216.051 354.098L206.889 419.114L139.408 352.246L149.048 333.142C77.8737 353.057 74.404 449.919 48.9592 590.65L82.9632 599.98L72.5056 742C206.166 686.327 275.113 675.499 383.4 706.179Z" fill="#F54C48"/>
<path d="M196.471 312.937C205.289 311.845 231.328 267.801 220.085 226.667C194.515 234.253 181.381 241.087 159.681 256.981C158.017 282.649 189.234 313.089 195.38 313.059C195.746 313.058 196.108 312.982 196.471 312.937Z" fill="#FFC487"/>
<path d="M220.083 233.663C205.779 228.543 167.472 251.04 162.097 270.973C149.268 255.008 149.094 239.254 152.432 208.012C128.272 191.689 176.594 163.706 179.009 198.685C191.09 203.349 198.156 201.189 215.251 222.004C236.137 222.628 243.939 227.15 241.827 252.318C235.457 239.912 220.083 233.663 220.083 233.663Z" fill="#FFB50C"/>
<path d="M182.505 200.055L180.089 195.392C170.268 202.493 163.068 206.146 150.474 207.046L151.745 210.727C164.851 209.694 172.289 206.351 182.505 200.055Z" fill="#FF94AE"/>
<path d="M213.12 258.773C217.466 257.313 219.276 257.094 220.369 258.773" stroke="#FF8B00" stroke-width="2"/>
<path d="M198.624 258.773C194.517 257.49 192.349 257.651 188.96 261.105" stroke="#FF8B00" stroke-width="2"/>
<path d="M208.311 294.139C204.498 297.818 200.52 297.059 197.503 294.139" stroke="#FF3A00" stroke-width="2"/>
<path d="M193.791 272.765C192.456 272.765 191.375 270.677 191.375 268.101C191.375 265.525 192.456 263.437 193.791 263.437C195.125 263.437 196.207 265.525 196.207 268.101C196.207 270.677 195.125 272.765 193.791 272.765Z" fill="#723969"/>
<path d="M213.12 272.765C211.786 272.765 210.704 270.677 210.704 268.101C210.704 265.525 211.786 263.437 213.12 263.437C214.454 263.437 215.536 265.525 215.536 268.101C215.536 270.677 214.454 272.765 213.12 272.765Z" fill="#723969"/>
<path d="M206.405 282.498L203.863 273.91V276.773V282.498H206.405Z" fill="#FFAF5B" stroke="#FFAF5B"/>
<path d="M191.663 249.764C194.281 234.889 197.514 228.446 211.948 226.271L216.004 231.492C205.859 235.474 200.375 238.713 191.663 249.764Z" fill="#FFB50C"/>
<path d="M165.301 288.918C160.968 280.566 159.66 274.905 162.597 260.205L159.892 268.036C157.75 280.145 160.949 282.845 165.301 288.918Z" fill="#FFB50C"/>
<path d="M167.323 281.087C163.476 275.773 162.011 273.475 164.619 264.12L160.562 268.036C158.66 275.742 163.458 277.222 167.323 281.087Z" fill="#FFB50C"/>
<path d="M278.357 410.657L295.35 395.098L317.438 460.826C317.754 461.769 317.233 462.781 316.266 463.11L299.126 468.899L278.357 410.657Z" fill="#F54C48"/>
<path d="M171.448 280.044C176.714 280.044 180.982 275.924 180.982 270.843C180.982 265.761 176.714 261.641 171.448 261.641C166.183 261.641 161.915 265.761 161.915 270.843C161.915 275.924 166.183 280.044 171.448 280.044Z" fill="white"/>
<path d="M168.508 278C165.779 308.86 165.368 331.057 167.686 350.219C169.958 369.002 174.847 384.834 182.696 403.029C182.54 497.128 178.611 541.57 171.528 564.641C166.418 581.281 159.976 587.205 152.45 594.127C149.559 596.787 140.157 612.442 136.959 616.059L138.41 617.251C141.427 613.839 150.732 598.274 153.581 595.652C161.218 588.626 168.093 582.302 173.356 565.162C180.55 541.731 184.351 497.018 184.482 402.385C184.602 402.661 184.361 402.107 184.482 402.385C184.482 402.385 183.861 399.706 183.901 397.334C183.954 394.146 184.497 389.546 185.755 382.567C188.27 368.621 195.487 348.493 205.315 308.424L203.459 308C193.634 348.06 186.403 368.243 183.877 382.252C182.712 388.711 182.142 393.226 182.017 396.504C175.637 380.8 171.582 366.558 169.58 350.006C167.284 331.024 167.682 308.972 170.408 278.156L168.508 278Z" fill="white"/>
<path d="M489.635 89.5291H507.267V123.568H489.635V89.5291Z" fill="#C4C4C4"/>
<path d="M639.525 293.761V361.84H657.158L683.609 327.801L639.525 293.761Z" fill="#B9B9B9"/>
<path d="M472 149.097V115.058H516.086V140.587H498.451L542.535 234.194L507.268 268.232L472 149.097Z" fill="#D7D7D7"/>
<path d="M648.139 361.92L674.576 310.886L709.829 327.897L683.388 378.931L648.139 361.92Z" fill="#ECEBEB"/>
<path d="M568.989 191.646H621.891V234.194C621.891 240.964 619.102 247.458 614.142 252.246C609.181 257.033 602.454 259.724 595.438 259.724C588.423 259.724 581.696 257.033 576.734 252.246C571.773 247.458 568.989 240.964 568.989 234.194V191.646Z" fill="#ECEBEB"/>
<path d="M507.267 268.232L542.535 234.194L628.843 275.843C634.702 278.671 639.628 283.016 643.071 288.394C646.515 293.772 648.339 299.967 648.339 306.29V523.522H507.267V268.232Z" fill="#ECEBEB"/>
<path d="M627.502 431.811L633.979 429.31C635.771 428.617 637.277 427.378 638.27 425.779C639.264 424.182 639.684 422.313 639.471 420.462L621.838 267.287C621.629 265.461 620.814 263.75 619.511 262.408C618.212 261.067 616.496 260.167 614.622 259.846C612.749 259.521 610.818 259.793 609.116 260.619C607.415 261.443 606.036 262.779 605.186 264.423L582.064 309.056C563.001 345.864 536.256 378.473 503.515 404.832C503.265 405.03 503.061 405.278 502.912 405.554C502.76 405.832 502.665 406.135 502.639 406.443C502.61 406.756 502.643 407.071 502.739 407.368C502.836 407.668 502.994 407.944 503.201 408.183L511.336 417.6C511.755 418.084 512.358 418.389 513.009 418.446C513.659 418.503 514.31 418.307 514.812 417.902C549.429 390.036 577.701 355.561 597.854 316.644L607.606 297.816L621.2 415.909L588.635 428.484L602.533 354.71C602.949 352.49 602.436 350.201 601.107 348.347C599.775 346.492 597.737 345.224 595.438 344.82C593.138 344.417 590.767 344.912 588.844 346.196C586.922 347.48 585.608 349.449 585.189 351.668L569.129 436.915C568.72 439.08 569.201 441.313 570.465 443.147L582.072 459.953L512.182 486.932C511.106 487.345 510.125 487.963 509.296 488.742C508.467 489.523 507.808 490.454 507.351 491.48C506.895 492.509 506.653 493.613 506.638 494.729C506.624 495.846 506.84 496.956 507.269 497.995C507.699 499.031 508.336 499.978 509.144 500.78C509.953 501.579 510.917 502.217 511.982 502.659C513.046 503.098 514.189 503.334 515.348 503.346C516.506 503.36 517.657 503.152 518.73 502.739L557.4 487.81L551.352 523.522L568.868 524.923L576.554 480.412L598.705 471.858C599.924 471.388 601.02 470.662 601.909 469.732C602.802 468.801 603.465 467.691 603.854 466.48C604.244 465.27 604.349 463.994 604.16 462.738C603.974 461.487 603.499 460.289 602.769 459.236L593.019 445.121L609.687 438.688L635.873 463.955C637.527 465.552 639.768 466.446 642.106 466.446C644.445 466.446 646.689 465.552 648.341 463.955C649.995 462.358 650.922 460.195 650.922 457.939C650.922 455.682 649.995 453.518 648.341 451.921L627.502 431.811Z" fill="#C4C4C4"/>
<path d="M513.931 334.395C527.907 329.003 540.643 321.01 551.413 310.866C562.183 300.724 570.78 288.631 576.707 275.282L585.907 254.567L569.707 247.865L560.501 268.571C555.485 279.867 548.212 290.099 539.098 298.679C529.984 307.263 519.21 314.027 507.387 318.589C506.94 318.761 506.533 319.014 506.19 319.339C505.848 319.663 505.573 320.047 505.384 320.472C505.195 320.9 505.093 321.356 505.088 321.818C505.082 322.282 505.171 322.742 505.349 323.171L509.183 332.426C509.361 332.855 509.624 333.248 509.96 333.579C510.293 333.911 510.693 334.176 511.134 334.358C511.576 334.54 512.05 334.639 512.53 334.645C513.008 334.649 513.484 334.565 513.931 334.393V334.395Z" fill="#C4C4C4"/>
<path d="M480.818 81.0194C480.818 85.5331 482.673 89.8621 485.982 93.0538C489.29 96.2455 493.774 98.0386 498.453 98.0386C503.128 98.0386 507.614 96.2455 510.92 93.0538C514.228 89.8621 516.086 85.5331 516.086 81.0194V79.5588C516.086 75.0454 517.943 70.7167 521.249 67.5251L524.902 64H498.453C493.774 64 489.29 65.7931 485.982 68.9848C482.673 72.1766 480.818 76.5056 480.818 81.0194Z" fill="#ECEBEB"/>
<path d="M483.199 89.4134C485.11 92.6822 488.089 95.247 491.673 96.7059C495.256 98.1649 499.239 98.4356 503.001 97.4762C506.759 96.5166 510.083 94.3806 512.451 91.4028C514.82 88.4249 516.096 84.7732 516.086 81.0197V79.5591C516.088 78.4051 516.211 77.2543 516.457 76.1245C507.333 84.1904 495.557 88.8957 483.199 89.4134Z" fill="#A1A1A1"/>
<path d="M655.042 365.073L683.607 378.859L710.058 327.801L698.121 322.039C687.229 339.278 672.519 353.974 655.042 365.073Z" fill="#C4C4C4"/>
<path d="M628.681 207.06C626.331 203.748 623.228 201 619.61 199.029C607.584 192.323 588.517 191.762 575.937 196.122C569.7 198.062 564.28 201.898 560.484 207.06C560.063 203.558 560.205 200.015 560.904 196.555C561.733 191.99 563.759 187.707 566.786 184.113C573.484 176.464 583.982 173.915 594.53 173.915C615.022 173.915 625.069 183.068 627.918 195.408C628.845 199.223 629.104 203.162 628.681 207.06Z" fill="#828282"/>
<path d="M602.1 174.374C597.074 173.763 591.989 173.763 586.963 174.374L591.498 145.869C591.74 144.424 593.029 143.363 594.544 143.363C596.058 143.363 597.349 144.424 597.589 145.869L602.1 174.374Z" fill="#ECEBEB"/>
<path d="M634.09 154.156C634.09 154.921 634.853 152.804 622.302 184.063C618.833 180.135 614.249 177.279 609.114 175.853L628.682 152.295C629.503 151.345 630.849 150.99 632.056 151.405C633.263 151.82 634.073 152.918 634.09 154.156Z" fill="#ECEBEB"/>
<path d="M579.972 175.853C574.838 177.275 570.251 180.131 566.787 184.063L555.183 155.227C554.66 153.862 555.235 152.332 556.538 151.607C557.843 150.882 559.499 151.172 560.458 152.294L579.972 175.853Z" fill="#ECEBEB"/>
<path d="M566.655 184.114C563.905 187.428 562.006 191.325 561.116 195.485L542.972 181.768C541.763 180.871 541.423 179.25 542.172 177.967C542.921 176.684 544.534 176.131 545.952 176.668L566.655 184.114Z" fill="#ECEBEB"/>
<path d="M645.825 181.768L627.919 195.409C627.018 191.269 625.111 187.397 622.353 184.114L642.845 176.643C644.279 176.054 645.944 176.602 646.707 177.916C647.472 179.23 647.091 180.889 645.825 181.768Z" fill="#ECEBEB"/>
<path d="M644.506 204.893C623.169 208.106 630.58 207.086 628.682 207.086C629.098 203.593 628.957 200.058 628.261 196.607L644.611 199.156C645.965 199.51 646.897 200.708 646.873 202.065C646.848 203.421 645.873 204.587 644.506 204.893Z" fill="#ECEBEB"/>
<path d="M594.399 193.242C593.317 207.698 575.278 208.998 560.377 207.086C560.377 206.704 565.019 199.947 575.832 196.123C581.798 194.119 588.082 193.144 594.399 193.242Z" fill="#C4C4C4"/>
<path d="M560.484 207.06C558.795 207.06 565.177 208.004 544.423 204.893L542.656 199.794C543.553 198.927 543.103 199.208 560.906 196.556C560.213 200.016 560.069 203.559 560.484 207.06Z" fill="#ECEBEB"/>
<path d="M628.682 206.88C622.511 207.772 616.235 207.772 610.064 206.88C597.591 204.713 594.978 197.548 594.635 192.985C604.141 192.709 613.514 195.177 621.563 200.073C624.409 201.826 626.837 204.147 628.682 206.88Z" fill="#C4C4C4"/>
<path d="M579.075 207.06C578.601 214.709 573.512 220.242 560.616 219.808C559.852 219.77 559.144 219.414 558.674 218.832C558.202 218.25 558.017 217.499 558.163 216.774C560.115 207.774 560.115 207.366 560.115 207.06C566.401 207.959 572.789 207.959 579.075 207.06Z" fill="#C4C4C4"/>
<path d="M630.871 216.361C631.031 217.12 630.826 217.908 630.313 218.503C629.8 219.099 629.035 219.436 628.234 219.42C615.761 219.573 610.538 214.321 610.064 206.672C616.325 207.541 622.685 207.541 628.946 206.672C628.92 206.697 629.5 209.579 630.871 216.361Z" fill="#C4C4C4"/>
<path d="M586.488 225.838H581.212C579.757 225.838 578.575 224.697 578.575 223.29C578.575 221.882 579.757 220.741 581.212 220.741H586.488C587.943 220.741 589.125 221.882 589.125 223.29C589.125 224.697 587.943 225.838 586.488 225.838Z" fill="#C4C4C4"/>
<path d="M607.585 225.838H602.311C600.854 225.838 599.674 224.697 599.674 223.29C599.674 221.882 600.854 220.741 602.311 220.741H607.585C609.042 220.741 610.222 221.882 610.222 223.29C610.222 224.697 609.042 225.838 607.585 225.838Z" fill="#C4C4C4"/>
<path d="M597.036 246.235H591.761C590.304 246.235 589.124 245.094 589.124 243.687C589.124 242.279 590.304 241.138 591.761 241.138H597.036C598.493 241.138 599.673 242.279 599.673 243.687C599.673 245.094 598.493 246.235 597.036 246.235Z" fill="#C4C4C4"/>
<path d="M595.136 238.588C594.313 238.695 593.478 238.504 592.79 238.053C590.629 236.947 589.539 234.552 590.153 232.265L591.762 225.228C591.957 224.313 592.655 223.574 593.58 223.304C594.504 223.033 595.509 223.273 596.197 223.93C596.884 224.586 597.145 225.554 596.878 226.452L595.136 233.489C596.593 233.489 597.773 234.63 597.773 236.038C597.773 237.447 596.593 238.588 595.136 238.588Z" fill="#C4C4C4"/>
<path d="M613.604 267.408L609.744 268.161C607.517 268.59 605.202 268.316 603.164 267.384L581.394 257.303C580.606 256.996 579.742 257.303 575.806 254.47V242.566C579.566 248.911 585.23 253.941 593.765 254.717C602.3 253.941 607.94 248.911 611.699 242.589L613.604 267.408Z" fill="#828282"/>
<path d="M632.074 262.72L613.454 266.374L611.552 241.794C613.214 238.887 620.848 217.963 621.813 214.789L624.891 232.646L632.074 262.72Z" fill="#C4C4C4"/>
<path d="M577.69 246.533L575.467 254.469L564.35 243.325L568.455 213.796C569.633 217.616 575.533 243.05 577.69 246.533Z" fill="#C4C4C4"/>
<rect x="113.364" y="588" width="59" height="18" transform="rotate(24.1481 113.364 588)" fill="#FF7E9F"/>
<defs>
<linearGradient id="paint0_linear" x1="247.52" y1="630.009" x2="318.626" y2="974.12" gradientUnits="userSpaceOnUse">
<stop stop-color="#FF7799"/>
<stop offset="1" stop-color="#FF8CA9"/>
</linearGradient>
<linearGradient id="paint1_linear" x1="140.029" y1="663.908" x2="182.22" y2="957.729" gradientUnits="userSpaceOnUse">
<stop stop-color="#FF86A3"/>
<stop offset="1" stop-color="#FFA8BD"/>
</linearGradient>
</defs>
</svg>
