<svg width="375" height="358" viewBox="0 0 375 358" fill="none" xmlns="http://www.w3.org/2000/svg">
<path d="M105.554 32.5822L150.992 0V237.385H105.554V32.5822Z" fill="#F6F6F6"/>
<path d="M150.992 0L185.07 11.0794V235.833H150.992V0Z" fill="#F0F0F0"/>
<rect x="114.074" y="46.546" width="8.51958" height="6.20614" fill="#C4C4C4"/>
<rect x="131.113" y="46.546" width="8.51958" height="6.20614" fill="#C4C4C4"/>
<rect x="131.113" y="62.0614" width="8.51958" height="6.20614" fill="#C4C4C4"/>
<rect x="114.074" y="62.0614" width="8.51958" height="6.20614" fill="#C4C4C4"/>
<rect x="114.074" y="77.5768" width="8.51958" height="6.20614" fill="#C4C4C4"/>
<rect x="131.113" y="77.5768" width="8.51958" height="6.20614" fill="#C4C4C4"/>
<rect x="131.113" y="93.092" width="8.51958" height="6.20614" fill="#C4C4C4"/>
<rect x="114.074" y="93.092" width="8.51958" height="6.20614" fill="#C4C4C4"/>
<rect x="114.074" y="108.607" width="8.51958" height="6.20614" fill="#C4C4C4"/>
<rect x="131.113" y="108.607" width="8.51958" height="6.20614" fill="#C4C4C4"/>
<rect x="131.113" y="124.123" width="8.51958" height="6.20614" fill="#C4C4C4"/>
<rect x="114.074" y="124.123" width="8.51958" height="6.20614" fill="#C4C4C4"/>
<rect x="114.074" y="139.638" width="8.51958" height="6.20614" fill="#C4C4C4"/>
<rect x="131.113" y="139.638" width="8.51958" height="6.20614" fill="#C4C4C4"/>
<rect x="131.113" y="155.154" width="8.51958" height="6.20614" fill="#C4C4C4"/>
<rect x="114.074" y="155.154" width="8.51958" height="6.20614" fill="#C4C4C4"/>
<path d="M54 332.267V67.7901L126.957 91.6887V332.267H54Z" fill="#F3F2F2"/>
<path d="M141.17 99.4097L126.01 90.0954V332.267L141.17 324.301V99.4097Z" fill="#ECEBEB"/>
<rect x="65.37" y="102.841" width="9.47498" height="38.2376" fill="#ECEBEB"/>
<rect x="103.27" y="102.841" width="9.47498" height="38.2376" fill="#ECEBEB"/>
<rect x="84.3197" y="137.892" width="9.47498" height="38.2376" fill="#ECEBEB"/>
<rect x="65.37" y="166.571" width="9.47498" height="38.2376" fill="#ECEBEB"/>
<rect x="99.48" y="166.571" width="9.47498" height="38.2376" fill="#ECEBEB"/>
<rect x="99.48" y="223.927" width="9.47498" height="38.2376" fill="#ECEBEB"/>
<rect x="65.37" y="227.114" width="9.47498" height="38.2376" fill="#ECEBEB"/>
<path d="M183.723 37.0873L215.306 26.7341V58.9439L183.723 72.7481V37.0873Z" fill="#F7F7F7"/>
<path d="M212.148 57.7936V27.8845H247.943V69.2971L212.148 57.7936Z" fill="#E3E3E3"/>
<path d="M258.47 329.276L214.253 343.081L215.306 55.4929L258.47 65.8461V329.276Z" fill="#EDEDED"/>
<path d="M171.09 69.2971L216.359 55.4929V344.231L171.09 331.577V69.2971Z" fill="#F9F9F9"/>
<path opacity="0.6" d="M224.781 240.699V57.7936L227.94 58.5485V240.699H224.781Z" fill="#C4C4C4"/>
<path opacity="0.6" d="M234.256 240.699V60.0944L237.415 60.8852V240.699H234.256Z" fill="#C4C4C4"/>
<path opacity="0.6" d="M244.784 240.699V62.395L247.942 63.5454V240.699H244.784Z" fill="#C4C4C4"/>
<path d="M320.953 83.8128L278.488 72.5641L269.481 358H320.953V83.8128Z" fill="#F0F0F0"/>
<path d="M318.38 356.594V85.2189L375 97.8737V356.594H318.38Z" fill="#F2F2F2"/>
<rect width="35.4956" height="5.63203" transform="matrix(0.996747 0.0805944 -0.106082 0.994357 329.272 111.935)" fill="#D5D4D2"/>
<rect width="35.4956" height="5.63203" transform="matrix(0.996747 0.0805944 -0.106082 0.994357 329.272 121.693)" fill="#D5D4D2"/>
<rect width="35.4956" height="5.63203" transform="matrix(0.996747 0.0805944 -0.106082 0.994357 329.272 132.941)" fill="#D5D4D2"/>
<rect width="35.4956" height="5.63203" transform="matrix(0.996747 0.0805944 -0.106082 0.994357 329.272 165.366)" fill="#D5D4D2"/>
<rect width="35.4956" height="5.63203" transform="matrix(0.996747 0.0805944 -0.106082 0.994357 329.272 175.124)" fill="#D5D4D2"/>
<rect width="35.4956" height="5.63203" transform="matrix(0.996747 0.0805944 -0.106082 0.994357 329.272 186.373)" fill="#D5D4D2"/>
<rect width="35.4956" height="5.63203" transform="matrix(0.996747 0.0805944 -0.106082 0.994357 329.272 218.797)" fill="#D5D4D2"/>
<rect width="35.4956" height="5.63203" transform="matrix(0.996747 0.0805944 -0.106082 0.994357 329.272 228.555)" fill="#D5D4D2"/>
<rect width="35.4956" height="5.63203" transform="matrix(0.996747 0.0805944 -0.106082 0.994357 329.272 239.804)" fill="#D5D4D2"/>
<rect width="35.4776" height="5.63784" transform="matrix(0.999863 -0.0165245 -0.024763 0.999693 279.243 220.544)" fill="#F4F4F4"/>
<rect width="35.4776" height="5.63784" transform="matrix(0.999863 -0.0165245 -0.024763 0.999693 280.037 230.264)" fill="#F4F4F4"/>
<rect width="35.4776" height="5.63784" transform="matrix(0.999863 -0.0165245 -0.024763 0.999693 280.952 241.468)" fill="#F4F4F4"/>
<rect width="35.4776" height="5.63784" transform="matrix(0.999863 -0.0165245 -0.024763 0.999693 279.243 165.952)" fill="#F4F4F4"/>
<rect width="35.4776" height="5.63784" transform="matrix(0.999863 -0.0165245 -0.024763 0.999693 280.037 175.672)" fill="#F4F4F4"/>
<rect width="35.4776" height="5.63784" transform="matrix(0.999863 -0.0165245 -0.024763 0.999693 280.952 186.876)" fill="#F4F4F4"/>
<rect width="35.4776" height="5.63784" transform="matrix(0.999863 -0.0165245 -0.024763 0.999693 279.243 112.521)" fill="#F4F4F4"/>
<rect width="35.4776" height="5.63784" transform="matrix(0.999863 -0.0165245 -0.024763 0.999693 280.037 122.241)" fill="#F4F4F4"/>
<rect width="35.4776" height="5.63784" transform="matrix(0.999863 -0.0165245 -0.024763 0.999693 280.952 133.445)" fill="#F4F4F4"/>
<path d="M169.543 245.074C101.202 224.626 11.2809 236.464 0 249.965V358H375V218C365.073 252.573 257.04 271.253 169.543 245.074Z" fill="white"/>
<path d="M306.651 155.621L271.403 153.104L277.068 132.333C277.068 132.333 295.322 127.927 288.398 117.856L293.433 108.414C295.322 132.962 309.169 129.815 306.651 155.621Z" fill="#FFC487"/>
<path d="M320.499 227.695C265.544 222.327 241.796 219.823 239.932 218.254V217.624C271.805 211.081 289.439 213.461 320.499 227.695Z" fill="#E90022"/>
<path d="M266.503 323.344C275.168 319.259 278.414 316.673 279.6 315.202C280.09 314.595 281.213 313.608 281.992 313.608H285.221C285.621 313.608 285.982 313.846 286.14 314.214L287.514 317.42C287.669 317.781 287.599 318.196 287.313 318.466C285.472 320.201 278.131 326.284 266.741 325.112C265.776 325.013 265.626 323.757 266.503 323.344Z" fill="#590743"/>
<path d="M328.658 312.151C335.099 305.652 336.547 302.188 336.706 300.484C336.773 299.769 337.132 298.716 337.789 298.425L340.978 297.015C341.344 296.853 341.771 296.925 342.064 297.197L344.674 299.625C344.932 299.866 345.05 300.223 344.948 300.561C343.859 304.171 339.32 309.868 329.62 313.733C328.637 314.125 327.913 312.903 328.658 312.151Z" fill="#590743"/>
<path d="M280.845 313.608L282.103 304.167L286.509 301.019C285.88 304.796 285.251 312.601 285.251 313.608C285.251 314.615 282.313 314.028 280.845 313.608Z" fill="#FFC589"/>
<path d="M337.227 299.593L333.302 290.914L335.377 285.913C336.84 289.451 340.785 296.272 340.966 297.263C341.314 299.171 338.458 300.524 337.227 299.593Z" fill="#FFC589"/>
<path d="M281.474 306.684L251.891 216.676L249.373 204.087L287.139 203.458C283.161 215.05 281.261 224.336 278.956 250.036C287.328 271.181 287.595 283.451 287.139 305.425C285.497 307.019 284.305 307.388 281.474 306.684Z" fill="url(#paint0_linear)"/>
<path d="M333.087 292.207L269.845 208.554L309.798 204.717L311.057 241.853L311.33 242.175C323.475 256.48 330.636 264.915 338.123 290.319L333.087 292.207Z" fill="url(#paint1_linear)"/>
<path d="M334.293 205.108L325.582 186.414L323.419 181.824L316.152 185.248L330.828 207.675L331.439 213.315L333.645 218.985C334.102 219.719 333.911 220.167 334.525 220.181C334.929 220.191 335.293 219.941 335.43 219.561L334.2 215.918L335.776 216.668C335.776 216.668 338.413 222.266 338.806 223.101C339.2 223.935 340.85 223.987 340.473 223.187C340.096 222.387 337.246 216.336 337.246 216.336L337.628 216.156C337.628 216.156 340.43 222.103 340.921 223.146C341.412 224.189 342.56 223.648 341.959 222.373C341.359 221.098 338.776 215.616 338.776 215.616L339.158 215.435C339.158 215.435 341.818 221.08 342.101 221.683C342.385 222.286 343.336 221.328 342.829 220.25C342.321 219.172 339.945 214.13 339.945 214.13L340.328 213.95C340.328 213.95 342.31 218.157 342.67 218.922C343.031 219.687 343.998 218.764 343.277 217.234C342.557 215.704 340.574 211.496 340.574 211.496L334.293 205.108Z" fill="#FFC487"/>
<path d="M287.139 127.927C265.279 131.249 255.437 159.484 239.932 219.194C268.213 211.108 286.22 213.961 321.128 228.635L312.316 171.357C314.813 184.691 313.262 184.688 323.016 196.534L328.681 192.128C322.036 155.037 317.687 132.546 299.098 127.297L301.616 132.333L283.992 149.956L280.845 131.703L287.139 127.927Z" fill="#F54C48"/>
<path d="M233.105 145.383C241.728 144.77 241.124 158.45 251.707 179.32L255.038 168.21L241.82 144.922L240.561 138.627C239.353 143.326 238.484 144.177 236.785 144.292C236.785 144.292 232.827 134.893 230.613 133.637C230.167 133.384 229.796 133.872 229.688 134.373C228.325 140.71 229.125 141.558 230.886 144.349C231.351 145.087 232.235 145.445 233.105 145.383Z" fill="#FFC589"/>
<path d="M356.376 90.7904C333.955 100.4 321.326 102.944 298.469 91.4199L297.21 92.6787C316.946 105.136 330.879 103.766 358.264 93.9376L355.117 93.3081L356.376 90.7904Z" fill="#FFAEC3"/>
<path d="M374 122.262C338.123 102.12 327.422 134.85 297.21 93.3081L297.839 92.0493C326.793 127.297 351.341 101.491 374 117.856L370.853 118.485L374 122.262Z" fill="#FFAEC3"/>
<path d="M281.474 110.303L287.768 146.18" stroke="white"/>
<path d="M285.591 120.338C283.167 119.59 276.717 107.961 279.586 97.0847L295.321 105.267C295.743 112.001 288.072 119.952 286.171 120.385C285.982 120.429 285.776 120.395 285.591 120.338Z" fill="#FFC487"/>
<path d="M280.845 105.897C279.713 105.503 279.241 105.443 278.956 105.897" stroke="#FF8B00"/>
<path d="M284.621 105.897C285.691 105.55 286.256 105.594 287.139 106.526" stroke="#FF8B00"/>
<path d="M283.992 115.338C285.201 115.714 285.724 115.497 286.51 114.709" stroke="#FF3A00"/>
<ellipse cx="285.88" cy="108.414" rx="0.629428" ry="1.25886" fill="#723969"/>
<ellipse cx="280.845" cy="108.414" rx="0.629428" ry="1.25886" fill="#723969"/>
<path d="M283.289 112.314H282.009L282.862 109.754H283.289V110.607V112.314Z" fill="#FFAF5B"/>
<path d="M279.586 98.9731C283.312 97.5909 293.292 103.663 294.692 109.044C298.034 104.735 298.079 100.482 297.21 92.0494C303.504 87.6432 290.915 80.0901 290.286 89.5317C287.139 90.7906 285.298 90.2076 280.845 95.826C275.404 95.9943 273.371 97.2151 273.921 104.009C275.581 100.66 279.586 98.9731 279.586 98.9731Z" fill="#FFB50C"/>
<path d="M289.657 90.1609L290.286 88.9021L297.839 91.4198L297.21 93.3081L289.657 90.1609Z" fill="#FFAEC3"/>
<path d="M244.967 144.921H236.785L229.232 124.15L231.12 123.521H239.302L244.967 144.921Z" fill="#6CA1FF"/>
<path d="M234.896 144.921L229.232 124.15H237.414L243.079 144.921H234.896Z" fill="#405FD3"/>
<path d="M236.468 135.692L230.397 133.762C230.132 133.678 229.861 133.876 229.861 134.154C229.861 134.198 229.868 134.242 229.882 134.284L230.398 135.832C230.455 136.003 230.6 136.13 230.777 136.165L236.299 137.235C236.635 137.301 236.936 137.017 236.89 136.678L236.812 136.101C236.786 135.91 236.652 135.75 236.468 135.692Z" fill="#FFC589"/>
<path d="M236.382 137.618L230.404 136.235C230.126 136.171 229.861 136.382 229.861 136.667C229.861 136.714 229.869 136.762 229.884 136.807L230.387 138.317C230.45 138.505 230.618 138.639 230.816 138.657L236.224 139.152C236.517 139.179 236.77 138.948 236.77 138.654V138.105C236.77 137.873 236.609 137.671 236.382 137.618Z" fill="#FFC589"/>
<path d="M236.13 139.565L230.407 138.709C230.12 138.666 229.861 138.888 229.861 139.179C229.861 139.23 229.869 139.281 229.885 139.33L230.372 140.789C230.442 141 230.643 141.139 230.865 141.13L236.076 140.928C236.344 140.917 236.556 140.697 236.556 140.428V140.059C236.556 139.812 236.375 139.601 236.13 139.565Z" fill="#FFC589"/>
<path d="M236.071 141.322L230.375 141.159C230.094 141.151 229.861 141.377 229.861 141.659V141.693C229.861 141.747 229.87 141.8 229.887 141.851L230.355 143.255C230.433 143.489 230.67 143.631 230.914 143.589L236.141 142.688C236.381 142.646 236.556 142.438 236.556 142.195V141.822C236.556 141.551 236.341 141.33 236.071 141.322Z" fill="#FFC589"/>
<circle cx="294.062" cy="109.673" r="2.51771" fill="white"/>
<path d="M294.063 109.673C282.454 195.115 259.444 228.006 240.561 146.18" stroke="white"/>
<path d="M238.673 144.874L241.556 144.874L242.012 148.623L239.932 148.698L238.673 144.874Z" fill="#F4F4F4"/>
<defs>
<linearGradient id="paint0_linear" x1="268.323" y1="203.458" x2="268.323" y2="307.025" gradientUnits="userSpaceOnUse">
<stop stop-color="#FF7799"/>
<stop offset="1" stop-color="#FF8CA9"/>
</linearGradient>
<linearGradient id="paint1_linear" x1="304.763" y1="204.717" x2="304.763" y2="292.207" gradientUnits="userSpaceOnUse">
<stop stop-color="#FF86A3"/>
<stop offset="1" stop-color="#FFA8BD"/>
</linearGradient>
</defs>
</svg>
